%TF.GenerationSoftware,KiCad,Pcbnew,5.1.10-88a1d61d58~90~ubuntu20.04.1*%
%TF.CreationDate,2022-08-25T22:47:22+02:00*%
%TF.ProjectId,BioAmp-EXG-Pill,42696f41-6d70-42d4-9558-472d50696c6c,1.0b*%
%TF.SameCoordinates,Original*%
%TF.FileFunction,Copper,L2,Bot*%
%TF.FilePolarity,Positive*%
%FSLAX46Y46*%
G04 Gerber Fmt 4.6, Leading zero omitted, Abs format (unit mm)*
G04 Created by KiCad (PCBNEW 5.1.10-88a1d61d58~90~ubuntu20.04.1) date 2022-08-25 22:47:22*
%MOMM*%
%LPD*%
G01*
G04 APERTURE LIST*
%TA.AperFunction,ComponentPad*%
%ADD10O,2.000000X2.000000*%
%TD*%
%TA.AperFunction,SMDPad,CuDef*%
%ADD11R,1.500000X1.000000*%
%TD*%
%TA.AperFunction,SMDPad,CuDef*%
%ADD12C,0.100000*%
%TD*%
%TA.AperFunction,ComponentPad*%
%ADD13O,4.500000X2.000000*%
%TD*%
%TA.AperFunction,ComponentPad*%
%ADD14O,3.500000X1.700000*%
%TD*%
%TA.AperFunction,ComponentPad*%
%ADD15O,3.500000X2.000000*%
%TD*%
%TA.AperFunction,ComponentPad*%
%ADD16O,2.000000X1.700000*%
%TD*%
%TA.AperFunction,ViaPad*%
%ADD17C,0.500000*%
%TD*%
%TA.AperFunction,Conductor*%
%ADD18C,0.250000*%
%TD*%
%TA.AperFunction,Conductor*%
%ADD19C,0.230000*%
%TD*%
%TA.AperFunction,Conductor*%
%ADD20C,0.100000*%
%TD*%
G04 APERTURE END LIST*
D10*
%TO.P,J2,3*%
%TO.N,IN-*%
X134850000Y-97010000D03*
%TO.P,J2,2*%
%TO.N,IN+*%
X134850000Y-94470000D03*
%TO.P,J2,1*%
%TO.N,DRL*%
X134850000Y-91930000D03*
%TD*%
D11*
%TO.P,JP1,2*%
%TO.N,DRL*%
X128300000Y-95150000D03*
%TA.AperFunction,SMDPad,CuDef*%
D12*
%TO.P,JP1,3*%
%TO.N,Net-(JP1-Pad3)*%
G36*
X127550602Y-93850000D02*
G01*
X127550602Y-93825466D01*
X127555412Y-93776635D01*
X127564984Y-93728510D01*
X127579228Y-93681555D01*
X127598005Y-93636222D01*
X127621136Y-93592949D01*
X127648396Y-93552150D01*
X127679524Y-93514221D01*
X127714221Y-93479524D01*
X127752150Y-93448396D01*
X127792949Y-93421136D01*
X127836222Y-93398005D01*
X127881555Y-93379228D01*
X127928510Y-93364984D01*
X127976635Y-93355412D01*
X128025466Y-93350602D01*
X128050000Y-93350602D01*
X128050000Y-93350000D01*
X128550000Y-93350000D01*
X128550000Y-93350602D01*
X128574534Y-93350602D01*
X128623365Y-93355412D01*
X128671490Y-93364984D01*
X128718445Y-93379228D01*
X128763778Y-93398005D01*
X128807051Y-93421136D01*
X128847850Y-93448396D01*
X128885779Y-93479524D01*
X128920476Y-93514221D01*
X128951604Y-93552150D01*
X128978864Y-93592949D01*
X129001995Y-93636222D01*
X129020772Y-93681555D01*
X129035016Y-93728510D01*
X129044588Y-93776635D01*
X129049398Y-93825466D01*
X129049398Y-93850000D01*
X129050000Y-93850000D01*
X129050000Y-94400000D01*
X127550000Y-94400000D01*
X127550000Y-93850000D01*
X127550602Y-93850000D01*
G37*
%TD.AperFunction*%
%TA.AperFunction,SMDPad,CuDef*%
%TO.P,JP1,1*%
%TO.N,Net-(JP1-Pad1)*%
G36*
X129050000Y-95900000D02*
G01*
X129050000Y-96450000D01*
X129049398Y-96450000D01*
X129049398Y-96474534D01*
X129044588Y-96523365D01*
X129035016Y-96571490D01*
X129020772Y-96618445D01*
X129001995Y-96663778D01*
X128978864Y-96707051D01*
X128951604Y-96747850D01*
X128920476Y-96785779D01*
X128885779Y-96820476D01*
X128847850Y-96851604D01*
X128807051Y-96878864D01*
X128763778Y-96901995D01*
X128718445Y-96920772D01*
X128671490Y-96935016D01*
X128623365Y-96944588D01*
X128574534Y-96949398D01*
X128550000Y-96949398D01*
X128550000Y-96950000D01*
X128050000Y-96950000D01*
X128050000Y-96949398D01*
X128025466Y-96949398D01*
X127976635Y-96944588D01*
X127928510Y-96935016D01*
X127881555Y-96920772D01*
X127836222Y-96901995D01*
X127792949Y-96878864D01*
X127752150Y-96851604D01*
X127714221Y-96820476D01*
X127679524Y-96785779D01*
X127648396Y-96747850D01*
X127621136Y-96707051D01*
X127598005Y-96663778D01*
X127579228Y-96618445D01*
X127564984Y-96571490D01*
X127555412Y-96523365D01*
X127550602Y-96474534D01*
X127550602Y-96450000D01*
X127550000Y-96450000D01*
X127550000Y-95900000D01*
X129050000Y-95900000D01*
G37*
%TD.AperFunction*%
%TD*%
%TA.AperFunction,SMDPad,CuDef*%
%TO.P,JP2,2*%
%TO.N,OUT*%
G36*
X118000000Y-96100602D02*
G01*
X118024534Y-96100602D01*
X118073365Y-96105412D01*
X118121490Y-96114984D01*
X118168445Y-96129228D01*
X118213778Y-96148005D01*
X118257051Y-96171136D01*
X118297850Y-96198396D01*
X118335779Y-96229524D01*
X118370476Y-96264221D01*
X118401604Y-96302150D01*
X118428864Y-96342949D01*
X118451995Y-96386222D01*
X118470772Y-96431555D01*
X118485016Y-96478510D01*
X118494588Y-96526635D01*
X118499398Y-96575466D01*
X118499398Y-96600000D01*
X118500000Y-96600000D01*
X118500000Y-97100000D01*
X118499398Y-97100000D01*
X118499398Y-97124534D01*
X118494588Y-97173365D01*
X118485016Y-97221490D01*
X118470772Y-97268445D01*
X118451995Y-97313778D01*
X118428864Y-97357051D01*
X118401604Y-97397850D01*
X118370476Y-97435779D01*
X118335779Y-97470476D01*
X118297850Y-97501604D01*
X118257051Y-97528864D01*
X118213778Y-97551995D01*
X118168445Y-97570772D01*
X118121490Y-97585016D01*
X118073365Y-97594588D01*
X118024534Y-97599398D01*
X118000000Y-97599398D01*
X118000000Y-97600000D01*
X117500000Y-97600000D01*
X117500000Y-96100000D01*
X118000000Y-96100000D01*
X118000000Y-96100602D01*
G37*
%TD.AperFunction*%
%TA.AperFunction,SMDPad,CuDef*%
%TO.P,JP2,1*%
%TO.N,Net-(C2-Pad1)*%
G36*
X117200000Y-97600000D02*
G01*
X116700000Y-97600000D01*
X116700000Y-97599398D01*
X116675466Y-97599398D01*
X116626635Y-97594588D01*
X116578510Y-97585016D01*
X116531555Y-97570772D01*
X116486222Y-97551995D01*
X116442949Y-97528864D01*
X116402150Y-97501604D01*
X116364221Y-97470476D01*
X116329524Y-97435779D01*
X116298396Y-97397850D01*
X116271136Y-97357051D01*
X116248005Y-97313778D01*
X116229228Y-97268445D01*
X116214984Y-97221490D01*
X116205412Y-97173365D01*
X116200602Y-97124534D01*
X116200602Y-97100000D01*
X116200000Y-97100000D01*
X116200000Y-96600000D01*
X116200602Y-96600000D01*
X116200602Y-96575466D01*
X116205412Y-96526635D01*
X116214984Y-96478510D01*
X116229228Y-96431555D01*
X116248005Y-96386222D01*
X116271136Y-96342949D01*
X116298396Y-96302150D01*
X116329524Y-96264221D01*
X116364221Y-96229524D01*
X116402150Y-96198396D01*
X116442949Y-96171136D01*
X116486222Y-96148005D01*
X116531555Y-96129228D01*
X116578510Y-96114984D01*
X116626635Y-96105412D01*
X116675466Y-96100602D01*
X116700000Y-96100602D01*
X116700000Y-96100000D01*
X117200000Y-96100000D01*
X117200000Y-97600000D01*
G37*
%TD.AperFunction*%
%TD*%
%TO.P,R3,2*%
%TO.N,bpfIN*%
%TA.AperFunction,SMDPad,CuDef*%
G36*
G01*
X117812500Y-92857500D02*
X118287500Y-92857500D01*
G75*
G02*
X118525000Y-93095000I0J-237500D01*
G01*
X118525000Y-93595000D01*
G75*
G02*
X118287500Y-93832500I-237500J0D01*
G01*
X117812500Y-93832500D01*
G75*
G02*
X117575000Y-93595000I0J237500D01*
G01*
X117575000Y-93095000D01*
G75*
G02*
X117812500Y-92857500I237500J0D01*
G01*
G37*
%TD.AperFunction*%
%TO.P,R3,1*%
%TO.N,OUT*%
%TA.AperFunction,SMDPad,CuDef*%
G36*
G01*
X117812500Y-91032500D02*
X118287500Y-91032500D01*
G75*
G02*
X118525000Y-91270000I0J-237500D01*
G01*
X118525000Y-91770000D01*
G75*
G02*
X118287500Y-92007500I-237500J0D01*
G01*
X117812500Y-92007500D01*
G75*
G02*
X117575000Y-91770000I0J237500D01*
G01*
X117575000Y-91270000D01*
G75*
G02*
X117812500Y-91032500I237500J0D01*
G01*
G37*
%TD.AperFunction*%
%TD*%
%TO.P,C8,2*%
%TO.N,bpfIN*%
%TA.AperFunction,SMDPad,CuDef*%
G36*
G01*
X116302500Y-92765000D02*
X116777500Y-92765000D01*
G75*
G02*
X117015000Y-93002500I0J-237500D01*
G01*
X117015000Y-93602500D01*
G75*
G02*
X116777500Y-93840000I-237500J0D01*
G01*
X116302500Y-93840000D01*
G75*
G02*
X116065000Y-93602500I0J237500D01*
G01*
X116065000Y-93002500D01*
G75*
G02*
X116302500Y-92765000I237500J0D01*
G01*
G37*
%TD.AperFunction*%
%TO.P,C8,1*%
%TO.N,OUT*%
%TA.AperFunction,SMDPad,CuDef*%
G36*
G01*
X116302500Y-91040000D02*
X116777500Y-91040000D01*
G75*
G02*
X117015000Y-91277500I0J-237500D01*
G01*
X117015000Y-91877500D01*
G75*
G02*
X116777500Y-92115000I-237500J0D01*
G01*
X116302500Y-92115000D01*
G75*
G02*
X116065000Y-91877500I0J237500D01*
G01*
X116065000Y-91277500D01*
G75*
G02*
X116302500Y-91040000I237500J0D01*
G01*
G37*
%TD.AperFunction*%
%TD*%
D13*
%TO.P,J2,3*%
%TO.N,IN-*%
X133952300Y-97010000D03*
%TO.P,J2,2*%
%TO.N,IN+*%
X133952300Y-94470000D03*
%TO.P,J2,1*%
%TO.N,DRL*%
X133952300Y-91930000D03*
%TD*%
%TO.P,R1,2*%
%TO.N,Net-(R1-Pad2)*%
%TA.AperFunction,SMDPad,CuDef*%
G36*
G01*
X127591000Y-91462500D02*
X127591000Y-91937500D01*
G75*
G02*
X127353500Y-92175000I-237500J0D01*
G01*
X126853500Y-92175000D01*
G75*
G02*
X126616000Y-91937500I0J237500D01*
G01*
X126616000Y-91462500D01*
G75*
G02*
X126853500Y-91225000I237500J0D01*
G01*
X127353500Y-91225000D01*
G75*
G02*
X127591000Y-91462500I0J-237500D01*
G01*
G37*
%TD.AperFunction*%
%TO.P,R1,1*%
%TO.N,Net-(R1-Pad1)*%
%TA.AperFunction,SMDPad,CuDef*%
G36*
G01*
X129416000Y-91462500D02*
X129416000Y-91937500D01*
G75*
G02*
X129178500Y-92175000I-237500J0D01*
G01*
X128678500Y-92175000D01*
G75*
G02*
X128441000Y-91937500I0J237500D01*
G01*
X128441000Y-91462500D01*
G75*
G02*
X128678500Y-91225000I237500J0D01*
G01*
X129178500Y-91225000D01*
G75*
G02*
X129416000Y-91462500I0J-237500D01*
G01*
G37*
%TD.AperFunction*%
%TD*%
D14*
%TO.P,J1,3*%
%TO.N,VCC*%
X111659100Y-97015300D03*
%TO.P,J1,2*%
%TO.N,GND*%
X111659100Y-94475300D03*
%TO.P,J1,1*%
%TO.N,OUT*%
X111659100Y-91935300D03*
%TD*%
D15*
%TO.P,J2,1*%
%TO.N,DRL*%
X135630000Y-91930000D03*
%TO.P,J2,2*%
%TO.N,IN+*%
X135630000Y-94470000D03*
%TO.P,J2,3*%
%TO.N,IN-*%
X135630000Y-97010000D03*
%TD*%
D16*
%TO.P,J1,1*%
%TO.N,OUT*%
X112382800Y-91940000D03*
%TO.P,J1,2*%
%TO.N,GND*%
X112382800Y-94480000D03*
%TO.P,J1,3*%
%TO.N,VCC*%
X112382800Y-97020000D03*
%TD*%
D17*
%TO.N,VCC*%
X118300000Y-95650000D03*
X123700000Y-96650000D03*
X124550000Y-94150000D03*
X114000000Y-93200000D03*
X115300000Y-92700000D03*
%TO.N,GND*%
X122343575Y-94601886D03*
X131950000Y-90450000D03*
X132700000Y-90450000D03*
X133450000Y-90450000D03*
X134200000Y-90450000D03*
X134950000Y-90450000D03*
X135700000Y-90450000D03*
X132300000Y-90000000D03*
X135300000Y-90000000D03*
X134550000Y-90000000D03*
X131550000Y-90000000D03*
X133050000Y-90000000D03*
X133800000Y-90000000D03*
X135250000Y-98920000D03*
X133000000Y-98920000D03*
X132650000Y-98470000D03*
X135650000Y-98470000D03*
X132250000Y-98920000D03*
X134900000Y-98470000D03*
X131500000Y-98920000D03*
X131900000Y-98470000D03*
X133400000Y-98470000D03*
X134500000Y-98920000D03*
X134150000Y-98470000D03*
X133750000Y-98920000D03*
%TO.N,OUT*%
X118700000Y-91850000D03*
%TO.N,Net-(R1-Pad1)*%
X125550000Y-93350000D03*
X129700000Y-97600000D03*
%TO.N,DRL*%
X122450000Y-97225000D03*
%TO.N,IN+*%
X129500000Y-93100000D03*
%TO.N,IN-*%
X129550000Y-94500000D03*
%TO.N,Net-(C2-Pad1)*%
X115723121Y-94630330D03*
%TO.N,Net-(C6-Pad2)*%
X130980000Y-90900000D03*
X122920000Y-91720000D03*
%TO.N,Net-(C7-Pad1)*%
X122250000Y-95300000D03*
X115750000Y-95950000D03*
%TO.N,Net-(R1-Pad2)*%
X125550000Y-96200000D03*
X129750000Y-96700000D03*
X119520000Y-95240000D03*
X122970000Y-93070000D03*
%TO.N,Net-(JP1-Pad3)*%
X130920000Y-93620000D03*
%TO.N,Net-(JP1-Pad1)*%
X129550000Y-95900000D03*
%TO.N,bpfIN*%
X117500000Y-93550000D03*
%TD*%
D18*
%TO.N,VCC*%
X116104490Y-94200000D02*
X117450000Y-94200000D01*
X118300000Y-95050000D02*
X118300000Y-95650000D01*
X117450000Y-94200000D02*
X118300000Y-95050000D01*
X118524728Y-98375020D02*
X116175271Y-98375019D01*
X116175271Y-98375019D02*
X115148120Y-97347868D01*
X119275019Y-97624729D02*
X118524728Y-98375020D01*
X119275020Y-96974980D02*
X119275019Y-97624729D01*
X119600000Y-96650000D02*
X119275020Y-96974980D01*
X124550000Y-94850000D02*
X122750000Y-96650000D01*
X124550000Y-94150000D02*
X124550000Y-94850000D01*
X122750000Y-96650000D02*
X119600000Y-96650000D01*
X123700000Y-96650000D02*
X122750000Y-96650000D01*
X114550000Y-96500000D02*
X114550000Y-93750000D01*
X114550000Y-93750000D02*
X114000000Y-93200000D01*
X114030000Y-97020000D02*
X114550000Y-96500000D01*
X112382800Y-97020000D02*
X114030000Y-97020000D01*
X114595510Y-93795510D02*
X114000000Y-93200000D01*
X115700000Y-93795510D02*
X114595510Y-93795510D01*
X115148120Y-94348120D02*
X114595510Y-93795510D01*
X115148120Y-97347868D02*
X115148120Y-94348120D01*
X115300000Y-93395510D02*
X115902245Y-93997755D01*
X115300000Y-92700000D02*
X115300000Y-93395510D01*
X115902245Y-93997755D02*
X116104490Y-94200000D01*
X115700000Y-93795510D02*
X115902245Y-93997755D01*
X114500000Y-92700000D02*
X114000000Y-93200000D01*
X115300000Y-92700000D02*
X114500000Y-92700000D01*
X113737819Y-98375019D02*
X112382800Y-97020000D01*
X116175271Y-98375019D02*
X113737819Y-98375019D01*
%TO.N,OUT*%
X117992500Y-91577500D02*
X118050000Y-91520000D01*
X116540000Y-91577500D02*
X117992500Y-91577500D01*
X118000000Y-96850000D02*
X118875001Y-95974999D01*
X118050000Y-91520000D02*
X118380000Y-91520000D01*
X118875001Y-92025001D02*
X118700000Y-91850000D01*
X118875001Y-95974999D02*
X118875001Y-92025001D01*
X118380000Y-91850000D02*
X118050000Y-91520000D01*
X118700000Y-91850000D02*
X118380000Y-91850000D01*
%TO.N,Net-(R1-Pad1)*%
X126300000Y-92179510D02*
X126290990Y-92170500D01*
X125550000Y-93350000D02*
X126300000Y-92600000D01*
X126290990Y-91229500D02*
X126620500Y-90899990D01*
X126290990Y-92170500D02*
X126290990Y-91229500D01*
X128128490Y-90899990D02*
X128928500Y-91700000D01*
X126300000Y-92600000D02*
X126300000Y-92179510D01*
X126620500Y-90899990D02*
X128128490Y-90899990D01*
X125550000Y-95000000D02*
X125550000Y-93350000D01*
X124974999Y-95575001D02*
X125550000Y-95000000D01*
X124974999Y-96476001D02*
X124974999Y-95575001D01*
X127138609Y-97775019D02*
X126163590Y-96800000D01*
X126163590Y-96800000D02*
X125298998Y-96800000D01*
X125298998Y-96800000D02*
X124974999Y-96476001D01*
X129524981Y-97775019D02*
X129700000Y-97600000D01*
X127138609Y-97775019D02*
X129524981Y-97775019D01*
%TO.N,DRL*%
X128300000Y-95150000D02*
X129900000Y-95150000D01*
X129900000Y-95150000D02*
X130600000Y-95850000D01*
X123450029Y-98225029D02*
X122450000Y-97225000D01*
X129925973Y-98225029D02*
X123450029Y-98225029D01*
X130600000Y-97551002D02*
X129925973Y-98225029D01*
X130600000Y-95850000D02*
X130600000Y-97551002D01*
X130832588Y-91930000D02*
X132702300Y-91930000D01*
X130262588Y-92500000D02*
X130832588Y-91930000D01*
X128236662Y-92500000D02*
X130262588Y-92500000D01*
X127050000Y-93686662D02*
X128236662Y-92500000D01*
X127050000Y-94900000D02*
X127050000Y-93686662D01*
X127300000Y-95150000D02*
X127050000Y-94900000D01*
X128300000Y-95150000D02*
X127300000Y-95150000D01*
%TO.N,IN+*%
X132702300Y-94301298D02*
X132702300Y-94470000D01*
X132702300Y-94351298D02*
X132702300Y-94470000D01*
X131376001Y-93024999D02*
X132702300Y-94351298D01*
X129575001Y-93024999D02*
X131376001Y-93024999D01*
X129500000Y-93100000D02*
X129575001Y-93024999D01*
%TO.N,IN-*%
X132413553Y-97010000D02*
X132702300Y-97010000D01*
X129903553Y-94500000D02*
X132413553Y-97010000D01*
X129550000Y-94500000D02*
X129903553Y-94500000D01*
%TO.N,Net-(C2-Pad1)*%
X116700000Y-95607209D02*
X115723121Y-94630330D01*
X116700000Y-96850000D02*
X116700000Y-95607209D01*
%TO.N,Net-(C6-Pad2)*%
X124190019Y-90449981D02*
X122920000Y-91720000D01*
X130529981Y-90449981D02*
X124190019Y-90449981D01*
X130980000Y-90900000D02*
X130529981Y-90449981D01*
%TO.N,Net-(C7-Pad1)*%
X122250000Y-95300000D02*
X120300000Y-95300000D01*
X118338328Y-97925010D02*
X116361672Y-97925010D01*
X118825010Y-97438328D02*
X118338328Y-97925010D01*
X118825010Y-96774990D02*
X118825010Y-97438328D01*
X120300000Y-95300000D02*
X118825010Y-96774990D01*
X115874990Y-96074990D02*
X115750000Y-95950000D01*
X116361672Y-97925010D02*
X115874990Y-97438328D01*
X115874990Y-97438328D02*
X115874990Y-96074990D01*
%TO.N,Net-(R1-Pad2)*%
X126243206Y-93350000D02*
X126243206Y-95506794D01*
X126243206Y-95506794D02*
X125550000Y-96200000D01*
X127103500Y-91700000D02*
X127103500Y-92489706D01*
X127103500Y-92489706D02*
X126243206Y-93350000D01*
X127325010Y-97325010D02*
X129088328Y-97325010D01*
X126200000Y-96200000D02*
X127325010Y-97325010D01*
X125550000Y-96200000D02*
X126200000Y-96200000D01*
X129124990Y-97325010D02*
X129750000Y-96700000D01*
X129088328Y-97325010D02*
X129124990Y-97325010D01*
X121690000Y-93070000D02*
X122970000Y-93070000D01*
X119520000Y-95240000D02*
X121690000Y-93070000D01*
%TO.N,Net-(JP1-Pad3)*%
X130615001Y-93924999D02*
X128374999Y-93924999D01*
X128374999Y-93924999D02*
X128300000Y-93850000D01*
X130920000Y-93620000D02*
X130615001Y-93924999D01*
%TO.N,Net-(JP1-Pad1)*%
X129000000Y-96450000D02*
X129550000Y-95900000D01*
X128300000Y-96450000D02*
X129000000Y-96450000D01*
%TO.N,bpfIN*%
X118007500Y-93302500D02*
X118050000Y-93345000D01*
X116540000Y-93302500D02*
X118007500Y-93302500D01*
X117705000Y-93345000D02*
X117500000Y-93550000D01*
X118050000Y-93345000D02*
X117705000Y-93345000D01*
%TD*%
D19*
%TO.N,GND*%
X131413311Y-96660296D02*
X131386617Y-96748294D01*
X131360841Y-97010000D01*
X131386617Y-97271706D01*
X131462953Y-97523354D01*
X131586918Y-97755275D01*
X131753745Y-97958555D01*
X131957025Y-98125382D01*
X132188946Y-98249347D01*
X132440594Y-98325683D01*
X132636721Y-98345000D01*
X135980001Y-98345000D01*
X135980001Y-98442381D01*
X135966118Y-98583975D01*
X135930113Y-98703227D01*
X135871633Y-98813213D01*
X135792898Y-98909752D01*
X135696920Y-98989152D01*
X135587341Y-99048401D01*
X135468345Y-99085236D01*
X135327883Y-99100000D01*
X111957609Y-99100000D01*
X111816025Y-99086118D01*
X111696773Y-99050113D01*
X111586787Y-98991633D01*
X111490248Y-98912898D01*
X111410848Y-98816920D01*
X111351599Y-98707341D01*
X111314764Y-98588345D01*
X111300000Y-98447883D01*
X111300000Y-98200300D01*
X112126874Y-98200300D01*
X112174593Y-98205000D01*
X112591007Y-98205000D01*
X112765100Y-98187853D01*
X112775398Y-98184729D01*
X112791400Y-98183153D01*
X112871207Y-98158944D01*
X113396578Y-98684316D01*
X113410977Y-98701861D01*
X113428521Y-98716259D01*
X113428523Y-98716261D01*
X113448714Y-98732831D01*
X113481021Y-98759345D01*
X113560933Y-98802059D01*
X113647643Y-98828362D01*
X113715229Y-98835019D01*
X113715238Y-98835019D01*
X113737818Y-98837243D01*
X113760398Y-98835019D01*
X116152689Y-98835019D01*
X116175271Y-98837243D01*
X116197853Y-98835019D01*
X116197861Y-98835019D01*
X116197871Y-98835018D01*
X118502146Y-98835020D01*
X118524728Y-98837244D01*
X118547310Y-98835020D01*
X118547317Y-98835020D01*
X118614903Y-98828363D01*
X118701613Y-98802060D01*
X118781525Y-98759346D01*
X118851569Y-98701862D01*
X118865967Y-98684318D01*
X119584321Y-97965965D01*
X119601860Y-97951571D01*
X119616254Y-97934032D01*
X119616261Y-97934025D01*
X119659345Y-97881527D01*
X119702059Y-97801615D01*
X119728362Y-97714905D01*
X119737243Y-97624729D01*
X119735018Y-97602138D01*
X119735019Y-97165518D01*
X119790538Y-97110000D01*
X121876414Y-97110000D01*
X121865000Y-97167382D01*
X121865000Y-97282618D01*
X121887481Y-97395638D01*
X121931579Y-97502102D01*
X121995600Y-97597916D01*
X122077084Y-97679400D01*
X122172898Y-97743421D01*
X122279362Y-97787519D01*
X122382496Y-97808034D01*
X123108788Y-98534326D01*
X123123187Y-98551871D01*
X123193231Y-98609355D01*
X123273143Y-98652069D01*
X123359853Y-98678372D01*
X123427439Y-98685029D01*
X123427447Y-98685029D01*
X123450029Y-98687253D01*
X123472611Y-98685029D01*
X129903391Y-98685029D01*
X129925973Y-98687253D01*
X129948555Y-98685029D01*
X129948563Y-98685029D01*
X130016149Y-98678372D01*
X130102859Y-98652069D01*
X130182771Y-98609355D01*
X130252815Y-98551871D01*
X130267218Y-98534321D01*
X130909297Y-97892243D01*
X130926842Y-97877844D01*
X130984326Y-97807800D01*
X131027040Y-97727888D01*
X131036978Y-97695126D01*
X131053343Y-97641179D01*
X131056984Y-97604214D01*
X131060000Y-97573592D01*
X131060000Y-97573585D01*
X131062224Y-97551003D01*
X131060000Y-97528421D01*
X131060000Y-96306985D01*
X131413311Y-96660296D01*
%TA.AperFunction,Conductor*%
D20*
G36*
X131413311Y-96660296D02*
G01*
X131386617Y-96748294D01*
X131360841Y-97010000D01*
X131386617Y-97271706D01*
X131462953Y-97523354D01*
X131586918Y-97755275D01*
X131753745Y-97958555D01*
X131957025Y-98125382D01*
X132188946Y-98249347D01*
X132440594Y-98325683D01*
X132636721Y-98345000D01*
X135980001Y-98345000D01*
X135980001Y-98442381D01*
X135966118Y-98583975D01*
X135930113Y-98703227D01*
X135871633Y-98813213D01*
X135792898Y-98909752D01*
X135696920Y-98989152D01*
X135587341Y-99048401D01*
X135468345Y-99085236D01*
X135327883Y-99100000D01*
X111957609Y-99100000D01*
X111816025Y-99086118D01*
X111696773Y-99050113D01*
X111586787Y-98991633D01*
X111490248Y-98912898D01*
X111410848Y-98816920D01*
X111351599Y-98707341D01*
X111314764Y-98588345D01*
X111300000Y-98447883D01*
X111300000Y-98200300D01*
X112126874Y-98200300D01*
X112174593Y-98205000D01*
X112591007Y-98205000D01*
X112765100Y-98187853D01*
X112775398Y-98184729D01*
X112791400Y-98183153D01*
X112871207Y-98158944D01*
X113396578Y-98684316D01*
X113410977Y-98701861D01*
X113428521Y-98716259D01*
X113428523Y-98716261D01*
X113448714Y-98732831D01*
X113481021Y-98759345D01*
X113560933Y-98802059D01*
X113647643Y-98828362D01*
X113715229Y-98835019D01*
X113715238Y-98835019D01*
X113737818Y-98837243D01*
X113760398Y-98835019D01*
X116152689Y-98835019D01*
X116175271Y-98837243D01*
X116197853Y-98835019D01*
X116197861Y-98835019D01*
X116197871Y-98835018D01*
X118502146Y-98835020D01*
X118524728Y-98837244D01*
X118547310Y-98835020D01*
X118547317Y-98835020D01*
X118614903Y-98828363D01*
X118701613Y-98802060D01*
X118781525Y-98759346D01*
X118851569Y-98701862D01*
X118865967Y-98684318D01*
X119584321Y-97965965D01*
X119601860Y-97951571D01*
X119616254Y-97934032D01*
X119616261Y-97934025D01*
X119659345Y-97881527D01*
X119702059Y-97801615D01*
X119728362Y-97714905D01*
X119737243Y-97624729D01*
X119735018Y-97602138D01*
X119735019Y-97165518D01*
X119790538Y-97110000D01*
X121876414Y-97110000D01*
X121865000Y-97167382D01*
X121865000Y-97282618D01*
X121887481Y-97395638D01*
X121931579Y-97502102D01*
X121995600Y-97597916D01*
X122077084Y-97679400D01*
X122172898Y-97743421D01*
X122279362Y-97787519D01*
X122382496Y-97808034D01*
X123108788Y-98534326D01*
X123123187Y-98551871D01*
X123193231Y-98609355D01*
X123273143Y-98652069D01*
X123359853Y-98678372D01*
X123427439Y-98685029D01*
X123427447Y-98685029D01*
X123450029Y-98687253D01*
X123472611Y-98685029D01*
X129903391Y-98685029D01*
X129925973Y-98687253D01*
X129948555Y-98685029D01*
X129948563Y-98685029D01*
X130016149Y-98678372D01*
X130102859Y-98652069D01*
X130182771Y-98609355D01*
X130252815Y-98551871D01*
X130267218Y-98534321D01*
X130909297Y-97892243D01*
X130926842Y-97877844D01*
X130984326Y-97807800D01*
X131027040Y-97727888D01*
X131036978Y-97695126D01*
X131053343Y-97641179D01*
X131056984Y-97604214D01*
X131060000Y-97573592D01*
X131060000Y-97573585D01*
X131062224Y-97551003D01*
X131060000Y-97528421D01*
X131060000Y-96306985D01*
X131413311Y-96660296D01*
G37*
%TD.AperFunction*%
D19*
X135463976Y-89833883D02*
X135583229Y-89869887D01*
X135693213Y-89928366D01*
X135789751Y-90007101D01*
X135869154Y-90103083D01*
X135928401Y-90212660D01*
X135965236Y-90331654D01*
X135980000Y-90472117D01*
X135980000Y-90595000D01*
X132636721Y-90595000D01*
X132440594Y-90614317D01*
X132188946Y-90690653D01*
X131957025Y-90814618D01*
X131753745Y-90981445D01*
X131586918Y-91184725D01*
X131462953Y-91416646D01*
X131446768Y-91470000D01*
X131113028Y-91470000D01*
X131150638Y-91462519D01*
X131257102Y-91418421D01*
X131352916Y-91354400D01*
X131434400Y-91272916D01*
X131498421Y-91177102D01*
X131542519Y-91070638D01*
X131565000Y-90957618D01*
X131565000Y-90842382D01*
X131542519Y-90729362D01*
X131498421Y-90622898D01*
X131434400Y-90527084D01*
X131352916Y-90445600D01*
X131257102Y-90381579D01*
X131150638Y-90337481D01*
X131047504Y-90316966D01*
X130871226Y-90140689D01*
X130856823Y-90123139D01*
X130786779Y-90065655D01*
X130706867Y-90022941D01*
X130620157Y-89996638D01*
X130552571Y-89989981D01*
X130552563Y-89989981D01*
X130529981Y-89987757D01*
X130507399Y-89989981D01*
X124212600Y-89989981D01*
X124190018Y-89987757D01*
X124167436Y-89989981D01*
X124167429Y-89989981D01*
X124099843Y-89996638D01*
X124013133Y-90022941D01*
X123933221Y-90065655D01*
X123906363Y-90087697D01*
X123880759Y-90108710D01*
X123863177Y-90123139D01*
X123848778Y-90140684D01*
X122852496Y-91136966D01*
X122749362Y-91157481D01*
X122642898Y-91201579D01*
X122547084Y-91265600D01*
X122465600Y-91347084D01*
X122401579Y-91442898D01*
X122357481Y-91549362D01*
X122335000Y-91662382D01*
X122335000Y-91777618D01*
X122357481Y-91890638D01*
X122401579Y-91997102D01*
X122465600Y-92092916D01*
X122547084Y-92174400D01*
X122642898Y-92238421D01*
X122749362Y-92282519D01*
X122862382Y-92305000D01*
X122977618Y-92305000D01*
X123090638Y-92282519D01*
X123197102Y-92238421D01*
X123292916Y-92174400D01*
X123374400Y-92092916D01*
X123438421Y-91997102D01*
X123482519Y-91890638D01*
X123503034Y-91787504D01*
X124380557Y-90909981D01*
X125958139Y-90909981D01*
X125906665Y-90972702D01*
X125883833Y-91015417D01*
X125863950Y-91052615D01*
X125837647Y-91139325D01*
X125828766Y-91229500D01*
X125830991Y-91252092D01*
X125830990Y-92147918D01*
X125828766Y-92170500D01*
X125830990Y-92193082D01*
X125830990Y-92193089D01*
X125837647Y-92260675D01*
X125840000Y-92268432D01*
X125840000Y-92409462D01*
X125482496Y-92766966D01*
X125379362Y-92787481D01*
X125272898Y-92831579D01*
X125177084Y-92895600D01*
X125095600Y-92977084D01*
X125031579Y-93072898D01*
X124987481Y-93179362D01*
X124965000Y-93292382D01*
X124965000Y-93407618D01*
X124987481Y-93520638D01*
X125031579Y-93627102D01*
X125090001Y-93714536D01*
X125090001Y-93924997D01*
X125068421Y-93872898D01*
X125004400Y-93777084D01*
X124922916Y-93695600D01*
X124827102Y-93631579D01*
X124720638Y-93587481D01*
X124607618Y-93565000D01*
X124492382Y-93565000D01*
X124379362Y-93587481D01*
X124272898Y-93631579D01*
X124177084Y-93695600D01*
X124095600Y-93777084D01*
X124031579Y-93872898D01*
X123987481Y-93979362D01*
X123965000Y-94092382D01*
X123965000Y-94207618D01*
X123987481Y-94320638D01*
X124031579Y-94427102D01*
X124090001Y-94514536D01*
X124090001Y-94659461D01*
X122559463Y-96190000D01*
X120060538Y-96190000D01*
X120490538Y-95760000D01*
X121885465Y-95760000D01*
X121972898Y-95818421D01*
X122079362Y-95862519D01*
X122192382Y-95885000D01*
X122307618Y-95885000D01*
X122420638Y-95862519D01*
X122527102Y-95818421D01*
X122622916Y-95754400D01*
X122704400Y-95672916D01*
X122768421Y-95577102D01*
X122812519Y-95470638D01*
X122835000Y-95357618D01*
X122835000Y-95242382D01*
X122812519Y-95129362D01*
X122768421Y-95022898D01*
X122704400Y-94927084D01*
X122622916Y-94845600D01*
X122527102Y-94781579D01*
X122420638Y-94737481D01*
X122307618Y-94715000D01*
X122192382Y-94715000D01*
X122079362Y-94737481D01*
X121972898Y-94781579D01*
X121885465Y-94840000D01*
X120570537Y-94840000D01*
X121880538Y-93530000D01*
X122605465Y-93530000D01*
X122692898Y-93588421D01*
X122799362Y-93632519D01*
X122912382Y-93655000D01*
X123027618Y-93655000D01*
X123140638Y-93632519D01*
X123247102Y-93588421D01*
X123342916Y-93524400D01*
X123424400Y-93442916D01*
X123488421Y-93347102D01*
X123532519Y-93240638D01*
X123555000Y-93127618D01*
X123555000Y-93012382D01*
X123532519Y-92899362D01*
X123488421Y-92792898D01*
X123424400Y-92697084D01*
X123342916Y-92615600D01*
X123247102Y-92551579D01*
X123140638Y-92507481D01*
X123027618Y-92485000D01*
X122912382Y-92485000D01*
X122799362Y-92507481D01*
X122692898Y-92551579D01*
X122605465Y-92610000D01*
X121712579Y-92610000D01*
X121689999Y-92607776D01*
X121667419Y-92610000D01*
X121667410Y-92610000D01*
X121599824Y-92616657D01*
X121513114Y-92642960D01*
X121433202Y-92685674D01*
X121363158Y-92743158D01*
X121348759Y-92760703D01*
X119452497Y-94656966D01*
X119349362Y-94677481D01*
X119335001Y-94683429D01*
X119335001Y-92047583D01*
X119337225Y-92025001D01*
X119335001Y-92002419D01*
X119335001Y-92002411D01*
X119328344Y-91934825D01*
X119302041Y-91848115D01*
X119285000Y-91816234D01*
X119285000Y-91792382D01*
X119262519Y-91679362D01*
X119218421Y-91572898D01*
X119154400Y-91477084D01*
X119072916Y-91395600D01*
X118977102Y-91331579D01*
X118870638Y-91287481D01*
X118861620Y-91285687D01*
X118861620Y-91270000D01*
X118850588Y-91157995D01*
X118817918Y-91050294D01*
X118764863Y-90951036D01*
X118693464Y-90864036D01*
X118606464Y-90792637D01*
X118507206Y-90739582D01*
X118399505Y-90706912D01*
X118287500Y-90695880D01*
X117812500Y-90695880D01*
X117700495Y-90706912D01*
X117592794Y-90739582D01*
X117493536Y-90792637D01*
X117406536Y-90864036D01*
X117335137Y-90951036D01*
X117292996Y-91029876D01*
X117254863Y-90958536D01*
X117183464Y-90871536D01*
X117096464Y-90800137D01*
X116997206Y-90747082D01*
X116889505Y-90714412D01*
X116777500Y-90703380D01*
X116302500Y-90703380D01*
X116190495Y-90714412D01*
X116082794Y-90747082D01*
X115983536Y-90800137D01*
X115896536Y-90871536D01*
X115825137Y-90958536D01*
X115772082Y-91057794D01*
X115739412Y-91165495D01*
X115728380Y-91277500D01*
X115728380Y-91877500D01*
X115739412Y-91989505D01*
X115772082Y-92097206D01*
X115825137Y-92196464D01*
X115896536Y-92283464D01*
X115983536Y-92354863D01*
X116082794Y-92407918D01*
X116188557Y-92440000D01*
X116082794Y-92472082D01*
X115983536Y-92525137D01*
X115896536Y-92596536D01*
X115879910Y-92616794D01*
X115862519Y-92529362D01*
X115818421Y-92422898D01*
X115754400Y-92327084D01*
X115672916Y-92245600D01*
X115577102Y-92181579D01*
X115470638Y-92137481D01*
X115357618Y-92115000D01*
X115242382Y-92115000D01*
X115129362Y-92137481D01*
X115022898Y-92181579D01*
X114935465Y-92240000D01*
X114522582Y-92240000D01*
X114500000Y-92237776D01*
X114477418Y-92240000D01*
X114477410Y-92240000D01*
X114409824Y-92246657D01*
X114323114Y-92272960D01*
X114243202Y-92315674D01*
X114192798Y-92357040D01*
X114173158Y-92373158D01*
X114158759Y-92390703D01*
X113932496Y-92616966D01*
X113829362Y-92637481D01*
X113722898Y-92681579D01*
X113627084Y-92745600D01*
X113545600Y-92827084D01*
X113481579Y-92922898D01*
X113437481Y-93029362D01*
X113415000Y-93142382D01*
X113415000Y-93257618D01*
X113437481Y-93370638D01*
X113481579Y-93477102D01*
X113545600Y-93572916D01*
X113627084Y-93654400D01*
X113722898Y-93718421D01*
X113829362Y-93762519D01*
X113932496Y-93783034D01*
X113972013Y-93822550D01*
X114090001Y-93940539D01*
X114090000Y-96309462D01*
X113839463Y-96560000D01*
X113659307Y-96560000D01*
X113659194Y-96559626D01*
X113549158Y-96353764D01*
X113401075Y-96173325D01*
X113220636Y-96025242D01*
X113014774Y-95915206D01*
X112791400Y-95847447D01*
X112617307Y-95830300D01*
X111300000Y-95830300D01*
X111300000Y-95680300D01*
X111649100Y-95680300D01*
X111649100Y-95527659D01*
X111669100Y-95538563D01*
X111669100Y-95680300D01*
X112178825Y-95680300D01*
X112222800Y-95685000D01*
X112372800Y-95685000D01*
X112372800Y-95680300D01*
X112392800Y-95680300D01*
X112392800Y-95685000D01*
X112542800Y-95685000D01*
X112777692Y-95659895D01*
X112786882Y-95657024D01*
X112803992Y-95655195D01*
X113029473Y-95584748D01*
X113236877Y-95471665D01*
X113418235Y-95320292D01*
X113566577Y-95136447D01*
X113676202Y-94927194D01*
X113742897Y-94700575D01*
X113747660Y-94673674D01*
X113675305Y-94485300D01*
X112352800Y-94485300D01*
X112352800Y-94470000D01*
X112372800Y-94470000D01*
X112372800Y-94465300D01*
X112392800Y-94465300D01*
X112392800Y-94470000D01*
X113649005Y-94470000D01*
X113650810Y-94465300D01*
X113675305Y-94465300D01*
X113747660Y-94276926D01*
X113742897Y-94250025D01*
X113676202Y-94023406D01*
X113566577Y-93814153D01*
X113418235Y-93630308D01*
X113236877Y-93478935D01*
X113029473Y-93365852D01*
X112803992Y-93295405D01*
X112569100Y-93270300D01*
X111669100Y-93270300D01*
X111669100Y-93421437D01*
X111649100Y-93432341D01*
X111649100Y-93270300D01*
X111300000Y-93270300D01*
X111300000Y-93120300D01*
X112126874Y-93120300D01*
X112174593Y-93125000D01*
X112591007Y-93125000D01*
X112765100Y-93107853D01*
X112775398Y-93104729D01*
X112791400Y-93103153D01*
X113014774Y-93035394D01*
X113220636Y-92925358D01*
X113401075Y-92777275D01*
X113549158Y-92596836D01*
X113659194Y-92390974D01*
X113726953Y-92167600D01*
X113749833Y-91935300D01*
X113726953Y-91703000D01*
X113659194Y-91479626D01*
X113549158Y-91273764D01*
X113401075Y-91093325D01*
X113220636Y-90945242D01*
X113014774Y-90835206D01*
X112791400Y-90767447D01*
X112617307Y-90750300D01*
X111300000Y-90750300D01*
X111300000Y-90477609D01*
X111313883Y-90336024D01*
X111349887Y-90216771D01*
X111408366Y-90106787D01*
X111487101Y-90010249D01*
X111583083Y-89930846D01*
X111692660Y-89871599D01*
X111811654Y-89834764D01*
X111952117Y-89820000D01*
X135322391Y-89820000D01*
X135463976Y-89833883D01*
%TA.AperFunction,Conductor*%
D20*
G36*
X135463976Y-89833883D02*
G01*
X135583229Y-89869887D01*
X135693213Y-89928366D01*
X135789751Y-90007101D01*
X135869154Y-90103083D01*
X135928401Y-90212660D01*
X135965236Y-90331654D01*
X135980000Y-90472117D01*
X135980000Y-90595000D01*
X132636721Y-90595000D01*
X132440594Y-90614317D01*
X132188946Y-90690653D01*
X131957025Y-90814618D01*
X131753745Y-90981445D01*
X131586918Y-91184725D01*
X131462953Y-91416646D01*
X131446768Y-91470000D01*
X131113028Y-91470000D01*
X131150638Y-91462519D01*
X131257102Y-91418421D01*
X131352916Y-91354400D01*
X131434400Y-91272916D01*
X131498421Y-91177102D01*
X131542519Y-91070638D01*
X131565000Y-90957618D01*
X131565000Y-90842382D01*
X131542519Y-90729362D01*
X131498421Y-90622898D01*
X131434400Y-90527084D01*
X131352916Y-90445600D01*
X131257102Y-90381579D01*
X131150638Y-90337481D01*
X131047504Y-90316966D01*
X130871226Y-90140689D01*
X130856823Y-90123139D01*
X130786779Y-90065655D01*
X130706867Y-90022941D01*
X130620157Y-89996638D01*
X130552571Y-89989981D01*
X130552563Y-89989981D01*
X130529981Y-89987757D01*
X130507399Y-89989981D01*
X124212600Y-89989981D01*
X124190018Y-89987757D01*
X124167436Y-89989981D01*
X124167429Y-89989981D01*
X124099843Y-89996638D01*
X124013133Y-90022941D01*
X123933221Y-90065655D01*
X123906363Y-90087697D01*
X123880759Y-90108710D01*
X123863177Y-90123139D01*
X123848778Y-90140684D01*
X122852496Y-91136966D01*
X122749362Y-91157481D01*
X122642898Y-91201579D01*
X122547084Y-91265600D01*
X122465600Y-91347084D01*
X122401579Y-91442898D01*
X122357481Y-91549362D01*
X122335000Y-91662382D01*
X122335000Y-91777618D01*
X122357481Y-91890638D01*
X122401579Y-91997102D01*
X122465600Y-92092916D01*
X122547084Y-92174400D01*
X122642898Y-92238421D01*
X122749362Y-92282519D01*
X122862382Y-92305000D01*
X122977618Y-92305000D01*
X123090638Y-92282519D01*
X123197102Y-92238421D01*
X123292916Y-92174400D01*
X123374400Y-92092916D01*
X123438421Y-91997102D01*
X123482519Y-91890638D01*
X123503034Y-91787504D01*
X124380557Y-90909981D01*
X125958139Y-90909981D01*
X125906665Y-90972702D01*
X125883833Y-91015417D01*
X125863950Y-91052615D01*
X125837647Y-91139325D01*
X125828766Y-91229500D01*
X125830991Y-91252092D01*
X125830990Y-92147918D01*
X125828766Y-92170500D01*
X125830990Y-92193082D01*
X125830990Y-92193089D01*
X125837647Y-92260675D01*
X125840000Y-92268432D01*
X125840000Y-92409462D01*
X125482496Y-92766966D01*
X125379362Y-92787481D01*
X125272898Y-92831579D01*
X125177084Y-92895600D01*
X125095600Y-92977084D01*
X125031579Y-93072898D01*
X124987481Y-93179362D01*
X124965000Y-93292382D01*
X124965000Y-93407618D01*
X124987481Y-93520638D01*
X125031579Y-93627102D01*
X125090001Y-93714536D01*
X125090001Y-93924997D01*
X125068421Y-93872898D01*
X125004400Y-93777084D01*
X124922916Y-93695600D01*
X124827102Y-93631579D01*
X124720638Y-93587481D01*
X124607618Y-93565000D01*
X124492382Y-93565000D01*
X124379362Y-93587481D01*
X124272898Y-93631579D01*
X124177084Y-93695600D01*
X124095600Y-93777084D01*
X124031579Y-93872898D01*
X123987481Y-93979362D01*
X123965000Y-94092382D01*
X123965000Y-94207618D01*
X123987481Y-94320638D01*
X124031579Y-94427102D01*
X124090001Y-94514536D01*
X124090001Y-94659461D01*
X122559463Y-96190000D01*
X120060538Y-96190000D01*
X120490538Y-95760000D01*
X121885465Y-95760000D01*
X121972898Y-95818421D01*
X122079362Y-95862519D01*
X122192382Y-95885000D01*
X122307618Y-95885000D01*
X122420638Y-95862519D01*
X122527102Y-95818421D01*
X122622916Y-95754400D01*
X122704400Y-95672916D01*
X122768421Y-95577102D01*
X122812519Y-95470638D01*
X122835000Y-95357618D01*
X122835000Y-95242382D01*
X122812519Y-95129362D01*
X122768421Y-95022898D01*
X122704400Y-94927084D01*
X122622916Y-94845600D01*
X122527102Y-94781579D01*
X122420638Y-94737481D01*
X122307618Y-94715000D01*
X122192382Y-94715000D01*
X122079362Y-94737481D01*
X121972898Y-94781579D01*
X121885465Y-94840000D01*
X120570537Y-94840000D01*
X121880538Y-93530000D01*
X122605465Y-93530000D01*
X122692898Y-93588421D01*
X122799362Y-93632519D01*
X122912382Y-93655000D01*
X123027618Y-93655000D01*
X123140638Y-93632519D01*
X123247102Y-93588421D01*
X123342916Y-93524400D01*
X123424400Y-93442916D01*
X123488421Y-93347102D01*
X123532519Y-93240638D01*
X123555000Y-93127618D01*
X123555000Y-93012382D01*
X123532519Y-92899362D01*
X123488421Y-92792898D01*
X123424400Y-92697084D01*
X123342916Y-92615600D01*
X123247102Y-92551579D01*
X123140638Y-92507481D01*
X123027618Y-92485000D01*
X122912382Y-92485000D01*
X122799362Y-92507481D01*
X122692898Y-92551579D01*
X122605465Y-92610000D01*
X121712579Y-92610000D01*
X121689999Y-92607776D01*
X121667419Y-92610000D01*
X121667410Y-92610000D01*
X121599824Y-92616657D01*
X121513114Y-92642960D01*
X121433202Y-92685674D01*
X121363158Y-92743158D01*
X121348759Y-92760703D01*
X119452497Y-94656966D01*
X119349362Y-94677481D01*
X119335001Y-94683429D01*
X119335001Y-92047583D01*
X119337225Y-92025001D01*
X119335001Y-92002419D01*
X119335001Y-92002411D01*
X119328344Y-91934825D01*
X119302041Y-91848115D01*
X119285000Y-91816234D01*
X119285000Y-91792382D01*
X119262519Y-91679362D01*
X119218421Y-91572898D01*
X119154400Y-91477084D01*
X119072916Y-91395600D01*
X118977102Y-91331579D01*
X118870638Y-91287481D01*
X118861620Y-91285687D01*
X118861620Y-91270000D01*
X118850588Y-91157995D01*
X118817918Y-91050294D01*
X118764863Y-90951036D01*
X118693464Y-90864036D01*
X118606464Y-90792637D01*
X118507206Y-90739582D01*
X118399505Y-90706912D01*
X118287500Y-90695880D01*
X117812500Y-90695880D01*
X117700495Y-90706912D01*
X117592794Y-90739582D01*
X117493536Y-90792637D01*
X117406536Y-90864036D01*
X117335137Y-90951036D01*
X117292996Y-91029876D01*
X117254863Y-90958536D01*
X117183464Y-90871536D01*
X117096464Y-90800137D01*
X116997206Y-90747082D01*
X116889505Y-90714412D01*
X116777500Y-90703380D01*
X116302500Y-90703380D01*
X116190495Y-90714412D01*
X116082794Y-90747082D01*
X115983536Y-90800137D01*
X115896536Y-90871536D01*
X115825137Y-90958536D01*
X115772082Y-91057794D01*
X115739412Y-91165495D01*
X115728380Y-91277500D01*
X115728380Y-91877500D01*
X115739412Y-91989505D01*
X115772082Y-92097206D01*
X115825137Y-92196464D01*
X115896536Y-92283464D01*
X115983536Y-92354863D01*
X116082794Y-92407918D01*
X116188557Y-92440000D01*
X116082794Y-92472082D01*
X115983536Y-92525137D01*
X115896536Y-92596536D01*
X115879910Y-92616794D01*
X115862519Y-92529362D01*
X115818421Y-92422898D01*
X115754400Y-92327084D01*
X115672916Y-92245600D01*
X115577102Y-92181579D01*
X115470638Y-92137481D01*
X115357618Y-92115000D01*
X115242382Y-92115000D01*
X115129362Y-92137481D01*
X115022898Y-92181579D01*
X114935465Y-92240000D01*
X114522582Y-92240000D01*
X114500000Y-92237776D01*
X114477418Y-92240000D01*
X114477410Y-92240000D01*
X114409824Y-92246657D01*
X114323114Y-92272960D01*
X114243202Y-92315674D01*
X114192798Y-92357040D01*
X114173158Y-92373158D01*
X114158759Y-92390703D01*
X113932496Y-92616966D01*
X113829362Y-92637481D01*
X113722898Y-92681579D01*
X113627084Y-92745600D01*
X113545600Y-92827084D01*
X113481579Y-92922898D01*
X113437481Y-93029362D01*
X113415000Y-93142382D01*
X113415000Y-93257618D01*
X113437481Y-93370638D01*
X113481579Y-93477102D01*
X113545600Y-93572916D01*
X113627084Y-93654400D01*
X113722898Y-93718421D01*
X113829362Y-93762519D01*
X113932496Y-93783034D01*
X113972013Y-93822550D01*
X114090001Y-93940539D01*
X114090000Y-96309462D01*
X113839463Y-96560000D01*
X113659307Y-96560000D01*
X113659194Y-96559626D01*
X113549158Y-96353764D01*
X113401075Y-96173325D01*
X113220636Y-96025242D01*
X113014774Y-95915206D01*
X112791400Y-95847447D01*
X112617307Y-95830300D01*
X111300000Y-95830300D01*
X111300000Y-95680300D01*
X111649100Y-95680300D01*
X111649100Y-95527659D01*
X111669100Y-95538563D01*
X111669100Y-95680300D01*
X112178825Y-95680300D01*
X112222800Y-95685000D01*
X112372800Y-95685000D01*
X112372800Y-95680300D01*
X112392800Y-95680300D01*
X112392800Y-95685000D01*
X112542800Y-95685000D01*
X112777692Y-95659895D01*
X112786882Y-95657024D01*
X112803992Y-95655195D01*
X113029473Y-95584748D01*
X113236877Y-95471665D01*
X113418235Y-95320292D01*
X113566577Y-95136447D01*
X113676202Y-94927194D01*
X113742897Y-94700575D01*
X113747660Y-94673674D01*
X113675305Y-94485300D01*
X112352800Y-94485300D01*
X112352800Y-94470000D01*
X112372800Y-94470000D01*
X112372800Y-94465300D01*
X112392800Y-94465300D01*
X112392800Y-94470000D01*
X113649005Y-94470000D01*
X113650810Y-94465300D01*
X113675305Y-94465300D01*
X113747660Y-94276926D01*
X113742897Y-94250025D01*
X113676202Y-94023406D01*
X113566577Y-93814153D01*
X113418235Y-93630308D01*
X113236877Y-93478935D01*
X113029473Y-93365852D01*
X112803992Y-93295405D01*
X112569100Y-93270300D01*
X111669100Y-93270300D01*
X111669100Y-93421437D01*
X111649100Y-93432341D01*
X111649100Y-93270300D01*
X111300000Y-93270300D01*
X111300000Y-93120300D01*
X112126874Y-93120300D01*
X112174593Y-93125000D01*
X112591007Y-93125000D01*
X112765100Y-93107853D01*
X112775398Y-93104729D01*
X112791400Y-93103153D01*
X113014774Y-93035394D01*
X113220636Y-92925358D01*
X113401075Y-92777275D01*
X113549158Y-92596836D01*
X113659194Y-92390974D01*
X113726953Y-92167600D01*
X113749833Y-91935300D01*
X113726953Y-91703000D01*
X113659194Y-91479626D01*
X113549158Y-91273764D01*
X113401075Y-91093325D01*
X113220636Y-90945242D01*
X113014774Y-90835206D01*
X112791400Y-90767447D01*
X112617307Y-90750300D01*
X111300000Y-90750300D01*
X111300000Y-90477609D01*
X111313883Y-90336024D01*
X111349887Y-90216771D01*
X111408366Y-90106787D01*
X111487101Y-90010249D01*
X111583083Y-89930846D01*
X111692660Y-89871599D01*
X111811654Y-89834764D01*
X111952117Y-89820000D01*
X135322391Y-89820000D01*
X135463976Y-89833883D01*
G37*
%TD.AperFunction*%
%TD*%
M02*
