%TF.GenerationSoftware,KiCad,Pcbnew,5.1.10-88a1d61d58~90~ubuntu20.04.1*%
%TF.CreationDate,2022-10-02T00:03:50+07:00*%
%TF.ProjectId,BioAmp-EXG-Pill_1206_rounder,42696f41-6d70-42d4-9558-472d50696c6c,1.0b*%
%TF.SameCoordinates,Original*%
%TF.FileFunction,Soldermask,Top*%
%TF.FilePolarity,Negative*%
%FSLAX46Y46*%
G04 Gerber Fmt 4.6, Leading zero omitted, Abs format (unit mm)*
G04 Created by KiCad (PCBNEW 5.1.10-88a1d61d58~90~ubuntu20.04.1) date 2022-10-02 00:03:50*
%MOMM*%
%LPD*%
G01*
G04 APERTURE LIST*
%ADD10C,0.010000*%
%ADD11C,1.000000*%
%ADD12C,2.700000*%
%ADD13O,1.700000X1.700000*%
%ADD14C,0.100000*%
%ADD15O,2.000000X2.000000*%
%ADD16R,1.700000X1.700000*%
%ADD17R,1.000000X2.500000*%
%ADD18C,1.220000*%
%ADD19C,2.201860*%
%ADD20O,1.700000X3.500000*%
G04 APERTURE END LIST*
D10*
%TO.C,BOARD1*%
G36*
X103735862Y-79972488D02*
G01*
X103991352Y-80045638D01*
X104053166Y-80069968D01*
X104291352Y-80191358D01*
X104505540Y-80345851D01*
X104692897Y-80529885D01*
X104850591Y-80739900D01*
X104975787Y-80972335D01*
X105065653Y-81223628D01*
X105102668Y-81388964D01*
X105125466Y-81546844D01*
X105133061Y-81684804D01*
X105125472Y-81822427D01*
X105103277Y-81976110D01*
X105037030Y-82236730D01*
X104933741Y-82480759D01*
X104796499Y-82704796D01*
X104628390Y-82905436D01*
X104432503Y-83079277D01*
X104211926Y-83222916D01*
X103969746Y-83332949D01*
X103832320Y-83376854D01*
X103728718Y-83397336D01*
X103596618Y-83411903D01*
X103449492Y-83420162D01*
X103300812Y-83421719D01*
X103164052Y-83416180D01*
X103052684Y-83403151D01*
X103036951Y-83400102D01*
X102784373Y-83326500D01*
X102547516Y-83216732D01*
X102330060Y-83074433D01*
X102135681Y-82903236D01*
X101968058Y-82706779D01*
X101830869Y-82488695D01*
X101727791Y-82252619D01*
X101671881Y-82050955D01*
X101649148Y-81892787D01*
X101642395Y-81756851D01*
X102437045Y-81756851D01*
X102444851Y-81820769D01*
X102496668Y-82015354D01*
X102584547Y-82190583D01*
X102705175Y-82342497D01*
X102855239Y-82467136D01*
X103031428Y-82560541D01*
X103078623Y-82578358D01*
X103157953Y-82603039D01*
X103230954Y-82617030D01*
X103313751Y-82622327D01*
X103422465Y-82620923D01*
X103422707Y-82620915D01*
X103523746Y-82616198D01*
X103598160Y-82607315D01*
X103661657Y-82590606D01*
X103729943Y-82562407D01*
X103782729Y-82536977D01*
X103952168Y-82431929D01*
X104091412Y-82302205D01*
X104199528Y-82152789D01*
X104275585Y-81988664D01*
X104318651Y-81814813D01*
X104327794Y-81636220D01*
X104302084Y-81457867D01*
X104240589Y-81284738D01*
X104142376Y-81121815D01*
X104064445Y-81029997D01*
X103919767Y-80903307D01*
X103763131Y-80814811D01*
X103589799Y-80762671D01*
X103395039Y-80745049D01*
X103333292Y-80746155D01*
X103231547Y-80751731D01*
X103156195Y-80761466D01*
X103091295Y-80779159D01*
X103020908Y-80808607D01*
X102971879Y-80832279D01*
X102808450Y-80934983D01*
X102670575Y-81066049D01*
X102561376Y-81219624D01*
X102483974Y-81389852D01*
X102441490Y-81570879D01*
X102437045Y-81756851D01*
X101642395Y-81756851D01*
X101640293Y-81714555D01*
X101645071Y-81532578D01*
X101663235Y-81363174D01*
X101683749Y-81260951D01*
X101751894Y-81056522D01*
X101849928Y-80851852D01*
X101971160Y-80657760D01*
X102108897Y-80485065D01*
X102244514Y-80354324D01*
X102466844Y-80196323D01*
X102705340Y-80075175D01*
X102955744Y-79991548D01*
X103213802Y-79946112D01*
X103475260Y-79939536D01*
X103735862Y-79972488D01*
G37*
X103735862Y-79972488D02*
X103991352Y-80045638D01*
X104053166Y-80069968D01*
X104291352Y-80191358D01*
X104505540Y-80345851D01*
X104692897Y-80529885D01*
X104850591Y-80739900D01*
X104975787Y-80972335D01*
X105065653Y-81223628D01*
X105102668Y-81388964D01*
X105125466Y-81546844D01*
X105133061Y-81684804D01*
X105125472Y-81822427D01*
X105103277Y-81976110D01*
X105037030Y-82236730D01*
X104933741Y-82480759D01*
X104796499Y-82704796D01*
X104628390Y-82905436D01*
X104432503Y-83079277D01*
X104211926Y-83222916D01*
X103969746Y-83332949D01*
X103832320Y-83376854D01*
X103728718Y-83397336D01*
X103596618Y-83411903D01*
X103449492Y-83420162D01*
X103300812Y-83421719D01*
X103164052Y-83416180D01*
X103052684Y-83403151D01*
X103036951Y-83400102D01*
X102784373Y-83326500D01*
X102547516Y-83216732D01*
X102330060Y-83074433D01*
X102135681Y-82903236D01*
X101968058Y-82706779D01*
X101830869Y-82488695D01*
X101727791Y-82252619D01*
X101671881Y-82050955D01*
X101649148Y-81892787D01*
X101642395Y-81756851D01*
X102437045Y-81756851D01*
X102444851Y-81820769D01*
X102496668Y-82015354D01*
X102584547Y-82190583D01*
X102705175Y-82342497D01*
X102855239Y-82467136D01*
X103031428Y-82560541D01*
X103078623Y-82578358D01*
X103157953Y-82603039D01*
X103230954Y-82617030D01*
X103313751Y-82622327D01*
X103422465Y-82620923D01*
X103422707Y-82620915D01*
X103523746Y-82616198D01*
X103598160Y-82607315D01*
X103661657Y-82590606D01*
X103729943Y-82562407D01*
X103782729Y-82536977D01*
X103952168Y-82431929D01*
X104091412Y-82302205D01*
X104199528Y-82152789D01*
X104275585Y-81988664D01*
X104318651Y-81814813D01*
X104327794Y-81636220D01*
X104302084Y-81457867D01*
X104240589Y-81284738D01*
X104142376Y-81121815D01*
X104064445Y-81029997D01*
X103919767Y-80903307D01*
X103763131Y-80814811D01*
X103589799Y-80762671D01*
X103395039Y-80745049D01*
X103333292Y-80746155D01*
X103231547Y-80751731D01*
X103156195Y-80761466D01*
X103091295Y-80779159D01*
X103020908Y-80808607D01*
X102971879Y-80832279D01*
X102808450Y-80934983D01*
X102670575Y-81066049D01*
X102561376Y-81219624D01*
X102483974Y-81389852D01*
X102441490Y-81570879D01*
X102437045Y-81756851D01*
X101642395Y-81756851D01*
X101640293Y-81714555D01*
X101645071Y-81532578D01*
X101663235Y-81363174D01*
X101683749Y-81260951D01*
X101751894Y-81056522D01*
X101849928Y-80851852D01*
X101971160Y-80657760D01*
X102108897Y-80485065D01*
X102244514Y-80354324D01*
X102466844Y-80196323D01*
X102705340Y-80075175D01*
X102955744Y-79991548D01*
X103213802Y-79946112D01*
X103475260Y-79939536D01*
X103735862Y-79972488D01*
G36*
X103481254Y-62084016D02*
G01*
X103628465Y-62092022D01*
X103754871Y-62107180D01*
X103822500Y-62121559D01*
X104077235Y-62211362D01*
X104306923Y-62332477D01*
X104510513Y-62481343D01*
X104686959Y-62654400D01*
X104835212Y-62848086D01*
X104954223Y-63058841D01*
X105042943Y-63283105D01*
X105100325Y-63517315D01*
X105125321Y-63757913D01*
X105116881Y-64001336D01*
X105073957Y-64244023D01*
X104995502Y-64482415D01*
X104880466Y-64712951D01*
X104727801Y-64932068D01*
X104670010Y-65000115D01*
X104489075Y-65172363D01*
X104281336Y-65315940D01*
X104052824Y-65428896D01*
X103809570Y-65509281D01*
X103557604Y-65555145D01*
X103302956Y-65564537D01*
X103051658Y-65535509D01*
X103028750Y-65530804D01*
X102777265Y-65456642D01*
X102541590Y-65346770D01*
X102325351Y-65204861D01*
X102132175Y-65034584D01*
X101965689Y-64839610D01*
X101829522Y-64623610D01*
X101727299Y-64390255D01*
X101663762Y-64149443D01*
X101645311Y-63995994D01*
X101639729Y-63823299D01*
X101640088Y-63814080D01*
X102438441Y-63814080D01*
X102452841Y-63984041D01*
X102497033Y-64149205D01*
X102570738Y-64304885D01*
X102673679Y-64446394D01*
X102805578Y-64569046D01*
X102966158Y-64668152D01*
X103097794Y-64721775D01*
X103175698Y-64742902D01*
X103257862Y-64753862D01*
X103359287Y-64756167D01*
X103422705Y-64754517D01*
X103528339Y-64748728D01*
X103607468Y-64738177D01*
X103675897Y-64719491D01*
X103749432Y-64689300D01*
X103767459Y-64680968D01*
X103933974Y-64581050D01*
X104077860Y-64450447D01*
X104193875Y-64295690D01*
X104276779Y-64123310D01*
X104310579Y-64004180D01*
X104328892Y-63817099D01*
X104308597Y-63632475D01*
X104253015Y-63455948D01*
X104165468Y-63293154D01*
X104049278Y-63149734D01*
X103907765Y-63031327D01*
X103744252Y-62943571D01*
X103670445Y-62917401D01*
X103492550Y-62881967D01*
X103308436Y-62878825D01*
X103130656Y-62907259D01*
X102993198Y-62956047D01*
X102823021Y-63056363D01*
X102684302Y-63180005D01*
X102576762Y-63322284D01*
X102500123Y-63478514D01*
X102454109Y-63644009D01*
X102438441Y-63814080D01*
X101640088Y-63814080D01*
X101646576Y-63647821D01*
X101665416Y-63486022D01*
X101683809Y-63396284D01*
X101768255Y-63147431D01*
X101889379Y-62914609D01*
X102043279Y-62701795D01*
X102226052Y-62512964D01*
X102433795Y-62352092D01*
X102662605Y-62223156D01*
X102908581Y-62130132D01*
X102933500Y-62123087D01*
X103039362Y-62102698D01*
X103174246Y-62089376D01*
X103325696Y-62083141D01*
X103481254Y-62084016D01*
G37*
X103481254Y-62084016D02*
X103628465Y-62092022D01*
X103754871Y-62107180D01*
X103822500Y-62121559D01*
X104077235Y-62211362D01*
X104306923Y-62332477D01*
X104510513Y-62481343D01*
X104686959Y-62654400D01*
X104835212Y-62848086D01*
X104954223Y-63058841D01*
X105042943Y-63283105D01*
X105100325Y-63517315D01*
X105125321Y-63757913D01*
X105116881Y-64001336D01*
X105073957Y-64244023D01*
X104995502Y-64482415D01*
X104880466Y-64712951D01*
X104727801Y-64932068D01*
X104670010Y-65000115D01*
X104489075Y-65172363D01*
X104281336Y-65315940D01*
X104052824Y-65428896D01*
X103809570Y-65509281D01*
X103557604Y-65555145D01*
X103302956Y-65564537D01*
X103051658Y-65535509D01*
X103028750Y-65530804D01*
X102777265Y-65456642D01*
X102541590Y-65346770D01*
X102325351Y-65204861D01*
X102132175Y-65034584D01*
X101965689Y-64839610D01*
X101829522Y-64623610D01*
X101727299Y-64390255D01*
X101663762Y-64149443D01*
X101645311Y-63995994D01*
X101639729Y-63823299D01*
X101640088Y-63814080D01*
X102438441Y-63814080D01*
X102452841Y-63984041D01*
X102497033Y-64149205D01*
X102570738Y-64304885D01*
X102673679Y-64446394D01*
X102805578Y-64569046D01*
X102966158Y-64668152D01*
X103097794Y-64721775D01*
X103175698Y-64742902D01*
X103257862Y-64753862D01*
X103359287Y-64756167D01*
X103422705Y-64754517D01*
X103528339Y-64748728D01*
X103607468Y-64738177D01*
X103675897Y-64719491D01*
X103749432Y-64689300D01*
X103767459Y-64680968D01*
X103933974Y-64581050D01*
X104077860Y-64450447D01*
X104193875Y-64295690D01*
X104276779Y-64123310D01*
X104310579Y-64004180D01*
X104328892Y-63817099D01*
X104308597Y-63632475D01*
X104253015Y-63455948D01*
X104165468Y-63293154D01*
X104049278Y-63149734D01*
X103907765Y-63031327D01*
X103744252Y-62943571D01*
X103670445Y-62917401D01*
X103492550Y-62881967D01*
X103308436Y-62878825D01*
X103130656Y-62907259D01*
X102993198Y-62956047D01*
X102823021Y-63056363D01*
X102684302Y-63180005D01*
X102576762Y-63322284D01*
X102500123Y-63478514D01*
X102454109Y-63644009D01*
X102438441Y-63814080D01*
X101640088Y-63814080D01*
X101646576Y-63647821D01*
X101665416Y-63486022D01*
X101683809Y-63396284D01*
X101768255Y-63147431D01*
X101889379Y-62914609D01*
X102043279Y-62701795D01*
X102226052Y-62512964D01*
X102433795Y-62352092D01*
X102662605Y-62223156D01*
X102908581Y-62130132D01*
X102933500Y-62123087D01*
X103039362Y-62102698D01*
X103174246Y-62089376D01*
X103325696Y-62083141D01*
X103481254Y-62084016D01*
G36*
X149216159Y-62085103D02*
G01*
X149312595Y-62087064D01*
X149386749Y-62091909D01*
X149448646Y-62100928D01*
X149508311Y-62115413D01*
X149575768Y-62136653D01*
X149627166Y-62154217D01*
X149883253Y-62263746D01*
X150113924Y-62405387D01*
X150316927Y-62576570D01*
X150490010Y-62774727D01*
X150630921Y-62997287D01*
X150737408Y-63241683D01*
X150806056Y-63499150D01*
X150825754Y-63662508D01*
X150829438Y-63846455D01*
X150817857Y-64033904D01*
X150791762Y-64207766D01*
X150771256Y-64292240D01*
X150678671Y-64539980D01*
X150549971Y-64769890D01*
X150388961Y-64978224D01*
X150199448Y-65161236D01*
X149985239Y-65315179D01*
X149750138Y-65436309D01*
X149531916Y-65511989D01*
X149457575Y-65526467D01*
X149353823Y-65539124D01*
X149232939Y-65549254D01*
X149107205Y-65556150D01*
X148988900Y-65559107D01*
X148890305Y-65557416D01*
X148833416Y-65552171D01*
X148573042Y-65489993D01*
X148329844Y-65391848D01*
X148106674Y-65261040D01*
X147906387Y-65100877D01*
X147731833Y-64914666D01*
X147585866Y-64705714D01*
X147471339Y-64477327D01*
X147391104Y-64232813D01*
X147348014Y-63975477D01*
X147341166Y-63822372D01*
X147341490Y-63817662D01*
X148145500Y-63817662D01*
X148165407Y-64017702D01*
X148223341Y-64202401D01*
X148316620Y-64368026D01*
X148442558Y-64510847D01*
X148598475Y-64627133D01*
X148781686Y-64713154D01*
X148792127Y-64716804D01*
X148948967Y-64752436D01*
X149120715Y-64760532D01*
X149290096Y-64741059D01*
X149378013Y-64717924D01*
X149558868Y-64637310D01*
X149715166Y-64524683D01*
X149843617Y-64384580D01*
X149940933Y-64221538D01*
X150003824Y-64040097D01*
X150029001Y-63844793D01*
X150029333Y-63819274D01*
X150009315Y-63618690D01*
X149950797Y-63433004D01*
X149856083Y-63265838D01*
X149727479Y-63120815D01*
X149567287Y-63001557D01*
X149479000Y-62954120D01*
X149417702Y-62925987D01*
X149366144Y-62907259D01*
X149312986Y-62896032D01*
X149246890Y-62890403D01*
X149156517Y-62888466D01*
X149086971Y-62888284D01*
X148977458Y-62888871D01*
X148898997Y-62891940D01*
X148840307Y-62899453D01*
X148790110Y-62913374D01*
X148737126Y-62935664D01*
X148693439Y-62956757D01*
X148516581Y-63065241D01*
X148371925Y-63199394D01*
X148261294Y-63356348D01*
X148186516Y-63533233D01*
X148149416Y-63727180D01*
X148145500Y-63817662D01*
X147341490Y-63817662D01*
X147359788Y-63552350D01*
X147416206Y-63300014D01*
X147511252Y-63063385D01*
X147645754Y-62840489D01*
X147820544Y-62629348D01*
X147858743Y-62590029D01*
X148015348Y-62445259D01*
X148169564Y-62331362D01*
X148334722Y-62239906D01*
X148524155Y-62162458D01*
X148547666Y-62154217D01*
X148625265Y-62128022D01*
X148688711Y-62109401D01*
X148748029Y-62097065D01*
X148813244Y-62089721D01*
X148894382Y-62086081D01*
X149001467Y-62084853D01*
X149087416Y-62084737D01*
X149216159Y-62085103D01*
G37*
X149216159Y-62085103D02*
X149312595Y-62087064D01*
X149386749Y-62091909D01*
X149448646Y-62100928D01*
X149508311Y-62115413D01*
X149575768Y-62136653D01*
X149627166Y-62154217D01*
X149883253Y-62263746D01*
X150113924Y-62405387D01*
X150316927Y-62576570D01*
X150490010Y-62774727D01*
X150630921Y-62997287D01*
X150737408Y-63241683D01*
X150806056Y-63499150D01*
X150825754Y-63662508D01*
X150829438Y-63846455D01*
X150817857Y-64033904D01*
X150791762Y-64207766D01*
X150771256Y-64292240D01*
X150678671Y-64539980D01*
X150549971Y-64769890D01*
X150388961Y-64978224D01*
X150199448Y-65161236D01*
X149985239Y-65315179D01*
X149750138Y-65436309D01*
X149531916Y-65511989D01*
X149457575Y-65526467D01*
X149353823Y-65539124D01*
X149232939Y-65549254D01*
X149107205Y-65556150D01*
X148988900Y-65559107D01*
X148890305Y-65557416D01*
X148833416Y-65552171D01*
X148573042Y-65489993D01*
X148329844Y-65391848D01*
X148106674Y-65261040D01*
X147906387Y-65100877D01*
X147731833Y-64914666D01*
X147585866Y-64705714D01*
X147471339Y-64477327D01*
X147391104Y-64232813D01*
X147348014Y-63975477D01*
X147341166Y-63822372D01*
X147341490Y-63817662D01*
X148145500Y-63817662D01*
X148165407Y-64017702D01*
X148223341Y-64202401D01*
X148316620Y-64368026D01*
X148442558Y-64510847D01*
X148598475Y-64627133D01*
X148781686Y-64713154D01*
X148792127Y-64716804D01*
X148948967Y-64752436D01*
X149120715Y-64760532D01*
X149290096Y-64741059D01*
X149378013Y-64717924D01*
X149558868Y-64637310D01*
X149715166Y-64524683D01*
X149843617Y-64384580D01*
X149940933Y-64221538D01*
X150003824Y-64040097D01*
X150029001Y-63844793D01*
X150029333Y-63819274D01*
X150009315Y-63618690D01*
X149950797Y-63433004D01*
X149856083Y-63265838D01*
X149727479Y-63120815D01*
X149567287Y-63001557D01*
X149479000Y-62954120D01*
X149417702Y-62925987D01*
X149366144Y-62907259D01*
X149312986Y-62896032D01*
X149246890Y-62890403D01*
X149156517Y-62888466D01*
X149086971Y-62888284D01*
X148977458Y-62888871D01*
X148898997Y-62891940D01*
X148840307Y-62899453D01*
X148790110Y-62913374D01*
X148737126Y-62935664D01*
X148693439Y-62956757D01*
X148516581Y-63065241D01*
X148371925Y-63199394D01*
X148261294Y-63356348D01*
X148186516Y-63533233D01*
X148149416Y-63727180D01*
X148145500Y-63817662D01*
X147341490Y-63817662D01*
X147359788Y-63552350D01*
X147416206Y-63300014D01*
X147511252Y-63063385D01*
X147645754Y-62840489D01*
X147820544Y-62629348D01*
X147858743Y-62590029D01*
X148015348Y-62445259D01*
X148169564Y-62331362D01*
X148334722Y-62239906D01*
X148524155Y-62162458D01*
X148547666Y-62154217D01*
X148625265Y-62128022D01*
X148688711Y-62109401D01*
X148748029Y-62097065D01*
X148813244Y-62089721D01*
X148894382Y-62086081D01*
X149001467Y-62084853D01*
X149087416Y-62084737D01*
X149216159Y-62085103D01*
D11*
%TO.C,JP5*%
X121526300Y-65496200D02*
X121526300Y-64861200D01*
%TD*%
D12*
%TO.C,BOARD1*%
X103378000Y-63805967D03*
X103378000Y-81673700D03*
X149091516Y-63805967D03*
%TD*%
D13*
%TO.C,JP4*%
X148971000Y-82804000D03*
X148971000Y-80264000D03*
%TD*%
D14*
%TO.C,JP5*%
G36*
X120789602Y-64516000D02*
G01*
X120789602Y-64491466D01*
X120794412Y-64442635D01*
X120803984Y-64394510D01*
X120818228Y-64347555D01*
X120837005Y-64302222D01*
X120860136Y-64258949D01*
X120887396Y-64218150D01*
X120918524Y-64180221D01*
X120953221Y-64145524D01*
X120991150Y-64114396D01*
X121031949Y-64087136D01*
X121075222Y-64064005D01*
X121120555Y-64045228D01*
X121167510Y-64030984D01*
X121215635Y-64021412D01*
X121264466Y-64016602D01*
X121289000Y-64016602D01*
X121289000Y-64016000D01*
X121789000Y-64016000D01*
X121789000Y-64016602D01*
X121813534Y-64016602D01*
X121862365Y-64021412D01*
X121910490Y-64030984D01*
X121957445Y-64045228D01*
X122002778Y-64064005D01*
X122046051Y-64087136D01*
X122086850Y-64114396D01*
X122124779Y-64145524D01*
X122159476Y-64180221D01*
X122190604Y-64218150D01*
X122217864Y-64258949D01*
X122240995Y-64302222D01*
X122259772Y-64347555D01*
X122274016Y-64394510D01*
X122283588Y-64442635D01*
X122288398Y-64491466D01*
X122288398Y-64516000D01*
X122289000Y-64516000D01*
X122289000Y-65016000D01*
X120789000Y-65016000D01*
X120789000Y-64516000D01*
X120789602Y-64516000D01*
G37*
G36*
X122289000Y-65316000D02*
G01*
X122289000Y-65816000D01*
X122288398Y-65816000D01*
X122288398Y-65840534D01*
X122283588Y-65889365D01*
X122274016Y-65937490D01*
X122259772Y-65984445D01*
X122240995Y-66029778D01*
X122217864Y-66073051D01*
X122190604Y-66113850D01*
X122159476Y-66151779D01*
X122124779Y-66186476D01*
X122086850Y-66217604D01*
X122046051Y-66244864D01*
X122002778Y-66267995D01*
X121957445Y-66286772D01*
X121910490Y-66301016D01*
X121862365Y-66310588D01*
X121813534Y-66315398D01*
X121789000Y-66315398D01*
X121789000Y-66316000D01*
X121289000Y-66316000D01*
X121289000Y-66315398D01*
X121264466Y-66315398D01*
X121215635Y-66310588D01*
X121167510Y-66301016D01*
X121120555Y-66286772D01*
X121075222Y-66267995D01*
X121031949Y-66244864D01*
X120991150Y-66217604D01*
X120953221Y-66186476D01*
X120918524Y-66151779D01*
X120887396Y-66113850D01*
X120860136Y-66073051D01*
X120837005Y-66029778D01*
X120818228Y-65984445D01*
X120803984Y-65937490D01*
X120794412Y-65889365D01*
X120789602Y-65840534D01*
X120789602Y-65816000D01*
X120789000Y-65816000D01*
X120789000Y-65316000D01*
X122289000Y-65316000D01*
G37*
%TD*%
D13*
%TO.C,JP3*%
X102489000Y-78486000D03*
X102489000Y-75946000D03*
%TD*%
D15*
%TO.C,J2*%
X107569000Y-62738000D03*
X110109000Y-62738000D03*
X112649000Y-62738000D03*
%TD*%
D13*
%TO.C,F2*%
X117348000Y-62636400D03*
X119888000Y-62636400D03*
X122428000Y-62636400D03*
X124968000Y-62636400D03*
X127508000Y-62636400D03*
X130048000Y-62636400D03*
X132588000Y-62636400D03*
X135128000Y-62636400D03*
X137668000Y-62636400D03*
X140208000Y-62636400D03*
X142748000Y-62636400D03*
D16*
X145288000Y-62636400D03*
%TD*%
D13*
%TO.C,F1*%
X107188000Y-82956400D03*
X109728000Y-82956400D03*
X112268000Y-82956400D03*
X114808000Y-82956400D03*
X117348000Y-82956400D03*
X119888000Y-82956400D03*
X122428000Y-82956400D03*
X124968000Y-82956400D03*
X127508000Y-82956400D03*
X130048000Y-82956400D03*
X132588000Y-82956400D03*
X135128000Y-82956400D03*
X137668000Y-82956400D03*
X140208000Y-82956400D03*
X142748000Y-82956400D03*
D16*
X145288000Y-82956400D03*
%TD*%
%TO.C,R18*%
G36*
G01*
X114074300Y-79080199D02*
X114074300Y-80330201D01*
G75*
G02*
X113824301Y-80580200I-249999J0D01*
G01*
X113024299Y-80580200D01*
G75*
G02*
X112774300Y-80330201I0J249999D01*
G01*
X112774300Y-79080199D01*
G75*
G02*
X113024299Y-78830200I249999J0D01*
G01*
X113824301Y-78830200D01*
G75*
G02*
X114074300Y-79080199I0J-249999D01*
G01*
G37*
G36*
G01*
X110974300Y-79080199D02*
X110974300Y-80330201D01*
G75*
G02*
X110724301Y-80580200I-249999J0D01*
G01*
X109924299Y-80580200D01*
G75*
G02*
X109674300Y-80330201I0J249999D01*
G01*
X109674300Y-79080199D01*
G75*
G02*
X109924299Y-78830200I249999J0D01*
G01*
X110724301Y-78830200D01*
G75*
G02*
X110974300Y-79080199I0J-249999D01*
G01*
G37*
%TD*%
%TO.C,R17*%
G36*
G01*
X115003920Y-80317501D02*
X115003920Y-79067499D01*
G75*
G02*
X115253919Y-78817500I249999J0D01*
G01*
X116053921Y-78817500D01*
G75*
G02*
X116303920Y-79067499I0J-249999D01*
G01*
X116303920Y-80317501D01*
G75*
G02*
X116053921Y-80567500I-249999J0D01*
G01*
X115253919Y-80567500D01*
G75*
G02*
X115003920Y-80317501I0J249999D01*
G01*
G37*
G36*
G01*
X118103920Y-80317501D02*
X118103920Y-79067499D01*
G75*
G02*
X118353919Y-78817500I249999J0D01*
G01*
X119153921Y-78817500D01*
G75*
G02*
X119403920Y-79067499I0J-249999D01*
G01*
X119403920Y-80317501D01*
G75*
G02*
X119153921Y-80567500I-249999J0D01*
G01*
X118353919Y-80567500D01*
G75*
G02*
X118103920Y-80317501I0J249999D01*
G01*
G37*
%TD*%
%TO.C,D1*%
G36*
G01*
X135235101Y-67551100D02*
X134335099Y-67551100D01*
G75*
G02*
X134085100Y-67301101I0J249999D01*
G01*
X134085100Y-66651099D01*
G75*
G02*
X134335099Y-66401100I249999J0D01*
G01*
X135235101Y-66401100D01*
G75*
G02*
X135485100Y-66651099I0J-249999D01*
G01*
X135485100Y-67301101D01*
G75*
G02*
X135235101Y-67551100I-249999J0D01*
G01*
G37*
G36*
G01*
X135235101Y-65501100D02*
X134335099Y-65501100D01*
G75*
G02*
X134085100Y-65251101I0J249999D01*
G01*
X134085100Y-64601099D01*
G75*
G02*
X134335099Y-64351100I249999J0D01*
G01*
X135235101Y-64351100D01*
G75*
G02*
X135485100Y-64601099I0J-249999D01*
G01*
X135485100Y-65251101D01*
G75*
G02*
X135235101Y-65501100I-249999J0D01*
G01*
G37*
%TD*%
D17*
%TO.C,J3*%
X101749400Y-72732900D03*
X104849400Y-72732900D03*
X113149400Y-72732900D03*
%TD*%
%TO.C,U1*%
G36*
G01*
X128119100Y-76659600D02*
X128119100Y-76959600D01*
G75*
G02*
X127969100Y-77109600I-150000J0D01*
G01*
X126294100Y-77109600D01*
G75*
G02*
X126144100Y-76959600I0J150000D01*
G01*
X126144100Y-76659600D01*
G75*
G02*
X126294100Y-76509600I150000J0D01*
G01*
X127969100Y-76509600D01*
G75*
G02*
X128119100Y-76659600I0J-150000D01*
G01*
G37*
G36*
G01*
X128119100Y-75389600D02*
X128119100Y-75689600D01*
G75*
G02*
X127969100Y-75839600I-150000J0D01*
G01*
X126294100Y-75839600D01*
G75*
G02*
X126144100Y-75689600I0J150000D01*
G01*
X126144100Y-75389600D01*
G75*
G02*
X126294100Y-75239600I150000J0D01*
G01*
X127969100Y-75239600D01*
G75*
G02*
X128119100Y-75389600I0J-150000D01*
G01*
G37*
G36*
G01*
X128119100Y-74119600D02*
X128119100Y-74419600D01*
G75*
G02*
X127969100Y-74569600I-150000J0D01*
G01*
X126294100Y-74569600D01*
G75*
G02*
X126144100Y-74419600I0J150000D01*
G01*
X126144100Y-74119600D01*
G75*
G02*
X126294100Y-73969600I150000J0D01*
G01*
X127969100Y-73969600D01*
G75*
G02*
X128119100Y-74119600I0J-150000D01*
G01*
G37*
G36*
G01*
X128119100Y-72849600D02*
X128119100Y-73149600D01*
G75*
G02*
X127969100Y-73299600I-150000J0D01*
G01*
X126294100Y-73299600D01*
G75*
G02*
X126144100Y-73149600I0J150000D01*
G01*
X126144100Y-72849600D01*
G75*
G02*
X126294100Y-72699600I150000J0D01*
G01*
X127969100Y-72699600D01*
G75*
G02*
X128119100Y-72849600I0J-150000D01*
G01*
G37*
G36*
G01*
X128119100Y-71579600D02*
X128119100Y-71879600D01*
G75*
G02*
X127969100Y-72029600I-150000J0D01*
G01*
X126294100Y-72029600D01*
G75*
G02*
X126144100Y-71879600I0J150000D01*
G01*
X126144100Y-71579600D01*
G75*
G02*
X126294100Y-71429600I150000J0D01*
G01*
X127969100Y-71429600D01*
G75*
G02*
X128119100Y-71579600I0J-150000D01*
G01*
G37*
G36*
G01*
X128119100Y-70309600D02*
X128119100Y-70609600D01*
G75*
G02*
X127969100Y-70759600I-150000J0D01*
G01*
X126294100Y-70759600D01*
G75*
G02*
X126144100Y-70609600I0J150000D01*
G01*
X126144100Y-70309600D01*
G75*
G02*
X126294100Y-70159600I150000J0D01*
G01*
X127969100Y-70159600D01*
G75*
G02*
X128119100Y-70309600I0J-150000D01*
G01*
G37*
G36*
G01*
X128119100Y-69039600D02*
X128119100Y-69339600D01*
G75*
G02*
X127969100Y-69489600I-150000J0D01*
G01*
X126294100Y-69489600D01*
G75*
G02*
X126144100Y-69339600I0J150000D01*
G01*
X126144100Y-69039600D01*
G75*
G02*
X126294100Y-68889600I150000J0D01*
G01*
X127969100Y-68889600D01*
G75*
G02*
X128119100Y-69039600I0J-150000D01*
G01*
G37*
G36*
G01*
X135044100Y-69039600D02*
X135044100Y-69339600D01*
G75*
G02*
X134894100Y-69489600I-150000J0D01*
G01*
X133219100Y-69489600D01*
G75*
G02*
X133069100Y-69339600I0J150000D01*
G01*
X133069100Y-69039600D01*
G75*
G02*
X133219100Y-68889600I150000J0D01*
G01*
X134894100Y-68889600D01*
G75*
G02*
X135044100Y-69039600I0J-150000D01*
G01*
G37*
G36*
G01*
X135044100Y-70309600D02*
X135044100Y-70609600D01*
G75*
G02*
X134894100Y-70759600I-150000J0D01*
G01*
X133219100Y-70759600D01*
G75*
G02*
X133069100Y-70609600I0J150000D01*
G01*
X133069100Y-70309600D01*
G75*
G02*
X133219100Y-70159600I150000J0D01*
G01*
X134894100Y-70159600D01*
G75*
G02*
X135044100Y-70309600I0J-150000D01*
G01*
G37*
G36*
G01*
X135044100Y-71579600D02*
X135044100Y-71879600D01*
G75*
G02*
X134894100Y-72029600I-150000J0D01*
G01*
X133219100Y-72029600D01*
G75*
G02*
X133069100Y-71879600I0J150000D01*
G01*
X133069100Y-71579600D01*
G75*
G02*
X133219100Y-71429600I150000J0D01*
G01*
X134894100Y-71429600D01*
G75*
G02*
X135044100Y-71579600I0J-150000D01*
G01*
G37*
G36*
G01*
X135044100Y-72849600D02*
X135044100Y-73149600D01*
G75*
G02*
X134894100Y-73299600I-150000J0D01*
G01*
X133219100Y-73299600D01*
G75*
G02*
X133069100Y-73149600I0J150000D01*
G01*
X133069100Y-72849600D01*
G75*
G02*
X133219100Y-72699600I150000J0D01*
G01*
X134894100Y-72699600D01*
G75*
G02*
X135044100Y-72849600I0J-150000D01*
G01*
G37*
G36*
G01*
X135044100Y-74119600D02*
X135044100Y-74419600D01*
G75*
G02*
X134894100Y-74569600I-150000J0D01*
G01*
X133219100Y-74569600D01*
G75*
G02*
X133069100Y-74419600I0J150000D01*
G01*
X133069100Y-74119600D01*
G75*
G02*
X133219100Y-73969600I150000J0D01*
G01*
X134894100Y-73969600D01*
G75*
G02*
X135044100Y-74119600I0J-150000D01*
G01*
G37*
G36*
G01*
X135044100Y-75389600D02*
X135044100Y-75689600D01*
G75*
G02*
X134894100Y-75839600I-150000J0D01*
G01*
X133219100Y-75839600D01*
G75*
G02*
X133069100Y-75689600I0J150000D01*
G01*
X133069100Y-75389600D01*
G75*
G02*
X133219100Y-75239600I150000J0D01*
G01*
X134894100Y-75239600D01*
G75*
G02*
X135044100Y-75389600I0J-150000D01*
G01*
G37*
G36*
G01*
X135044100Y-76659600D02*
X135044100Y-76959600D01*
G75*
G02*
X134894100Y-77109600I-150000J0D01*
G01*
X133219100Y-77109600D01*
G75*
G02*
X133069100Y-76959600I0J150000D01*
G01*
X133069100Y-76659600D01*
G75*
G02*
X133219100Y-76509600I150000J0D01*
G01*
X134894100Y-76509600D01*
G75*
G02*
X135044100Y-76659600I0J-150000D01*
G01*
G37*
%TD*%
D18*
%TO.C,J4*%
X148920200Y-67906900D03*
X148920200Y-77939900D03*
D19*
X143984980Y-70424040D03*
X143984980Y-67825620D03*
X148983700Y-72923400D03*
X143984980Y-75422760D03*
X143984980Y-78021180D03*
%TD*%
%TO.C,R2*%
G36*
G01*
X140782400Y-73807159D02*
X140782400Y-75057161D01*
G75*
G02*
X140532401Y-75307160I-249999J0D01*
G01*
X139732399Y-75307160D01*
G75*
G02*
X139482400Y-75057161I0J249999D01*
G01*
X139482400Y-73807159D01*
G75*
G02*
X139732399Y-73557160I249999J0D01*
G01*
X140532401Y-73557160D01*
G75*
G02*
X140782400Y-73807159I0J-249999D01*
G01*
G37*
G36*
G01*
X137682400Y-73807159D02*
X137682400Y-75057161D01*
G75*
G02*
X137432401Y-75307160I-249999J0D01*
G01*
X136632399Y-75307160D01*
G75*
G02*
X136382400Y-75057161I0J249999D01*
G01*
X136382400Y-73807159D01*
G75*
G02*
X136632399Y-73557160I249999J0D01*
G01*
X137432401Y-73557160D01*
G75*
G02*
X137682400Y-73807159I0J-249999D01*
G01*
G37*
%TD*%
%TO.C,R4*%
G36*
G01*
X136382400Y-77668281D02*
X136382400Y-76418279D01*
G75*
G02*
X136632399Y-76168280I249999J0D01*
G01*
X137432401Y-76168280D01*
G75*
G02*
X137682400Y-76418279I0J-249999D01*
G01*
X137682400Y-77668281D01*
G75*
G02*
X137432401Y-77918280I-249999J0D01*
G01*
X136632399Y-77918280D01*
G75*
G02*
X136382400Y-77668281I0J249999D01*
G01*
G37*
G36*
G01*
X139482400Y-77668281D02*
X139482400Y-76418279D01*
G75*
G02*
X139732399Y-76168280I249999J0D01*
G01*
X140532401Y-76168280D01*
G75*
G02*
X140782400Y-76418279I0J-249999D01*
G01*
X140782400Y-77668281D01*
G75*
G02*
X140532401Y-77918280I-249999J0D01*
G01*
X139732399Y-77918280D01*
G75*
G02*
X139482400Y-77668281I0J249999D01*
G01*
G37*
%TD*%
%TO.C,R5*%
G36*
G01*
X140782400Y-68584919D02*
X140782400Y-69834921D01*
G75*
G02*
X140532401Y-70084920I-249999J0D01*
G01*
X139732399Y-70084920D01*
G75*
G02*
X139482400Y-69834921I0J249999D01*
G01*
X139482400Y-68584919D01*
G75*
G02*
X139732399Y-68334920I249999J0D01*
G01*
X140532401Y-68334920D01*
G75*
G02*
X140782400Y-68584919I0J-249999D01*
G01*
G37*
G36*
G01*
X137682400Y-68584919D02*
X137682400Y-69834921D01*
G75*
G02*
X137432401Y-70084920I-249999J0D01*
G01*
X136632399Y-70084920D01*
G75*
G02*
X136382400Y-69834921I0J249999D01*
G01*
X136382400Y-68584919D01*
G75*
G02*
X136632399Y-68334920I249999J0D01*
G01*
X137432401Y-68334920D01*
G75*
G02*
X137682400Y-68584919I0J-249999D01*
G01*
G37*
%TD*%
%TO.C,R6*%
G36*
G01*
X136382400Y-72446041D02*
X136382400Y-71196039D01*
G75*
G02*
X136632399Y-70946040I249999J0D01*
G01*
X137432401Y-70946040D01*
G75*
G02*
X137682400Y-71196039I0J-249999D01*
G01*
X137682400Y-72446041D01*
G75*
G02*
X137432401Y-72696040I-249999J0D01*
G01*
X136632399Y-72696040D01*
G75*
G02*
X136382400Y-72446041I0J249999D01*
G01*
G37*
G36*
G01*
X139482400Y-72446041D02*
X139482400Y-71196039D01*
G75*
G02*
X139732399Y-70946040I249999J0D01*
G01*
X140532401Y-70946040D01*
G75*
G02*
X140782400Y-71196039I0J-249999D01*
G01*
X140782400Y-72446041D01*
G75*
G02*
X140532401Y-72696040I-249999J0D01*
G01*
X139732399Y-72696040D01*
G75*
G02*
X139482400Y-72446041I0J249999D01*
G01*
G37*
%TD*%
%TO.C,R8*%
G36*
G01*
X120333540Y-80279401D02*
X120333540Y-79029399D01*
G75*
G02*
X120583539Y-78779400I249999J0D01*
G01*
X121383541Y-78779400D01*
G75*
G02*
X121633540Y-79029399I0J-249999D01*
G01*
X121633540Y-80279401D01*
G75*
G02*
X121383541Y-80529400I-249999J0D01*
G01*
X120583539Y-80529400D01*
G75*
G02*
X120333540Y-80279401I0J249999D01*
G01*
G37*
G36*
G01*
X123433540Y-80279401D02*
X123433540Y-79029399D01*
G75*
G02*
X123683539Y-78779400I249999J0D01*
G01*
X124483541Y-78779400D01*
G75*
G02*
X124733540Y-79029399I0J-249999D01*
G01*
X124733540Y-80279401D01*
G75*
G02*
X124483541Y-80529400I-249999J0D01*
G01*
X123683539Y-80529400D01*
G75*
G02*
X123433540Y-80279401I0J249999D01*
G01*
G37*
%TD*%
%TO.C,R9*%
G36*
G01*
X140782400Y-79029399D02*
X140782400Y-80279401D01*
G75*
G02*
X140532401Y-80529400I-249999J0D01*
G01*
X139732399Y-80529400D01*
G75*
G02*
X139482400Y-80279401I0J249999D01*
G01*
X139482400Y-79029399D01*
G75*
G02*
X139732399Y-78779400I249999J0D01*
G01*
X140532401Y-78779400D01*
G75*
G02*
X140782400Y-79029399I0J-249999D01*
G01*
G37*
G36*
G01*
X137682400Y-79029399D02*
X137682400Y-80279401D01*
G75*
G02*
X137432401Y-80529400I-249999J0D01*
G01*
X136632399Y-80529400D01*
G75*
G02*
X136382400Y-80279401I0J249999D01*
G01*
X136382400Y-79029399D01*
G75*
G02*
X136632399Y-78779400I249999J0D01*
G01*
X137432401Y-78779400D01*
G75*
G02*
X137682400Y-79029399I0J-249999D01*
G01*
G37*
%TD*%
%TO.C,R11*%
G36*
G01*
X120506800Y-69827301D02*
X120506800Y-68577299D01*
G75*
G02*
X120756799Y-68327300I249999J0D01*
G01*
X121556801Y-68327300D01*
G75*
G02*
X121806800Y-68577299I0J-249999D01*
G01*
X121806800Y-69827301D01*
G75*
G02*
X121556801Y-70077300I-249999J0D01*
G01*
X120756799Y-70077300D01*
G75*
G02*
X120506800Y-69827301I0J249999D01*
G01*
G37*
G36*
G01*
X123606800Y-69827301D02*
X123606800Y-68577299D01*
G75*
G02*
X123856799Y-68327300I249999J0D01*
G01*
X124656801Y-68327300D01*
G75*
G02*
X124906800Y-68577299I0J-249999D01*
G01*
X124906800Y-69827301D01*
G75*
G02*
X124656801Y-70077300I-249999J0D01*
G01*
X123856799Y-70077300D01*
G75*
G02*
X123606800Y-69827301I0J249999D01*
G01*
G37*
%TD*%
%TO.C,R12*%
G36*
G01*
X140782400Y-65973799D02*
X140782400Y-67223801D01*
G75*
G02*
X140532401Y-67473800I-249999J0D01*
G01*
X139732399Y-67473800D01*
G75*
G02*
X139482400Y-67223801I0J249999D01*
G01*
X139482400Y-65973799D01*
G75*
G02*
X139732399Y-65723800I249999J0D01*
G01*
X140532401Y-65723800D01*
G75*
G02*
X140782400Y-65973799I0J-249999D01*
G01*
G37*
G36*
G01*
X137682400Y-65973799D02*
X137682400Y-67223801D01*
G75*
G02*
X137432401Y-67473800I-249999J0D01*
G01*
X136632399Y-67473800D01*
G75*
G02*
X136382400Y-67223801I0J249999D01*
G01*
X136382400Y-65973799D01*
G75*
G02*
X136632399Y-65723800I249999J0D01*
G01*
X137432401Y-65723800D01*
G75*
G02*
X137682400Y-65973799I0J-249999D01*
G01*
G37*
%TD*%
%TO.C,R13*%
G36*
G01*
X119490280Y-71223279D02*
X119490280Y-72473281D01*
G75*
G02*
X119240281Y-72723280I-249999J0D01*
G01*
X118440279Y-72723280D01*
G75*
G02*
X118190280Y-72473281I0J249999D01*
G01*
X118190280Y-71223279D01*
G75*
G02*
X118440279Y-70973280I249999J0D01*
G01*
X119240281Y-70973280D01*
G75*
G02*
X119490280Y-71223279I0J-249999D01*
G01*
G37*
G36*
G01*
X116390280Y-71223279D02*
X116390280Y-72473281D01*
G75*
G02*
X116140281Y-72723280I-249999J0D01*
G01*
X115340279Y-72723280D01*
G75*
G02*
X115090280Y-72473281I0J249999D01*
G01*
X115090280Y-71223279D01*
G75*
G02*
X115340279Y-70973280I249999J0D01*
G01*
X116140281Y-70973280D01*
G75*
G02*
X116390280Y-71223279I0J-249999D01*
G01*
G37*
%TD*%
%TO.C,R14*%
G36*
G01*
X130063160Y-79029399D02*
X130063160Y-80279401D01*
G75*
G02*
X129813161Y-80529400I-249999J0D01*
G01*
X129013159Y-80529400D01*
G75*
G02*
X128763160Y-80279401I0J249999D01*
G01*
X128763160Y-79029399D01*
G75*
G02*
X129013159Y-78779400I249999J0D01*
G01*
X129813161Y-78779400D01*
G75*
G02*
X130063160Y-79029399I0J-249999D01*
G01*
G37*
G36*
G01*
X126963160Y-79029399D02*
X126963160Y-80279401D01*
G75*
G02*
X126713161Y-80529400I-249999J0D01*
G01*
X125913159Y-80529400D01*
G75*
G02*
X125663160Y-80279401I0J249999D01*
G01*
X125663160Y-79029399D01*
G75*
G02*
X125913159Y-78779400I249999J0D01*
G01*
X126713161Y-78779400D01*
G75*
G02*
X126963160Y-79029399I0J-249999D01*
G01*
G37*
%TD*%
%TO.C,R15*%
G36*
G01*
X115090280Y-75068021D02*
X115090280Y-73818019D01*
G75*
G02*
X115340279Y-73568020I249999J0D01*
G01*
X116140281Y-73568020D01*
G75*
G02*
X116390280Y-73818019I0J-249999D01*
G01*
X116390280Y-75068021D01*
G75*
G02*
X116140281Y-75318020I-249999J0D01*
G01*
X115340279Y-75318020D01*
G75*
G02*
X115090280Y-75068021I0J249999D01*
G01*
G37*
G36*
G01*
X118190280Y-75068021D02*
X118190280Y-73818019D01*
G75*
G02*
X118440279Y-73568020I249999J0D01*
G01*
X119240281Y-73568020D01*
G75*
G02*
X119490280Y-73818019I0J-249999D01*
G01*
X119490280Y-75068021D01*
G75*
G02*
X119240281Y-75318020I-249999J0D01*
G01*
X118440279Y-75318020D01*
G75*
G02*
X118190280Y-75068021I0J249999D01*
G01*
G37*
%TD*%
%TO.C,C1*%
G36*
G01*
X141539000Y-65801002D02*
X141539000Y-64500998D01*
G75*
G02*
X141788998Y-64251000I249998J0D01*
G01*
X142614002Y-64251000D01*
G75*
G02*
X142864000Y-64500998I0J-249998D01*
G01*
X142864000Y-65801002D01*
G75*
G02*
X142614002Y-66051000I-249998J0D01*
G01*
X141788998Y-66051000D01*
G75*
G02*
X141539000Y-65801002I0J249998D01*
G01*
G37*
G36*
G01*
X144664000Y-65801002D02*
X144664000Y-64500998D01*
G75*
G02*
X144913998Y-64251000I249998J0D01*
G01*
X145739002Y-64251000D01*
G75*
G02*
X145989000Y-64500998I0J-249998D01*
G01*
X145989000Y-65801002D01*
G75*
G02*
X145739002Y-66051000I-249998J0D01*
G01*
X144913998Y-66051000D01*
G75*
G02*
X144664000Y-65801002I0J249998D01*
G01*
G37*
%TD*%
%TO.C,C2*%
G36*
G01*
X120418500Y-75078352D02*
X120418500Y-73778348D01*
G75*
G02*
X120668498Y-73528350I249998J0D01*
G01*
X121493502Y-73528350D01*
G75*
G02*
X121743500Y-73778348I0J-249998D01*
G01*
X121743500Y-75078352D01*
G75*
G02*
X121493502Y-75328350I-249998J0D01*
G01*
X120668498Y-75328350D01*
G75*
G02*
X120418500Y-75078352I0J249998D01*
G01*
G37*
G36*
G01*
X123543500Y-75078352D02*
X123543500Y-73778348D01*
G75*
G02*
X123793498Y-73528350I249998J0D01*
G01*
X124618502Y-73528350D01*
G75*
G02*
X124868500Y-73778348I0J-249998D01*
G01*
X124868500Y-75078352D01*
G75*
G02*
X124618502Y-75328350I-249998J0D01*
G01*
X123793498Y-75328350D01*
G75*
G02*
X123543500Y-75078352I0J249998D01*
G01*
G37*
%TD*%
%TO.C,C3*%
G36*
G01*
X120444700Y-72450327D02*
X120444700Y-71150323D01*
G75*
G02*
X120694698Y-70900325I249998J0D01*
G01*
X121519702Y-70900325D01*
G75*
G02*
X121769700Y-71150323I0J-249998D01*
G01*
X121769700Y-72450327D01*
G75*
G02*
X121519702Y-72700325I-249998J0D01*
G01*
X120694698Y-72700325D01*
G75*
G02*
X120444700Y-72450327I0J249998D01*
G01*
G37*
G36*
G01*
X123569700Y-72450327D02*
X123569700Y-71150323D01*
G75*
G02*
X123819698Y-70900325I249998J0D01*
G01*
X124644702Y-70900325D01*
G75*
G02*
X124894700Y-71150323I0J-249998D01*
G01*
X124894700Y-72450327D01*
G75*
G02*
X124644702Y-72700325I-249998J0D01*
G01*
X123819698Y-72700325D01*
G75*
G02*
X123569700Y-72450327I0J249998D01*
G01*
G37*
%TD*%
%TO.C,C4*%
G36*
G01*
X119485280Y-68573538D02*
X119485280Y-69873542D01*
G75*
G02*
X119235282Y-70123540I-249998J0D01*
G01*
X118410278Y-70123540D01*
G75*
G02*
X118160280Y-69873542I0J249998D01*
G01*
X118160280Y-68573538D01*
G75*
G02*
X118410278Y-68323540I249998J0D01*
G01*
X119235282Y-68323540D01*
G75*
G02*
X119485280Y-68573538I0J-249998D01*
G01*
G37*
G36*
G01*
X116360280Y-68573538D02*
X116360280Y-69873542D01*
G75*
G02*
X116110282Y-70123540I-249998J0D01*
G01*
X115285278Y-70123540D01*
G75*
G02*
X115035280Y-69873542I0J249998D01*
G01*
X115035280Y-68573538D01*
G75*
G02*
X115285278Y-68323540I249998J0D01*
G01*
X116110282Y-68323540D01*
G75*
G02*
X116360280Y-68573538I0J-249998D01*
G01*
G37*
%TD*%
%TO.C,C5*%
G36*
G01*
X130997780Y-80274402D02*
X130997780Y-78974398D01*
G75*
G02*
X131247778Y-78724400I249998J0D01*
G01*
X132072782Y-78724400D01*
G75*
G02*
X132322780Y-78974398I0J-249998D01*
G01*
X132322780Y-80274402D01*
G75*
G02*
X132072782Y-80524400I-249998J0D01*
G01*
X131247778Y-80524400D01*
G75*
G02*
X130997780Y-80274402I0J249998D01*
G01*
G37*
G36*
G01*
X134122780Y-80274402D02*
X134122780Y-78974398D01*
G75*
G02*
X134372778Y-78724400I249998J0D01*
G01*
X135197782Y-78724400D01*
G75*
G02*
X135447780Y-78974398I0J-249998D01*
G01*
X135447780Y-80274402D01*
G75*
G02*
X135197782Y-80524400I-249998J0D01*
G01*
X134372778Y-80524400D01*
G75*
G02*
X134122780Y-80274402I0J249998D01*
G01*
G37*
%TD*%
%TO.C,C7*%
G36*
G01*
X119485280Y-76417758D02*
X119485280Y-77717762D01*
G75*
G02*
X119235282Y-77967760I-249998J0D01*
G01*
X118410278Y-77967760D01*
G75*
G02*
X118160280Y-77717762I0J249998D01*
G01*
X118160280Y-76417758D01*
G75*
G02*
X118410278Y-76167760I249998J0D01*
G01*
X119235282Y-76167760D01*
G75*
G02*
X119485280Y-76417758I0J-249998D01*
G01*
G37*
G36*
G01*
X116360280Y-76417758D02*
X116360280Y-77717762D01*
G75*
G02*
X116110282Y-77967760I-249998J0D01*
G01*
X115285278Y-77967760D01*
G75*
G02*
X115035280Y-77717762I0J249998D01*
G01*
X115035280Y-76417758D01*
G75*
G02*
X115285278Y-76167760I249998J0D01*
G01*
X116110282Y-76167760D01*
G75*
G02*
X116360280Y-76417758I0J-249998D01*
G01*
G37*
%TD*%
D20*
%TO.C,J1*%
X107543600Y-63588200D03*
X110083600Y-63588200D03*
X112623600Y-63588200D03*
%TD*%
%TO.C,C6*%
G36*
G01*
X124894700Y-76406373D02*
X124894700Y-77706377D01*
G75*
G02*
X124644702Y-77956375I-249998J0D01*
G01*
X123819698Y-77956375D01*
G75*
G02*
X123569700Y-77706377I0J249998D01*
G01*
X123569700Y-76406373D01*
G75*
G02*
X123819698Y-76156375I249998J0D01*
G01*
X124644702Y-76156375D01*
G75*
G02*
X124894700Y-76406373I0J-249998D01*
G01*
G37*
G36*
G01*
X121769700Y-76406373D02*
X121769700Y-77706377D01*
G75*
G02*
X121519702Y-77956375I-249998J0D01*
G01*
X120694698Y-77956375D01*
G75*
G02*
X120444700Y-77706377I0J249998D01*
G01*
X120444700Y-76406373D01*
G75*
G02*
X120694698Y-76156375I249998J0D01*
G01*
X121519702Y-76156375D01*
G75*
G02*
X121769700Y-76406373I0J-249998D01*
G01*
G37*
%TD*%
%TO.C,D2*%
G36*
G01*
X133121821Y-67551100D02*
X132221819Y-67551100D01*
G75*
G02*
X131971820Y-67301101I0J249999D01*
G01*
X131971820Y-66651099D01*
G75*
G02*
X132221819Y-66401100I249999J0D01*
G01*
X133121821Y-66401100D01*
G75*
G02*
X133371820Y-66651099I0J-249999D01*
G01*
X133371820Y-67301101D01*
G75*
G02*
X133121821Y-67551100I-249999J0D01*
G01*
G37*
G36*
G01*
X133121821Y-65501100D02*
X132221819Y-65501100D01*
G75*
G02*
X131971820Y-65251101I0J249999D01*
G01*
X131971820Y-64601099D01*
G75*
G02*
X132221819Y-64351100I249999J0D01*
G01*
X133121821Y-64351100D01*
G75*
G02*
X133371820Y-64601099I0J-249999D01*
G01*
X133371820Y-65251101D01*
G75*
G02*
X133121821Y-65501100I-249999J0D01*
G01*
G37*
%TD*%
%TO.C,D3*%
G36*
G01*
X131008541Y-67551100D02*
X130108539Y-67551100D01*
G75*
G02*
X129858540Y-67301101I0J249999D01*
G01*
X129858540Y-66651099D01*
G75*
G02*
X130108539Y-66401100I249999J0D01*
G01*
X131008541Y-66401100D01*
G75*
G02*
X131258540Y-66651099I0J-249999D01*
G01*
X131258540Y-67301101D01*
G75*
G02*
X131008541Y-67551100I-249999J0D01*
G01*
G37*
G36*
G01*
X131008541Y-65501100D02*
X130108539Y-65501100D01*
G75*
G02*
X129858540Y-65251101I0J249999D01*
G01*
X129858540Y-64601099D01*
G75*
G02*
X130108539Y-64351100I249999J0D01*
G01*
X131008541Y-64351100D01*
G75*
G02*
X131258540Y-64601099I0J-249999D01*
G01*
X131258540Y-65251101D01*
G75*
G02*
X131008541Y-65501100I-249999J0D01*
G01*
G37*
%TD*%
%TO.C,D4*%
G36*
G01*
X128895261Y-67551100D02*
X127995259Y-67551100D01*
G75*
G02*
X127745260Y-67301101I0J249999D01*
G01*
X127745260Y-66651099D01*
G75*
G02*
X127995259Y-66401100I249999J0D01*
G01*
X128895261Y-66401100D01*
G75*
G02*
X129145260Y-66651099I0J-249999D01*
G01*
X129145260Y-67301101D01*
G75*
G02*
X128895261Y-67551100I-249999J0D01*
G01*
G37*
G36*
G01*
X128895261Y-65501100D02*
X127995259Y-65501100D01*
G75*
G02*
X127745260Y-65251101I0J249999D01*
G01*
X127745260Y-64601099D01*
G75*
G02*
X127995259Y-64351100I249999J0D01*
G01*
X128895261Y-64351100D01*
G75*
G02*
X129145260Y-64601099I0J-249999D01*
G01*
X129145260Y-65251101D01*
G75*
G02*
X128895261Y-65501100I-249999J0D01*
G01*
G37*
%TD*%
%TO.C,D5*%
G36*
G01*
X126781981Y-67551100D02*
X125881979Y-67551100D01*
G75*
G02*
X125631980Y-67301101I0J249999D01*
G01*
X125631980Y-66651099D01*
G75*
G02*
X125881979Y-66401100I249999J0D01*
G01*
X126781981Y-66401100D01*
G75*
G02*
X127031980Y-66651099I0J-249999D01*
G01*
X127031980Y-67301101D01*
G75*
G02*
X126781981Y-67551100I-249999J0D01*
G01*
G37*
G36*
G01*
X126781981Y-65501100D02*
X125881979Y-65501100D01*
G75*
G02*
X125631980Y-65251101I0J249999D01*
G01*
X125631980Y-64601099D01*
G75*
G02*
X125881979Y-64351100I249999J0D01*
G01*
X126781981Y-64351100D01*
G75*
G02*
X127031980Y-64601099I0J-249999D01*
G01*
X127031980Y-65251101D01*
G75*
G02*
X126781981Y-65501100I-249999J0D01*
G01*
G37*
%TD*%
%TO.C,D6*%
G36*
G01*
X124668701Y-67551100D02*
X123768699Y-67551100D01*
G75*
G02*
X123518700Y-67301101I0J249999D01*
G01*
X123518700Y-66651099D01*
G75*
G02*
X123768699Y-66401100I249999J0D01*
G01*
X124668701Y-66401100D01*
G75*
G02*
X124918700Y-66651099I0J-249999D01*
G01*
X124918700Y-67301101D01*
G75*
G02*
X124668701Y-67551100I-249999J0D01*
G01*
G37*
G36*
G01*
X124668701Y-65501100D02*
X123768699Y-65501100D01*
G75*
G02*
X123518700Y-65251101I0J249999D01*
G01*
X123518700Y-64601099D01*
G75*
G02*
X123768699Y-64351100I249999J0D01*
G01*
X124668701Y-64351100D01*
G75*
G02*
X124918700Y-64601099I0J-249999D01*
G01*
X124918700Y-65251101D01*
G75*
G02*
X124668701Y-65501100I-249999J0D01*
G01*
G37*
%TD*%
%TO.C,R16*%
G36*
G01*
X115090280Y-67223801D02*
X115090280Y-65973799D01*
G75*
G02*
X115340279Y-65723800I249999J0D01*
G01*
X116140281Y-65723800D01*
G75*
G02*
X116390280Y-65973799I0J-249999D01*
G01*
X116390280Y-67223801D01*
G75*
G02*
X116140281Y-67473800I-249999J0D01*
G01*
X115340279Y-67473800D01*
G75*
G02*
X115090280Y-67223801I0J249999D01*
G01*
G37*
G36*
G01*
X118190280Y-67223801D02*
X118190280Y-65973799D01*
G75*
G02*
X118440279Y-65723800I249999J0D01*
G01*
X119240281Y-65723800D01*
G75*
G02*
X119490280Y-65973799I0J-249999D01*
G01*
X119490280Y-67223801D01*
G75*
G02*
X119240281Y-67473800I-249999J0D01*
G01*
X118440279Y-67473800D01*
G75*
G02*
X118190280Y-67223801I0J249999D01*
G01*
G37*
%TD*%
M02*
