%TF.GenerationSoftware,KiCad,Pcbnew,5.1.10-88a1d61d58~90~ubuntu20.04.1*%
%TF.CreationDate,2022-10-02T00:03:50+07:00*%
%TF.ProjectId,BioAmp-EXG-Pill_1206_rounder,42696f41-6d70-42d4-9558-472d50696c6c,1.0b*%
%TF.SameCoordinates,Original*%
%TF.FileFunction,Profile,NP*%
%FSLAX46Y46*%
G04 Gerber Fmt 4.6, Leading zero omitted, Abs format (unit mm)*
G04 Created by KiCad (PCBNEW 5.1.10-88a1d61d58~90~ubuntu20.04.1) date 2022-10-02 00:03:50*
%MOMM*%
%LPD*%
G01*
G04 APERTURE LIST*
%TA.AperFunction,Profile*%
%ADD10C,0.100000*%
%TD*%
G04 APERTURE END LIST*
D10*
%TO.C,BOARD1*%
X149098000Y-61353701D02*
X149349000Y-61366131D01*
X149349000Y-61366131D02*
X149595800Y-61402961D01*
X149595800Y-61402961D02*
X149836700Y-61463491D01*
X149836700Y-61463491D02*
X150070000Y-61547051D01*
X150070000Y-61547051D02*
X150294100Y-61652931D01*
X150294100Y-61652931D02*
X150507200Y-61780451D01*
X150507200Y-61780451D02*
X150707700Y-61928921D01*
X150707700Y-61928921D02*
X150894100Y-62097651D01*
X150894100Y-62097651D02*
X151062800Y-62283961D01*
X151062800Y-62283961D02*
X151211300Y-62484511D01*
X151211300Y-62484511D02*
X151338800Y-62697641D01*
X151338800Y-62697641D02*
X151444700Y-62921681D01*
X151444700Y-62921681D02*
X151528200Y-63154981D01*
X151528200Y-63154981D02*
X151588700Y-63395861D01*
X151588700Y-63395861D02*
X151625600Y-63642651D01*
X151625600Y-63642651D02*
X151638000Y-63893701D01*
X151638000Y-63893701D02*
X151638000Y-81673701D01*
X151638000Y-81673701D02*
X151625600Y-81924701D01*
X151625600Y-81924701D02*
X151588700Y-82171501D01*
X151588700Y-82171501D02*
X151528200Y-82412401D01*
X151528200Y-82412401D02*
X151444700Y-82645701D01*
X151444700Y-82645701D02*
X151338800Y-82869801D01*
X151338800Y-82869801D02*
X151211300Y-83082901D01*
X151211300Y-83082901D02*
X151062800Y-83283401D01*
X151062800Y-83283401D02*
X150894100Y-83469801D01*
X150894100Y-83469801D02*
X150707700Y-83638501D01*
X150707700Y-83638501D02*
X150507200Y-83787001D01*
X150507200Y-83787001D02*
X150294100Y-83914501D01*
X150294100Y-83914501D02*
X150070000Y-84020401D01*
X150070000Y-84020401D02*
X149836700Y-84103901D01*
X149836700Y-84103901D02*
X149595800Y-84164401D01*
X149595800Y-84164401D02*
X149349000Y-84201301D01*
X149349000Y-84201301D02*
X149098000Y-84213701D01*
X149098000Y-84213701D02*
X103378000Y-84213701D01*
X103378000Y-84213701D02*
X103126950Y-84201301D01*
X103126950Y-84201301D02*
X102880160Y-84164401D01*
X102880160Y-84164401D02*
X102639280Y-84103901D01*
X102639280Y-84103901D02*
X102405980Y-84020401D01*
X102405980Y-84020401D02*
X102181940Y-83914501D01*
X102181940Y-83914501D02*
X101968810Y-83787001D01*
X101968810Y-83787001D02*
X101768260Y-83638501D01*
X101768260Y-83638501D02*
X101581950Y-83469801D01*
X101581950Y-83469801D02*
X101413220Y-83283401D01*
X101413220Y-83283401D02*
X101264750Y-83082901D01*
X101264750Y-83082901D02*
X101137230Y-82869801D01*
X101137230Y-82869801D02*
X101031350Y-82645701D01*
X101031350Y-82645701D02*
X100947790Y-82412401D01*
X100947790Y-82412401D02*
X100887260Y-82171501D01*
X100887260Y-82171501D02*
X100850430Y-81924701D01*
X100850430Y-81924701D02*
X100838000Y-81673701D01*
X100838000Y-81673701D02*
X100838000Y-63893701D01*
X100838000Y-63893701D02*
X100851110Y-63634001D01*
X100851110Y-63634001D02*
X100889600Y-63381801D01*
X100889600Y-63381801D02*
X100952190Y-63138381D01*
X100952190Y-63138381D02*
X101037610Y-62905021D01*
X101037610Y-62905021D02*
X101144560Y-62682991D01*
X101144560Y-62682991D02*
X101271790Y-62473561D01*
X101271790Y-62473561D02*
X101418010Y-62278021D01*
X101418010Y-62278021D02*
X101581950Y-62097651D01*
X101581950Y-62097651D02*
X101762320Y-61933711D01*
X101762320Y-61933711D02*
X101957860Y-61787491D01*
X101957860Y-61787491D02*
X102167290Y-61660261D01*
X102167290Y-61660261D02*
X102389320Y-61553311D01*
X102389320Y-61553311D02*
X102622680Y-61467891D01*
X102622680Y-61467891D02*
X102866100Y-61405301D01*
X102866100Y-61405301D02*
X103118300Y-61366811D01*
X103118300Y-61366811D02*
X103378000Y-61353701D01*
X103378000Y-61353701D02*
X149098000Y-61353701D01*
X149098000Y-61353701D02*
X149098000Y-61353701D01*
%TD*%
M02*
