M48
; DRILL file {KiCad 5.1.10-88a1d61d58~90~ubuntu20.04.1} date Thu Aug 25 22:28:58 2022
; FORMAT={-:-/ absolute / inch / decimal}
; #@! TF.CreationDate,2022-08-25T22:28:58+02:00
; #@! TF.GenerationSoftware,Kicad,Pcbnew,5.1.10-88a1d61d58~90~ubuntu20.04.1
; #@! TF.FileFunction,Plated,1,2,PTH
FMAT,2
INCH
T1C0.0118
T2C0.0394
T3C0.0610
%
G90
G05
T1
X4.4882Y-3.6693
X4.5394Y-3.6496
X4.556Y-3.7256
X4.5571Y-3.7776
X4.626Y-3.6831
X4.6575Y-3.7657
X4.6732Y-3.6161
X4.7055Y-3.7496
X4.813Y-3.752
X4.8167Y-3.7245
X4.8209Y-3.8278
X4.8394Y-3.611
X4.8413Y-3.6642
X4.8701Y-3.8051
X4.9035Y-3.7067
X4.9429Y-3.6752
X4.9429Y-3.7874
X5.0984Y-3.6654
X5.1004Y-3.7205
X5.1004Y-3.7756
X5.1063Y-3.8425
X5.1083Y-3.8071
X5.1543Y-3.6858
X5.1567Y-3.5787
X5.1772Y-3.8945
X5.1791Y-3.5433
X5.1929Y-3.8768
X5.1949Y-3.561
X5.2067Y-3.8945
X5.2087Y-3.5433
X5.2224Y-3.8768
X5.2244Y-3.561
X5.2362Y-3.8945
X5.2382Y-3.5433
X5.252Y-3.8768
X5.2539Y-3.561
X5.2657Y-3.8945
X5.2677Y-3.5433
X5.2815Y-3.8768
X5.2835Y-3.561
X5.2953Y-3.8945
X5.2972Y-3.5433
X5.311Y-3.8768
X5.313Y-3.561
X5.3248Y-3.8945
X5.3268Y-3.5433
X5.3406Y-3.8768
X5.3425Y-3.561
T2
X4.3665Y-3.6195
X4.3665Y-3.7195
X4.3665Y-3.8195
X4.4245Y-3.6197
X4.4245Y-3.7197
X4.4245Y-3.8197
X5.2245Y-3.6193
X5.2245Y-3.7193
X5.2245Y-3.8193
X5.3693Y-3.6193
X5.3693Y-3.7193
X5.3693Y-3.8193
T3
X5.3091Y-3.6193
X5.3091Y-3.7193
X5.3091Y-3.8193
T0
M30
