%TF.GenerationSoftware,KiCad,Pcbnew,5.1.10-88a1d61d58~90~ubuntu20.04.1*%
%TF.CreationDate,2022-08-25T22:47:22+02:00*%
%TF.ProjectId,BioAmp-EXG-Pill,42696f41-6d70-42d4-9558-472d50696c6c,1.0b*%
%TF.SameCoordinates,Original*%
%TF.FileFunction,Soldermask,Bot*%
%TF.FilePolarity,Negative*%
%FSLAX46Y46*%
G04 Gerber Fmt 4.6, Leading zero omitted, Abs format (unit mm)*
G04 Created by KiCad (PCBNEW 5.1.10-88a1d61d58~90~ubuntu20.04.1) date 2022-08-25 22:47:22*
%MOMM*%
%LPD*%
G01*
G04 APERTURE LIST*
%ADD10O,2.000000X2.000000*%
%ADD11R,1.500000X1.000000*%
%ADD12C,0.100000*%
%ADD13O,4.500000X2.000000*%
%ADD14O,3.500000X1.700000*%
%ADD15O,3.500000X2.000000*%
%ADD16O,2.000000X1.700000*%
G04 APERTURE END LIST*
D10*
%TO.C,J2*%
X134850000Y-97010000D03*
X134850000Y-94470000D03*
X134850000Y-91930000D03*
%TD*%
D11*
%TO.C,JP1*%
X128300000Y-95150000D03*
D12*
G36*
X127550602Y-93850000D02*
G01*
X127550602Y-93825466D01*
X127555412Y-93776635D01*
X127564984Y-93728510D01*
X127579228Y-93681555D01*
X127598005Y-93636222D01*
X127621136Y-93592949D01*
X127648396Y-93552150D01*
X127679524Y-93514221D01*
X127714221Y-93479524D01*
X127752150Y-93448396D01*
X127792949Y-93421136D01*
X127836222Y-93398005D01*
X127881555Y-93379228D01*
X127928510Y-93364984D01*
X127976635Y-93355412D01*
X128025466Y-93350602D01*
X128050000Y-93350602D01*
X128050000Y-93350000D01*
X128550000Y-93350000D01*
X128550000Y-93350602D01*
X128574534Y-93350602D01*
X128623365Y-93355412D01*
X128671490Y-93364984D01*
X128718445Y-93379228D01*
X128763778Y-93398005D01*
X128807051Y-93421136D01*
X128847850Y-93448396D01*
X128885779Y-93479524D01*
X128920476Y-93514221D01*
X128951604Y-93552150D01*
X128978864Y-93592949D01*
X129001995Y-93636222D01*
X129020772Y-93681555D01*
X129035016Y-93728510D01*
X129044588Y-93776635D01*
X129049398Y-93825466D01*
X129049398Y-93850000D01*
X129050000Y-93850000D01*
X129050000Y-94400000D01*
X127550000Y-94400000D01*
X127550000Y-93850000D01*
X127550602Y-93850000D01*
G37*
G36*
X129050000Y-95900000D02*
G01*
X129050000Y-96450000D01*
X129049398Y-96450000D01*
X129049398Y-96474534D01*
X129044588Y-96523365D01*
X129035016Y-96571490D01*
X129020772Y-96618445D01*
X129001995Y-96663778D01*
X128978864Y-96707051D01*
X128951604Y-96747850D01*
X128920476Y-96785779D01*
X128885779Y-96820476D01*
X128847850Y-96851604D01*
X128807051Y-96878864D01*
X128763778Y-96901995D01*
X128718445Y-96920772D01*
X128671490Y-96935016D01*
X128623365Y-96944588D01*
X128574534Y-96949398D01*
X128550000Y-96949398D01*
X128550000Y-96950000D01*
X128050000Y-96950000D01*
X128050000Y-96949398D01*
X128025466Y-96949398D01*
X127976635Y-96944588D01*
X127928510Y-96935016D01*
X127881555Y-96920772D01*
X127836222Y-96901995D01*
X127792949Y-96878864D01*
X127752150Y-96851604D01*
X127714221Y-96820476D01*
X127679524Y-96785779D01*
X127648396Y-96747850D01*
X127621136Y-96707051D01*
X127598005Y-96663778D01*
X127579228Y-96618445D01*
X127564984Y-96571490D01*
X127555412Y-96523365D01*
X127550602Y-96474534D01*
X127550602Y-96450000D01*
X127550000Y-96450000D01*
X127550000Y-95900000D01*
X129050000Y-95900000D01*
G37*
%TD*%
%TO.C,JP2*%
G36*
X118000000Y-96100602D02*
G01*
X118024534Y-96100602D01*
X118073365Y-96105412D01*
X118121490Y-96114984D01*
X118168445Y-96129228D01*
X118213778Y-96148005D01*
X118257051Y-96171136D01*
X118297850Y-96198396D01*
X118335779Y-96229524D01*
X118370476Y-96264221D01*
X118401604Y-96302150D01*
X118428864Y-96342949D01*
X118451995Y-96386222D01*
X118470772Y-96431555D01*
X118485016Y-96478510D01*
X118494588Y-96526635D01*
X118499398Y-96575466D01*
X118499398Y-96600000D01*
X118500000Y-96600000D01*
X118500000Y-97100000D01*
X118499398Y-97100000D01*
X118499398Y-97124534D01*
X118494588Y-97173365D01*
X118485016Y-97221490D01*
X118470772Y-97268445D01*
X118451995Y-97313778D01*
X118428864Y-97357051D01*
X118401604Y-97397850D01*
X118370476Y-97435779D01*
X118335779Y-97470476D01*
X118297850Y-97501604D01*
X118257051Y-97528864D01*
X118213778Y-97551995D01*
X118168445Y-97570772D01*
X118121490Y-97585016D01*
X118073365Y-97594588D01*
X118024534Y-97599398D01*
X118000000Y-97599398D01*
X118000000Y-97600000D01*
X117500000Y-97600000D01*
X117500000Y-96100000D01*
X118000000Y-96100000D01*
X118000000Y-96100602D01*
G37*
G36*
X117200000Y-97600000D02*
G01*
X116700000Y-97600000D01*
X116700000Y-97599398D01*
X116675466Y-97599398D01*
X116626635Y-97594588D01*
X116578510Y-97585016D01*
X116531555Y-97570772D01*
X116486222Y-97551995D01*
X116442949Y-97528864D01*
X116402150Y-97501604D01*
X116364221Y-97470476D01*
X116329524Y-97435779D01*
X116298396Y-97397850D01*
X116271136Y-97357051D01*
X116248005Y-97313778D01*
X116229228Y-97268445D01*
X116214984Y-97221490D01*
X116205412Y-97173365D01*
X116200602Y-97124534D01*
X116200602Y-97100000D01*
X116200000Y-97100000D01*
X116200000Y-96600000D01*
X116200602Y-96600000D01*
X116200602Y-96575466D01*
X116205412Y-96526635D01*
X116214984Y-96478510D01*
X116229228Y-96431555D01*
X116248005Y-96386222D01*
X116271136Y-96342949D01*
X116298396Y-96302150D01*
X116329524Y-96264221D01*
X116364221Y-96229524D01*
X116402150Y-96198396D01*
X116442949Y-96171136D01*
X116486222Y-96148005D01*
X116531555Y-96129228D01*
X116578510Y-96114984D01*
X116626635Y-96105412D01*
X116675466Y-96100602D01*
X116700000Y-96100602D01*
X116700000Y-96100000D01*
X117200000Y-96100000D01*
X117200000Y-97600000D01*
G37*
%TD*%
%TO.C,R3*%
G36*
G01*
X117812500Y-92857500D02*
X118287500Y-92857500D01*
G75*
G02*
X118525000Y-93095000I0J-237500D01*
G01*
X118525000Y-93595000D01*
G75*
G02*
X118287500Y-93832500I-237500J0D01*
G01*
X117812500Y-93832500D01*
G75*
G02*
X117575000Y-93595000I0J237500D01*
G01*
X117575000Y-93095000D01*
G75*
G02*
X117812500Y-92857500I237500J0D01*
G01*
G37*
G36*
G01*
X117812500Y-91032500D02*
X118287500Y-91032500D01*
G75*
G02*
X118525000Y-91270000I0J-237500D01*
G01*
X118525000Y-91770000D01*
G75*
G02*
X118287500Y-92007500I-237500J0D01*
G01*
X117812500Y-92007500D01*
G75*
G02*
X117575000Y-91770000I0J237500D01*
G01*
X117575000Y-91270000D01*
G75*
G02*
X117812500Y-91032500I237500J0D01*
G01*
G37*
%TD*%
%TO.C,C8*%
G36*
G01*
X116302500Y-92765000D02*
X116777500Y-92765000D01*
G75*
G02*
X117015000Y-93002500I0J-237500D01*
G01*
X117015000Y-93602500D01*
G75*
G02*
X116777500Y-93840000I-237500J0D01*
G01*
X116302500Y-93840000D01*
G75*
G02*
X116065000Y-93602500I0J237500D01*
G01*
X116065000Y-93002500D01*
G75*
G02*
X116302500Y-92765000I237500J0D01*
G01*
G37*
G36*
G01*
X116302500Y-91040000D02*
X116777500Y-91040000D01*
G75*
G02*
X117015000Y-91277500I0J-237500D01*
G01*
X117015000Y-91877500D01*
G75*
G02*
X116777500Y-92115000I-237500J0D01*
G01*
X116302500Y-92115000D01*
G75*
G02*
X116065000Y-91877500I0J237500D01*
G01*
X116065000Y-91277500D01*
G75*
G02*
X116302500Y-91040000I237500J0D01*
G01*
G37*
%TD*%
D13*
%TO.C,J2*%
X133952300Y-97010000D03*
X133952300Y-94470000D03*
X133952300Y-91930000D03*
%TD*%
%TO.C,R1*%
G36*
G01*
X127591000Y-91462500D02*
X127591000Y-91937500D01*
G75*
G02*
X127353500Y-92175000I-237500J0D01*
G01*
X126853500Y-92175000D01*
G75*
G02*
X126616000Y-91937500I0J237500D01*
G01*
X126616000Y-91462500D01*
G75*
G02*
X126853500Y-91225000I237500J0D01*
G01*
X127353500Y-91225000D01*
G75*
G02*
X127591000Y-91462500I0J-237500D01*
G01*
G37*
G36*
G01*
X129416000Y-91462500D02*
X129416000Y-91937500D01*
G75*
G02*
X129178500Y-92175000I-237500J0D01*
G01*
X128678500Y-92175000D01*
G75*
G02*
X128441000Y-91937500I0J237500D01*
G01*
X128441000Y-91462500D01*
G75*
G02*
X128678500Y-91225000I237500J0D01*
G01*
X129178500Y-91225000D01*
G75*
G02*
X129416000Y-91462500I0J-237500D01*
G01*
G37*
%TD*%
D14*
%TO.C,J1*%
X111659100Y-97015300D03*
X111659100Y-94475300D03*
X111659100Y-91935300D03*
%TD*%
D15*
%TO.C,J2*%
X135630000Y-91930000D03*
X135630000Y-94470000D03*
X135630000Y-97010000D03*
%TD*%
D16*
%TO.C,J1*%
X112382800Y-91940000D03*
X112382800Y-94480000D03*
X112382800Y-97020000D03*
%TD*%
M02*
