M48
; DRILL file {KiCad 5.1.10-88a1d61d58~90~ubuntu20.04.1} date Sun Oct  2 00:03:53 2022
; FORMAT={-:-/ absolute / inch / decimal}
; #@! TF.CreationDate,2022-10-02T00:03:53+07:00
; #@! TF.GenerationSoftware,Kicad,Pcbnew,5.1.10-88a1d61d58~90~ubuntu20.04.1
; #@! TF.FileFunction,Plated,1,2,PTH
FMAT,2
INCH
T1C0.0157
T2C0.0197
T3C0.0394
T4C0.0472
T5C0.0610
T6C0.1063
%
G90
G05
T1
X4.5978Y-2.9882
X4.709Y-2.9625
X4.73Y-3.028
X4.81Y-2.776
X4.819Y-2.9965
X4.846Y-2.88
X4.9435Y-2.926
X4.977Y-2.6865
X5.068Y-2.883
X5.1535Y-2.697
X5.1703Y-2.8813
X5.2Y-2.7745
X5.23Y-3.13
X5.345Y-3.135
X5.4525Y-2.8315
X5.4595Y-3.123
X5.46Y-3.033
X5.4621Y-2.9304
X5.4625Y-2.622
X5.76Y-2.67
X5.76Y-2.73
X5.76Y-2.79
X5.76Y-2.95
X5.76Y-3.01
X5.76Y-3.07
X5.79Y-2.7
X5.79Y-2.76
X5.79Y-2.98
X5.79Y-3.04
X5.81Y-2.67
X5.81Y-3.07
X5.82Y-2.73
X5.82Y-2.79
X5.82Y-2.95
X5.82Y-3.01
X5.85Y-2.76
X5.85Y-2.98
X5.88Y-2.73
X5.88Y-2.79
X5.88Y-2.95
X5.88Y-3.01
X5.91Y-2.7
X5.91Y-2.76
X5.91Y-2.98
X5.91Y-3.04
X5.94Y-2.67
X5.94Y-2.73
X5.94Y-2.79
X5.94Y-2.95
X5.94Y-3.01
X5.94Y-3.07
T3
X4.035Y-2.99
X4.035Y-3.09
X4.22Y-3.266
X4.234Y-2.533
X4.32Y-3.266
X4.334Y-2.533
X4.42Y-3.266
X4.434Y-2.533
X4.52Y-3.266
X4.62Y-2.466
X4.62Y-3.266
X4.72Y-2.466
X4.72Y-3.266
X4.82Y-2.466
X4.82Y-3.266
X4.92Y-2.466
X4.92Y-3.266
X5.02Y-2.466
X5.02Y-3.266
X5.12Y-2.466
X5.12Y-3.266
X5.22Y-2.466
X5.22Y-3.266
X5.32Y-2.466
X5.32Y-3.266
X5.42Y-2.466
X5.42Y-3.266
X5.52Y-2.466
X5.52Y-3.266
X5.62Y-2.466
X5.62Y-3.266
X5.72Y-2.466
X5.72Y-3.266
X5.865Y-3.16
X5.865Y-3.26
T4
X5.6687Y-2.6703
X5.6687Y-2.7726
X5.6687Y-2.9694
X5.6687Y-3.0717
X5.8655Y-2.871
T5
X4.235Y-2.47
X4.335Y-2.47
X4.435Y-2.47
T6
X4.07Y-2.512
X4.07Y-3.2155
X5.8697Y-2.512
T2
G00X4.0059Y-2.8438
M15
G01X4.0059Y-2.8832
M16
G05
G00X4.1279Y-2.8438
M15
G01X4.1279Y-2.8832
M16
G05
G00X4.4547Y-2.8438
M15
G01X4.4547Y-2.8832
M16
G05
T0
M30
