%TF.GenerationSoftware,KiCad,Pcbnew,5.1.10-88a1d61d58~90~ubuntu20.04.1*%
%TF.CreationDate,2022-10-02T00:03:50+07:00*%
%TF.ProjectId,BioAmp-EXG-Pill_1206_rounder,42696f41-6d70-42d4-9558-472d50696c6c,1.0b*%
%TF.SameCoordinates,Original*%
%TF.FileFunction,Soldermask,Bot*%
%TF.FilePolarity,Negative*%
%FSLAX46Y46*%
G04 Gerber Fmt 4.6, Leading zero omitted, Abs format (unit mm)*
G04 Created by KiCad (PCBNEW 5.1.10-88a1d61d58~90~ubuntu20.04.1) date 2022-10-02 00:03:50*
%MOMM*%
%LPD*%
G01*
G04 APERTURE LIST*
%ADD10C,0.010000*%
%ADD11C,2.700000*%
%ADD12O,1.700000X1.700000*%
%ADD13C,0.100000*%
%ADD14O,2.000000X2.000000*%
%ADD15R,1.500000X1.000000*%
%ADD16R,1.700000X1.700000*%
%ADD17R,1.000000X2.500000*%
%ADD18C,1.220000*%
%ADD19C,2.201860*%
%ADD20O,1.700000X3.500000*%
G04 APERTURE END LIST*
D10*
%TO.C,BOARD1*%
G36*
X103735862Y-79972488D02*
G01*
X103991352Y-80045638D01*
X104053166Y-80069968D01*
X104291352Y-80191358D01*
X104505540Y-80345851D01*
X104692897Y-80529885D01*
X104850591Y-80739900D01*
X104975787Y-80972335D01*
X105065653Y-81223628D01*
X105102668Y-81388964D01*
X105125466Y-81546844D01*
X105133061Y-81684804D01*
X105125472Y-81822427D01*
X105103277Y-81976110D01*
X105037030Y-82236730D01*
X104933741Y-82480759D01*
X104796499Y-82704796D01*
X104628390Y-82905436D01*
X104432503Y-83079277D01*
X104211926Y-83222916D01*
X103969746Y-83332949D01*
X103832320Y-83376854D01*
X103728718Y-83397336D01*
X103596618Y-83411903D01*
X103449492Y-83420162D01*
X103300812Y-83421719D01*
X103164052Y-83416180D01*
X103052684Y-83403151D01*
X103036951Y-83400102D01*
X102784373Y-83326500D01*
X102547516Y-83216732D01*
X102330060Y-83074433D01*
X102135681Y-82903236D01*
X101968058Y-82706779D01*
X101830869Y-82488695D01*
X101727791Y-82252619D01*
X101671881Y-82050955D01*
X101649148Y-81892787D01*
X101642395Y-81756851D01*
X102437045Y-81756851D01*
X102444851Y-81820769D01*
X102496668Y-82015354D01*
X102584547Y-82190583D01*
X102705175Y-82342497D01*
X102855239Y-82467136D01*
X103031428Y-82560541D01*
X103078623Y-82578358D01*
X103157953Y-82603039D01*
X103230954Y-82617030D01*
X103313751Y-82622327D01*
X103422465Y-82620923D01*
X103422707Y-82620915D01*
X103523746Y-82616198D01*
X103598160Y-82607315D01*
X103661657Y-82590606D01*
X103729943Y-82562407D01*
X103782729Y-82536977D01*
X103952168Y-82431929D01*
X104091412Y-82302205D01*
X104199528Y-82152789D01*
X104275585Y-81988664D01*
X104318651Y-81814813D01*
X104327794Y-81636220D01*
X104302084Y-81457867D01*
X104240589Y-81284738D01*
X104142376Y-81121815D01*
X104064445Y-81029997D01*
X103919767Y-80903307D01*
X103763131Y-80814811D01*
X103589799Y-80762671D01*
X103395039Y-80745049D01*
X103333292Y-80746155D01*
X103231547Y-80751731D01*
X103156195Y-80761466D01*
X103091295Y-80779159D01*
X103020908Y-80808607D01*
X102971879Y-80832279D01*
X102808450Y-80934983D01*
X102670575Y-81066049D01*
X102561376Y-81219624D01*
X102483974Y-81389852D01*
X102441490Y-81570879D01*
X102437045Y-81756851D01*
X101642395Y-81756851D01*
X101640293Y-81714555D01*
X101645071Y-81532578D01*
X101663235Y-81363174D01*
X101683749Y-81260951D01*
X101751894Y-81056522D01*
X101849928Y-80851852D01*
X101971160Y-80657760D01*
X102108897Y-80485065D01*
X102244514Y-80354324D01*
X102466844Y-80196323D01*
X102705340Y-80075175D01*
X102955744Y-79991548D01*
X103213802Y-79946112D01*
X103475260Y-79939536D01*
X103735862Y-79972488D01*
G37*
X103735862Y-79972488D02*
X103991352Y-80045638D01*
X104053166Y-80069968D01*
X104291352Y-80191358D01*
X104505540Y-80345851D01*
X104692897Y-80529885D01*
X104850591Y-80739900D01*
X104975787Y-80972335D01*
X105065653Y-81223628D01*
X105102668Y-81388964D01*
X105125466Y-81546844D01*
X105133061Y-81684804D01*
X105125472Y-81822427D01*
X105103277Y-81976110D01*
X105037030Y-82236730D01*
X104933741Y-82480759D01*
X104796499Y-82704796D01*
X104628390Y-82905436D01*
X104432503Y-83079277D01*
X104211926Y-83222916D01*
X103969746Y-83332949D01*
X103832320Y-83376854D01*
X103728718Y-83397336D01*
X103596618Y-83411903D01*
X103449492Y-83420162D01*
X103300812Y-83421719D01*
X103164052Y-83416180D01*
X103052684Y-83403151D01*
X103036951Y-83400102D01*
X102784373Y-83326500D01*
X102547516Y-83216732D01*
X102330060Y-83074433D01*
X102135681Y-82903236D01*
X101968058Y-82706779D01*
X101830869Y-82488695D01*
X101727791Y-82252619D01*
X101671881Y-82050955D01*
X101649148Y-81892787D01*
X101642395Y-81756851D01*
X102437045Y-81756851D01*
X102444851Y-81820769D01*
X102496668Y-82015354D01*
X102584547Y-82190583D01*
X102705175Y-82342497D01*
X102855239Y-82467136D01*
X103031428Y-82560541D01*
X103078623Y-82578358D01*
X103157953Y-82603039D01*
X103230954Y-82617030D01*
X103313751Y-82622327D01*
X103422465Y-82620923D01*
X103422707Y-82620915D01*
X103523746Y-82616198D01*
X103598160Y-82607315D01*
X103661657Y-82590606D01*
X103729943Y-82562407D01*
X103782729Y-82536977D01*
X103952168Y-82431929D01*
X104091412Y-82302205D01*
X104199528Y-82152789D01*
X104275585Y-81988664D01*
X104318651Y-81814813D01*
X104327794Y-81636220D01*
X104302084Y-81457867D01*
X104240589Y-81284738D01*
X104142376Y-81121815D01*
X104064445Y-81029997D01*
X103919767Y-80903307D01*
X103763131Y-80814811D01*
X103589799Y-80762671D01*
X103395039Y-80745049D01*
X103333292Y-80746155D01*
X103231547Y-80751731D01*
X103156195Y-80761466D01*
X103091295Y-80779159D01*
X103020908Y-80808607D01*
X102971879Y-80832279D01*
X102808450Y-80934983D01*
X102670575Y-81066049D01*
X102561376Y-81219624D01*
X102483974Y-81389852D01*
X102441490Y-81570879D01*
X102437045Y-81756851D01*
X101642395Y-81756851D01*
X101640293Y-81714555D01*
X101645071Y-81532578D01*
X101663235Y-81363174D01*
X101683749Y-81260951D01*
X101751894Y-81056522D01*
X101849928Y-80851852D01*
X101971160Y-80657760D01*
X102108897Y-80485065D01*
X102244514Y-80354324D01*
X102466844Y-80196323D01*
X102705340Y-80075175D01*
X102955744Y-79991548D01*
X103213802Y-79946112D01*
X103475260Y-79939536D01*
X103735862Y-79972488D01*
G36*
X103481254Y-62084016D02*
G01*
X103628465Y-62092022D01*
X103754871Y-62107180D01*
X103822500Y-62121559D01*
X104077235Y-62211362D01*
X104306923Y-62332477D01*
X104510513Y-62481343D01*
X104686959Y-62654400D01*
X104835212Y-62848086D01*
X104954223Y-63058841D01*
X105042943Y-63283105D01*
X105100325Y-63517315D01*
X105125321Y-63757913D01*
X105116881Y-64001336D01*
X105073957Y-64244023D01*
X104995502Y-64482415D01*
X104880466Y-64712951D01*
X104727801Y-64932068D01*
X104670010Y-65000115D01*
X104489075Y-65172363D01*
X104281336Y-65315940D01*
X104052824Y-65428896D01*
X103809570Y-65509281D01*
X103557604Y-65555145D01*
X103302956Y-65564537D01*
X103051658Y-65535509D01*
X103028750Y-65530804D01*
X102777265Y-65456642D01*
X102541590Y-65346770D01*
X102325351Y-65204861D01*
X102132175Y-65034584D01*
X101965689Y-64839610D01*
X101829522Y-64623610D01*
X101727299Y-64390255D01*
X101663762Y-64149443D01*
X101645311Y-63995994D01*
X101639729Y-63823299D01*
X101640088Y-63814080D01*
X102438441Y-63814080D01*
X102452841Y-63984041D01*
X102497033Y-64149205D01*
X102570738Y-64304885D01*
X102673679Y-64446394D01*
X102805578Y-64569046D01*
X102966158Y-64668152D01*
X103097794Y-64721775D01*
X103175698Y-64742902D01*
X103257862Y-64753862D01*
X103359287Y-64756167D01*
X103422705Y-64754517D01*
X103528339Y-64748728D01*
X103607468Y-64738177D01*
X103675897Y-64719491D01*
X103749432Y-64689300D01*
X103767459Y-64680968D01*
X103933974Y-64581050D01*
X104077860Y-64450447D01*
X104193875Y-64295690D01*
X104276779Y-64123310D01*
X104310579Y-64004180D01*
X104328892Y-63817099D01*
X104308597Y-63632475D01*
X104253015Y-63455948D01*
X104165468Y-63293154D01*
X104049278Y-63149734D01*
X103907765Y-63031327D01*
X103744252Y-62943571D01*
X103670445Y-62917401D01*
X103492550Y-62881967D01*
X103308436Y-62878825D01*
X103130656Y-62907259D01*
X102993198Y-62956047D01*
X102823021Y-63056363D01*
X102684302Y-63180005D01*
X102576762Y-63322284D01*
X102500123Y-63478514D01*
X102454109Y-63644009D01*
X102438441Y-63814080D01*
X101640088Y-63814080D01*
X101646576Y-63647821D01*
X101665416Y-63486022D01*
X101683809Y-63396284D01*
X101768255Y-63147431D01*
X101889379Y-62914609D01*
X102043279Y-62701795D01*
X102226052Y-62512964D01*
X102433795Y-62352092D01*
X102662605Y-62223156D01*
X102908581Y-62130132D01*
X102933500Y-62123087D01*
X103039362Y-62102698D01*
X103174246Y-62089376D01*
X103325696Y-62083141D01*
X103481254Y-62084016D01*
G37*
X103481254Y-62084016D02*
X103628465Y-62092022D01*
X103754871Y-62107180D01*
X103822500Y-62121559D01*
X104077235Y-62211362D01*
X104306923Y-62332477D01*
X104510513Y-62481343D01*
X104686959Y-62654400D01*
X104835212Y-62848086D01*
X104954223Y-63058841D01*
X105042943Y-63283105D01*
X105100325Y-63517315D01*
X105125321Y-63757913D01*
X105116881Y-64001336D01*
X105073957Y-64244023D01*
X104995502Y-64482415D01*
X104880466Y-64712951D01*
X104727801Y-64932068D01*
X104670010Y-65000115D01*
X104489075Y-65172363D01*
X104281336Y-65315940D01*
X104052824Y-65428896D01*
X103809570Y-65509281D01*
X103557604Y-65555145D01*
X103302956Y-65564537D01*
X103051658Y-65535509D01*
X103028750Y-65530804D01*
X102777265Y-65456642D01*
X102541590Y-65346770D01*
X102325351Y-65204861D01*
X102132175Y-65034584D01*
X101965689Y-64839610D01*
X101829522Y-64623610D01*
X101727299Y-64390255D01*
X101663762Y-64149443D01*
X101645311Y-63995994D01*
X101639729Y-63823299D01*
X101640088Y-63814080D01*
X102438441Y-63814080D01*
X102452841Y-63984041D01*
X102497033Y-64149205D01*
X102570738Y-64304885D01*
X102673679Y-64446394D01*
X102805578Y-64569046D01*
X102966158Y-64668152D01*
X103097794Y-64721775D01*
X103175698Y-64742902D01*
X103257862Y-64753862D01*
X103359287Y-64756167D01*
X103422705Y-64754517D01*
X103528339Y-64748728D01*
X103607468Y-64738177D01*
X103675897Y-64719491D01*
X103749432Y-64689300D01*
X103767459Y-64680968D01*
X103933974Y-64581050D01*
X104077860Y-64450447D01*
X104193875Y-64295690D01*
X104276779Y-64123310D01*
X104310579Y-64004180D01*
X104328892Y-63817099D01*
X104308597Y-63632475D01*
X104253015Y-63455948D01*
X104165468Y-63293154D01*
X104049278Y-63149734D01*
X103907765Y-63031327D01*
X103744252Y-62943571D01*
X103670445Y-62917401D01*
X103492550Y-62881967D01*
X103308436Y-62878825D01*
X103130656Y-62907259D01*
X102993198Y-62956047D01*
X102823021Y-63056363D01*
X102684302Y-63180005D01*
X102576762Y-63322284D01*
X102500123Y-63478514D01*
X102454109Y-63644009D01*
X102438441Y-63814080D01*
X101640088Y-63814080D01*
X101646576Y-63647821D01*
X101665416Y-63486022D01*
X101683809Y-63396284D01*
X101768255Y-63147431D01*
X101889379Y-62914609D01*
X102043279Y-62701795D01*
X102226052Y-62512964D01*
X102433795Y-62352092D01*
X102662605Y-62223156D01*
X102908581Y-62130132D01*
X102933500Y-62123087D01*
X103039362Y-62102698D01*
X103174246Y-62089376D01*
X103325696Y-62083141D01*
X103481254Y-62084016D01*
G36*
X149216159Y-62085103D02*
G01*
X149312595Y-62087064D01*
X149386749Y-62091909D01*
X149448646Y-62100928D01*
X149508311Y-62115413D01*
X149575768Y-62136653D01*
X149627166Y-62154217D01*
X149883253Y-62263746D01*
X150113924Y-62405387D01*
X150316927Y-62576570D01*
X150490010Y-62774727D01*
X150630921Y-62997287D01*
X150737408Y-63241683D01*
X150806056Y-63499150D01*
X150825754Y-63662508D01*
X150829438Y-63846455D01*
X150817857Y-64033904D01*
X150791762Y-64207766D01*
X150771256Y-64292240D01*
X150678671Y-64539980D01*
X150549971Y-64769890D01*
X150388961Y-64978224D01*
X150199448Y-65161236D01*
X149985239Y-65315179D01*
X149750138Y-65436309D01*
X149531916Y-65511989D01*
X149457575Y-65526467D01*
X149353823Y-65539124D01*
X149232939Y-65549254D01*
X149107205Y-65556150D01*
X148988900Y-65559107D01*
X148890305Y-65557416D01*
X148833416Y-65552171D01*
X148573042Y-65489993D01*
X148329844Y-65391848D01*
X148106674Y-65261040D01*
X147906387Y-65100877D01*
X147731833Y-64914666D01*
X147585866Y-64705714D01*
X147471339Y-64477327D01*
X147391104Y-64232813D01*
X147348014Y-63975477D01*
X147341166Y-63822372D01*
X147341490Y-63817662D01*
X148145500Y-63817662D01*
X148165407Y-64017702D01*
X148223341Y-64202401D01*
X148316620Y-64368026D01*
X148442558Y-64510847D01*
X148598475Y-64627133D01*
X148781686Y-64713154D01*
X148792127Y-64716804D01*
X148948967Y-64752436D01*
X149120715Y-64760532D01*
X149290096Y-64741059D01*
X149378013Y-64717924D01*
X149558868Y-64637310D01*
X149715166Y-64524683D01*
X149843617Y-64384580D01*
X149940933Y-64221538D01*
X150003824Y-64040097D01*
X150029001Y-63844793D01*
X150029333Y-63819274D01*
X150009315Y-63618690D01*
X149950797Y-63433004D01*
X149856083Y-63265838D01*
X149727479Y-63120815D01*
X149567287Y-63001557D01*
X149479000Y-62954120D01*
X149417702Y-62925987D01*
X149366144Y-62907259D01*
X149312986Y-62896032D01*
X149246890Y-62890403D01*
X149156517Y-62888466D01*
X149086971Y-62888284D01*
X148977458Y-62888871D01*
X148898997Y-62891940D01*
X148840307Y-62899453D01*
X148790110Y-62913374D01*
X148737126Y-62935664D01*
X148693439Y-62956757D01*
X148516581Y-63065241D01*
X148371925Y-63199394D01*
X148261294Y-63356348D01*
X148186516Y-63533233D01*
X148149416Y-63727180D01*
X148145500Y-63817662D01*
X147341490Y-63817662D01*
X147359788Y-63552350D01*
X147416206Y-63300014D01*
X147511252Y-63063385D01*
X147645754Y-62840489D01*
X147820544Y-62629348D01*
X147858743Y-62590029D01*
X148015348Y-62445259D01*
X148169564Y-62331362D01*
X148334722Y-62239906D01*
X148524155Y-62162458D01*
X148547666Y-62154217D01*
X148625265Y-62128022D01*
X148688711Y-62109401D01*
X148748029Y-62097065D01*
X148813244Y-62089721D01*
X148894382Y-62086081D01*
X149001467Y-62084853D01*
X149087416Y-62084737D01*
X149216159Y-62085103D01*
G37*
X149216159Y-62085103D02*
X149312595Y-62087064D01*
X149386749Y-62091909D01*
X149448646Y-62100928D01*
X149508311Y-62115413D01*
X149575768Y-62136653D01*
X149627166Y-62154217D01*
X149883253Y-62263746D01*
X150113924Y-62405387D01*
X150316927Y-62576570D01*
X150490010Y-62774727D01*
X150630921Y-62997287D01*
X150737408Y-63241683D01*
X150806056Y-63499150D01*
X150825754Y-63662508D01*
X150829438Y-63846455D01*
X150817857Y-64033904D01*
X150791762Y-64207766D01*
X150771256Y-64292240D01*
X150678671Y-64539980D01*
X150549971Y-64769890D01*
X150388961Y-64978224D01*
X150199448Y-65161236D01*
X149985239Y-65315179D01*
X149750138Y-65436309D01*
X149531916Y-65511989D01*
X149457575Y-65526467D01*
X149353823Y-65539124D01*
X149232939Y-65549254D01*
X149107205Y-65556150D01*
X148988900Y-65559107D01*
X148890305Y-65557416D01*
X148833416Y-65552171D01*
X148573042Y-65489993D01*
X148329844Y-65391848D01*
X148106674Y-65261040D01*
X147906387Y-65100877D01*
X147731833Y-64914666D01*
X147585866Y-64705714D01*
X147471339Y-64477327D01*
X147391104Y-64232813D01*
X147348014Y-63975477D01*
X147341166Y-63822372D01*
X147341490Y-63817662D01*
X148145500Y-63817662D01*
X148165407Y-64017702D01*
X148223341Y-64202401D01*
X148316620Y-64368026D01*
X148442558Y-64510847D01*
X148598475Y-64627133D01*
X148781686Y-64713154D01*
X148792127Y-64716804D01*
X148948967Y-64752436D01*
X149120715Y-64760532D01*
X149290096Y-64741059D01*
X149378013Y-64717924D01*
X149558868Y-64637310D01*
X149715166Y-64524683D01*
X149843617Y-64384580D01*
X149940933Y-64221538D01*
X150003824Y-64040097D01*
X150029001Y-63844793D01*
X150029333Y-63819274D01*
X150009315Y-63618690D01*
X149950797Y-63433004D01*
X149856083Y-63265838D01*
X149727479Y-63120815D01*
X149567287Y-63001557D01*
X149479000Y-62954120D01*
X149417702Y-62925987D01*
X149366144Y-62907259D01*
X149312986Y-62896032D01*
X149246890Y-62890403D01*
X149156517Y-62888466D01*
X149086971Y-62888284D01*
X148977458Y-62888871D01*
X148898997Y-62891940D01*
X148840307Y-62899453D01*
X148790110Y-62913374D01*
X148737126Y-62935664D01*
X148693439Y-62956757D01*
X148516581Y-63065241D01*
X148371925Y-63199394D01*
X148261294Y-63356348D01*
X148186516Y-63533233D01*
X148149416Y-63727180D01*
X148145500Y-63817662D01*
X147341490Y-63817662D01*
X147359788Y-63552350D01*
X147416206Y-63300014D01*
X147511252Y-63063385D01*
X147645754Y-62840489D01*
X147820544Y-62629348D01*
X147858743Y-62590029D01*
X148015348Y-62445259D01*
X148169564Y-62331362D01*
X148334722Y-62239906D01*
X148524155Y-62162458D01*
X148547666Y-62154217D01*
X148625265Y-62128022D01*
X148688711Y-62109401D01*
X148748029Y-62097065D01*
X148813244Y-62089721D01*
X148894382Y-62086081D01*
X149001467Y-62084853D01*
X149087416Y-62084737D01*
X149216159Y-62085103D01*
%TO.C,LOGO3*%
G36*
X119115629Y-79655438D02*
G01*
X119069589Y-79714099D01*
X119011619Y-79807616D01*
X118957677Y-79904167D01*
X118888326Y-80027963D01*
X118832161Y-80117130D01*
X118785009Y-80175651D01*
X118742698Y-80207509D01*
X118701057Y-80216686D01*
X118655914Y-80207165D01*
X118644818Y-80202840D01*
X118597546Y-80175035D01*
X118565189Y-80132837D01*
X118545326Y-80069061D01*
X118535539Y-79976522D01*
X118533334Y-79871824D01*
X118532853Y-79778855D01*
X118530004Y-79719720D01*
X118522678Y-79685919D01*
X118508763Y-79668954D01*
X118486150Y-79660327D01*
X118480464Y-79658870D01*
X118442273Y-79650395D01*
X118413509Y-79649996D01*
X118392857Y-79662583D01*
X118379001Y-79693061D01*
X118370627Y-79746339D01*
X118366418Y-79827323D01*
X118365058Y-79940920D01*
X118365222Y-80088711D01*
X118367396Y-80315537D01*
X118372401Y-80514765D01*
X118380056Y-80683860D01*
X118390183Y-80820288D01*
X118402602Y-80921515D01*
X118417135Y-80985006D01*
X118430151Y-81006919D01*
X118494256Y-81024972D01*
X118558763Y-81004919D01*
X118589969Y-80978375D01*
X118626545Y-80933207D01*
X118672862Y-80870193D01*
X118699404Y-80831813D01*
X118747828Y-80766991D01*
X118797934Y-80710740D01*
X118821851Y-80688938D01*
X118895424Y-80651832D01*
X118967837Y-80649574D01*
X119029631Y-80678212D01*
X119071349Y-80733795D01*
X119083956Y-80798458D01*
X119092458Y-80889083D01*
X119115584Y-80944795D01*
X119151123Y-80963619D01*
X119196860Y-80943575D01*
X119220754Y-80920715D01*
X119231863Y-80905902D01*
X119240321Y-80885764D01*
X119246302Y-80855342D01*
X119249981Y-80809676D01*
X119251534Y-80743804D01*
X119251135Y-80652766D01*
X119248959Y-80531602D01*
X119245182Y-80375351D01*
X119242972Y-80291007D01*
X119238178Y-80135791D01*
X119232485Y-79993172D01*
X119226230Y-79869003D01*
X119219748Y-79769136D01*
X119213375Y-79699423D01*
X119207449Y-79665718D01*
X119207006Y-79664757D01*
X119181855Y-79633151D01*
X119152224Y-79629250D01*
X119115629Y-79655438D01*
G37*
X119115629Y-79655438D02*
X119069589Y-79714099D01*
X119011619Y-79807616D01*
X118957677Y-79904167D01*
X118888326Y-80027963D01*
X118832161Y-80117130D01*
X118785009Y-80175651D01*
X118742698Y-80207509D01*
X118701057Y-80216686D01*
X118655914Y-80207165D01*
X118644818Y-80202840D01*
X118597546Y-80175035D01*
X118565189Y-80132837D01*
X118545326Y-80069061D01*
X118535539Y-79976522D01*
X118533334Y-79871824D01*
X118532853Y-79778855D01*
X118530004Y-79719720D01*
X118522678Y-79685919D01*
X118508763Y-79668954D01*
X118486150Y-79660327D01*
X118480464Y-79658870D01*
X118442273Y-79650395D01*
X118413509Y-79649996D01*
X118392857Y-79662583D01*
X118379001Y-79693061D01*
X118370627Y-79746339D01*
X118366418Y-79827323D01*
X118365058Y-79940920D01*
X118365222Y-80088711D01*
X118367396Y-80315537D01*
X118372401Y-80514765D01*
X118380056Y-80683860D01*
X118390183Y-80820288D01*
X118402602Y-80921515D01*
X118417135Y-80985006D01*
X118430151Y-81006919D01*
X118494256Y-81024972D01*
X118558763Y-81004919D01*
X118589969Y-80978375D01*
X118626545Y-80933207D01*
X118672862Y-80870193D01*
X118699404Y-80831813D01*
X118747828Y-80766991D01*
X118797934Y-80710740D01*
X118821851Y-80688938D01*
X118895424Y-80651832D01*
X118967837Y-80649574D01*
X119029631Y-80678212D01*
X119071349Y-80733795D01*
X119083956Y-80798458D01*
X119092458Y-80889083D01*
X119115584Y-80944795D01*
X119151123Y-80963619D01*
X119196860Y-80943575D01*
X119220754Y-80920715D01*
X119231863Y-80905902D01*
X119240321Y-80885764D01*
X119246302Y-80855342D01*
X119249981Y-80809676D01*
X119251534Y-80743804D01*
X119251135Y-80652766D01*
X119248959Y-80531602D01*
X119245182Y-80375351D01*
X119242972Y-80291007D01*
X119238178Y-80135791D01*
X119232485Y-79993172D01*
X119226230Y-79869003D01*
X119219748Y-79769136D01*
X119213375Y-79699423D01*
X119207449Y-79665718D01*
X119207006Y-79664757D01*
X119181855Y-79633151D01*
X119152224Y-79629250D01*
X119115629Y-79655438D01*
G36*
X113516024Y-79231427D02*
G01*
X113482140Y-79237406D01*
X113468413Y-79244268D01*
X113439956Y-79283740D01*
X113417946Y-79351542D01*
X113401840Y-79451088D01*
X113391092Y-79585794D01*
X113385156Y-79759074D01*
X113385016Y-79766558D01*
X113379250Y-80084034D01*
X113505097Y-80150884D01*
X113594473Y-80203134D01*
X113650101Y-80249496D01*
X113678492Y-80297168D01*
X113686167Y-80351048D01*
X113679965Y-80381417D01*
X113658262Y-80417782D01*
X113616414Y-80465615D01*
X113549778Y-80530389D01*
X113479792Y-80594230D01*
X113401142Y-80665828D01*
X113333550Y-80729129D01*
X113283566Y-80777873D01*
X113257743Y-80805794D01*
X113256338Y-80807833D01*
X113247057Y-80845619D01*
X113244750Y-80905473D01*
X113245755Y-80925730D01*
X113254900Y-80981039D01*
X113275750Y-81011051D01*
X113313187Y-81015621D01*
X113372090Y-80994602D01*
X113457341Y-80947850D01*
X113506250Y-80917971D01*
X113666727Y-80819752D01*
X113796539Y-80745508D01*
X113899703Y-80694945D01*
X113980238Y-80667764D01*
X114042163Y-80663670D01*
X114089495Y-80682365D01*
X114126252Y-80723554D01*
X114156452Y-80786938D01*
X114182895Y-80868014D01*
X114212475Y-80944877D01*
X114247094Y-80981074D01*
X114290822Y-80978262D01*
X114347731Y-80938099D01*
X114350007Y-80936042D01*
X114402373Y-80888417D01*
X114433865Y-79746554D01*
X114163253Y-79746554D01*
X114148515Y-79830068D01*
X114112436Y-79890790D01*
X114063095Y-79933451D01*
X114001865Y-79955819D01*
X113917158Y-79961086D01*
X113866324Y-79958588D01*
X113788831Y-79949875D01*
X113738680Y-79933582D01*
X113700920Y-79904020D01*
X113689382Y-79891259D01*
X113653029Y-79819121D01*
X113647836Y-79733799D01*
X113672654Y-79649455D01*
X113713713Y-79591832D01*
X113778630Y-79551719D01*
X113866537Y-79528696D01*
X113960711Y-79525204D01*
X114044270Y-79543616D01*
X114108735Y-79591127D01*
X114149195Y-79662840D01*
X114163253Y-79746554D01*
X114433865Y-79746554D01*
X114444405Y-79364417D01*
X114397450Y-79316061D01*
X114379016Y-79299454D01*
X114356149Y-79286576D01*
X114322780Y-79276490D01*
X114272842Y-79268260D01*
X114200265Y-79260949D01*
X114098982Y-79253621D01*
X113962924Y-79245340D01*
X113924939Y-79243136D01*
X113771804Y-79234889D01*
X113655906Y-79230180D01*
X113572296Y-79229022D01*
X113516024Y-79231427D01*
G37*
X113516024Y-79231427D02*
X113482140Y-79237406D01*
X113468413Y-79244268D01*
X113439956Y-79283740D01*
X113417946Y-79351542D01*
X113401840Y-79451088D01*
X113391092Y-79585794D01*
X113385156Y-79759074D01*
X113385016Y-79766558D01*
X113379250Y-80084034D01*
X113505097Y-80150884D01*
X113594473Y-80203134D01*
X113650101Y-80249496D01*
X113678492Y-80297168D01*
X113686167Y-80351048D01*
X113679965Y-80381417D01*
X113658262Y-80417782D01*
X113616414Y-80465615D01*
X113549778Y-80530389D01*
X113479792Y-80594230D01*
X113401142Y-80665828D01*
X113333550Y-80729129D01*
X113283566Y-80777873D01*
X113257743Y-80805794D01*
X113256338Y-80807833D01*
X113247057Y-80845619D01*
X113244750Y-80905473D01*
X113245755Y-80925730D01*
X113254900Y-80981039D01*
X113275750Y-81011051D01*
X113313187Y-81015621D01*
X113372090Y-80994602D01*
X113457341Y-80947850D01*
X113506250Y-80917971D01*
X113666727Y-80819752D01*
X113796539Y-80745508D01*
X113899703Y-80694945D01*
X113980238Y-80667764D01*
X114042163Y-80663670D01*
X114089495Y-80682365D01*
X114126252Y-80723554D01*
X114156452Y-80786938D01*
X114182895Y-80868014D01*
X114212475Y-80944877D01*
X114247094Y-80981074D01*
X114290822Y-80978262D01*
X114347731Y-80938099D01*
X114350007Y-80936042D01*
X114402373Y-80888417D01*
X114433865Y-79746554D01*
X114163253Y-79746554D01*
X114148515Y-79830068D01*
X114112436Y-79890790D01*
X114063095Y-79933451D01*
X114001865Y-79955819D01*
X113917158Y-79961086D01*
X113866324Y-79958588D01*
X113788831Y-79949875D01*
X113738680Y-79933582D01*
X113700920Y-79904020D01*
X113689382Y-79891259D01*
X113653029Y-79819121D01*
X113647836Y-79733799D01*
X113672654Y-79649455D01*
X113713713Y-79591832D01*
X113778630Y-79551719D01*
X113866537Y-79528696D01*
X113960711Y-79525204D01*
X114044270Y-79543616D01*
X114108735Y-79591127D01*
X114149195Y-79662840D01*
X114163253Y-79746554D01*
X114433865Y-79746554D01*
X114444405Y-79364417D01*
X114397450Y-79316061D01*
X114379016Y-79299454D01*
X114356149Y-79286576D01*
X114322780Y-79276490D01*
X114272842Y-79268260D01*
X114200265Y-79260949D01*
X114098982Y-79253621D01*
X113962924Y-79245340D01*
X113924939Y-79243136D01*
X113771804Y-79234889D01*
X113655906Y-79230180D01*
X113572296Y-79229022D01*
X113516024Y-79231427D01*
G36*
X106270288Y-79614939D02*
G01*
X106248988Y-79623825D01*
X106227486Y-79634723D01*
X106212382Y-79649195D01*
X106202368Y-79674271D01*
X106196133Y-79716979D01*
X106192371Y-79784348D01*
X106189770Y-79883407D01*
X106188461Y-79948825D01*
X106185934Y-80066953D01*
X106182838Y-80150182D01*
X106177795Y-80205939D01*
X106169423Y-80241651D01*
X106156343Y-80264745D01*
X106137173Y-80282647D01*
X106124660Y-80292133D01*
X106053227Y-80325522D01*
X105959501Y-80343669D01*
X105861166Y-80345265D01*
X105775902Y-80329001D01*
X105753824Y-80319583D01*
X105727291Y-80304958D01*
X105707231Y-80288269D01*
X105691704Y-80263113D01*
X105678774Y-80223085D01*
X105666502Y-80161782D01*
X105652949Y-80072800D01*
X105636179Y-79949735D01*
X105631659Y-79915910D01*
X105616000Y-79801215D01*
X105603703Y-79721987D01*
X105592860Y-79671690D01*
X105581560Y-79643786D01*
X105567894Y-79631739D01*
X105549953Y-79629012D01*
X105547847Y-79629000D01*
X105507590Y-79638023D01*
X105479826Y-79668687D01*
X105462741Y-79726383D01*
X105454525Y-79816504D01*
X105453101Y-79910970D01*
X105455139Y-80041668D01*
X105460049Y-80184362D01*
X105467334Y-80332796D01*
X105476498Y-80480713D01*
X105487044Y-80621856D01*
X105498476Y-80749967D01*
X105510297Y-80858790D01*
X105522012Y-80942067D01*
X105533123Y-80993541D01*
X105540072Y-81007179D01*
X105596357Y-81026184D01*
X105645043Y-81014881D01*
X105671826Y-80978375D01*
X105678617Y-80932415D01*
X105683394Y-80860997D01*
X105684976Y-80793167D01*
X105687305Y-80714700D01*
X105696985Y-80663041D01*
X105718870Y-80622741D01*
X105749838Y-80586792D01*
X105794176Y-80545257D01*
X105837351Y-80524820D01*
X105897774Y-80518313D01*
X105926498Y-80518000D01*
X106050568Y-80528205D01*
X106139436Y-80558542D01*
X106189284Y-80604314D01*
X106205976Y-80647693D01*
X106222212Y-80716985D01*
X106232751Y-80784364D01*
X106248759Y-80879759D01*
X106270337Y-80936800D01*
X106299652Y-80959326D01*
X106329328Y-80955391D01*
X106338891Y-80947537D01*
X106346451Y-80929192D01*
X106352235Y-80895935D01*
X106356472Y-80843348D01*
X106359389Y-80767007D01*
X106361213Y-80662494D01*
X106362171Y-80525386D01*
X106362493Y-80351264D01*
X106362500Y-80311043D01*
X106362199Y-80115068D01*
X106360878Y-79957622D01*
X106357907Y-79834903D01*
X106352659Y-79743109D01*
X106344507Y-79678438D01*
X106332822Y-79637088D01*
X106316976Y-79615256D01*
X106296340Y-79609141D01*
X106270288Y-79614939D01*
G37*
X106270288Y-79614939D02*
X106248988Y-79623825D01*
X106227486Y-79634723D01*
X106212382Y-79649195D01*
X106202368Y-79674271D01*
X106196133Y-79716979D01*
X106192371Y-79784348D01*
X106189770Y-79883407D01*
X106188461Y-79948825D01*
X106185934Y-80066953D01*
X106182838Y-80150182D01*
X106177795Y-80205939D01*
X106169423Y-80241651D01*
X106156343Y-80264745D01*
X106137173Y-80282647D01*
X106124660Y-80292133D01*
X106053227Y-80325522D01*
X105959501Y-80343669D01*
X105861166Y-80345265D01*
X105775902Y-80329001D01*
X105753824Y-80319583D01*
X105727291Y-80304958D01*
X105707231Y-80288269D01*
X105691704Y-80263113D01*
X105678774Y-80223085D01*
X105666502Y-80161782D01*
X105652949Y-80072800D01*
X105636179Y-79949735D01*
X105631659Y-79915910D01*
X105616000Y-79801215D01*
X105603703Y-79721987D01*
X105592860Y-79671690D01*
X105581560Y-79643786D01*
X105567894Y-79631739D01*
X105549953Y-79629012D01*
X105547847Y-79629000D01*
X105507590Y-79638023D01*
X105479826Y-79668687D01*
X105462741Y-79726383D01*
X105454525Y-79816504D01*
X105453101Y-79910970D01*
X105455139Y-80041668D01*
X105460049Y-80184362D01*
X105467334Y-80332796D01*
X105476498Y-80480713D01*
X105487044Y-80621856D01*
X105498476Y-80749967D01*
X105510297Y-80858790D01*
X105522012Y-80942067D01*
X105533123Y-80993541D01*
X105540072Y-81007179D01*
X105596357Y-81026184D01*
X105645043Y-81014881D01*
X105671826Y-80978375D01*
X105678617Y-80932415D01*
X105683394Y-80860997D01*
X105684976Y-80793167D01*
X105687305Y-80714700D01*
X105696985Y-80663041D01*
X105718870Y-80622741D01*
X105749838Y-80586792D01*
X105794176Y-80545257D01*
X105837351Y-80524820D01*
X105897774Y-80518313D01*
X105926498Y-80518000D01*
X106050568Y-80528205D01*
X106139436Y-80558542D01*
X106189284Y-80604314D01*
X106205976Y-80647693D01*
X106222212Y-80716985D01*
X106232751Y-80784364D01*
X106248759Y-80879759D01*
X106270337Y-80936800D01*
X106299652Y-80959326D01*
X106329328Y-80955391D01*
X106338891Y-80947537D01*
X106346451Y-80929192D01*
X106352235Y-80895935D01*
X106356472Y-80843348D01*
X106359389Y-80767007D01*
X106361213Y-80662494D01*
X106362171Y-80525386D01*
X106362493Y-80351264D01*
X106362500Y-80311043D01*
X106362199Y-80115068D01*
X106360878Y-79957622D01*
X106357907Y-79834903D01*
X106352659Y-79743109D01*
X106344507Y-79678438D01*
X106332822Y-79637088D01*
X106316976Y-79615256D01*
X106296340Y-79609141D01*
X106270288Y-79614939D01*
G36*
X108968264Y-79608034D02*
G01*
X108870270Y-79616567D01*
X108799488Y-79630036D01*
X108774142Y-79640423D01*
X108768816Y-79664088D01*
X108764482Y-79723516D01*
X108761148Y-79812151D01*
X108758821Y-79923433D01*
X108757509Y-80050805D01*
X108757219Y-80187708D01*
X108757958Y-80327585D01*
X108759734Y-80463876D01*
X108762554Y-80590026D01*
X108766425Y-80699474D01*
X108771355Y-80785663D01*
X108772838Y-80803750D01*
X108781344Y-80882392D01*
X108791669Y-80928129D01*
X108807371Y-80950355D01*
X108831372Y-80958374D01*
X108858171Y-80956047D01*
X108879872Y-80934681D01*
X108902349Y-80886092D01*
X108921069Y-80833329D01*
X108955431Y-80739263D01*
X108988856Y-80678553D01*
X109031502Y-80643936D01*
X109093528Y-80628150D01*
X109185092Y-80623931D01*
X109214089Y-80623833D01*
X109301193Y-80626217D01*
X109375278Y-80632551D01*
X109423538Y-80641613D01*
X109430832Y-80644553D01*
X109471972Y-80688501D01*
X109501108Y-80765155D01*
X109515376Y-80865887D01*
X109516334Y-80902158D01*
X109518274Y-80963873D01*
X109527671Y-80994225D01*
X109549889Y-81004133D01*
X109566782Y-81004833D01*
X109614663Y-80987750D01*
X109632731Y-80957208D01*
X109637054Y-80924362D01*
X109641637Y-80854994D01*
X109646253Y-80754916D01*
X109650676Y-80629936D01*
X109654678Y-80485865D01*
X109658032Y-80328512D01*
X109658639Y-80293967D01*
X109662159Y-80085688D01*
X109511753Y-80085688D01*
X109510724Y-80193285D01*
X109485063Y-80289370D01*
X109431530Y-80355042D01*
X109359305Y-80390587D01*
X109281589Y-80402721D01*
X109189870Y-80400471D01*
X109102565Y-80385606D01*
X109038095Y-80359893D01*
X109037847Y-80359731D01*
X108973014Y-80293928D01*
X108935049Y-80206683D01*
X108924822Y-80109966D01*
X108943206Y-80015745D01*
X108991069Y-79935989D01*
X109005948Y-79921299D01*
X109049857Y-79887303D01*
X109094692Y-79869343D01*
X109156582Y-79862594D01*
X109204459Y-79861912D01*
X109329023Y-79876042D01*
X109421859Y-79918155D01*
X109482819Y-79988091D01*
X109511753Y-80085688D01*
X109662159Y-80085688D01*
X109669045Y-79678351D01*
X109607328Y-79652788D01*
X109541192Y-79634595D01*
X109446517Y-79620513D01*
X109332596Y-79610677D01*
X109208718Y-79605227D01*
X109084177Y-79604300D01*
X108968264Y-79608034D01*
G37*
X108968264Y-79608034D02*
X108870270Y-79616567D01*
X108799488Y-79630036D01*
X108774142Y-79640423D01*
X108768816Y-79664088D01*
X108764482Y-79723516D01*
X108761148Y-79812151D01*
X108758821Y-79923433D01*
X108757509Y-80050805D01*
X108757219Y-80187708D01*
X108757958Y-80327585D01*
X108759734Y-80463876D01*
X108762554Y-80590026D01*
X108766425Y-80699474D01*
X108771355Y-80785663D01*
X108772838Y-80803750D01*
X108781344Y-80882392D01*
X108791669Y-80928129D01*
X108807371Y-80950355D01*
X108831372Y-80958374D01*
X108858171Y-80956047D01*
X108879872Y-80934681D01*
X108902349Y-80886092D01*
X108921069Y-80833329D01*
X108955431Y-80739263D01*
X108988856Y-80678553D01*
X109031502Y-80643936D01*
X109093528Y-80628150D01*
X109185092Y-80623931D01*
X109214089Y-80623833D01*
X109301193Y-80626217D01*
X109375278Y-80632551D01*
X109423538Y-80641613D01*
X109430832Y-80644553D01*
X109471972Y-80688501D01*
X109501108Y-80765155D01*
X109515376Y-80865887D01*
X109516334Y-80902158D01*
X109518274Y-80963873D01*
X109527671Y-80994225D01*
X109549889Y-81004133D01*
X109566782Y-81004833D01*
X109614663Y-80987750D01*
X109632731Y-80957208D01*
X109637054Y-80924362D01*
X109641637Y-80854994D01*
X109646253Y-80754916D01*
X109650676Y-80629936D01*
X109654678Y-80485865D01*
X109658032Y-80328512D01*
X109658639Y-80293967D01*
X109662159Y-80085688D01*
X109511753Y-80085688D01*
X109510724Y-80193285D01*
X109485063Y-80289370D01*
X109431530Y-80355042D01*
X109359305Y-80390587D01*
X109281589Y-80402721D01*
X109189870Y-80400471D01*
X109102565Y-80385606D01*
X109038095Y-80359893D01*
X109037847Y-80359731D01*
X108973014Y-80293928D01*
X108935049Y-80206683D01*
X108924822Y-80109966D01*
X108943206Y-80015745D01*
X108991069Y-79935989D01*
X109005948Y-79921299D01*
X109049857Y-79887303D01*
X109094692Y-79869343D01*
X109156582Y-79862594D01*
X109204459Y-79861912D01*
X109329023Y-79876042D01*
X109421859Y-79918155D01*
X109482819Y-79988091D01*
X109511753Y-80085688D01*
X109662159Y-80085688D01*
X109669045Y-79678351D01*
X109607328Y-79652788D01*
X109541192Y-79634595D01*
X109446517Y-79620513D01*
X109332596Y-79610677D01*
X109208718Y-79605227D01*
X109084177Y-79604300D01*
X108968264Y-79608034D01*
G36*
X107849015Y-79778879D02*
G01*
X107815924Y-79784351D01*
X107797220Y-79794539D01*
X107785931Y-79810012D01*
X107785368Y-79811064D01*
X107775624Y-79847520D01*
X107765303Y-79916092D01*
X107755703Y-80006600D01*
X107748757Y-80098287D01*
X107733467Y-80345323D01*
X107820258Y-80389600D01*
X107903364Y-80446123D01*
X107949598Y-80509289D01*
X107957826Y-80574332D01*
X107926919Y-80636484D01*
X107887226Y-80671743D01*
X107847701Y-80703073D01*
X107791871Y-80751592D01*
X107748306Y-80791461D01*
X107689005Y-80853936D01*
X107659730Y-80904833D01*
X107653667Y-80942499D01*
X107658347Y-80986535D01*
X107669542Y-81004655D01*
X107692971Y-80994305D01*
X107744766Y-80966303D01*
X107817126Y-80924999D01*
X107897084Y-80877833D01*
X107986169Y-80827266D01*
X108067095Y-80786262D01*
X108130292Y-80759377D01*
X108163678Y-80751012D01*
X108228756Y-80770776D01*
X108280295Y-80828763D01*
X108311844Y-80907080D01*
X108332183Y-80963534D01*
X108354819Y-80980652D01*
X108386012Y-80961248D01*
X108399862Y-80946625D01*
X108411786Y-80913211D01*
X108422702Y-80845344D01*
X108432405Y-80750079D01*
X108440689Y-80634470D01*
X108447346Y-80505575D01*
X108452170Y-80370447D01*
X108454955Y-80236143D01*
X108455495Y-80109717D01*
X108455419Y-80105249D01*
X108296049Y-80105249D01*
X108289602Y-80178888D01*
X108256076Y-80239396D01*
X108239040Y-80254026D01*
X108179299Y-80276667D01*
X108099476Y-80284098D01*
X108018946Y-80276441D01*
X107957085Y-80253822D01*
X107954710Y-80252216D01*
X107916923Y-80202391D01*
X107905311Y-80133912D01*
X107919598Y-80061174D01*
X107959503Y-79998573D01*
X107959622Y-79998454D01*
X108020737Y-79962081D01*
X108099669Y-79946177D01*
X108178045Y-79952312D01*
X108229627Y-79975356D01*
X108275898Y-80032673D01*
X108296049Y-80105249D01*
X108455419Y-80105249D01*
X108453584Y-79998226D01*
X108449014Y-79908724D01*
X108441580Y-79848268D01*
X108432672Y-79824829D01*
X108398224Y-79813133D01*
X108327065Y-79802101D01*
X108224821Y-79792412D01*
X108104295Y-79785085D01*
X107986231Y-79779814D01*
X107903461Y-79777556D01*
X107849015Y-79778879D01*
G37*
X107849015Y-79778879D02*
X107815924Y-79784351D01*
X107797220Y-79794539D01*
X107785931Y-79810012D01*
X107785368Y-79811064D01*
X107775624Y-79847520D01*
X107765303Y-79916092D01*
X107755703Y-80006600D01*
X107748757Y-80098287D01*
X107733467Y-80345323D01*
X107820258Y-80389600D01*
X107903364Y-80446123D01*
X107949598Y-80509289D01*
X107957826Y-80574332D01*
X107926919Y-80636484D01*
X107887226Y-80671743D01*
X107847701Y-80703073D01*
X107791871Y-80751592D01*
X107748306Y-80791461D01*
X107689005Y-80853936D01*
X107659730Y-80904833D01*
X107653667Y-80942499D01*
X107658347Y-80986535D01*
X107669542Y-81004655D01*
X107692971Y-80994305D01*
X107744766Y-80966303D01*
X107817126Y-80924999D01*
X107897084Y-80877833D01*
X107986169Y-80827266D01*
X108067095Y-80786262D01*
X108130292Y-80759377D01*
X108163678Y-80751012D01*
X108228756Y-80770776D01*
X108280295Y-80828763D01*
X108311844Y-80907080D01*
X108332183Y-80963534D01*
X108354819Y-80980652D01*
X108386012Y-80961248D01*
X108399862Y-80946625D01*
X108411786Y-80913211D01*
X108422702Y-80845344D01*
X108432405Y-80750079D01*
X108440689Y-80634470D01*
X108447346Y-80505575D01*
X108452170Y-80370447D01*
X108454955Y-80236143D01*
X108455495Y-80109717D01*
X108455419Y-80105249D01*
X108296049Y-80105249D01*
X108289602Y-80178888D01*
X108256076Y-80239396D01*
X108239040Y-80254026D01*
X108179299Y-80276667D01*
X108099476Y-80284098D01*
X108018946Y-80276441D01*
X107957085Y-80253822D01*
X107954710Y-80252216D01*
X107916923Y-80202391D01*
X107905311Y-80133912D01*
X107919598Y-80061174D01*
X107959503Y-79998573D01*
X107959622Y-79998454D01*
X108020737Y-79962081D01*
X108099669Y-79946177D01*
X108178045Y-79952312D01*
X108229627Y-79975356D01*
X108275898Y-80032673D01*
X108296049Y-80105249D01*
X108455419Y-80105249D01*
X108453584Y-79998226D01*
X108449014Y-79908724D01*
X108441580Y-79848268D01*
X108432672Y-79824829D01*
X108398224Y-79813133D01*
X108327065Y-79802101D01*
X108224821Y-79792412D01*
X108104295Y-79785085D01*
X107986231Y-79779814D01*
X107903461Y-79777556D01*
X107849015Y-79778879D01*
G36*
X123515967Y-79185137D02*
G01*
X123394718Y-79187768D01*
X123303455Y-79193476D01*
X123236011Y-79203342D01*
X123186216Y-79218447D01*
X123147902Y-79239873D01*
X123114901Y-79268702D01*
X123099458Y-79285131D01*
X123080996Y-79310001D01*
X123078983Y-79330426D01*
X123097990Y-79348546D01*
X123142589Y-79366498D01*
X123217353Y-79386422D01*
X123326852Y-79410455D01*
X123399154Y-79425310D01*
X123567417Y-79463022D01*
X123695379Y-79499895D01*
X123785041Y-79536692D01*
X123838406Y-79574171D01*
X123854140Y-79598079D01*
X123858110Y-79628903D01*
X123861603Y-79695179D01*
X123864425Y-79790028D01*
X123866386Y-79906568D01*
X123867294Y-80037920D01*
X123867334Y-80072376D01*
X123867097Y-80220441D01*
X123866028Y-80332254D01*
X123863587Y-80413896D01*
X123859234Y-80471448D01*
X123852431Y-80510991D01*
X123842638Y-80538606D01*
X123829316Y-80560374D01*
X123823359Y-80568196D01*
X123787712Y-80608138D01*
X123748290Y-80636813D01*
X123696809Y-80656780D01*
X123624985Y-80670597D01*
X123524534Y-80680823D01*
X123439396Y-80686793D01*
X123306197Y-80698132D01*
X123208616Y-80714395D01*
X123139992Y-80738294D01*
X123093668Y-80772542D01*
X123062985Y-80819850D01*
X123053230Y-80844071D01*
X123041541Y-80885136D01*
X123041382Y-80917659D01*
X123056473Y-80942250D01*
X123090533Y-80959516D01*
X123147281Y-80970067D01*
X123230436Y-80974511D01*
X123343718Y-80973457D01*
X123490845Y-80967512D01*
X123675537Y-80957287D01*
X123726430Y-80954229D01*
X123867526Y-80945270D01*
X123972299Y-80937359D01*
X124046715Y-80929588D01*
X124096739Y-80921050D01*
X124128336Y-80910838D01*
X124147471Y-80898047D01*
X124155251Y-80889033D01*
X124193345Y-80816723D01*
X124216376Y-80721970D01*
X124224610Y-80600484D01*
X124218315Y-80447974D01*
X124197757Y-80260150D01*
X124195417Y-80242833D01*
X124184450Y-80139791D01*
X124175144Y-80008920D01*
X124168292Y-79864716D01*
X124164686Y-79721676D01*
X124164338Y-79674532D01*
X124163163Y-79534749D01*
X124159876Y-79430393D01*
X124153904Y-79354582D01*
X124144674Y-79300439D01*
X124131612Y-79261084D01*
X124129505Y-79256490D01*
X124095344Y-79184500D01*
X123673371Y-79184500D01*
X123515967Y-79185137D01*
G37*
X123515967Y-79185137D02*
X123394718Y-79187768D01*
X123303455Y-79193476D01*
X123236011Y-79203342D01*
X123186216Y-79218447D01*
X123147902Y-79239873D01*
X123114901Y-79268702D01*
X123099458Y-79285131D01*
X123080996Y-79310001D01*
X123078983Y-79330426D01*
X123097990Y-79348546D01*
X123142589Y-79366498D01*
X123217353Y-79386422D01*
X123326852Y-79410455D01*
X123399154Y-79425310D01*
X123567417Y-79463022D01*
X123695379Y-79499895D01*
X123785041Y-79536692D01*
X123838406Y-79574171D01*
X123854140Y-79598079D01*
X123858110Y-79628903D01*
X123861603Y-79695179D01*
X123864425Y-79790028D01*
X123866386Y-79906568D01*
X123867294Y-80037920D01*
X123867334Y-80072376D01*
X123867097Y-80220441D01*
X123866028Y-80332254D01*
X123863587Y-80413896D01*
X123859234Y-80471448D01*
X123852431Y-80510991D01*
X123842638Y-80538606D01*
X123829316Y-80560374D01*
X123823359Y-80568196D01*
X123787712Y-80608138D01*
X123748290Y-80636813D01*
X123696809Y-80656780D01*
X123624985Y-80670597D01*
X123524534Y-80680823D01*
X123439396Y-80686793D01*
X123306197Y-80698132D01*
X123208616Y-80714395D01*
X123139992Y-80738294D01*
X123093668Y-80772542D01*
X123062985Y-80819850D01*
X123053230Y-80844071D01*
X123041541Y-80885136D01*
X123041382Y-80917659D01*
X123056473Y-80942250D01*
X123090533Y-80959516D01*
X123147281Y-80970067D01*
X123230436Y-80974511D01*
X123343718Y-80973457D01*
X123490845Y-80967512D01*
X123675537Y-80957287D01*
X123726430Y-80954229D01*
X123867526Y-80945270D01*
X123972299Y-80937359D01*
X124046715Y-80929588D01*
X124096739Y-80921050D01*
X124128336Y-80910838D01*
X124147471Y-80898047D01*
X124155251Y-80889033D01*
X124193345Y-80816723D01*
X124216376Y-80721970D01*
X124224610Y-80600484D01*
X124218315Y-80447974D01*
X124197757Y-80260150D01*
X124195417Y-80242833D01*
X124184450Y-80139791D01*
X124175144Y-80008920D01*
X124168292Y-79864716D01*
X124164686Y-79721676D01*
X124164338Y-79674532D01*
X124163163Y-79534749D01*
X124159876Y-79430393D01*
X124153904Y-79354582D01*
X124144674Y-79300439D01*
X124131612Y-79261084D01*
X124129505Y-79256490D01*
X124095344Y-79184500D01*
X123673371Y-79184500D01*
X123515967Y-79185137D01*
G36*
X121966163Y-79672777D02*
G01*
X121918021Y-79676268D01*
X121888258Y-79682837D01*
X121870889Y-79693060D01*
X121859927Y-79707515D01*
X121855233Y-79716035D01*
X121847989Y-79751253D01*
X121842997Y-79820928D01*
X121840094Y-79918308D01*
X121839117Y-80036644D01*
X121839904Y-80169184D01*
X121842294Y-80309179D01*
X121846122Y-80449876D01*
X121851228Y-80584527D01*
X121857449Y-80706379D01*
X121864622Y-80808682D01*
X121872585Y-80884685D01*
X121881175Y-80927638D01*
X121884524Y-80933846D01*
X121916148Y-80944889D01*
X121981626Y-80954701D01*
X122072490Y-80963027D01*
X122180272Y-80969609D01*
X122296505Y-80974192D01*
X122412719Y-80976519D01*
X122520447Y-80976336D01*
X122611221Y-80973386D01*
X122676574Y-80967412D01*
X122707374Y-80958723D01*
X122718086Y-80946730D01*
X122726556Y-80926144D01*
X122733098Y-80892187D01*
X122738026Y-80840082D01*
X122741657Y-80765052D01*
X122744305Y-80662320D01*
X122746285Y-80527110D01*
X122747913Y-80354644D01*
X122748010Y-80342434D01*
X122748657Y-80246627D01*
X122618211Y-80246627D01*
X122618188Y-80302666D01*
X122616712Y-80444084D01*
X122611411Y-80549463D01*
X122600492Y-80625047D01*
X122582160Y-80677080D01*
X122554621Y-80711807D01*
X122516081Y-80735472D01*
X122490949Y-80745533D01*
X122409501Y-80761224D01*
X122312350Y-80760789D01*
X122217719Y-80745836D01*
X122143827Y-80717970D01*
X122138111Y-80714425D01*
X122096205Y-80679337D01*
X122065729Y-80632808D01*
X122045078Y-80568280D01*
X122032647Y-80479194D01*
X122026830Y-80358991D01*
X122025834Y-80255720D01*
X122026203Y-80140355D01*
X122028163Y-80059062D01*
X122032998Y-80003585D01*
X122041987Y-79965663D01*
X122056414Y-79937038D01*
X122077559Y-79909451D01*
X122080026Y-79906510D01*
X122151435Y-79849468D01*
X122244219Y-79824862D01*
X122361752Y-79831978D01*
X122397967Y-79839200D01*
X122489420Y-79869332D01*
X122553298Y-79915492D01*
X122564839Y-79928309D01*
X122585692Y-79954805D01*
X122600289Y-79981589D01*
X122609735Y-80016411D01*
X122615134Y-80067023D01*
X122617591Y-80141178D01*
X122618211Y-80246627D01*
X122748657Y-80246627D01*
X122749191Y-80167581D01*
X122749462Y-80030187D01*
X122748580Y-79925382D01*
X122746301Y-79848296D01*
X122742378Y-79794060D01*
X122736569Y-79757803D01*
X122728627Y-79734657D01*
X122718308Y-79719751D01*
X122716633Y-79718017D01*
X122698554Y-79705065D01*
X122669759Y-79695268D01*
X122624285Y-79688037D01*
X122556168Y-79682783D01*
X122459447Y-79678919D01*
X122328159Y-79675855D01*
X122280737Y-79674997D01*
X122141535Y-79672719D01*
X122038673Y-79671787D01*
X121966163Y-79672777D01*
G37*
X121966163Y-79672777D02*
X121918021Y-79676268D01*
X121888258Y-79682837D01*
X121870889Y-79693060D01*
X121859927Y-79707515D01*
X121855233Y-79716035D01*
X121847989Y-79751253D01*
X121842997Y-79820928D01*
X121840094Y-79918308D01*
X121839117Y-80036644D01*
X121839904Y-80169184D01*
X121842294Y-80309179D01*
X121846122Y-80449876D01*
X121851228Y-80584527D01*
X121857449Y-80706379D01*
X121864622Y-80808682D01*
X121872585Y-80884685D01*
X121881175Y-80927638D01*
X121884524Y-80933846D01*
X121916148Y-80944889D01*
X121981626Y-80954701D01*
X122072490Y-80963027D01*
X122180272Y-80969609D01*
X122296505Y-80974192D01*
X122412719Y-80976519D01*
X122520447Y-80976336D01*
X122611221Y-80973386D01*
X122676574Y-80967412D01*
X122707374Y-80958723D01*
X122718086Y-80946730D01*
X122726556Y-80926144D01*
X122733098Y-80892187D01*
X122738026Y-80840082D01*
X122741657Y-80765052D01*
X122744305Y-80662320D01*
X122746285Y-80527110D01*
X122747913Y-80354644D01*
X122748010Y-80342434D01*
X122748657Y-80246627D01*
X122618211Y-80246627D01*
X122618188Y-80302666D01*
X122616712Y-80444084D01*
X122611411Y-80549463D01*
X122600492Y-80625047D01*
X122582160Y-80677080D01*
X122554621Y-80711807D01*
X122516081Y-80735472D01*
X122490949Y-80745533D01*
X122409501Y-80761224D01*
X122312350Y-80760789D01*
X122217719Y-80745836D01*
X122143827Y-80717970D01*
X122138111Y-80714425D01*
X122096205Y-80679337D01*
X122065729Y-80632808D01*
X122045078Y-80568280D01*
X122032647Y-80479194D01*
X122026830Y-80358991D01*
X122025834Y-80255720D01*
X122026203Y-80140355D01*
X122028163Y-80059062D01*
X122032998Y-80003585D01*
X122041987Y-79965663D01*
X122056414Y-79937038D01*
X122077559Y-79909451D01*
X122080026Y-79906510D01*
X122151435Y-79849468D01*
X122244219Y-79824862D01*
X122361752Y-79831978D01*
X122397967Y-79839200D01*
X122489420Y-79869332D01*
X122553298Y-79915492D01*
X122564839Y-79928309D01*
X122585692Y-79954805D01*
X122600289Y-79981589D01*
X122609735Y-80016411D01*
X122615134Y-80067023D01*
X122617591Y-80141178D01*
X122618211Y-80246627D01*
X122748657Y-80246627D01*
X122749191Y-80167581D01*
X122749462Y-80030187D01*
X122748580Y-79925382D01*
X122746301Y-79848296D01*
X122742378Y-79794060D01*
X122736569Y-79757803D01*
X122728627Y-79734657D01*
X122718308Y-79719751D01*
X122716633Y-79718017D01*
X122698554Y-79705065D01*
X122669759Y-79695268D01*
X122624285Y-79688037D01*
X122556168Y-79682783D01*
X122459447Y-79678919D01*
X122328159Y-79675855D01*
X122280737Y-79674997D01*
X122141535Y-79672719D01*
X122038673Y-79671787D01*
X121966163Y-79672777D01*
G36*
X121028963Y-79737776D02*
G01*
X120922374Y-79745882D01*
X120848860Y-79760334D01*
X120803917Y-79782001D01*
X120783458Y-79810433D01*
X120799641Y-79824622D01*
X120851241Y-79843698D01*
X120931920Y-79865575D01*
X120993453Y-79879564D01*
X121090219Y-79902832D01*
X121176260Y-79928214D01*
X121239921Y-79952029D01*
X121263834Y-79964966D01*
X121283804Y-79981036D01*
X121298126Y-79999757D01*
X121307891Y-80028037D01*
X121314194Y-80072785D01*
X121318128Y-80140910D01*
X121320788Y-80239322D01*
X121322585Y-80336128D01*
X121328420Y-80668337D01*
X121269317Y-80727440D01*
X121235945Y-80756636D01*
X121199001Y-80775845D01*
X121147320Y-80788417D01*
X121069735Y-80797702D01*
X121021285Y-80801873D01*
X120910702Y-80812811D01*
X120835284Y-80826110D01*
X120787861Y-80844274D01*
X120761265Y-80869809D01*
X120750343Y-80896545D01*
X120753405Y-80943111D01*
X120780468Y-80975296D01*
X120807692Y-80980562D01*
X120835702Y-80978342D01*
X120897984Y-80974304D01*
X120986541Y-80968938D01*
X121093377Y-80962737D01*
X121147417Y-80959686D01*
X121286934Y-80951220D01*
X121389502Y-80940894D01*
X121460441Y-80924483D01*
X121505070Y-80897767D01*
X121528707Y-80856522D01*
X121536672Y-80796526D01*
X121534283Y-80713557D01*
X121530416Y-80655642D01*
X121524688Y-80563187D01*
X121518217Y-80442411D01*
X121511704Y-80307302D01*
X121505849Y-80171845D01*
X121504470Y-80137000D01*
X121498857Y-80020925D01*
X121491774Y-79917913D01*
X121483953Y-79836281D01*
X121476126Y-79784348D01*
X121472315Y-79771875D01*
X121459681Y-79756641D01*
X121435932Y-79746219D01*
X121394024Y-79739745D01*
X121326912Y-79736355D01*
X121227553Y-79735183D01*
X121173131Y-79735145D01*
X121028963Y-79737776D01*
G37*
X121028963Y-79737776D02*
X120922374Y-79745882D01*
X120848860Y-79760334D01*
X120803917Y-79782001D01*
X120783458Y-79810433D01*
X120799641Y-79824622D01*
X120851241Y-79843698D01*
X120931920Y-79865575D01*
X120993453Y-79879564D01*
X121090219Y-79902832D01*
X121176260Y-79928214D01*
X121239921Y-79952029D01*
X121263834Y-79964966D01*
X121283804Y-79981036D01*
X121298126Y-79999757D01*
X121307891Y-80028037D01*
X121314194Y-80072785D01*
X121318128Y-80140910D01*
X121320788Y-80239322D01*
X121322585Y-80336128D01*
X121328420Y-80668337D01*
X121269317Y-80727440D01*
X121235945Y-80756636D01*
X121199001Y-80775845D01*
X121147320Y-80788417D01*
X121069735Y-80797702D01*
X121021285Y-80801873D01*
X120910702Y-80812811D01*
X120835284Y-80826110D01*
X120787861Y-80844274D01*
X120761265Y-80869809D01*
X120750343Y-80896545D01*
X120753405Y-80943111D01*
X120780468Y-80975296D01*
X120807692Y-80980562D01*
X120835702Y-80978342D01*
X120897984Y-80974304D01*
X120986541Y-80968938D01*
X121093377Y-80962737D01*
X121147417Y-80959686D01*
X121286934Y-80951220D01*
X121389502Y-80940894D01*
X121460441Y-80924483D01*
X121505070Y-80897767D01*
X121528707Y-80856522D01*
X121536672Y-80796526D01*
X121534283Y-80713557D01*
X121530416Y-80655642D01*
X121524688Y-80563187D01*
X121518217Y-80442411D01*
X121511704Y-80307302D01*
X121505849Y-80171845D01*
X121504470Y-80137000D01*
X121498857Y-80020925D01*
X121491774Y-79917913D01*
X121483953Y-79836281D01*
X121476126Y-79784348D01*
X121472315Y-79771875D01*
X121459681Y-79756641D01*
X121435932Y-79746219D01*
X121394024Y-79739745D01*
X121326912Y-79736355D01*
X121227553Y-79735183D01*
X121173131Y-79735145D01*
X121028963Y-79737776D01*
G36*
X119691189Y-79673211D02*
G01*
X119631237Y-79678636D01*
X119620058Y-79680868D01*
X119567606Y-79694033D01*
X119574345Y-80306074D01*
X119577055Y-80487039D01*
X119580844Y-80642451D01*
X119585555Y-80768806D01*
X119591033Y-80862597D01*
X119597125Y-80920321D01*
X119602250Y-80938098D01*
X119629254Y-80945199D01*
X119691518Y-80952847D01*
X119781983Y-80960447D01*
X119893591Y-80967405D01*
X120015938Y-80972997D01*
X120159471Y-80977891D01*
X120266165Y-80980008D01*
X120341439Y-80979170D01*
X120390706Y-80975199D01*
X120419385Y-80967917D01*
X120431351Y-80959331D01*
X120439081Y-80928914D01*
X120446618Y-80858874D01*
X120453798Y-80751920D01*
X120460458Y-80610764D01*
X120466431Y-80438115D01*
X120469269Y-80334507D01*
X120470122Y-80300661D01*
X120332500Y-80300661D01*
X120331460Y-80443088D01*
X120327131Y-80549324D01*
X120317696Y-80625486D01*
X120301341Y-80677693D01*
X120276251Y-80712060D01*
X120240612Y-80734706D01*
X120199260Y-80749741D01*
X120119757Y-80762315D01*
X120026934Y-80760255D01*
X119939060Y-80745265D01*
X119875035Y-80719469D01*
X119827639Y-80683297D01*
X119793551Y-80641556D01*
X119770390Y-80586600D01*
X119755775Y-80510788D01*
X119747326Y-80406473D01*
X119743391Y-80296728D01*
X119741611Y-80159886D01*
X119745403Y-80058161D01*
X119756499Y-79984513D01*
X119776634Y-79931898D01*
X119807541Y-79893276D01*
X119850431Y-79861922D01*
X119941114Y-79828781D01*
X120047425Y-79823121D01*
X120154465Y-79843091D01*
X120247335Y-79886842D01*
X120282287Y-79915529D01*
X120301184Y-79936183D01*
X120314629Y-79959017D01*
X120323547Y-79991140D01*
X120328866Y-80039661D01*
X120331512Y-80111685D01*
X120332412Y-80214323D01*
X120332500Y-80300661D01*
X120470122Y-80300661D01*
X120484296Y-79738265D01*
X120434857Y-79710091D01*
X120398029Y-79700610D01*
X120327635Y-79691892D01*
X120232439Y-79684251D01*
X120121206Y-79678002D01*
X120002700Y-79673459D01*
X119885686Y-79670937D01*
X119778927Y-79670749D01*
X119691189Y-79673211D01*
G37*
X119691189Y-79673211D02*
X119631237Y-79678636D01*
X119620058Y-79680868D01*
X119567606Y-79694033D01*
X119574345Y-80306074D01*
X119577055Y-80487039D01*
X119580844Y-80642451D01*
X119585555Y-80768806D01*
X119591033Y-80862597D01*
X119597125Y-80920321D01*
X119602250Y-80938098D01*
X119629254Y-80945199D01*
X119691518Y-80952847D01*
X119781983Y-80960447D01*
X119893591Y-80967405D01*
X120015938Y-80972997D01*
X120159471Y-80977891D01*
X120266165Y-80980008D01*
X120341439Y-80979170D01*
X120390706Y-80975199D01*
X120419385Y-80967917D01*
X120431351Y-80959331D01*
X120439081Y-80928914D01*
X120446618Y-80858874D01*
X120453798Y-80751920D01*
X120460458Y-80610764D01*
X120466431Y-80438115D01*
X120469269Y-80334507D01*
X120470122Y-80300661D01*
X120332500Y-80300661D01*
X120331460Y-80443088D01*
X120327131Y-80549324D01*
X120317696Y-80625486D01*
X120301341Y-80677693D01*
X120276251Y-80712060D01*
X120240612Y-80734706D01*
X120199260Y-80749741D01*
X120119757Y-80762315D01*
X120026934Y-80760255D01*
X119939060Y-80745265D01*
X119875035Y-80719469D01*
X119827639Y-80683297D01*
X119793551Y-80641556D01*
X119770390Y-80586600D01*
X119755775Y-80510788D01*
X119747326Y-80406473D01*
X119743391Y-80296728D01*
X119741611Y-80159886D01*
X119745403Y-80058161D01*
X119756499Y-79984513D01*
X119776634Y-79931898D01*
X119807541Y-79893276D01*
X119850431Y-79861922D01*
X119941114Y-79828781D01*
X120047425Y-79823121D01*
X120154465Y-79843091D01*
X120247335Y-79886842D01*
X120282287Y-79915529D01*
X120301184Y-79936183D01*
X120314629Y-79959017D01*
X120323547Y-79991140D01*
X120328866Y-80039661D01*
X120331512Y-80111685D01*
X120332412Y-80214323D01*
X120332500Y-80300661D01*
X120470122Y-80300661D01*
X120484296Y-79738265D01*
X120434857Y-79710091D01*
X120398029Y-79700610D01*
X120327635Y-79691892D01*
X120232439Y-79684251D01*
X120121206Y-79678002D01*
X120002700Y-79673459D01*
X119885686Y-79670937D01*
X119778927Y-79670749D01*
X119691189Y-79673211D01*
G36*
X116190758Y-79679317D02*
G01*
X116067417Y-79682342D01*
X115907367Y-79688531D01*
X115784897Y-79696234D01*
X115695259Y-79706556D01*
X115633701Y-79720602D01*
X115595475Y-79739477D01*
X115575829Y-79764286D01*
X115570013Y-79796134D01*
X115570000Y-79798076D01*
X115582693Y-79836703D01*
X115624211Y-79865025D01*
X115699715Y-79885651D01*
X115762131Y-79895247D01*
X115870029Y-79916903D01*
X115953891Y-79949626D01*
X116005060Y-79989937D01*
X116007867Y-79993974D01*
X116013300Y-80022085D01*
X116018985Y-80086097D01*
X116024569Y-80179581D01*
X116029693Y-80296109D01*
X116034005Y-80429253D01*
X116035667Y-80496577D01*
X116039388Y-80656214D01*
X116043328Y-80778070D01*
X116048658Y-80866687D01*
X116056551Y-80926608D01*
X116068181Y-80962374D01*
X116084719Y-80978527D01*
X116107339Y-80979610D01*
X116137213Y-80970165D01*
X116155992Y-80962605D01*
X116186285Y-80946461D01*
X116209111Y-80922361D01*
X116225501Y-80884689D01*
X116236486Y-80827833D01*
X116243097Y-80746179D01*
X116246366Y-80634112D01*
X116247325Y-80486020D01*
X116247334Y-80465424D01*
X116248148Y-80314388D01*
X116250847Y-80200028D01*
X116255812Y-80116712D01*
X116263427Y-80058807D01*
X116274074Y-80020683D01*
X116278151Y-80011803D01*
X116331734Y-79950991D01*
X116419231Y-79903381D01*
X116524115Y-79874657D01*
X116610035Y-79848510D01*
X116659636Y-79805389D01*
X116675555Y-79756831D01*
X116674764Y-79725245D01*
X116656928Y-79706493D01*
X116612082Y-79693634D01*
X116575417Y-79687078D01*
X116520251Y-79682104D01*
X116431768Y-79679097D01*
X116318946Y-79678140D01*
X116190758Y-79679317D01*
G37*
X116190758Y-79679317D02*
X116067417Y-79682342D01*
X115907367Y-79688531D01*
X115784897Y-79696234D01*
X115695259Y-79706556D01*
X115633701Y-79720602D01*
X115595475Y-79739477D01*
X115575829Y-79764286D01*
X115570013Y-79796134D01*
X115570000Y-79798076D01*
X115582693Y-79836703D01*
X115624211Y-79865025D01*
X115699715Y-79885651D01*
X115762131Y-79895247D01*
X115870029Y-79916903D01*
X115953891Y-79949626D01*
X116005060Y-79989937D01*
X116007867Y-79993974D01*
X116013300Y-80022085D01*
X116018985Y-80086097D01*
X116024569Y-80179581D01*
X116029693Y-80296109D01*
X116034005Y-80429253D01*
X116035667Y-80496577D01*
X116039388Y-80656214D01*
X116043328Y-80778070D01*
X116048658Y-80866687D01*
X116056551Y-80926608D01*
X116068181Y-80962374D01*
X116084719Y-80978527D01*
X116107339Y-80979610D01*
X116137213Y-80970165D01*
X116155992Y-80962605D01*
X116186285Y-80946461D01*
X116209111Y-80922361D01*
X116225501Y-80884689D01*
X116236486Y-80827833D01*
X116243097Y-80746179D01*
X116246366Y-80634112D01*
X116247325Y-80486020D01*
X116247334Y-80465424D01*
X116248148Y-80314388D01*
X116250847Y-80200028D01*
X116255812Y-80116712D01*
X116263427Y-80058807D01*
X116274074Y-80020683D01*
X116278151Y-80011803D01*
X116331734Y-79950991D01*
X116419231Y-79903381D01*
X116524115Y-79874657D01*
X116610035Y-79848510D01*
X116659636Y-79805389D01*
X116675555Y-79756831D01*
X116674764Y-79725245D01*
X116656928Y-79706493D01*
X116612082Y-79693634D01*
X116575417Y-79687078D01*
X116520251Y-79682104D01*
X116431768Y-79679097D01*
X116318946Y-79678140D01*
X116190758Y-79679317D01*
G36*
X111357161Y-79674317D02*
G01*
X111208090Y-79683352D01*
X111099350Y-79698562D01*
X111030151Y-79720072D01*
X110999699Y-79748007D01*
X110998000Y-79757650D01*
X111001880Y-79772115D01*
X111017678Y-79782569D01*
X111051634Y-79789902D01*
X111109987Y-79795002D01*
X111198976Y-79798758D01*
X111306812Y-79801640D01*
X111427510Y-79804824D01*
X111513161Y-79808544D01*
X111571044Y-79813992D01*
X111608441Y-79822362D01*
X111632633Y-79834849D01*
X111650899Y-79852644D01*
X111656062Y-79858886D01*
X111686858Y-79924841D01*
X111695681Y-80006602D01*
X111680837Y-80082819D01*
X111674849Y-80095573D01*
X111648709Y-80130499D01*
X111608707Y-80156423D01*
X111548148Y-80175244D01*
X111460337Y-80188864D01*
X111338581Y-80199184D01*
X111301842Y-80201484D01*
X111200340Y-80208534D01*
X111113667Y-80216441D01*
X111050927Y-80224244D01*
X111021221Y-80230984D01*
X111021063Y-80231078D01*
X111011571Y-80257304D01*
X111004590Y-80316532D01*
X111000140Y-80399506D01*
X110998242Y-80496967D01*
X110998915Y-80599660D01*
X111002180Y-80698325D01*
X111008057Y-80783707D01*
X111016566Y-80846548D01*
X111019699Y-80859852D01*
X111041534Y-80913442D01*
X111067889Y-80946619D01*
X111072805Y-80949264D01*
X111103225Y-80953835D01*
X111168703Y-80959212D01*
X111261986Y-80964949D01*
X111375816Y-80970599D01*
X111501134Y-80975649D01*
X111641940Y-80980330D01*
X111746400Y-80982631D01*
X111820450Y-80982276D01*
X111870024Y-80978990D01*
X111901059Y-80972496D01*
X111919488Y-80962518D01*
X111926031Y-80955896D01*
X111944378Y-80902187D01*
X111940108Y-80857533D01*
X111925970Y-80793167D01*
X111651806Y-80793167D01*
X111507534Y-80790821D01*
X111399341Y-80782644D01*
X111321173Y-80766923D01*
X111266976Y-80741946D01*
X111230698Y-80706000D01*
X111210580Y-80668371D01*
X111194158Y-80594719D01*
X111195989Y-80511833D01*
X111214159Y-80437149D01*
X111240778Y-80393379D01*
X111266594Y-80376620D01*
X111308290Y-80366993D01*
X111374750Y-80363380D01*
X111469943Y-80364526D01*
X111598910Y-80363686D01*
X111715348Y-80354780D01*
X111811289Y-80339005D01*
X111878766Y-80317553D01*
X111905271Y-80299240D01*
X111916662Y-80264504D01*
X111925221Y-80197969D01*
X111930864Y-80109951D01*
X111933503Y-80010768D01*
X111933054Y-79910739D01*
X111929429Y-79820181D01*
X111922544Y-79749412D01*
X111912312Y-79708749D01*
X111910216Y-79705552D01*
X111893364Y-79692340D01*
X111863970Y-79682940D01*
X111815636Y-79676748D01*
X111741963Y-79673161D01*
X111636552Y-79671576D01*
X111547357Y-79671333D01*
X111357161Y-79674317D01*
G37*
X111357161Y-79674317D02*
X111208090Y-79683352D01*
X111099350Y-79698562D01*
X111030151Y-79720072D01*
X110999699Y-79748007D01*
X110998000Y-79757650D01*
X111001880Y-79772115D01*
X111017678Y-79782569D01*
X111051634Y-79789902D01*
X111109987Y-79795002D01*
X111198976Y-79798758D01*
X111306812Y-79801640D01*
X111427510Y-79804824D01*
X111513161Y-79808544D01*
X111571044Y-79813992D01*
X111608441Y-79822362D01*
X111632633Y-79834849D01*
X111650899Y-79852644D01*
X111656062Y-79858886D01*
X111686858Y-79924841D01*
X111695681Y-80006602D01*
X111680837Y-80082819D01*
X111674849Y-80095573D01*
X111648709Y-80130499D01*
X111608707Y-80156423D01*
X111548148Y-80175244D01*
X111460337Y-80188864D01*
X111338581Y-80199184D01*
X111301842Y-80201484D01*
X111200340Y-80208534D01*
X111113667Y-80216441D01*
X111050927Y-80224244D01*
X111021221Y-80230984D01*
X111021063Y-80231078D01*
X111011571Y-80257304D01*
X111004590Y-80316532D01*
X111000140Y-80399506D01*
X110998242Y-80496967D01*
X110998915Y-80599660D01*
X111002180Y-80698325D01*
X111008057Y-80783707D01*
X111016566Y-80846548D01*
X111019699Y-80859852D01*
X111041534Y-80913442D01*
X111067889Y-80946619D01*
X111072805Y-80949264D01*
X111103225Y-80953835D01*
X111168703Y-80959212D01*
X111261986Y-80964949D01*
X111375816Y-80970599D01*
X111501134Y-80975649D01*
X111641940Y-80980330D01*
X111746400Y-80982631D01*
X111820450Y-80982276D01*
X111870024Y-80978990D01*
X111901059Y-80972496D01*
X111919488Y-80962518D01*
X111926031Y-80955896D01*
X111944378Y-80902187D01*
X111940108Y-80857533D01*
X111925970Y-80793167D01*
X111651806Y-80793167D01*
X111507534Y-80790821D01*
X111399341Y-80782644D01*
X111321173Y-80766923D01*
X111266976Y-80741946D01*
X111230698Y-80706000D01*
X111210580Y-80668371D01*
X111194158Y-80594719D01*
X111195989Y-80511833D01*
X111214159Y-80437149D01*
X111240778Y-80393379D01*
X111266594Y-80376620D01*
X111308290Y-80366993D01*
X111374750Y-80363380D01*
X111469943Y-80364526D01*
X111598910Y-80363686D01*
X111715348Y-80354780D01*
X111811289Y-80339005D01*
X111878766Y-80317553D01*
X111905271Y-80299240D01*
X111916662Y-80264504D01*
X111925221Y-80197969D01*
X111930864Y-80109951D01*
X111933503Y-80010768D01*
X111933054Y-79910739D01*
X111929429Y-79820181D01*
X111922544Y-79749412D01*
X111912312Y-79708749D01*
X111910216Y-79705552D01*
X111893364Y-79692340D01*
X111863970Y-79682940D01*
X111815636Y-79676748D01*
X111741963Y-79673161D01*
X111636552Y-79671576D01*
X111547357Y-79671333D01*
X111357161Y-79674317D01*
G36*
X106941489Y-79733691D02*
G01*
X106843222Y-79739633D01*
X106761369Y-79749903D01*
X106705686Y-79764519D01*
X106700116Y-79767127D01*
X106657539Y-79793719D01*
X106637830Y-79815048D01*
X106637667Y-79816359D01*
X106657013Y-79827409D01*
X106709307Y-79844003D01*
X106785932Y-79863652D01*
X106854357Y-79878933D01*
X106951044Y-79901985D01*
X107037037Y-79927339D01*
X107100622Y-79951293D01*
X107124232Y-79964242D01*
X107144473Y-79980741D01*
X107158936Y-79999836D01*
X107168756Y-80028535D01*
X107175065Y-80073844D01*
X107178998Y-80142768D01*
X107181688Y-80242315D01*
X107183361Y-80329750D01*
X107184824Y-80470773D01*
X107182494Y-80575756D01*
X107175104Y-80650915D01*
X107161391Y-80702466D01*
X107140089Y-80736627D01*
X107109933Y-80759614D01*
X107094310Y-80767438D01*
X107052155Y-80778956D01*
X106980930Y-80790949D01*
X106893821Y-80801318D01*
X106864899Y-80803938D01*
X106749227Y-80818778D01*
X106671903Y-80841883D01*
X106629430Y-80875117D01*
X106618309Y-80920347D01*
X106620153Y-80934467D01*
X106624909Y-80951501D01*
X106635564Y-80963557D01*
X106657934Y-80971004D01*
X106697839Y-80974214D01*
X106761095Y-80973558D01*
X106853520Y-80969406D01*
X106980933Y-80962131D01*
X107018667Y-80959883D01*
X107154333Y-80950719D01*
X107253373Y-80939574D01*
X107321470Y-80923045D01*
X107364306Y-80897727D01*
X107387566Y-80860216D01*
X107396931Y-80807107D01*
X107398086Y-80734995D01*
X107398055Y-80732613D01*
X107394566Y-80553574D01*
X107389192Y-80380584D01*
X107382265Y-80218951D01*
X107374119Y-80073985D01*
X107365086Y-79950993D01*
X107355499Y-79855285D01*
X107345691Y-79792168D01*
X107337576Y-79768280D01*
X107303578Y-79752848D01*
X107237215Y-79741655D01*
X107148242Y-79734720D01*
X107046414Y-79732059D01*
X106941489Y-79733691D01*
G37*
X106941489Y-79733691D02*
X106843222Y-79739633D01*
X106761369Y-79749903D01*
X106705686Y-79764519D01*
X106700116Y-79767127D01*
X106657539Y-79793719D01*
X106637830Y-79815048D01*
X106637667Y-79816359D01*
X106657013Y-79827409D01*
X106709307Y-79844003D01*
X106785932Y-79863652D01*
X106854357Y-79878933D01*
X106951044Y-79901985D01*
X107037037Y-79927339D01*
X107100622Y-79951293D01*
X107124232Y-79964242D01*
X107144473Y-79980741D01*
X107158936Y-79999836D01*
X107168756Y-80028535D01*
X107175065Y-80073844D01*
X107178998Y-80142768D01*
X107181688Y-80242315D01*
X107183361Y-80329750D01*
X107184824Y-80470773D01*
X107182494Y-80575756D01*
X107175104Y-80650915D01*
X107161391Y-80702466D01*
X107140089Y-80736627D01*
X107109933Y-80759614D01*
X107094310Y-80767438D01*
X107052155Y-80778956D01*
X106980930Y-80790949D01*
X106893821Y-80801318D01*
X106864899Y-80803938D01*
X106749227Y-80818778D01*
X106671903Y-80841883D01*
X106629430Y-80875117D01*
X106618309Y-80920347D01*
X106620153Y-80934467D01*
X106624909Y-80951501D01*
X106635564Y-80963557D01*
X106657934Y-80971004D01*
X106697839Y-80974214D01*
X106761095Y-80973558D01*
X106853520Y-80969406D01*
X106980933Y-80962131D01*
X107018667Y-80959883D01*
X107154333Y-80950719D01*
X107253373Y-80939574D01*
X107321470Y-80923045D01*
X107364306Y-80897727D01*
X107387566Y-80860216D01*
X107396931Y-80807107D01*
X107398086Y-80734995D01*
X107398055Y-80732613D01*
X107394566Y-80553574D01*
X107389192Y-80380584D01*
X107382265Y-80218951D01*
X107374119Y-80073985D01*
X107365086Y-79950993D01*
X107355499Y-79855285D01*
X107345691Y-79792168D01*
X107337576Y-79768280D01*
X107303578Y-79752848D01*
X107237215Y-79741655D01*
X107148242Y-79734720D01*
X107046414Y-79732059D01*
X106941489Y-79733691D01*
G36*
X117865627Y-79670695D02*
G01*
X117860234Y-79675567D01*
X117850842Y-79700005D01*
X117843771Y-79754137D01*
X117838857Y-79841013D01*
X117835937Y-79963678D01*
X117834849Y-80125180D01*
X117834834Y-80150439D01*
X117833866Y-80287525D01*
X117831161Y-80413098D01*
X117827019Y-80519957D01*
X117821742Y-80600904D01*
X117815627Y-80648739D01*
X117813802Y-80655229D01*
X117770472Y-80710841D01*
X117691120Y-80749261D01*
X117578924Y-80769272D01*
X117508426Y-80772000D01*
X117396455Y-80765772D01*
X117318960Y-80745287D01*
X117269694Y-80707840D01*
X117244433Y-80657756D01*
X117234781Y-80616771D01*
X117219870Y-80541686D01*
X117201121Y-80440207D01*
X117179953Y-80320036D01*
X117157787Y-80188879D01*
X117156210Y-80179333D01*
X117134174Y-80050848D01*
X117112865Y-79935843D01*
X117093684Y-79841193D01*
X117078035Y-79773774D01*
X117067320Y-79740462D01*
X117066410Y-79739055D01*
X117025637Y-79716097D01*
X116976199Y-79721872D01*
X116935495Y-79751755D01*
X116923035Y-79777167D01*
X116918872Y-79815802D01*
X116916424Y-79888344D01*
X116915527Y-79987740D01*
X116916020Y-80106936D01*
X116917741Y-80238877D01*
X116920527Y-80376510D01*
X116924216Y-80512781D01*
X116928647Y-80640636D01*
X116933657Y-80753022D01*
X116939083Y-80842884D01*
X116944765Y-80903170D01*
X116949433Y-80925458D01*
X116958718Y-80937299D01*
X116976280Y-80946329D01*
X117007312Y-80952923D01*
X117057011Y-80957456D01*
X117130570Y-80960302D01*
X117233184Y-80961837D01*
X117370048Y-80962435D01*
X117462817Y-80962500D01*
X117621582Y-80962247D01*
X117743564Y-80961219D01*
X117834312Y-80959017D01*
X117899374Y-80955237D01*
X117944300Y-80949481D01*
X117974638Y-80941345D01*
X117995936Y-80930428D01*
X118005617Y-80923249D01*
X118054089Y-80883998D01*
X118032331Y-80304124D01*
X118026031Y-80150084D01*
X118019262Y-80008721D01*
X118012384Y-79885915D01*
X118005756Y-79787546D01*
X117999740Y-79719495D01*
X117994696Y-79687643D01*
X117994521Y-79687208D01*
X117962020Y-79657806D01*
X117912576Y-79651740D01*
X117865627Y-79670695D01*
G37*
X117865627Y-79670695D02*
X117860234Y-79675567D01*
X117850842Y-79700005D01*
X117843771Y-79754137D01*
X117838857Y-79841013D01*
X117835937Y-79963678D01*
X117834849Y-80125180D01*
X117834834Y-80150439D01*
X117833866Y-80287525D01*
X117831161Y-80413098D01*
X117827019Y-80519957D01*
X117821742Y-80600904D01*
X117815627Y-80648739D01*
X117813802Y-80655229D01*
X117770472Y-80710841D01*
X117691120Y-80749261D01*
X117578924Y-80769272D01*
X117508426Y-80772000D01*
X117396455Y-80765772D01*
X117318960Y-80745287D01*
X117269694Y-80707840D01*
X117244433Y-80657756D01*
X117234781Y-80616771D01*
X117219870Y-80541686D01*
X117201121Y-80440207D01*
X117179953Y-80320036D01*
X117157787Y-80188879D01*
X117156210Y-80179333D01*
X117134174Y-80050848D01*
X117112865Y-79935843D01*
X117093684Y-79841193D01*
X117078035Y-79773774D01*
X117067320Y-79740462D01*
X117066410Y-79739055D01*
X117025637Y-79716097D01*
X116976199Y-79721872D01*
X116935495Y-79751755D01*
X116923035Y-79777167D01*
X116918872Y-79815802D01*
X116916424Y-79888344D01*
X116915527Y-79987740D01*
X116916020Y-80106936D01*
X116917741Y-80238877D01*
X116920527Y-80376510D01*
X116924216Y-80512781D01*
X116928647Y-80640636D01*
X116933657Y-80753022D01*
X116939083Y-80842884D01*
X116944765Y-80903170D01*
X116949433Y-80925458D01*
X116958718Y-80937299D01*
X116976280Y-80946329D01*
X117007312Y-80952923D01*
X117057011Y-80957456D01*
X117130570Y-80960302D01*
X117233184Y-80961837D01*
X117370048Y-80962435D01*
X117462817Y-80962500D01*
X117621582Y-80962247D01*
X117743564Y-80961219D01*
X117834312Y-80959017D01*
X117899374Y-80955237D01*
X117944300Y-80949481D01*
X117974638Y-80941345D01*
X117995936Y-80930428D01*
X118005617Y-80923249D01*
X118054089Y-80883998D01*
X118032331Y-80304124D01*
X118026031Y-80150084D01*
X118019262Y-80008721D01*
X118012384Y-79885915D01*
X118005756Y-79787546D01*
X117999740Y-79719495D01*
X117994696Y-79687643D01*
X117994521Y-79687208D01*
X117962020Y-79657806D01*
X117912576Y-79651740D01*
X117865627Y-79670695D01*
G36*
X112429129Y-79666870D02*
G01*
X112332885Y-79669825D01*
X112256994Y-79675164D01*
X112210329Y-79682972D01*
X112201031Y-79687503D01*
X112180385Y-79721120D01*
X112195366Y-79746943D01*
X112247859Y-79765919D01*
X112339752Y-79778994D01*
X112391249Y-79782999D01*
X112522124Y-79796547D01*
X112617809Y-79819621D01*
X112684935Y-79855155D01*
X112730128Y-79906084D01*
X112747632Y-79940744D01*
X112770479Y-80040220D01*
X112753244Y-80129176D01*
X112697443Y-80204960D01*
X112604589Y-80264920D01*
X112550275Y-80286317D01*
X112477048Y-80316737D01*
X112445363Y-80346199D01*
X112455365Y-80376256D01*
X112507198Y-80408465D01*
X112563732Y-80431415D01*
X112663032Y-80476407D01*
X112723508Y-80526962D01*
X112748654Y-80587579D01*
X112742339Y-80661278D01*
X112713604Y-80725779D01*
X112660920Y-80773307D01*
X112579057Y-80806574D01*
X112462785Y-80828292D01*
X112409121Y-80834023D01*
X112304313Y-80845074D01*
X112237082Y-80856860D01*
X112202694Y-80871554D01*
X112196418Y-80891329D01*
X112213520Y-80918360D01*
X112216986Y-80922268D01*
X112234481Y-80937579D01*
X112259344Y-80948459D01*
X112298397Y-80955648D01*
X112358460Y-80959890D01*
X112446355Y-80961925D01*
X112568905Y-80962495D01*
X112587017Y-80962500D01*
X112920639Y-80962500D01*
X112938278Y-80909790D01*
X112944226Y-80868132D01*
X112947011Y-80794970D01*
X112946464Y-80701029D01*
X112943014Y-80608165D01*
X112939216Y-80484598D01*
X112939397Y-80352618D01*
X112943351Y-80231426D01*
X112947732Y-80168750D01*
X112961299Y-79992205D01*
X112965527Y-79856506D01*
X112960407Y-79761204D01*
X112945927Y-79705853D01*
X112937148Y-79694490D01*
X112905107Y-79684909D01*
X112840185Y-79677206D01*
X112751253Y-79671467D01*
X112647185Y-79667775D01*
X112536853Y-79666214D01*
X112429129Y-79666870D01*
G37*
X112429129Y-79666870D02*
X112332885Y-79669825D01*
X112256994Y-79675164D01*
X112210329Y-79682972D01*
X112201031Y-79687503D01*
X112180385Y-79721120D01*
X112195366Y-79746943D01*
X112247859Y-79765919D01*
X112339752Y-79778994D01*
X112391249Y-79782999D01*
X112522124Y-79796547D01*
X112617809Y-79819621D01*
X112684935Y-79855155D01*
X112730128Y-79906084D01*
X112747632Y-79940744D01*
X112770479Y-80040220D01*
X112753244Y-80129176D01*
X112697443Y-80204960D01*
X112604589Y-80264920D01*
X112550275Y-80286317D01*
X112477048Y-80316737D01*
X112445363Y-80346199D01*
X112455365Y-80376256D01*
X112507198Y-80408465D01*
X112563732Y-80431415D01*
X112663032Y-80476407D01*
X112723508Y-80526962D01*
X112748654Y-80587579D01*
X112742339Y-80661278D01*
X112713604Y-80725779D01*
X112660920Y-80773307D01*
X112579057Y-80806574D01*
X112462785Y-80828292D01*
X112409121Y-80834023D01*
X112304313Y-80845074D01*
X112237082Y-80856860D01*
X112202694Y-80871554D01*
X112196418Y-80891329D01*
X112213520Y-80918360D01*
X112216986Y-80922268D01*
X112234481Y-80937579D01*
X112259344Y-80948459D01*
X112298397Y-80955648D01*
X112358460Y-80959890D01*
X112446355Y-80961925D01*
X112568905Y-80962495D01*
X112587017Y-80962500D01*
X112920639Y-80962500D01*
X112938278Y-80909790D01*
X112944226Y-80868132D01*
X112947011Y-80794970D01*
X112946464Y-80701029D01*
X112943014Y-80608165D01*
X112939216Y-80484598D01*
X112939397Y-80352618D01*
X112943351Y-80231426D01*
X112947732Y-80168750D01*
X112961299Y-79992205D01*
X112965527Y-79856506D01*
X112960407Y-79761204D01*
X112945927Y-79705853D01*
X112937148Y-79694490D01*
X112905107Y-79684909D01*
X112840185Y-79677206D01*
X112751253Y-79671467D01*
X112647185Y-79667775D01*
X112536853Y-79666214D01*
X112429129Y-79666870D01*
G36*
X110061257Y-79667743D02*
G01*
X109998514Y-79671928D01*
X109958178Y-79679382D01*
X109933614Y-79690673D01*
X109925924Y-79697172D01*
X109902858Y-79734453D01*
X109920090Y-79760065D01*
X109977799Y-79774127D01*
X110045708Y-79777167D01*
X110205401Y-79786709D01*
X110328415Y-79815826D01*
X110415984Y-79865253D01*
X110469338Y-79935725D01*
X110489710Y-80027975D01*
X110490000Y-80042194D01*
X110474674Y-80133307D01*
X110426471Y-80204522D01*
X110342059Y-80259804D01*
X110288917Y-80281414D01*
X110214364Y-80315907D01*
X110181423Y-80350700D01*
X110190197Y-80384125D01*
X110240791Y-80414512D01*
X110279793Y-80427481D01*
X110378395Y-80466454D01*
X110439453Y-80518879D01*
X110466629Y-80588505D01*
X110468834Y-80620968D01*
X110449669Y-80701664D01*
X110393946Y-80764832D01*
X110304325Y-80808885D01*
X110183467Y-80832236D01*
X110109000Y-80835671D01*
X110006646Y-80841833D01*
X109942802Y-80859051D01*
X109918682Y-80886978D01*
X109918500Y-80890140D01*
X109927211Y-80916395D01*
X109956426Y-80935847D01*
X110010776Y-80949334D01*
X110094886Y-80957692D01*
X110213386Y-80961758D01*
X110318531Y-80962500D01*
X110441126Y-80962185D01*
X110528181Y-80960650D01*
X110586484Y-80957005D01*
X110622829Y-80950362D01*
X110644004Y-80939833D01*
X110656801Y-80924529D01*
X110660628Y-80917748D01*
X110671066Y-80877235D01*
X110675523Y-80803776D01*
X110674090Y-80694058D01*
X110669514Y-80591740D01*
X110664741Y-80338752D01*
X110676628Y-80093619D01*
X110680309Y-80054231D01*
X110692111Y-79920423D01*
X110696093Y-79822657D01*
X110691653Y-79755262D01*
X110678190Y-79712567D01*
X110655103Y-79688901D01*
X110640930Y-79682794D01*
X110606588Y-79678186D01*
X110538432Y-79673876D01*
X110444980Y-79670241D01*
X110334752Y-79667656D01*
X110280491Y-79666919D01*
X110153038Y-79666262D01*
X110061257Y-79667743D01*
G37*
X110061257Y-79667743D02*
X109998514Y-79671928D01*
X109958178Y-79679382D01*
X109933614Y-79690673D01*
X109925924Y-79697172D01*
X109902858Y-79734453D01*
X109920090Y-79760065D01*
X109977799Y-79774127D01*
X110045708Y-79777167D01*
X110205401Y-79786709D01*
X110328415Y-79815826D01*
X110415984Y-79865253D01*
X110469338Y-79935725D01*
X110489710Y-80027975D01*
X110490000Y-80042194D01*
X110474674Y-80133307D01*
X110426471Y-80204522D01*
X110342059Y-80259804D01*
X110288917Y-80281414D01*
X110214364Y-80315907D01*
X110181423Y-80350700D01*
X110190197Y-80384125D01*
X110240791Y-80414512D01*
X110279793Y-80427481D01*
X110378395Y-80466454D01*
X110439453Y-80518879D01*
X110466629Y-80588505D01*
X110468834Y-80620968D01*
X110449669Y-80701664D01*
X110393946Y-80764832D01*
X110304325Y-80808885D01*
X110183467Y-80832236D01*
X110109000Y-80835671D01*
X110006646Y-80841833D01*
X109942802Y-80859051D01*
X109918682Y-80886978D01*
X109918500Y-80890140D01*
X109927211Y-80916395D01*
X109956426Y-80935847D01*
X110010776Y-80949334D01*
X110094886Y-80957692D01*
X110213386Y-80961758D01*
X110318531Y-80962500D01*
X110441126Y-80962185D01*
X110528181Y-80960650D01*
X110586484Y-80957005D01*
X110622829Y-80950362D01*
X110644004Y-80939833D01*
X110656801Y-80924529D01*
X110660628Y-80917748D01*
X110671066Y-80877235D01*
X110675523Y-80803776D01*
X110674090Y-80694058D01*
X110669514Y-80591740D01*
X110664741Y-80338752D01*
X110676628Y-80093619D01*
X110680309Y-80054231D01*
X110692111Y-79920423D01*
X110696093Y-79822657D01*
X110691653Y-79755262D01*
X110678190Y-79712567D01*
X110655103Y-79688901D01*
X110640930Y-79682794D01*
X110606588Y-79678186D01*
X110538432Y-79673876D01*
X110444980Y-79670241D01*
X110334752Y-79667656D01*
X110280491Y-79666919D01*
X110153038Y-79666262D01*
X110061257Y-79667743D01*
G36*
X122161427Y-77683040D02*
G01*
X122126564Y-77717585D01*
X122082949Y-77783314D01*
X122035975Y-77866875D01*
X121978361Y-77971679D01*
X121934312Y-78044152D01*
X121898898Y-78090039D01*
X121867187Y-78115086D01*
X121834248Y-78125042D01*
X121813478Y-78126167D01*
X121765472Y-78118486D01*
X121731988Y-78091209D01*
X121709723Y-78037979D01*
X121695377Y-77952440D01*
X121689539Y-77887646D01*
X121682522Y-77802214D01*
X121674972Y-77750553D01*
X121663683Y-77724188D01*
X121645450Y-77714641D01*
X121623667Y-77713417D01*
X121570750Y-77713417D01*
X121575792Y-78208363D01*
X121578776Y-78397416D01*
X121583452Y-78544341D01*
X121589830Y-78649308D01*
X121597919Y-78712487D01*
X121604842Y-78732238D01*
X121649034Y-78759316D01*
X121701050Y-78746206D01*
X121758169Y-78693719D01*
X121765640Y-78684290D01*
X121838193Y-78591940D01*
X121892274Y-78529079D01*
X121933599Y-78490451D01*
X121967882Y-78470801D01*
X122000838Y-78464873D01*
X122004268Y-78464833D01*
X122058489Y-78474618D01*
X122093971Y-78508706D01*
X122116174Y-78574200D01*
X122123933Y-78620427D01*
X122133455Y-78683039D01*
X122144288Y-78711366D01*
X122163677Y-78713039D01*
X122196559Y-78696922D01*
X122210067Y-78687399D01*
X122220232Y-78671573D01*
X122227527Y-78643933D01*
X122232424Y-78598965D01*
X122235396Y-78531160D01*
X122236914Y-78435005D01*
X122237452Y-78304988D01*
X122237500Y-78219280D01*
X122236142Y-78033479D01*
X122231462Y-77888360D01*
X122222555Y-77782339D01*
X122208518Y-77713834D01*
X122188443Y-77681262D01*
X122161427Y-77683040D01*
G37*
X122161427Y-77683040D02*
X122126564Y-77717585D01*
X122082949Y-77783314D01*
X122035975Y-77866875D01*
X121978361Y-77971679D01*
X121934312Y-78044152D01*
X121898898Y-78090039D01*
X121867187Y-78115086D01*
X121834248Y-78125042D01*
X121813478Y-78126167D01*
X121765472Y-78118486D01*
X121731988Y-78091209D01*
X121709723Y-78037979D01*
X121695377Y-77952440D01*
X121689539Y-77887646D01*
X121682522Y-77802214D01*
X121674972Y-77750553D01*
X121663683Y-77724188D01*
X121645450Y-77714641D01*
X121623667Y-77713417D01*
X121570750Y-77713417D01*
X121575792Y-78208363D01*
X121578776Y-78397416D01*
X121583452Y-78544341D01*
X121589830Y-78649308D01*
X121597919Y-78712487D01*
X121604842Y-78732238D01*
X121649034Y-78759316D01*
X121701050Y-78746206D01*
X121758169Y-78693719D01*
X121765640Y-78684290D01*
X121838193Y-78591940D01*
X121892274Y-78529079D01*
X121933599Y-78490451D01*
X121967882Y-78470801D01*
X122000838Y-78464873D01*
X122004268Y-78464833D01*
X122058489Y-78474618D01*
X122093971Y-78508706D01*
X122116174Y-78574200D01*
X122123933Y-78620427D01*
X122133455Y-78683039D01*
X122144288Y-78711366D01*
X122163677Y-78713039D01*
X122196559Y-78696922D01*
X122210067Y-78687399D01*
X122220232Y-78671573D01*
X122227527Y-78643933D01*
X122232424Y-78598965D01*
X122235396Y-78531160D01*
X122236914Y-78435005D01*
X122237452Y-78304988D01*
X122237500Y-78219280D01*
X122236142Y-78033479D01*
X122231462Y-77888360D01*
X122222555Y-77782339D01*
X122208518Y-77713834D01*
X122188443Y-77681262D01*
X122161427Y-77683040D01*
G36*
X114034956Y-77094737D02*
G01*
X113912592Y-77101963D01*
X113814415Y-77115436D01*
X113762820Y-77129659D01*
X113701889Y-77153522D01*
X113713286Y-77867386D01*
X113716572Y-78039905D01*
X113720657Y-78201194D01*
X113725324Y-78345779D01*
X113730357Y-78468183D01*
X113735540Y-78562933D01*
X113740656Y-78624554D01*
X113743990Y-78644750D01*
X113766165Y-78690892D01*
X113803732Y-78707241D01*
X113825273Y-78708250D01*
X113857707Y-78705351D01*
X113881153Y-78691062D01*
X113901885Y-78656997D01*
X113926181Y-78594767D01*
X113940167Y-78554705D01*
X113976440Y-78454253D01*
X114009330Y-78386968D01*
X114048238Y-78346208D01*
X114102564Y-78325333D01*
X114181708Y-78317702D01*
X114277090Y-78316667D01*
X114373689Y-78317256D01*
X114437429Y-78320410D01*
X114477781Y-78328206D01*
X114504216Y-78342722D01*
X114526206Y-78366036D01*
X114531298Y-78372438D01*
X114559420Y-78422359D01*
X114572744Y-78488580D01*
X114575167Y-78553746D01*
X114578768Y-78629216D01*
X114588058Y-78692172D01*
X114597079Y-78720225D01*
X114635244Y-78752954D01*
X114688182Y-78758960D01*
X114736966Y-78737142D01*
X114744989Y-78728828D01*
X114760129Y-78688709D01*
X114773375Y-78608457D01*
X114784600Y-78490233D01*
X114793672Y-78336200D01*
X114800463Y-78148520D01*
X114804844Y-77929357D01*
X114805788Y-77808121D01*
X114578162Y-77808121D01*
X114566695Y-77886120D01*
X114564441Y-77893783D01*
X114526853Y-77947253D01*
X114458378Y-77987825D01*
X114369057Y-78013416D01*
X114268932Y-78021941D01*
X114168045Y-78011315D01*
X114099643Y-77990251D01*
X114025558Y-77937271D01*
X113977150Y-77852671D01*
X113956087Y-77739694D01*
X113955286Y-77709520D01*
X113968749Y-77600064D01*
X114010651Y-77519931D01*
X114083261Y-77465166D01*
X114099884Y-77457649D01*
X114200600Y-77431867D01*
X114306612Y-77431664D01*
X114406826Y-77454462D01*
X114490150Y-77497683D01*
X114545490Y-77558749D01*
X114546976Y-77561549D01*
X114567322Y-77627177D01*
X114578044Y-77715587D01*
X114578162Y-77808121D01*
X114805788Y-77808121D01*
X114806645Y-77698085D01*
X114808000Y-77195920D01*
X114746360Y-77164045D01*
X114677888Y-77140738D01*
X114576742Y-77121692D01*
X114452399Y-77107237D01*
X114314336Y-77097706D01*
X114172029Y-77093428D01*
X114034956Y-77094737D01*
G37*
X114034956Y-77094737D02*
X113912592Y-77101963D01*
X113814415Y-77115436D01*
X113762820Y-77129659D01*
X113701889Y-77153522D01*
X113713286Y-77867386D01*
X113716572Y-78039905D01*
X113720657Y-78201194D01*
X113725324Y-78345779D01*
X113730357Y-78468183D01*
X113735540Y-78562933D01*
X113740656Y-78624554D01*
X113743990Y-78644750D01*
X113766165Y-78690892D01*
X113803732Y-78707241D01*
X113825273Y-78708250D01*
X113857707Y-78705351D01*
X113881153Y-78691062D01*
X113901885Y-78656997D01*
X113926181Y-78594767D01*
X113940167Y-78554705D01*
X113976440Y-78454253D01*
X114009330Y-78386968D01*
X114048238Y-78346208D01*
X114102564Y-78325333D01*
X114181708Y-78317702D01*
X114277090Y-78316667D01*
X114373689Y-78317256D01*
X114437429Y-78320410D01*
X114477781Y-78328206D01*
X114504216Y-78342722D01*
X114526206Y-78366036D01*
X114531298Y-78372438D01*
X114559420Y-78422359D01*
X114572744Y-78488580D01*
X114575167Y-78553746D01*
X114578768Y-78629216D01*
X114588058Y-78692172D01*
X114597079Y-78720225D01*
X114635244Y-78752954D01*
X114688182Y-78758960D01*
X114736966Y-78737142D01*
X114744989Y-78728828D01*
X114760129Y-78688709D01*
X114773375Y-78608457D01*
X114784600Y-78490233D01*
X114793672Y-78336200D01*
X114800463Y-78148520D01*
X114804844Y-77929357D01*
X114805788Y-77808121D01*
X114578162Y-77808121D01*
X114566695Y-77886120D01*
X114564441Y-77893783D01*
X114526853Y-77947253D01*
X114458378Y-77987825D01*
X114369057Y-78013416D01*
X114268932Y-78021941D01*
X114168045Y-78011315D01*
X114099643Y-77990251D01*
X114025558Y-77937271D01*
X113977150Y-77852671D01*
X113956087Y-77739694D01*
X113955286Y-77709520D01*
X113968749Y-77600064D01*
X114010651Y-77519931D01*
X114083261Y-77465166D01*
X114099884Y-77457649D01*
X114200600Y-77431867D01*
X114306612Y-77431664D01*
X114406826Y-77454462D01*
X114490150Y-77497683D01*
X114545490Y-77558749D01*
X114546976Y-77561549D01*
X114567322Y-77627177D01*
X114578044Y-77715587D01*
X114578162Y-77808121D01*
X114805788Y-77808121D01*
X114806645Y-77698085D01*
X114808000Y-77195920D01*
X114746360Y-77164045D01*
X114677888Y-77140738D01*
X114576742Y-77121692D01*
X114452399Y-77107237D01*
X114314336Y-77097706D01*
X114172029Y-77093428D01*
X114034956Y-77094737D01*
G36*
X110263955Y-77703771D02*
G01*
X110230339Y-77741226D01*
X110185796Y-77808947D01*
X110131147Y-77903917D01*
X110078828Y-77996420D01*
X110040484Y-78057863D01*
X110010650Y-78094793D01*
X109983863Y-78113755D01*
X109954656Y-78121296D01*
X109949169Y-78121902D01*
X109891418Y-78118477D01*
X109851334Y-78091539D01*
X109825891Y-78035937D01*
X109812062Y-77946518D01*
X109808351Y-77882161D01*
X109804707Y-77798328D01*
X109799167Y-77747797D01*
X109788290Y-77721560D01*
X109768636Y-77710613D01*
X109741214Y-77706462D01*
X109680343Y-77699508D01*
X109689354Y-78210595D01*
X109692693Y-78376255D01*
X109696385Y-78504251D01*
X109700778Y-78599252D01*
X109706223Y-78665928D01*
X109713067Y-78708947D01*
X109721662Y-78732979D01*
X109729057Y-78741101D01*
X109778279Y-78759102D01*
X109829906Y-78743502D01*
X109837050Y-78739466D01*
X109867694Y-78709963D01*
X109906653Y-78657646D01*
X109927329Y-78624669D01*
X109991505Y-78537007D01*
X110057780Y-78483514D01*
X110120899Y-78464238D01*
X110175610Y-78479222D01*
X110216660Y-78528514D01*
X110238796Y-78612159D01*
X110239729Y-78621947D01*
X110253095Y-78687393D01*
X110278798Y-78712786D01*
X110316389Y-78697802D01*
X110328794Y-78686516D01*
X110343400Y-78664815D01*
X110353087Y-78629447D01*
X110358626Y-78573037D01*
X110360790Y-78488213D01*
X110360514Y-78383946D01*
X110358300Y-78254719D01*
X110354258Y-78115420D01*
X110349019Y-77985057D01*
X110344639Y-77903917D01*
X110337787Y-77807255D01*
X110330669Y-77745327D01*
X110321329Y-77710563D01*
X110307810Y-77695398D01*
X110289897Y-77692250D01*
X110263955Y-77703771D01*
G37*
X110263955Y-77703771D02*
X110230339Y-77741226D01*
X110185796Y-77808947D01*
X110131147Y-77903917D01*
X110078828Y-77996420D01*
X110040484Y-78057863D01*
X110010650Y-78094793D01*
X109983863Y-78113755D01*
X109954656Y-78121296D01*
X109949169Y-78121902D01*
X109891418Y-78118477D01*
X109851334Y-78091539D01*
X109825891Y-78035937D01*
X109812062Y-77946518D01*
X109808351Y-77882161D01*
X109804707Y-77798328D01*
X109799167Y-77747797D01*
X109788290Y-77721560D01*
X109768636Y-77710613D01*
X109741214Y-77706462D01*
X109680343Y-77699508D01*
X109689354Y-78210595D01*
X109692693Y-78376255D01*
X109696385Y-78504251D01*
X109700778Y-78599252D01*
X109706223Y-78665928D01*
X109713067Y-78708947D01*
X109721662Y-78732979D01*
X109729057Y-78741101D01*
X109778279Y-78759102D01*
X109829906Y-78743502D01*
X109837050Y-78739466D01*
X109867694Y-78709963D01*
X109906653Y-78657646D01*
X109927329Y-78624669D01*
X109991505Y-78537007D01*
X110057780Y-78483514D01*
X110120899Y-78464238D01*
X110175610Y-78479222D01*
X110216660Y-78528514D01*
X110238796Y-78612159D01*
X110239729Y-78621947D01*
X110253095Y-78687393D01*
X110278798Y-78712786D01*
X110316389Y-78697802D01*
X110328794Y-78686516D01*
X110343400Y-78664815D01*
X110353087Y-78629447D01*
X110358626Y-78573037D01*
X110360790Y-78488213D01*
X110360514Y-78383946D01*
X110358300Y-78254719D01*
X110354258Y-78115420D01*
X110349019Y-77985057D01*
X110344639Y-77903917D01*
X110337787Y-77807255D01*
X110330669Y-77745327D01*
X110321329Y-77710563D01*
X110307810Y-77695398D01*
X110289897Y-77692250D01*
X110263955Y-77703771D01*
G36*
X119018201Y-77851000D02*
G01*
X119010631Y-77897694D01*
X119004589Y-77971648D01*
X119001264Y-78057789D01*
X119001110Y-78067693D01*
X118999000Y-78231469D01*
X119083667Y-78284917D01*
X119139336Y-78328777D01*
X119166865Y-78369503D01*
X119168334Y-78378889D01*
X119153929Y-78411611D01*
X119115559Y-78463473D01*
X119060493Y-78525037D01*
X119039128Y-78546631D01*
X118967025Y-78623125D01*
X118928735Y-78678144D01*
X118923090Y-78714053D01*
X118947407Y-78732779D01*
X118973352Y-78725106D01*
X119025361Y-78699447D01*
X119093868Y-78660682D01*
X119121237Y-78644144D01*
X119226287Y-78585065D01*
X119305001Y-78555188D01*
X119361939Y-78554768D01*
X119401659Y-78584064D01*
X119428720Y-78643334D01*
X119433776Y-78661802D01*
X119456305Y-78707027D01*
X119483103Y-78714386D01*
X119499391Y-78704124D01*
X119511252Y-78675874D01*
X119520156Y-78622593D01*
X119527576Y-78537237D01*
X119530865Y-78485785D01*
X119541175Y-78285632D01*
X119546192Y-78119783D01*
X119546080Y-78062667D01*
X119422334Y-78062667D01*
X119411040Y-78119275D01*
X119389072Y-78156405D01*
X119340826Y-78180485D01*
X119271954Y-78188937D01*
X119201544Y-78180785D01*
X119166942Y-78167755D01*
X119135808Y-78129832D01*
X119126228Y-78071866D01*
X119138711Y-78010551D01*
X119161031Y-77974375D01*
X119211103Y-77945773D01*
X119279727Y-77936006D01*
X119347313Y-77945541D01*
X119389072Y-77968928D01*
X119413995Y-78014386D01*
X119422334Y-78062667D01*
X119546080Y-78062667D01*
X119545937Y-77989963D01*
X119540431Y-77897897D01*
X119529695Y-77845312D01*
X119522875Y-77834747D01*
X119491859Y-77825345D01*
X119428431Y-77816525D01*
X119342513Y-77809403D01*
X119264799Y-77805697D01*
X119033182Y-77798083D01*
X119018201Y-77851000D01*
G37*
X119018201Y-77851000D02*
X119010631Y-77897694D01*
X119004589Y-77971648D01*
X119001264Y-78057789D01*
X119001110Y-78067693D01*
X118999000Y-78231469D01*
X119083667Y-78284917D01*
X119139336Y-78328777D01*
X119166865Y-78369503D01*
X119168334Y-78378889D01*
X119153929Y-78411611D01*
X119115559Y-78463473D01*
X119060493Y-78525037D01*
X119039128Y-78546631D01*
X118967025Y-78623125D01*
X118928735Y-78678144D01*
X118923090Y-78714053D01*
X118947407Y-78732779D01*
X118973352Y-78725106D01*
X119025361Y-78699447D01*
X119093868Y-78660682D01*
X119121237Y-78644144D01*
X119226287Y-78585065D01*
X119305001Y-78555188D01*
X119361939Y-78554768D01*
X119401659Y-78584064D01*
X119428720Y-78643334D01*
X119433776Y-78661802D01*
X119456305Y-78707027D01*
X119483103Y-78714386D01*
X119499391Y-78704124D01*
X119511252Y-78675874D01*
X119520156Y-78622593D01*
X119527576Y-78537237D01*
X119530865Y-78485785D01*
X119541175Y-78285632D01*
X119546192Y-78119783D01*
X119546080Y-78062667D01*
X119422334Y-78062667D01*
X119411040Y-78119275D01*
X119389072Y-78156405D01*
X119340826Y-78180485D01*
X119271954Y-78188937D01*
X119201544Y-78180785D01*
X119166942Y-78167755D01*
X119135808Y-78129832D01*
X119126228Y-78071866D01*
X119138711Y-78010551D01*
X119161031Y-77974375D01*
X119211103Y-77945773D01*
X119279727Y-77936006D01*
X119347313Y-77945541D01*
X119389072Y-77968928D01*
X119413995Y-78014386D01*
X119422334Y-78062667D01*
X119546080Y-78062667D01*
X119545937Y-77989963D01*
X119540431Y-77897897D01*
X119529695Y-77845312D01*
X119522875Y-77834747D01*
X119491859Y-77825345D01*
X119428431Y-77816525D01*
X119342513Y-77809403D01*
X119264799Y-77805697D01*
X119033182Y-77798083D01*
X119018201Y-77851000D01*
G36*
X115779701Y-77851000D02*
G01*
X115772131Y-77897694D01*
X115766089Y-77971648D01*
X115762764Y-78057789D01*
X115762610Y-78067693D01*
X115760500Y-78231469D01*
X115845167Y-78284917D01*
X115900836Y-78328777D01*
X115928365Y-78369503D01*
X115929834Y-78378889D01*
X115915429Y-78411611D01*
X115877059Y-78463473D01*
X115821993Y-78525037D01*
X115800628Y-78546631D01*
X115728525Y-78623125D01*
X115690235Y-78678144D01*
X115684590Y-78714053D01*
X115708907Y-78732779D01*
X115734852Y-78725106D01*
X115786861Y-78699447D01*
X115855368Y-78660682D01*
X115882737Y-78644144D01*
X115987787Y-78585065D01*
X116066501Y-78555188D01*
X116123439Y-78554768D01*
X116163159Y-78584064D01*
X116190220Y-78643334D01*
X116195276Y-78661802D01*
X116217805Y-78707027D01*
X116244603Y-78714386D01*
X116260891Y-78704124D01*
X116272752Y-78675874D01*
X116281656Y-78622593D01*
X116289076Y-78537237D01*
X116292365Y-78485785D01*
X116302675Y-78285632D01*
X116307692Y-78119783D01*
X116307580Y-78062667D01*
X116183834Y-78062667D01*
X116172540Y-78119275D01*
X116150572Y-78156405D01*
X116102326Y-78180485D01*
X116033454Y-78188937D01*
X115963044Y-78180785D01*
X115928442Y-78167755D01*
X115897308Y-78129832D01*
X115887728Y-78071866D01*
X115900211Y-78010551D01*
X115922531Y-77974375D01*
X115972603Y-77945773D01*
X116041227Y-77936006D01*
X116108813Y-77945541D01*
X116150572Y-77968928D01*
X116175495Y-78014386D01*
X116183834Y-78062667D01*
X116307580Y-78062667D01*
X116307437Y-77989963D01*
X116301931Y-77897897D01*
X116291195Y-77845312D01*
X116284375Y-77834747D01*
X116253359Y-77825345D01*
X116189931Y-77816525D01*
X116104013Y-77809403D01*
X116026299Y-77805697D01*
X115794682Y-77798083D01*
X115779701Y-77851000D01*
G37*
X115779701Y-77851000D02*
X115772131Y-77897694D01*
X115766089Y-77971648D01*
X115762764Y-78057789D01*
X115762610Y-78067693D01*
X115760500Y-78231469D01*
X115845167Y-78284917D01*
X115900836Y-78328777D01*
X115928365Y-78369503D01*
X115929834Y-78378889D01*
X115915429Y-78411611D01*
X115877059Y-78463473D01*
X115821993Y-78525037D01*
X115800628Y-78546631D01*
X115728525Y-78623125D01*
X115690235Y-78678144D01*
X115684590Y-78714053D01*
X115708907Y-78732779D01*
X115734852Y-78725106D01*
X115786861Y-78699447D01*
X115855368Y-78660682D01*
X115882737Y-78644144D01*
X115987787Y-78585065D01*
X116066501Y-78555188D01*
X116123439Y-78554768D01*
X116163159Y-78584064D01*
X116190220Y-78643334D01*
X116195276Y-78661802D01*
X116217805Y-78707027D01*
X116244603Y-78714386D01*
X116260891Y-78704124D01*
X116272752Y-78675874D01*
X116281656Y-78622593D01*
X116289076Y-78537237D01*
X116292365Y-78485785D01*
X116302675Y-78285632D01*
X116307692Y-78119783D01*
X116307580Y-78062667D01*
X116183834Y-78062667D01*
X116172540Y-78119275D01*
X116150572Y-78156405D01*
X116102326Y-78180485D01*
X116033454Y-78188937D01*
X115963044Y-78180785D01*
X115928442Y-78167755D01*
X115897308Y-78129832D01*
X115887728Y-78071866D01*
X115900211Y-78010551D01*
X115922531Y-77974375D01*
X115972603Y-77945773D01*
X116041227Y-77936006D01*
X116108813Y-77945541D01*
X116150572Y-77968928D01*
X116175495Y-78014386D01*
X116183834Y-78062667D01*
X116307580Y-78062667D01*
X116307437Y-77989963D01*
X116301931Y-77897897D01*
X116291195Y-77845312D01*
X116284375Y-77834747D01*
X116253359Y-77825345D01*
X116189931Y-77816525D01*
X116104013Y-77809403D01*
X116026299Y-77805697D01*
X115794682Y-77798083D01*
X115779701Y-77851000D01*
G36*
X110725018Y-77796100D02*
G01*
X110678783Y-77811858D01*
X110653686Y-77847530D01*
X110642678Y-77909115D01*
X110638709Y-78002613D01*
X110638006Y-78031025D01*
X110635674Y-78126317D01*
X110636159Y-78188396D01*
X110642087Y-78226384D01*
X110656084Y-78249402D01*
X110680777Y-78266570D01*
X110710392Y-78282435D01*
X110767628Y-78320468D01*
X110792834Y-78359834D01*
X110785292Y-78406392D01*
X110744287Y-78466003D01*
X110679652Y-78534209D01*
X110612991Y-78606483D01*
X110569690Y-78667380D01*
X110552077Y-78712128D01*
X110562482Y-78735955D01*
X110579959Y-78738479D01*
X110609237Y-78727082D01*
X110663690Y-78698132D01*
X110733035Y-78657203D01*
X110754584Y-78643813D01*
X110857394Y-78584623D01*
X110934416Y-78554621D01*
X110990569Y-78553852D01*
X111030770Y-78582359D01*
X111059936Y-78640189D01*
X111062118Y-78646622D01*
X111085889Y-78701523D01*
X111110105Y-78716695D01*
X111138956Y-78694574D01*
X111140720Y-78692375D01*
X111149712Y-78661138D01*
X111157739Y-78596588D01*
X111164614Y-78506730D01*
X111170147Y-78399567D01*
X111174150Y-78283103D01*
X111176434Y-78165344D01*
X111176811Y-78054292D01*
X111176789Y-78053045D01*
X111058467Y-78053045D01*
X111050367Y-78115441D01*
X111008562Y-78162687D01*
X110937364Y-78187571D01*
X110904831Y-78189667D01*
X110825194Y-78179246D01*
X110777037Y-78148755D01*
X110753087Y-78095035D01*
X110756261Y-78031389D01*
X110783575Y-77976439D01*
X110807829Y-77956657D01*
X110877026Y-77935994D01*
X110949740Y-77938922D01*
X111009292Y-77963473D01*
X111028550Y-77982710D01*
X111058467Y-78053045D01*
X111176789Y-78053045D01*
X111175092Y-77957953D01*
X111171088Y-77884329D01*
X111164612Y-77841426D01*
X111160933Y-77834345D01*
X111130312Y-77824865D01*
X111067387Y-77814900D01*
X110982148Y-77805800D01*
X110909108Y-77800325D01*
X110799443Y-77794255D01*
X110725018Y-77796100D01*
G37*
X110725018Y-77796100D02*
X110678783Y-77811858D01*
X110653686Y-77847530D01*
X110642678Y-77909115D01*
X110638709Y-78002613D01*
X110638006Y-78031025D01*
X110635674Y-78126317D01*
X110636159Y-78188396D01*
X110642087Y-78226384D01*
X110656084Y-78249402D01*
X110680777Y-78266570D01*
X110710392Y-78282435D01*
X110767628Y-78320468D01*
X110792834Y-78359834D01*
X110785292Y-78406392D01*
X110744287Y-78466003D01*
X110679652Y-78534209D01*
X110612991Y-78606483D01*
X110569690Y-78667380D01*
X110552077Y-78712128D01*
X110562482Y-78735955D01*
X110579959Y-78738479D01*
X110609237Y-78727082D01*
X110663690Y-78698132D01*
X110733035Y-78657203D01*
X110754584Y-78643813D01*
X110857394Y-78584623D01*
X110934416Y-78554621D01*
X110990569Y-78553852D01*
X111030770Y-78582359D01*
X111059936Y-78640189D01*
X111062118Y-78646622D01*
X111085889Y-78701523D01*
X111110105Y-78716695D01*
X111138956Y-78694574D01*
X111140720Y-78692375D01*
X111149712Y-78661138D01*
X111157739Y-78596588D01*
X111164614Y-78506730D01*
X111170147Y-78399567D01*
X111174150Y-78283103D01*
X111176434Y-78165344D01*
X111176811Y-78054292D01*
X111176789Y-78053045D01*
X111058467Y-78053045D01*
X111050367Y-78115441D01*
X111008562Y-78162687D01*
X110937364Y-78187571D01*
X110904831Y-78189667D01*
X110825194Y-78179246D01*
X110777037Y-78148755D01*
X110753087Y-78095035D01*
X110756261Y-78031389D01*
X110783575Y-77976439D01*
X110807829Y-77956657D01*
X110877026Y-77935994D01*
X110949740Y-77938922D01*
X111009292Y-77963473D01*
X111028550Y-77982710D01*
X111058467Y-78053045D01*
X111176789Y-78053045D01*
X111175092Y-77957953D01*
X111171088Y-77884329D01*
X111164612Y-77841426D01*
X111160933Y-77834345D01*
X111130312Y-77824865D01*
X111067387Y-77814900D01*
X110982148Y-77805800D01*
X110909108Y-77800325D01*
X110799443Y-77794255D01*
X110725018Y-77796100D01*
G36*
X108994677Y-77670615D02*
G01*
X108899308Y-77674475D01*
X108821403Y-77681612D01*
X108770262Y-77692025D01*
X108755677Y-77700703D01*
X108750773Y-77729912D01*
X108747551Y-77793783D01*
X108745913Y-77884679D01*
X108745762Y-77994965D01*
X108747001Y-78117006D01*
X108749532Y-78243166D01*
X108753258Y-78365811D01*
X108758081Y-78477306D01*
X108763905Y-78570014D01*
X108767240Y-78607708D01*
X108779323Y-78678537D01*
X108796771Y-78715062D01*
X108805376Y-78718833D01*
X108832146Y-78701010D01*
X108859493Y-78658586D01*
X108878143Y-78608135D01*
X108881334Y-78583108D01*
X108893592Y-78548229D01*
X108923285Y-78501903D01*
X108925203Y-78499438D01*
X108954637Y-78468187D01*
X108989227Y-78451362D01*
X109042564Y-78444653D01*
X109101075Y-78443667D01*
X109198343Y-78448834D01*
X109261965Y-78468364D01*
X109299804Y-78508298D01*
X109319720Y-78574679D01*
X109325030Y-78615777D01*
X109336823Y-78689220D01*
X109355073Y-78727061D01*
X109370795Y-78735527D01*
X109406141Y-78724199D01*
X109420882Y-78703997D01*
X109425951Y-78672352D01*
X109431357Y-78605069D01*
X109436747Y-78508840D01*
X109441768Y-78390355D01*
X109446069Y-78256305D01*
X109447570Y-78197232D01*
X109450292Y-78081022D01*
X109325834Y-78081022D01*
X109315230Y-78173030D01*
X109280351Y-78232950D01*
X109216594Y-78265226D01*
X109125657Y-78274333D01*
X109054653Y-78271975D01*
X108997703Y-78265945D01*
X108977532Y-78261185D01*
X108927998Y-78221531D01*
X108896522Y-78155575D01*
X108884792Y-78076055D01*
X108894496Y-77995708D01*
X108927320Y-77927272D01*
X108932455Y-77920972D01*
X108967397Y-77886442D01*
X109005512Y-77868837D01*
X109062248Y-77862933D01*
X109104631Y-77862757D01*
X109205947Y-77875932D01*
X109274667Y-77915050D01*
X109313670Y-77982950D01*
X109325834Y-78081022D01*
X109450292Y-78081022D01*
X109458549Y-77728548D01*
X109408066Y-77700550D01*
X109364844Y-77687991D01*
X109292595Y-77678720D01*
X109200619Y-77672736D01*
X109098214Y-77670035D01*
X108994677Y-77670615D01*
G37*
X108994677Y-77670615D02*
X108899308Y-77674475D01*
X108821403Y-77681612D01*
X108770262Y-77692025D01*
X108755677Y-77700703D01*
X108750773Y-77729912D01*
X108747551Y-77793783D01*
X108745913Y-77884679D01*
X108745762Y-77994965D01*
X108747001Y-78117006D01*
X108749532Y-78243166D01*
X108753258Y-78365811D01*
X108758081Y-78477306D01*
X108763905Y-78570014D01*
X108767240Y-78607708D01*
X108779323Y-78678537D01*
X108796771Y-78715062D01*
X108805376Y-78718833D01*
X108832146Y-78701010D01*
X108859493Y-78658586D01*
X108878143Y-78608135D01*
X108881334Y-78583108D01*
X108893592Y-78548229D01*
X108923285Y-78501903D01*
X108925203Y-78499438D01*
X108954637Y-78468187D01*
X108989227Y-78451362D01*
X109042564Y-78444653D01*
X109101075Y-78443667D01*
X109198343Y-78448834D01*
X109261965Y-78468364D01*
X109299804Y-78508298D01*
X109319720Y-78574679D01*
X109325030Y-78615777D01*
X109336823Y-78689220D01*
X109355073Y-78727061D01*
X109370795Y-78735527D01*
X109406141Y-78724199D01*
X109420882Y-78703997D01*
X109425951Y-78672352D01*
X109431357Y-78605069D01*
X109436747Y-78508840D01*
X109441768Y-78390355D01*
X109446069Y-78256305D01*
X109447570Y-78197232D01*
X109450292Y-78081022D01*
X109325834Y-78081022D01*
X109315230Y-78173030D01*
X109280351Y-78232950D01*
X109216594Y-78265226D01*
X109125657Y-78274333D01*
X109054653Y-78271975D01*
X108997703Y-78265945D01*
X108977532Y-78261185D01*
X108927998Y-78221531D01*
X108896522Y-78155575D01*
X108884792Y-78076055D01*
X108894496Y-77995708D01*
X108927320Y-77927272D01*
X108932455Y-77920972D01*
X108967397Y-77886442D01*
X109005512Y-77868837D01*
X109062248Y-77862933D01*
X109104631Y-77862757D01*
X109205947Y-77875932D01*
X109274667Y-77915050D01*
X109313670Y-77982950D01*
X109325834Y-78081022D01*
X109450292Y-78081022D01*
X109458549Y-77728548D01*
X109408066Y-77700550D01*
X109364844Y-77687991D01*
X109292595Y-77678720D01*
X109200619Y-77672736D01*
X109098214Y-77670035D01*
X108994677Y-77670615D01*
G36*
X123776888Y-77258412D02*
G01*
X123645769Y-77258951D01*
X123549586Y-77260999D01*
X123480949Y-77265311D01*
X123432466Y-77272639D01*
X123396748Y-77283737D01*
X123366403Y-77299357D01*
X123364625Y-77300435D01*
X123319845Y-77335511D01*
X123296705Y-77368821D01*
X123295834Y-77374439D01*
X123299976Y-77402880D01*
X123303506Y-77406500D01*
X123325970Y-77410482D01*
X123381755Y-77421354D01*
X123462712Y-77437504D01*
X123560692Y-77457318D01*
X123571282Y-77459474D01*
X123697683Y-77485561D01*
X123792484Y-77509431D01*
X123860226Y-77537303D01*
X123905451Y-77575397D01*
X123932700Y-77629931D01*
X123946515Y-77707127D01*
X123951438Y-77813203D01*
X123952009Y-77954379D01*
X123952000Y-77980865D01*
X123951730Y-78111605D01*
X123950364Y-78206995D01*
X123947074Y-78274020D01*
X123941030Y-78319663D01*
X123931401Y-78350906D01*
X123917358Y-78374734D01*
X123903107Y-78392315D01*
X123849335Y-78433743D01*
X123767960Y-78462233D01*
X123654334Y-78478892D01*
X123515883Y-78484738D01*
X123436544Y-78488660D01*
X123383777Y-78501538D01*
X123342052Y-78527902D01*
X123329295Y-78539185D01*
X123286278Y-78594674D01*
X123278579Y-78650310D01*
X123285250Y-78708250D01*
X123486334Y-78710514D01*
X123601202Y-78710045D01*
X123735497Y-78706851D01*
X123866444Y-78701548D01*
X123912865Y-78698969D01*
X124018306Y-78690132D01*
X124102549Y-78678383D01*
X124157186Y-78665055D01*
X124170993Y-78658036D01*
X124195524Y-78618999D01*
X124217851Y-78552646D01*
X124234738Y-78473980D01*
X124242946Y-78398006D01*
X124239467Y-78340700D01*
X124234841Y-78303506D01*
X124229194Y-78231098D01*
X124222956Y-78130572D01*
X124216552Y-78009025D01*
X124210409Y-77873550D01*
X124208433Y-77824976D01*
X124201581Y-77665684D01*
X124194834Y-77543333D01*
X124187634Y-77452537D01*
X124179423Y-77387909D01*
X124169644Y-77344061D01*
X124157740Y-77315608D01*
X124155315Y-77311685D01*
X124120358Y-77258333D01*
X123776888Y-77258412D01*
G37*
X123776888Y-77258412D02*
X123645769Y-77258951D01*
X123549586Y-77260999D01*
X123480949Y-77265311D01*
X123432466Y-77272639D01*
X123396748Y-77283737D01*
X123366403Y-77299357D01*
X123364625Y-77300435D01*
X123319845Y-77335511D01*
X123296705Y-77368821D01*
X123295834Y-77374439D01*
X123299976Y-77402880D01*
X123303506Y-77406500D01*
X123325970Y-77410482D01*
X123381755Y-77421354D01*
X123462712Y-77437504D01*
X123560692Y-77457318D01*
X123571282Y-77459474D01*
X123697683Y-77485561D01*
X123792484Y-77509431D01*
X123860226Y-77537303D01*
X123905451Y-77575397D01*
X123932700Y-77629931D01*
X123946515Y-77707127D01*
X123951438Y-77813203D01*
X123952009Y-77954379D01*
X123952000Y-77980865D01*
X123951730Y-78111605D01*
X123950364Y-78206995D01*
X123947074Y-78274020D01*
X123941030Y-78319663D01*
X123931401Y-78350906D01*
X123917358Y-78374734D01*
X123903107Y-78392315D01*
X123849335Y-78433743D01*
X123767960Y-78462233D01*
X123654334Y-78478892D01*
X123515883Y-78484738D01*
X123436544Y-78488660D01*
X123383777Y-78501538D01*
X123342052Y-78527902D01*
X123329295Y-78539185D01*
X123286278Y-78594674D01*
X123278579Y-78650310D01*
X123285250Y-78708250D01*
X123486334Y-78710514D01*
X123601202Y-78710045D01*
X123735497Y-78706851D01*
X123866444Y-78701548D01*
X123912865Y-78698969D01*
X124018306Y-78690132D01*
X124102549Y-78678383D01*
X124157186Y-78665055D01*
X124170993Y-78658036D01*
X124195524Y-78618999D01*
X124217851Y-78552646D01*
X124234738Y-78473980D01*
X124242946Y-78398006D01*
X124239467Y-78340700D01*
X124234841Y-78303506D01*
X124229194Y-78231098D01*
X124222956Y-78130572D01*
X124216552Y-78009025D01*
X124210409Y-77873550D01*
X124208433Y-77824976D01*
X124201581Y-77665684D01*
X124194834Y-77543333D01*
X124187634Y-77452537D01*
X124179423Y-77387909D01*
X124169644Y-77344061D01*
X124157740Y-77315608D01*
X124155315Y-77311685D01*
X124120358Y-77258333D01*
X123776888Y-77258412D01*
G36*
X120850726Y-77724653D02*
G01*
X120745506Y-77726931D01*
X120670329Y-77731314D01*
X120619058Y-77738281D01*
X120585558Y-77748310D01*
X120570044Y-77756950D01*
X120531601Y-77797830D01*
X120525209Y-77838008D01*
X120543861Y-77861394D01*
X120574927Y-77871574D01*
X120633473Y-77884453D01*
X120686736Y-77893908D01*
X120752540Y-77905950D01*
X120801692Y-77921828D01*
X120836618Y-77947330D01*
X120859746Y-77988239D01*
X120873504Y-78050343D01*
X120880317Y-78139425D01*
X120882613Y-78261272D01*
X120882834Y-78361345D01*
X120882834Y-78718833D01*
X120934550Y-78718833D01*
X120987491Y-78701423D01*
X121019217Y-78671790D01*
X121032661Y-78643995D01*
X121042072Y-78600874D01*
X121048054Y-78535730D01*
X121051217Y-78441866D01*
X121052167Y-78312585D01*
X121052167Y-78308332D01*
X121052880Y-78173957D01*
X121056930Y-78075245D01*
X121067181Y-78005524D01*
X121086499Y-77958126D01*
X121117750Y-77926381D01*
X121163799Y-77903621D01*
X121227511Y-77883176D01*
X121235879Y-77880736D01*
X121314979Y-77848893D01*
X121367089Y-77809675D01*
X121386525Y-77768449D01*
X121379980Y-77744729D01*
X121354784Y-77737351D01*
X121292562Y-77731323D01*
X121198608Y-77726928D01*
X121078218Y-77724450D01*
X120992128Y-77724000D01*
X120850726Y-77724653D01*
G37*
X120850726Y-77724653D02*
X120745506Y-77726931D01*
X120670329Y-77731314D01*
X120619058Y-77738281D01*
X120585558Y-77748310D01*
X120570044Y-77756950D01*
X120531601Y-77797830D01*
X120525209Y-77838008D01*
X120543861Y-77861394D01*
X120574927Y-77871574D01*
X120633473Y-77884453D01*
X120686736Y-77893908D01*
X120752540Y-77905950D01*
X120801692Y-77921828D01*
X120836618Y-77947330D01*
X120859746Y-77988239D01*
X120873504Y-78050343D01*
X120880317Y-78139425D01*
X120882613Y-78261272D01*
X120882834Y-78361345D01*
X120882834Y-78718833D01*
X120934550Y-78718833D01*
X120987491Y-78701423D01*
X121019217Y-78671790D01*
X121032661Y-78643995D01*
X121042072Y-78600874D01*
X121048054Y-78535730D01*
X121051217Y-78441866D01*
X121052167Y-78312585D01*
X121052167Y-78308332D01*
X121052880Y-78173957D01*
X121056930Y-78075245D01*
X121067181Y-78005524D01*
X121086499Y-77958126D01*
X121117750Y-77926381D01*
X121163799Y-77903621D01*
X121227511Y-77883176D01*
X121235879Y-77880736D01*
X121314979Y-77848893D01*
X121367089Y-77809675D01*
X121386525Y-77768449D01*
X121379980Y-77744729D01*
X121354784Y-77737351D01*
X121292562Y-77731323D01*
X121198608Y-77726928D01*
X121078218Y-77724450D01*
X120992128Y-77724000D01*
X120850726Y-77724653D01*
G36*
X117588901Y-77681635D02*
G01*
X117512570Y-77685369D01*
X117461620Y-77691846D01*
X117445896Y-77698552D01*
X117443038Y-77726546D01*
X117474147Y-77750421D01*
X117542153Y-77771595D01*
X117631921Y-77788652D01*
X117740344Y-77810740D01*
X117812719Y-77838840D01*
X117855314Y-77877725D01*
X117874395Y-77932168D01*
X117877167Y-77975408D01*
X117870169Y-78037323D01*
X117844016Y-78081949D01*
X117790966Y-78117356D01*
X117710483Y-78149160D01*
X117653634Y-78174076D01*
X117618316Y-78199987D01*
X117612584Y-78211693D01*
X117631589Y-78234086D01*
X117681686Y-78259197D01*
X117723053Y-78273366D01*
X117790037Y-78296461D01*
X117841682Y-78320100D01*
X117859186Y-78332150D01*
X117873754Y-78364351D01*
X117889693Y-78426773D01*
X117904122Y-78507521D01*
X117907467Y-78531543D01*
X117923036Y-78629299D01*
X117940337Y-78688033D01*
X117961600Y-78711053D01*
X117989051Y-78701669D01*
X118009023Y-78682307D01*
X118020506Y-78663239D01*
X118029409Y-78631391D01*
X118036174Y-78581365D01*
X118041244Y-78507762D01*
X118045059Y-78405183D01*
X118048062Y-78268231D01*
X118049330Y-78189667D01*
X118050591Y-78054016D01*
X118050276Y-77931993D01*
X118048521Y-77830188D01*
X118045460Y-77755193D01*
X118041228Y-77713599D01*
X118039478Y-77708125D01*
X118013516Y-77698668D01*
X117955033Y-77691020D01*
X117873680Y-77685337D01*
X117779107Y-77681775D01*
X117680964Y-77680489D01*
X117588901Y-77681635D01*
G37*
X117588901Y-77681635D02*
X117512570Y-77685369D01*
X117461620Y-77691846D01*
X117445896Y-77698552D01*
X117443038Y-77726546D01*
X117474147Y-77750421D01*
X117542153Y-77771595D01*
X117631921Y-77788652D01*
X117740344Y-77810740D01*
X117812719Y-77838840D01*
X117855314Y-77877725D01*
X117874395Y-77932168D01*
X117877167Y-77975408D01*
X117870169Y-78037323D01*
X117844016Y-78081949D01*
X117790966Y-78117356D01*
X117710483Y-78149160D01*
X117653634Y-78174076D01*
X117618316Y-78199987D01*
X117612584Y-78211693D01*
X117631589Y-78234086D01*
X117681686Y-78259197D01*
X117723053Y-78273366D01*
X117790037Y-78296461D01*
X117841682Y-78320100D01*
X117859186Y-78332150D01*
X117873754Y-78364351D01*
X117889693Y-78426773D01*
X117904122Y-78507521D01*
X117907467Y-78531543D01*
X117923036Y-78629299D01*
X117940337Y-78688033D01*
X117961600Y-78711053D01*
X117989051Y-78701669D01*
X118009023Y-78682307D01*
X118020506Y-78663239D01*
X118029409Y-78631391D01*
X118036174Y-78581365D01*
X118041244Y-78507762D01*
X118045059Y-78405183D01*
X118048062Y-78268231D01*
X118049330Y-78189667D01*
X118050591Y-78054016D01*
X118050276Y-77931993D01*
X118048521Y-77830188D01*
X118045460Y-77755193D01*
X118041228Y-77713599D01*
X118039478Y-77708125D01*
X118013516Y-77698668D01*
X117955033Y-77691020D01*
X117873680Y-77685337D01*
X117779107Y-77681775D01*
X117680964Y-77680489D01*
X117588901Y-77681635D01*
G36*
X116856178Y-77728708D02*
G01*
X116554250Y-77734583D01*
X116554250Y-78189667D01*
X116554936Y-78326151D01*
X116556853Y-78449772D01*
X116559790Y-78553737D01*
X116563539Y-78631255D01*
X116567889Y-78675532D01*
X116569461Y-78681792D01*
X116579465Y-78696233D01*
X116600008Y-78706390D01*
X116637615Y-78712995D01*
X116698812Y-78716781D01*
X116790125Y-78718481D01*
X116899308Y-78718833D01*
X117010687Y-78717930D01*
X117106685Y-78715444D01*
X117179509Y-78711710D01*
X117221363Y-78707061D01*
X117228056Y-78704722D01*
X117232187Y-78680302D01*
X117235840Y-78619870D01*
X117238829Y-78529743D01*
X117240965Y-78416243D01*
X117241869Y-78308558D01*
X117133604Y-78308558D01*
X117132920Y-78386306D01*
X117128654Y-78437875D01*
X117119845Y-78471324D01*
X117105527Y-78494713D01*
X117094628Y-78506539D01*
X117054651Y-78533932D01*
X116997174Y-78546958D01*
X116933622Y-78549500D01*
X116859878Y-78546275D01*
X116810857Y-78532616D01*
X116769185Y-78502549D01*
X116753706Y-78487628D01*
X116727551Y-78460149D01*
X116710053Y-78433949D01*
X116699472Y-78400193D01*
X116694068Y-78350045D01*
X116692102Y-78274670D01*
X116691834Y-78173409D01*
X116692461Y-78064865D01*
X116695183Y-77990362D01*
X116701262Y-77941611D01*
X116711959Y-77910329D01*
X116728535Y-77888229D01*
X116736389Y-77880739D01*
X116796623Y-77850361D01*
X116878574Y-77838716D01*
X116966100Y-77845597D01*
X117043061Y-77870794D01*
X117065990Y-77884989D01*
X117090689Y-77904664D01*
X117107607Y-77925560D01*
X117118437Y-77955715D01*
X117124874Y-78003168D01*
X117128613Y-78075960D01*
X117131349Y-78182129D01*
X117131670Y-78196569D01*
X117133604Y-78308558D01*
X117241869Y-78308558D01*
X117242062Y-78285687D01*
X117242167Y-78229217D01*
X117241982Y-78077841D01*
X117241108Y-77963310D01*
X117239069Y-77880135D01*
X117235389Y-77822829D01*
X117229589Y-77785903D01*
X117221195Y-77763869D01*
X117209728Y-77751238D01*
X117200136Y-77745328D01*
X117160356Y-77736288D01*
X117084105Y-77730357D01*
X116977147Y-77727811D01*
X116856178Y-77728708D01*
G37*
X116856178Y-77728708D02*
X116554250Y-77734583D01*
X116554250Y-78189667D01*
X116554936Y-78326151D01*
X116556853Y-78449772D01*
X116559790Y-78553737D01*
X116563539Y-78631255D01*
X116567889Y-78675532D01*
X116569461Y-78681792D01*
X116579465Y-78696233D01*
X116600008Y-78706390D01*
X116637615Y-78712995D01*
X116698812Y-78716781D01*
X116790125Y-78718481D01*
X116899308Y-78718833D01*
X117010687Y-78717930D01*
X117106685Y-78715444D01*
X117179509Y-78711710D01*
X117221363Y-78707061D01*
X117228056Y-78704722D01*
X117232187Y-78680302D01*
X117235840Y-78619870D01*
X117238829Y-78529743D01*
X117240965Y-78416243D01*
X117241869Y-78308558D01*
X117133604Y-78308558D01*
X117132920Y-78386306D01*
X117128654Y-78437875D01*
X117119845Y-78471324D01*
X117105527Y-78494713D01*
X117094628Y-78506539D01*
X117054651Y-78533932D01*
X116997174Y-78546958D01*
X116933622Y-78549500D01*
X116859878Y-78546275D01*
X116810857Y-78532616D01*
X116769185Y-78502549D01*
X116753706Y-78487628D01*
X116727551Y-78460149D01*
X116710053Y-78433949D01*
X116699472Y-78400193D01*
X116694068Y-78350045D01*
X116692102Y-78274670D01*
X116691834Y-78173409D01*
X116692461Y-78064865D01*
X116695183Y-77990362D01*
X116701262Y-77941611D01*
X116711959Y-77910329D01*
X116728535Y-77888229D01*
X116736389Y-77880739D01*
X116796623Y-77850361D01*
X116878574Y-77838716D01*
X116966100Y-77845597D01*
X117043061Y-77870794D01*
X117065990Y-77884989D01*
X117090689Y-77904664D01*
X117107607Y-77925560D01*
X117118437Y-77955715D01*
X117124874Y-78003168D01*
X117128613Y-78075960D01*
X117131349Y-78182129D01*
X117131670Y-78196569D01*
X117133604Y-78308558D01*
X117241869Y-78308558D01*
X117242062Y-78285687D01*
X117242167Y-78229217D01*
X117241982Y-78077841D01*
X117241108Y-77963310D01*
X117239069Y-77880135D01*
X117235389Y-77822829D01*
X117229589Y-77785903D01*
X117221195Y-77763869D01*
X117209728Y-77751238D01*
X117200136Y-77745328D01*
X117160356Y-77736288D01*
X117084105Y-77730357D01*
X116977147Y-77727811D01*
X116856178Y-77728708D01*
G36*
X113309133Y-77472309D02*
G01*
X113280227Y-77487063D01*
X113268899Y-77510658D01*
X113271691Y-77556081D01*
X113277383Y-77591516D01*
X113284494Y-77655664D01*
X113289886Y-77747894D01*
X113292883Y-77853967D01*
X113293218Y-77925083D01*
X113290434Y-78042262D01*
X113281984Y-78141133D01*
X113265394Y-78238710D01*
X113238193Y-78352002D01*
X113222934Y-78408639D01*
X113197234Y-78507685D01*
X113177829Y-78593394D01*
X113166570Y-78656751D01*
X113165303Y-78688743D01*
X113165428Y-78689097D01*
X113191077Y-78705038D01*
X113243815Y-78715109D01*
X113308679Y-78718331D01*
X113370708Y-78713725D01*
X113405709Y-78704815D01*
X113413859Y-78691626D01*
X113420288Y-78656944D01*
X113425153Y-78597127D01*
X113428613Y-78508529D01*
X113430825Y-78387509D01*
X113431946Y-78230421D01*
X113432167Y-78093397D01*
X113431989Y-77917339D01*
X113431269Y-77778921D01*
X113429726Y-77673453D01*
X113427080Y-77596241D01*
X113423052Y-77542596D01*
X113417359Y-77507824D01*
X113409723Y-77487235D01*
X113399864Y-77476136D01*
X113395125Y-77473246D01*
X113343057Y-77464901D01*
X113309133Y-77472309D01*
G37*
X113309133Y-77472309D02*
X113280227Y-77487063D01*
X113268899Y-77510658D01*
X113271691Y-77556081D01*
X113277383Y-77591516D01*
X113284494Y-77655664D01*
X113289886Y-77747894D01*
X113292883Y-77853967D01*
X113293218Y-77925083D01*
X113290434Y-78042262D01*
X113281984Y-78141133D01*
X113265394Y-78238710D01*
X113238193Y-78352002D01*
X113222934Y-78408639D01*
X113197234Y-78507685D01*
X113177829Y-78593394D01*
X113166570Y-78656751D01*
X113165303Y-78688743D01*
X113165428Y-78689097D01*
X113191077Y-78705038D01*
X113243815Y-78715109D01*
X113308679Y-78718331D01*
X113370708Y-78713725D01*
X113405709Y-78704815D01*
X113413859Y-78691626D01*
X113420288Y-78656944D01*
X113425153Y-78597127D01*
X113428613Y-78508529D01*
X113430825Y-78387509D01*
X113431946Y-78230421D01*
X113432167Y-78093397D01*
X113431989Y-77917339D01*
X113431269Y-77778921D01*
X113429726Y-77673453D01*
X113427080Y-77596241D01*
X113423052Y-77542596D01*
X113417359Y-77507824D01*
X113409723Y-77487235D01*
X113399864Y-77476136D01*
X113395125Y-77473246D01*
X113343057Y-77464901D01*
X113309133Y-77472309D01*
G36*
X112392098Y-77729773D02*
G01*
X112299861Y-77733766D01*
X112237606Y-77739721D01*
X112217746Y-77744154D01*
X112171801Y-77774420D01*
X112161440Y-77811092D01*
X112181998Y-77847450D01*
X112228811Y-77876774D01*
X112297215Y-77892347D01*
X112321299Y-77893333D01*
X112403945Y-77909266D01*
X112470130Y-77951835D01*
X112498500Y-77991913D01*
X112507681Y-78034037D01*
X112514900Y-78112150D01*
X112519777Y-78219939D01*
X112521930Y-78351090D01*
X112522000Y-78381162D01*
X112522362Y-78508122D01*
X112523887Y-78598762D01*
X112527234Y-78659095D01*
X112533065Y-78695130D01*
X112542039Y-78712880D01*
X112554816Y-78718356D01*
X112559042Y-78718509D01*
X112606982Y-78708803D01*
X112622929Y-78701146D01*
X112650044Y-78667986D01*
X112669896Y-78605495D01*
X112683010Y-78510270D01*
X112689913Y-78378908D01*
X112691334Y-78259422D01*
X112691810Y-78144765D01*
X112693982Y-78064612D01*
X112698967Y-78011139D01*
X112707882Y-77976519D01*
X112721843Y-77952927D01*
X112737376Y-77936754D01*
X112790670Y-77903133D01*
X112856324Y-77880747D01*
X112859084Y-77880227D01*
X112943570Y-77859100D01*
X112990797Y-77831221D01*
X113005704Y-77793221D01*
X113004827Y-77780776D01*
X113000961Y-77763983D01*
X112990863Y-77751724D01*
X112968522Y-77743153D01*
X112927926Y-77737423D01*
X112863062Y-77733688D01*
X112767920Y-77731100D01*
X112636488Y-77728814D01*
X112635788Y-77728803D01*
X112506634Y-77728025D01*
X112392098Y-77729773D01*
G37*
X112392098Y-77729773D02*
X112299861Y-77733766D01*
X112237606Y-77739721D01*
X112217746Y-77744154D01*
X112171801Y-77774420D01*
X112161440Y-77811092D01*
X112181998Y-77847450D01*
X112228811Y-77876774D01*
X112297215Y-77892347D01*
X112321299Y-77893333D01*
X112403945Y-77909266D01*
X112470130Y-77951835D01*
X112498500Y-77991913D01*
X112507681Y-78034037D01*
X112514900Y-78112150D01*
X112519777Y-78219939D01*
X112521930Y-78351090D01*
X112522000Y-78381162D01*
X112522362Y-78508122D01*
X112523887Y-78598762D01*
X112527234Y-78659095D01*
X112533065Y-78695130D01*
X112542039Y-78712880D01*
X112554816Y-78718356D01*
X112559042Y-78718509D01*
X112606982Y-78708803D01*
X112622929Y-78701146D01*
X112650044Y-78667986D01*
X112669896Y-78605495D01*
X112683010Y-78510270D01*
X112689913Y-78378908D01*
X112691334Y-78259422D01*
X112691810Y-78144765D01*
X112693982Y-78064612D01*
X112698967Y-78011139D01*
X112707882Y-77976519D01*
X112721843Y-77952927D01*
X112737376Y-77936754D01*
X112790670Y-77903133D01*
X112856324Y-77880747D01*
X112859084Y-77880227D01*
X112943570Y-77859100D01*
X112990797Y-77831221D01*
X113005704Y-77793221D01*
X113004827Y-77780776D01*
X113000961Y-77763983D01*
X112990863Y-77751724D01*
X112968522Y-77743153D01*
X112927926Y-77737423D01*
X112863062Y-77733688D01*
X112767920Y-77731100D01*
X112636488Y-77728814D01*
X112635788Y-77728803D01*
X112506634Y-77728025D01*
X112392098Y-77729773D01*
G36*
X107942616Y-77727796D02*
G01*
X107868849Y-77730953D01*
X107818269Y-77737088D01*
X107784506Y-77746614D01*
X107767151Y-77755725D01*
X107727101Y-77795543D01*
X107718670Y-77835703D01*
X107738027Y-77861394D01*
X107769093Y-77871574D01*
X107827640Y-77884453D01*
X107880902Y-77893908D01*
X107946707Y-77905950D01*
X107995858Y-77921828D01*
X108030785Y-77947330D01*
X108053913Y-77988239D01*
X108067670Y-78050343D01*
X108074484Y-78139425D01*
X108076780Y-78261272D01*
X108077000Y-78361345D01*
X108077000Y-78718833D01*
X108127325Y-78718833D01*
X108179274Y-78704789D01*
X108206700Y-78683902D01*
X108219157Y-78655341D01*
X108228662Y-78600485D01*
X108235657Y-78514782D01*
X108240585Y-78393680D01*
X108242471Y-78315472D01*
X108245570Y-78180727D01*
X108250627Y-78081610D01*
X108260641Y-78011430D01*
X108278611Y-77963496D01*
X108307537Y-77931115D01*
X108350418Y-77907597D01*
X108410254Y-77886248D01*
X108438990Y-77877015D01*
X108505239Y-77853155D01*
X108539807Y-77831200D01*
X108552286Y-77803636D01*
X108553250Y-77787500D01*
X108553250Y-77734583D01*
X108185192Y-77728779D01*
X108045941Y-77727209D01*
X107942616Y-77727796D01*
G37*
X107942616Y-77727796D02*
X107868849Y-77730953D01*
X107818269Y-77737088D01*
X107784506Y-77746614D01*
X107767151Y-77755725D01*
X107727101Y-77795543D01*
X107718670Y-77835703D01*
X107738027Y-77861394D01*
X107769093Y-77871574D01*
X107827640Y-77884453D01*
X107880902Y-77893908D01*
X107946707Y-77905950D01*
X107995858Y-77921828D01*
X108030785Y-77947330D01*
X108053913Y-77988239D01*
X108067670Y-78050343D01*
X108074484Y-78139425D01*
X108076780Y-78261272D01*
X108077000Y-78361345D01*
X108077000Y-78718833D01*
X108127325Y-78718833D01*
X108179274Y-78704789D01*
X108206700Y-78683902D01*
X108219157Y-78655341D01*
X108228662Y-78600485D01*
X108235657Y-78514782D01*
X108240585Y-78393680D01*
X108242471Y-78315472D01*
X108245570Y-78180727D01*
X108250627Y-78081610D01*
X108260641Y-78011430D01*
X108278611Y-77963496D01*
X108307537Y-77931115D01*
X108350418Y-77907597D01*
X108410254Y-77886248D01*
X108438990Y-77877015D01*
X108505239Y-77853155D01*
X108539807Y-77831200D01*
X108552286Y-77803636D01*
X108553250Y-77787500D01*
X108553250Y-77734583D01*
X108185192Y-77728779D01*
X108045941Y-77727209D01*
X107942616Y-77727796D01*
G36*
X106295497Y-77783942D02*
G01*
X106250908Y-77807163D01*
X106219356Y-77839281D01*
X106214334Y-77855425D01*
X106223302Y-77882956D01*
X106247944Y-77941220D01*
X106284861Y-78023159D01*
X106330657Y-78121711D01*
X106381936Y-78229816D01*
X106435300Y-78340413D01*
X106487353Y-78446441D01*
X106534698Y-78540841D01*
X106573938Y-78616552D01*
X106601677Y-78666512D01*
X106611894Y-78681792D01*
X106645426Y-78713141D01*
X106673567Y-78713650D01*
X106692905Y-78702634D01*
X106712213Y-78678652D01*
X106747920Y-78624182D01*
X106796180Y-78545916D01*
X106853150Y-78450546D01*
X106914986Y-78344765D01*
X106977844Y-78235264D01*
X107037880Y-78128736D01*
X107091251Y-78031873D01*
X107134112Y-77951367D01*
X107162619Y-77893911D01*
X107172883Y-77867001D01*
X107160599Y-77821545D01*
X107142150Y-77802306D01*
X107114474Y-77791525D01*
X107086270Y-77799757D01*
X107053078Y-77831487D01*
X107010438Y-77891199D01*
X106953888Y-77983378D01*
X106942049Y-78003491D01*
X106869436Y-78122636D01*
X106810785Y-78207287D01*
X106762607Y-78261521D01*
X106721411Y-78289411D01*
X106691983Y-78295500D01*
X106659860Y-78290801D01*
X106629988Y-78273053D01*
X106598185Y-78236777D01*
X106560267Y-78176495D01*
X106512050Y-78086729D01*
X106471804Y-78007171D01*
X106426360Y-77920314D01*
X106384703Y-77848169D01*
X106351834Y-77798959D01*
X106334349Y-77781226D01*
X106295497Y-77783942D01*
G37*
X106295497Y-77783942D02*
X106250908Y-77807163D01*
X106219356Y-77839281D01*
X106214334Y-77855425D01*
X106223302Y-77882956D01*
X106247944Y-77941220D01*
X106284861Y-78023159D01*
X106330657Y-78121711D01*
X106381936Y-78229816D01*
X106435300Y-78340413D01*
X106487353Y-78446441D01*
X106534698Y-78540841D01*
X106573938Y-78616552D01*
X106601677Y-78666512D01*
X106611894Y-78681792D01*
X106645426Y-78713141D01*
X106673567Y-78713650D01*
X106692905Y-78702634D01*
X106712213Y-78678652D01*
X106747920Y-78624182D01*
X106796180Y-78545916D01*
X106853150Y-78450546D01*
X106914986Y-78344765D01*
X106977844Y-78235264D01*
X107037880Y-78128736D01*
X107091251Y-78031873D01*
X107134112Y-77951367D01*
X107162619Y-77893911D01*
X107172883Y-77867001D01*
X107160599Y-77821545D01*
X107142150Y-77802306D01*
X107114474Y-77791525D01*
X107086270Y-77799757D01*
X107053078Y-77831487D01*
X107010438Y-77891199D01*
X106953888Y-77983378D01*
X106942049Y-78003491D01*
X106869436Y-78122636D01*
X106810785Y-78207287D01*
X106762607Y-78261521D01*
X106721411Y-78289411D01*
X106691983Y-78295500D01*
X106659860Y-78290801D01*
X106629988Y-78273053D01*
X106598185Y-78236777D01*
X106560267Y-78176495D01*
X106512050Y-78086729D01*
X106471804Y-78007171D01*
X106426360Y-77920314D01*
X106384703Y-77848169D01*
X106351834Y-77798959D01*
X106334349Y-77781226D01*
X106295497Y-77783942D01*
G36*
X122581876Y-77708171D02*
G01*
X122503816Y-77720407D01*
X122460595Y-77741284D01*
X122453409Y-77762528D01*
X122465524Y-77781826D01*
X122498421Y-77795027D01*
X122560121Y-77804357D01*
X122623380Y-77809679D01*
X122714167Y-77818519D01*
X122774737Y-77831721D01*
X122817200Y-77852743D01*
X122840123Y-77871577D01*
X122886494Y-77940485D01*
X122895292Y-78017522D01*
X122866978Y-78092225D01*
X122828543Y-78134868D01*
X122777947Y-78170176D01*
X122734407Y-78188805D01*
X122726943Y-78189667D01*
X122683565Y-78202924D01*
X122648648Y-78232865D01*
X122639667Y-78255758D01*
X122657753Y-78271254D01*
X122702785Y-78290990D01*
X122719042Y-78296534D01*
X122804609Y-78333380D01*
X122853707Y-78380013D01*
X122872028Y-78442388D01*
X122872500Y-78457042D01*
X122861261Y-78514985D01*
X122824233Y-78557151D01*
X122756453Y-78586560D01*
X122652958Y-78606234D01*
X122621168Y-78609959D01*
X122531154Y-78621222D01*
X122477453Y-78633072D01*
X122454081Y-78647908D01*
X122455056Y-78668132D01*
X122458880Y-78675092D01*
X122483435Y-78683162D01*
X122539795Y-78689604D01*
X122618409Y-78694303D01*
X122709724Y-78697146D01*
X122804189Y-78698020D01*
X122892250Y-78696811D01*
X122964357Y-78693407D01*
X123010956Y-78687693D01*
X123023426Y-78681792D01*
X123024546Y-78656463D01*
X123025964Y-78595859D01*
X123027554Y-78507033D01*
X123029187Y-78397041D01*
X123030599Y-78284917D01*
X123032841Y-78158523D01*
X123036327Y-78043743D01*
X123040702Y-77948549D01*
X123045611Y-77880915D01*
X123049951Y-77851000D01*
X123056236Y-77799335D01*
X123038060Y-77762281D01*
X122990658Y-77736860D01*
X122909262Y-77720093D01*
X122827071Y-77711718D01*
X122690914Y-77705100D01*
X122581876Y-77708171D01*
G37*
X122581876Y-77708171D02*
X122503816Y-77720407D01*
X122460595Y-77741284D01*
X122453409Y-77762528D01*
X122465524Y-77781826D01*
X122498421Y-77795027D01*
X122560121Y-77804357D01*
X122623380Y-77809679D01*
X122714167Y-77818519D01*
X122774737Y-77831721D01*
X122817200Y-77852743D01*
X122840123Y-77871577D01*
X122886494Y-77940485D01*
X122895292Y-78017522D01*
X122866978Y-78092225D01*
X122828543Y-78134868D01*
X122777947Y-78170176D01*
X122734407Y-78188805D01*
X122726943Y-78189667D01*
X122683565Y-78202924D01*
X122648648Y-78232865D01*
X122639667Y-78255758D01*
X122657753Y-78271254D01*
X122702785Y-78290990D01*
X122719042Y-78296534D01*
X122804609Y-78333380D01*
X122853707Y-78380013D01*
X122872028Y-78442388D01*
X122872500Y-78457042D01*
X122861261Y-78514985D01*
X122824233Y-78557151D01*
X122756453Y-78586560D01*
X122652958Y-78606234D01*
X122621168Y-78609959D01*
X122531154Y-78621222D01*
X122477453Y-78633072D01*
X122454081Y-78647908D01*
X122455056Y-78668132D01*
X122458880Y-78675092D01*
X122483435Y-78683162D01*
X122539795Y-78689604D01*
X122618409Y-78694303D01*
X122709724Y-78697146D01*
X122804189Y-78698020D01*
X122892250Y-78696811D01*
X122964357Y-78693407D01*
X123010956Y-78687693D01*
X123023426Y-78681792D01*
X123024546Y-78656463D01*
X123025964Y-78595859D01*
X123027554Y-78507033D01*
X123029187Y-78397041D01*
X123030599Y-78284917D01*
X123032841Y-78158523D01*
X123036327Y-78043743D01*
X123040702Y-77948549D01*
X123045611Y-77880915D01*
X123049951Y-77851000D01*
X123056236Y-77799335D01*
X123038060Y-77762281D01*
X122990658Y-77736860D01*
X122909262Y-77720093D01*
X122827071Y-77711718D01*
X122690914Y-77705100D01*
X122581876Y-77708171D01*
G36*
X119914639Y-77715919D02*
G01*
X119829023Y-77720941D01*
X119776965Y-77730354D01*
X119757125Y-77740756D01*
X119743994Y-77770437D01*
X119770872Y-77792051D01*
X119836079Y-77804882D01*
X119915510Y-77808342D01*
X120020489Y-77817926D01*
X120104237Y-77844011D01*
X120158530Y-77883492D01*
X120171185Y-77904865D01*
X120183324Y-77967974D01*
X120180895Y-78039505D01*
X120165274Y-78098194D01*
X120157875Y-78110578D01*
X120123694Y-78138667D01*
X120065832Y-78171699D01*
X120028503Y-78188971D01*
X119969593Y-78216288D01*
X119944281Y-78236570D01*
X119946022Y-78256214D01*
X119951720Y-78264014D01*
X119988312Y-78290792D01*
X120008060Y-78295500D01*
X120069332Y-78311232D01*
X120128205Y-78350096D01*
X120167274Y-78399590D01*
X120172236Y-78413419D01*
X120170830Y-78482638D01*
X120132479Y-78540201D01*
X120061705Y-78582973D01*
X119963031Y-78607822D01*
X119884440Y-78612882D01*
X119801350Y-78618340D01*
X119759068Y-78634371D01*
X119757689Y-78660933D01*
X119763052Y-78668388D01*
X119785707Y-78681602D01*
X119831699Y-78690478D01*
X119906859Y-78695610D01*
X120017023Y-78697593D01*
X120050007Y-78697667D01*
X120162282Y-78696881D01*
X120239109Y-78693966D01*
X120287355Y-78688082D01*
X120313884Y-78678389D01*
X120325563Y-78664048D01*
X120325589Y-78663980D01*
X120330019Y-78628714D01*
X120330935Y-78562872D01*
X120328317Y-78478067D01*
X120325976Y-78436734D01*
X120322769Y-78327235D01*
X120324745Y-78197098D01*
X120331400Y-78067635D01*
X120335986Y-78013236D01*
X120346440Y-77900731D01*
X120348368Y-77820993D01*
X120336094Y-77768339D01*
X120303942Y-77737082D01*
X120246237Y-77721538D01*
X120157303Y-77716023D01*
X120038125Y-77714891D01*
X119914639Y-77715919D01*
G37*
X119914639Y-77715919D02*
X119829023Y-77720941D01*
X119776965Y-77730354D01*
X119757125Y-77740756D01*
X119743994Y-77770437D01*
X119770872Y-77792051D01*
X119836079Y-77804882D01*
X119915510Y-77808342D01*
X120020489Y-77817926D01*
X120104237Y-77844011D01*
X120158530Y-77883492D01*
X120171185Y-77904865D01*
X120183324Y-77967974D01*
X120180895Y-78039505D01*
X120165274Y-78098194D01*
X120157875Y-78110578D01*
X120123694Y-78138667D01*
X120065832Y-78171699D01*
X120028503Y-78188971D01*
X119969593Y-78216288D01*
X119944281Y-78236570D01*
X119946022Y-78256214D01*
X119951720Y-78264014D01*
X119988312Y-78290792D01*
X120008060Y-78295500D01*
X120069332Y-78311232D01*
X120128205Y-78350096D01*
X120167274Y-78399590D01*
X120172236Y-78413419D01*
X120170830Y-78482638D01*
X120132479Y-78540201D01*
X120061705Y-78582973D01*
X119963031Y-78607822D01*
X119884440Y-78612882D01*
X119801350Y-78618340D01*
X119759068Y-78634371D01*
X119757689Y-78660933D01*
X119763052Y-78668388D01*
X119785707Y-78681602D01*
X119831699Y-78690478D01*
X119906859Y-78695610D01*
X120017023Y-78697593D01*
X120050007Y-78697667D01*
X120162282Y-78696881D01*
X120239109Y-78693966D01*
X120287355Y-78688082D01*
X120313884Y-78678389D01*
X120325563Y-78664048D01*
X120325589Y-78663980D01*
X120330019Y-78628714D01*
X120330935Y-78562872D01*
X120328317Y-78478067D01*
X120325976Y-78436734D01*
X120322769Y-78327235D01*
X120324745Y-78197098D01*
X120331400Y-78067635D01*
X120335986Y-78013236D01*
X120346440Y-77900731D01*
X120348368Y-77820993D01*
X120336094Y-77768339D01*
X120303942Y-77737082D01*
X120246237Y-77721538D01*
X120157303Y-77716023D01*
X120038125Y-77714891D01*
X119914639Y-77715919D01*
G36*
X111528101Y-77710887D02*
G01*
X111447812Y-77722027D01*
X111389690Y-77738315D01*
X111360523Y-77758824D01*
X111366082Y-77781637D01*
X111393422Y-77790563D01*
X111451811Y-77800049D01*
X111530028Y-77808382D01*
X111553239Y-77810223D01*
X111641285Y-77818154D01*
X111698485Y-77828610D01*
X111736310Y-77845241D01*
X111766231Y-77871695D01*
X111773943Y-77880413D01*
X111814737Y-77954987D01*
X111817798Y-78031971D01*
X111786356Y-78103094D01*
X111723640Y-78160086D01*
X111653032Y-78189972D01*
X111592087Y-78214858D01*
X111572861Y-78243482D01*
X111595471Y-78272846D01*
X111648875Y-78296534D01*
X111740003Y-78338928D01*
X111791758Y-78394354D01*
X111803515Y-78461713D01*
X111780918Y-78528799D01*
X111741250Y-78564409D01*
X111670463Y-78592534D01*
X111579585Y-78609654D01*
X111516584Y-78613206D01*
X111441549Y-78620202D01*
X111395527Y-78638474D01*
X111384214Y-78665320D01*
X111388121Y-78674133D01*
X111414697Y-78684792D01*
X111472911Y-78692454D01*
X111553071Y-78697169D01*
X111645479Y-78698988D01*
X111740441Y-78697961D01*
X111828262Y-78694138D01*
X111899247Y-78687568D01*
X111943699Y-78678303D01*
X111953689Y-78671208D01*
X111955963Y-78642984D01*
X111957956Y-78579021D01*
X111959565Y-78485916D01*
X111960687Y-78370264D01*
X111961218Y-78238659D01*
X111961245Y-78189779D01*
X111961084Y-77734807D01*
X111834084Y-77717641D01*
X111728025Y-77707766D01*
X111623768Y-77705824D01*
X111528101Y-77710887D01*
G37*
X111528101Y-77710887D02*
X111447812Y-77722027D01*
X111389690Y-77738315D01*
X111360523Y-77758824D01*
X111366082Y-77781637D01*
X111393422Y-77790563D01*
X111451811Y-77800049D01*
X111530028Y-77808382D01*
X111553239Y-77810223D01*
X111641285Y-77818154D01*
X111698485Y-77828610D01*
X111736310Y-77845241D01*
X111766231Y-77871695D01*
X111773943Y-77880413D01*
X111814737Y-77954987D01*
X111817798Y-78031971D01*
X111786356Y-78103094D01*
X111723640Y-78160086D01*
X111653032Y-78189972D01*
X111592087Y-78214858D01*
X111572861Y-78243482D01*
X111595471Y-78272846D01*
X111648875Y-78296534D01*
X111740003Y-78338928D01*
X111791758Y-78394354D01*
X111803515Y-78461713D01*
X111780918Y-78528799D01*
X111741250Y-78564409D01*
X111670463Y-78592534D01*
X111579585Y-78609654D01*
X111516584Y-78613206D01*
X111441549Y-78620202D01*
X111395527Y-78638474D01*
X111384214Y-78665320D01*
X111388121Y-78674133D01*
X111414697Y-78684792D01*
X111472911Y-78692454D01*
X111553071Y-78697169D01*
X111645479Y-78698988D01*
X111740441Y-78697961D01*
X111828262Y-78694138D01*
X111899247Y-78687568D01*
X111943699Y-78678303D01*
X111953689Y-78671208D01*
X111955963Y-78642984D01*
X111957956Y-78579021D01*
X111959565Y-78485916D01*
X111960687Y-78370264D01*
X111961218Y-78238659D01*
X111961245Y-78189779D01*
X111961084Y-77734807D01*
X111834084Y-77717641D01*
X111728025Y-77707766D01*
X111623768Y-77705824D01*
X111528101Y-77710887D01*
G36*
X107371694Y-77668303D02*
G01*
X107366450Y-77669560D01*
X107308482Y-77684109D01*
X107322791Y-78065242D01*
X107329963Y-78246691D01*
X107336715Y-78390168D01*
X107343636Y-78500023D01*
X107351316Y-78580606D01*
X107360345Y-78636268D01*
X107371314Y-78671357D01*
X107384811Y-78690223D01*
X107401427Y-78697217D01*
X107408556Y-78697667D01*
X107459658Y-78685679D01*
X107503687Y-78662688D01*
X107553626Y-78627709D01*
X107538620Y-78280098D01*
X107529564Y-78096163D01*
X107519320Y-77950684D01*
X107506796Y-77839786D01*
X107490897Y-77759590D01*
X107470530Y-77706221D01*
X107444603Y-77675801D01*
X107412022Y-77664454D01*
X107371694Y-77668303D01*
G37*
X107371694Y-77668303D02*
X107366450Y-77669560D01*
X107308482Y-77684109D01*
X107322791Y-78065242D01*
X107329963Y-78246691D01*
X107336715Y-78390168D01*
X107343636Y-78500023D01*
X107351316Y-78580606D01*
X107360345Y-78636268D01*
X107371314Y-78671357D01*
X107384811Y-78690223D01*
X107401427Y-78697217D01*
X107408556Y-78697667D01*
X107459658Y-78685679D01*
X107503687Y-78662688D01*
X107553626Y-78627709D01*
X107538620Y-78280098D01*
X107529564Y-78096163D01*
X107519320Y-77950684D01*
X107506796Y-77839786D01*
X107490897Y-77759590D01*
X107470530Y-77706221D01*
X107444603Y-77675801D01*
X107412022Y-77664454D01*
X107371694Y-77668303D01*
G36*
X105585042Y-77708171D02*
G01*
X105506983Y-77720407D01*
X105463762Y-77741284D01*
X105456575Y-77762528D01*
X105468691Y-77781826D01*
X105501588Y-77795027D01*
X105563288Y-77804357D01*
X105626547Y-77809679D01*
X105717333Y-77818519D01*
X105777904Y-77831721D01*
X105820366Y-77852743D01*
X105843290Y-77871577D01*
X105889660Y-77940485D01*
X105898459Y-78017522D01*
X105870145Y-78092225D01*
X105831710Y-78134868D01*
X105781114Y-78170176D01*
X105737574Y-78188805D01*
X105730110Y-78189667D01*
X105686732Y-78202924D01*
X105651814Y-78232865D01*
X105642834Y-78255758D01*
X105660920Y-78271254D01*
X105705951Y-78290990D01*
X105722209Y-78296534D01*
X105807775Y-78333380D01*
X105856874Y-78380013D01*
X105875195Y-78442388D01*
X105875667Y-78457042D01*
X105864428Y-78514985D01*
X105827400Y-78557151D01*
X105759620Y-78586560D01*
X105656125Y-78606234D01*
X105624335Y-78609959D01*
X105534321Y-78621222D01*
X105480619Y-78633072D01*
X105457247Y-78647908D01*
X105458223Y-78668132D01*
X105462047Y-78675092D01*
X105486594Y-78683160D01*
X105542937Y-78689601D01*
X105621527Y-78694300D01*
X105712816Y-78697144D01*
X105807255Y-78698020D01*
X105895297Y-78696815D01*
X105967393Y-78693415D01*
X106013994Y-78687706D01*
X106026480Y-78681792D01*
X106027529Y-78656519D01*
X106028846Y-78595863D01*
X106030315Y-78506774D01*
X106031821Y-78396200D01*
X106033217Y-78274333D01*
X106035285Y-78147104D01*
X106038537Y-78032303D01*
X106042649Y-77937529D01*
X106047295Y-77870381D01*
X106051836Y-77839306D01*
X106057722Y-77792241D01*
X106036308Y-77757932D01*
X105983410Y-77733972D01*
X105894846Y-77717953D01*
X105830238Y-77711718D01*
X105694081Y-77705100D01*
X105585042Y-77708171D01*
G37*
X105585042Y-77708171D02*
X105506983Y-77720407D01*
X105463762Y-77741284D01*
X105456575Y-77762528D01*
X105468691Y-77781826D01*
X105501588Y-77795027D01*
X105563288Y-77804357D01*
X105626547Y-77809679D01*
X105717333Y-77818519D01*
X105777904Y-77831721D01*
X105820366Y-77852743D01*
X105843290Y-77871577D01*
X105889660Y-77940485D01*
X105898459Y-78017522D01*
X105870145Y-78092225D01*
X105831710Y-78134868D01*
X105781114Y-78170176D01*
X105737574Y-78188805D01*
X105730110Y-78189667D01*
X105686732Y-78202924D01*
X105651814Y-78232865D01*
X105642834Y-78255758D01*
X105660920Y-78271254D01*
X105705951Y-78290990D01*
X105722209Y-78296534D01*
X105807775Y-78333380D01*
X105856874Y-78380013D01*
X105875195Y-78442388D01*
X105875667Y-78457042D01*
X105864428Y-78514985D01*
X105827400Y-78557151D01*
X105759620Y-78586560D01*
X105656125Y-78606234D01*
X105624335Y-78609959D01*
X105534321Y-78621222D01*
X105480619Y-78633072D01*
X105457247Y-78647908D01*
X105458223Y-78668132D01*
X105462047Y-78675092D01*
X105486594Y-78683160D01*
X105542937Y-78689601D01*
X105621527Y-78694300D01*
X105712816Y-78697144D01*
X105807255Y-78698020D01*
X105895297Y-78696815D01*
X105967393Y-78693415D01*
X106013994Y-78687706D01*
X106026480Y-78681792D01*
X106027529Y-78656519D01*
X106028846Y-78595863D01*
X106030315Y-78506774D01*
X106031821Y-78396200D01*
X106033217Y-78274333D01*
X106035285Y-78147104D01*
X106038537Y-78032303D01*
X106042649Y-77937529D01*
X106047295Y-77870381D01*
X106051836Y-77839306D01*
X106057722Y-77792241D01*
X106036308Y-77757932D01*
X105983410Y-77733972D01*
X105894846Y-77717953D01*
X105830238Y-77711718D01*
X105694081Y-77705100D01*
X105585042Y-77708171D01*
G36*
X127935307Y-77566941D02*
G01*
X127901042Y-77636918D01*
X127897425Y-77653093D01*
X127894465Y-77700498D01*
X127911308Y-77742427D01*
X127954427Y-77794798D01*
X127955569Y-77796026D01*
X128033464Y-77860427D01*
X128109404Y-77886480D01*
X128179355Y-77873208D01*
X128204951Y-77856511D01*
X128254737Y-77816196D01*
X128217434Y-77701306D01*
X128191529Y-77625730D01*
X128169029Y-77580510D01*
X128141055Y-77555488D01*
X128098727Y-77540508D01*
X128071186Y-77534012D01*
X127992452Y-77532344D01*
X127935307Y-77566941D01*
G37*
X127935307Y-77566941D02*
X127901042Y-77636918D01*
X127897425Y-77653093D01*
X127894465Y-77700498D01*
X127911308Y-77742427D01*
X127954427Y-77794798D01*
X127955569Y-77796026D01*
X128033464Y-77860427D01*
X128109404Y-77886480D01*
X128179355Y-77873208D01*
X128204951Y-77856511D01*
X128254737Y-77816196D01*
X128217434Y-77701306D01*
X128191529Y-77625730D01*
X128169029Y-77580510D01*
X128141055Y-77555488D01*
X128098727Y-77540508D01*
X128071186Y-77534012D01*
X127992452Y-77532344D01*
X127935307Y-77566941D01*
G36*
X127355603Y-77398514D02*
G01*
X127308883Y-77417179D01*
X127287157Y-77447682D01*
X127278986Y-77500404D01*
X127278743Y-77593158D01*
X127299284Y-77658256D01*
X127345182Y-77707152D01*
X127367588Y-77722252D01*
X127423118Y-77753832D01*
X127460672Y-77763378D01*
X127497002Y-77753068D01*
X127518584Y-77741891D01*
X127584988Y-77691563D01*
X127610821Y-77634338D01*
X127596088Y-77568604D01*
X127540796Y-77492750D01*
X127519644Y-77471041D01*
X127465918Y-77420556D01*
X127428815Y-77395350D01*
X127395896Y-77389920D01*
X127355603Y-77398514D01*
G37*
X127355603Y-77398514D02*
X127308883Y-77417179D01*
X127287157Y-77447682D01*
X127278986Y-77500404D01*
X127278743Y-77593158D01*
X127299284Y-77658256D01*
X127345182Y-77707152D01*
X127367588Y-77722252D01*
X127423118Y-77753832D01*
X127460672Y-77763378D01*
X127497002Y-77753068D01*
X127518584Y-77741891D01*
X127584988Y-77691563D01*
X127610821Y-77634338D01*
X127596088Y-77568604D01*
X127540796Y-77492750D01*
X127519644Y-77471041D01*
X127465918Y-77420556D01*
X127428815Y-77395350D01*
X127395896Y-77389920D01*
X127355603Y-77398514D01*
G36*
X128470446Y-77370724D02*
G01*
X128419001Y-77405839D01*
X128346889Y-77475836D01*
X128316274Y-77539970D01*
X128327044Y-77600186D01*
X128379089Y-77658428D01*
X128403570Y-77676375D01*
X128488182Y-77716828D01*
X128562452Y-77716422D01*
X128626007Y-77675156D01*
X128626144Y-77675011D01*
X128664832Y-77605085D01*
X128666348Y-77522148D01*
X128631215Y-77434848D01*
X128582589Y-77374096D01*
X128531112Y-77353010D01*
X128470446Y-77370724D01*
G37*
X128470446Y-77370724D02*
X128419001Y-77405839D01*
X128346889Y-77475836D01*
X128316274Y-77539970D01*
X128327044Y-77600186D01*
X128379089Y-77658428D01*
X128403570Y-77676375D01*
X128488182Y-77716828D01*
X128562452Y-77716422D01*
X128626007Y-77675156D01*
X128626144Y-77675011D01*
X128664832Y-77605085D01*
X128666348Y-77522148D01*
X128631215Y-77434848D01*
X128582589Y-77374096D01*
X128531112Y-77353010D01*
X128470446Y-77370724D01*
G36*
X127674224Y-77085564D02*
G01*
X127630070Y-77129683D01*
X127592758Y-77186582D01*
X127572641Y-77242651D01*
X127571500Y-77256268D01*
X127591233Y-77321257D01*
X127644973Y-77380687D01*
X127724532Y-77425567D01*
X127726337Y-77426257D01*
X127789849Y-77445542D01*
X127835474Y-77442942D01*
X127882217Y-77417335D01*
X127882671Y-77417018D01*
X127929171Y-77365420D01*
X127956805Y-77297766D01*
X127960637Y-77230686D01*
X127948345Y-77195782D01*
X127909841Y-77157693D01*
X127847865Y-77117443D01*
X127779653Y-77084480D01*
X127722446Y-77068249D01*
X127714866Y-77067833D01*
X127674224Y-77085564D01*
G37*
X127674224Y-77085564D02*
X127630070Y-77129683D01*
X127592758Y-77186582D01*
X127572641Y-77242651D01*
X127571500Y-77256268D01*
X127591233Y-77321257D01*
X127644973Y-77380687D01*
X127724532Y-77425567D01*
X127726337Y-77426257D01*
X127789849Y-77445542D01*
X127835474Y-77442942D01*
X127882217Y-77417335D01*
X127882671Y-77417018D01*
X127929171Y-77365420D01*
X127956805Y-77297766D01*
X127960637Y-77230686D01*
X127948345Y-77195782D01*
X127909841Y-77157693D01*
X127847865Y-77117443D01*
X127779653Y-77084480D01*
X127722446Y-77068249D01*
X127714866Y-77067833D01*
X127674224Y-77085564D01*
G36*
X128084664Y-77058043D02*
G01*
X128066490Y-77071760D01*
X128056245Y-77114145D01*
X128054891Y-77181814D01*
X128061117Y-77258961D01*
X128073614Y-77329786D01*
X128091072Y-77378483D01*
X128092044Y-77380042D01*
X128139905Y-77420431D01*
X128202860Y-77426905D01*
X128271500Y-77400069D01*
X128313962Y-77365795D01*
X128353126Y-77319319D01*
X128374498Y-77279735D01*
X128375834Y-77271755D01*
X128362840Y-77224922D01*
X128330853Y-77164463D01*
X128290360Y-77107130D01*
X128251852Y-77069676D01*
X128247812Y-77067286D01*
X128194591Y-77050816D01*
X128134247Y-77047882D01*
X128084664Y-77058043D01*
G37*
X128084664Y-77058043D02*
X128066490Y-77071760D01*
X128056245Y-77114145D01*
X128054891Y-77181814D01*
X128061117Y-77258961D01*
X128073614Y-77329786D01*
X128091072Y-77378483D01*
X128092044Y-77380042D01*
X128139905Y-77420431D01*
X128202860Y-77426905D01*
X128271500Y-77400069D01*
X128313962Y-77365795D01*
X128353126Y-77319319D01*
X128374498Y-77279735D01*
X128375834Y-77271755D01*
X128362840Y-77224922D01*
X128330853Y-77164463D01*
X128290360Y-77107130D01*
X128251852Y-77069676D01*
X128247812Y-77067286D01*
X128194591Y-77050816D01*
X128134247Y-77047882D01*
X128084664Y-77058043D01*
%TD*%
D11*
%TO.C,BOARD1*%
X103378000Y-63805967D03*
X103378000Y-81673700D03*
X149091516Y-63805967D03*
%TD*%
D12*
%TO.C,JP4*%
X148971000Y-82804000D03*
X148971000Y-80264000D03*
%TD*%
D13*
%TO.C,JP6*%
G36*
X134605000Y-80378398D02*
G01*
X134580466Y-80378398D01*
X134531635Y-80373588D01*
X134483510Y-80364016D01*
X134436555Y-80349772D01*
X134391222Y-80330995D01*
X134347949Y-80307864D01*
X134307150Y-80280604D01*
X134269221Y-80249476D01*
X134234524Y-80214779D01*
X134203396Y-80176850D01*
X134176136Y-80136051D01*
X134153005Y-80092778D01*
X134134228Y-80047445D01*
X134119984Y-80000490D01*
X134110412Y-79952365D01*
X134105602Y-79903534D01*
X134105602Y-79879000D01*
X134105000Y-79879000D01*
X134105000Y-79379000D01*
X134105602Y-79379000D01*
X134105602Y-79354466D01*
X134110412Y-79305635D01*
X134119984Y-79257510D01*
X134134228Y-79210555D01*
X134153005Y-79165222D01*
X134176136Y-79121949D01*
X134203396Y-79081150D01*
X134234524Y-79043221D01*
X134269221Y-79008524D01*
X134307150Y-78977396D01*
X134347949Y-78950136D01*
X134391222Y-78927005D01*
X134436555Y-78908228D01*
X134483510Y-78893984D01*
X134531635Y-78884412D01*
X134580466Y-78879602D01*
X134605000Y-78879602D01*
X134605000Y-78879000D01*
X135105000Y-78879000D01*
X135105000Y-80379000D01*
X134605000Y-80379000D01*
X134605000Y-80378398D01*
G37*
G36*
X135405000Y-78879000D02*
G01*
X135905000Y-78879000D01*
X135905000Y-78879602D01*
X135929534Y-78879602D01*
X135978365Y-78884412D01*
X136026490Y-78893984D01*
X136073445Y-78908228D01*
X136118778Y-78927005D01*
X136162051Y-78950136D01*
X136202850Y-78977396D01*
X136240779Y-79008524D01*
X136275476Y-79043221D01*
X136306604Y-79081150D01*
X136333864Y-79121949D01*
X136356995Y-79165222D01*
X136375772Y-79210555D01*
X136390016Y-79257510D01*
X136399588Y-79305635D01*
X136404398Y-79354466D01*
X136404398Y-79379000D01*
X136405000Y-79379000D01*
X136405000Y-79879000D01*
X136404398Y-79879000D01*
X136404398Y-79903534D01*
X136399588Y-79952365D01*
X136390016Y-80000490D01*
X136375772Y-80047445D01*
X136356995Y-80092778D01*
X136333864Y-80136051D01*
X136306604Y-80176850D01*
X136275476Y-80214779D01*
X136240779Y-80249476D01*
X136202850Y-80280604D01*
X136162051Y-80307864D01*
X136118778Y-80330995D01*
X136073445Y-80349772D01*
X136026490Y-80364016D01*
X135978365Y-80373588D01*
X135929534Y-80378398D01*
X135905000Y-80378398D01*
X135905000Y-80379000D01*
X135405000Y-80379000D01*
X135405000Y-78879000D01*
G37*
%TD*%
%TO.C,JP2*%
G36*
X116825000Y-76695398D02*
G01*
X116800466Y-76695398D01*
X116751635Y-76690588D01*
X116703510Y-76681016D01*
X116656555Y-76666772D01*
X116611222Y-76647995D01*
X116567949Y-76624864D01*
X116527150Y-76597604D01*
X116489221Y-76566476D01*
X116454524Y-76531779D01*
X116423396Y-76493850D01*
X116396136Y-76453051D01*
X116373005Y-76409778D01*
X116354228Y-76364445D01*
X116339984Y-76317490D01*
X116330412Y-76269365D01*
X116325602Y-76220534D01*
X116325602Y-76196000D01*
X116325000Y-76196000D01*
X116325000Y-75696000D01*
X116325602Y-75696000D01*
X116325602Y-75671466D01*
X116330412Y-75622635D01*
X116339984Y-75574510D01*
X116354228Y-75527555D01*
X116373005Y-75482222D01*
X116396136Y-75438949D01*
X116423396Y-75398150D01*
X116454524Y-75360221D01*
X116489221Y-75325524D01*
X116527150Y-75294396D01*
X116567949Y-75267136D01*
X116611222Y-75244005D01*
X116656555Y-75225228D01*
X116703510Y-75210984D01*
X116751635Y-75201412D01*
X116800466Y-75196602D01*
X116825000Y-75196602D01*
X116825000Y-75196000D01*
X117325000Y-75196000D01*
X117325000Y-76696000D01*
X116825000Y-76696000D01*
X116825000Y-76695398D01*
G37*
G36*
X117625000Y-75196000D02*
G01*
X118125000Y-75196000D01*
X118125000Y-75196602D01*
X118149534Y-75196602D01*
X118198365Y-75201412D01*
X118246490Y-75210984D01*
X118293445Y-75225228D01*
X118338778Y-75244005D01*
X118382051Y-75267136D01*
X118422850Y-75294396D01*
X118460779Y-75325524D01*
X118495476Y-75360221D01*
X118526604Y-75398150D01*
X118553864Y-75438949D01*
X118576995Y-75482222D01*
X118595772Y-75527555D01*
X118610016Y-75574510D01*
X118619588Y-75622635D01*
X118624398Y-75671466D01*
X118624398Y-75696000D01*
X118625000Y-75696000D01*
X118625000Y-76196000D01*
X118624398Y-76196000D01*
X118624398Y-76220534D01*
X118619588Y-76269365D01*
X118610016Y-76317490D01*
X118595772Y-76364445D01*
X118576995Y-76409778D01*
X118553864Y-76453051D01*
X118526604Y-76493850D01*
X118495476Y-76531779D01*
X118460779Y-76566476D01*
X118422850Y-76597604D01*
X118382051Y-76624864D01*
X118338778Y-76647995D01*
X118293445Y-76666772D01*
X118246490Y-76681016D01*
X118198365Y-76690588D01*
X118149534Y-76695398D01*
X118125000Y-76695398D01*
X118125000Y-76696000D01*
X117625000Y-76696000D01*
X117625000Y-75196000D01*
G37*
%TD*%
D12*
%TO.C,JP3*%
X102489000Y-78486000D03*
X102489000Y-75946000D03*
%TD*%
D14*
%TO.C,J2*%
X107569000Y-62738000D03*
X110109000Y-62738000D03*
X112649000Y-62738000D03*
%TD*%
D13*
%TO.C,JP1*%
G36*
X135814500Y-73935500D02*
G01*
X135814500Y-74485500D01*
X135813898Y-74485500D01*
X135813898Y-74510034D01*
X135809088Y-74558865D01*
X135799516Y-74606990D01*
X135785272Y-74653945D01*
X135766495Y-74699278D01*
X135743364Y-74742551D01*
X135716104Y-74783350D01*
X135684976Y-74821279D01*
X135650279Y-74855976D01*
X135612350Y-74887104D01*
X135571551Y-74914364D01*
X135528278Y-74937495D01*
X135482945Y-74956272D01*
X135435990Y-74970516D01*
X135387865Y-74980088D01*
X135339034Y-74984898D01*
X135314500Y-74984898D01*
X135314500Y-74985500D01*
X134814500Y-74985500D01*
X134814500Y-74984898D01*
X134789966Y-74984898D01*
X134741135Y-74980088D01*
X134693010Y-74970516D01*
X134646055Y-74956272D01*
X134600722Y-74937495D01*
X134557449Y-74914364D01*
X134516650Y-74887104D01*
X134478721Y-74855976D01*
X134444024Y-74821279D01*
X134412896Y-74783350D01*
X134385636Y-74742551D01*
X134362505Y-74699278D01*
X134343728Y-74653945D01*
X134329484Y-74606990D01*
X134319912Y-74558865D01*
X134315102Y-74510034D01*
X134315102Y-74485500D01*
X134314500Y-74485500D01*
X134314500Y-73935500D01*
X135814500Y-73935500D01*
G37*
G36*
X134315102Y-71885500D02*
G01*
X134315102Y-71860966D01*
X134319912Y-71812135D01*
X134329484Y-71764010D01*
X134343728Y-71717055D01*
X134362505Y-71671722D01*
X134385636Y-71628449D01*
X134412896Y-71587650D01*
X134444024Y-71549721D01*
X134478721Y-71515024D01*
X134516650Y-71483896D01*
X134557449Y-71456636D01*
X134600722Y-71433505D01*
X134646055Y-71414728D01*
X134693010Y-71400484D01*
X134741135Y-71390912D01*
X134789966Y-71386102D01*
X134814500Y-71386102D01*
X134814500Y-71385500D01*
X135314500Y-71385500D01*
X135314500Y-71386102D01*
X135339034Y-71386102D01*
X135387865Y-71390912D01*
X135435990Y-71400484D01*
X135482945Y-71414728D01*
X135528278Y-71433505D01*
X135571551Y-71456636D01*
X135612350Y-71483896D01*
X135650279Y-71515024D01*
X135684976Y-71549721D01*
X135716104Y-71587650D01*
X135743364Y-71628449D01*
X135766495Y-71671722D01*
X135785272Y-71717055D01*
X135799516Y-71764010D01*
X135809088Y-71812135D01*
X135813898Y-71860966D01*
X135813898Y-71885500D01*
X135814500Y-71885500D01*
X135814500Y-72435500D01*
X134314500Y-72435500D01*
X134314500Y-71885500D01*
X134315102Y-71885500D01*
G37*
D15*
X135064500Y-73185500D03*
%TD*%
%TO.C,R1*%
G36*
G01*
X130781899Y-71103800D02*
X132031901Y-71103800D01*
G75*
G02*
X132281900Y-71353799I0J-249999D01*
G01*
X132281900Y-72153801D01*
G75*
G02*
X132031901Y-72403800I-249999J0D01*
G01*
X130781899Y-72403800D01*
G75*
G02*
X130531900Y-72153801I0J249999D01*
G01*
X130531900Y-71353799D01*
G75*
G02*
X130781899Y-71103800I249999J0D01*
G01*
G37*
G36*
G01*
X130781899Y-74203800D02*
X132031901Y-74203800D01*
G75*
G02*
X132281900Y-74453799I0J-249999D01*
G01*
X132281900Y-75253801D01*
G75*
G02*
X132031901Y-75503800I-249999J0D01*
G01*
X130781899Y-75503800D01*
G75*
G02*
X130531900Y-75253801I0J249999D01*
G01*
X130531900Y-74453799D01*
G75*
G02*
X130781899Y-74203800I249999J0D01*
G01*
G37*
%TD*%
D12*
%TO.C,F2*%
X117348000Y-62636400D03*
X119888000Y-62636400D03*
X122428000Y-62636400D03*
X124968000Y-62636400D03*
X127508000Y-62636400D03*
X130048000Y-62636400D03*
X132588000Y-62636400D03*
X135128000Y-62636400D03*
X137668000Y-62636400D03*
X140208000Y-62636400D03*
X142748000Y-62636400D03*
D16*
X145288000Y-62636400D03*
%TD*%
D12*
%TO.C,F1*%
X107188000Y-82956400D03*
X109728000Y-82956400D03*
X112268000Y-82956400D03*
X114808000Y-82956400D03*
X117348000Y-82956400D03*
X119888000Y-82956400D03*
X122428000Y-82956400D03*
X124968000Y-82956400D03*
X127508000Y-82956400D03*
X130048000Y-82956400D03*
X132588000Y-82956400D03*
X135128000Y-82956400D03*
X137668000Y-82956400D03*
X140208000Y-82956400D03*
X142748000Y-82956400D03*
D16*
X145288000Y-82956400D03*
%TD*%
D17*
%TO.C,J3*%
X101749400Y-72732900D03*
X104849400Y-72732900D03*
X113149400Y-72732900D03*
%TD*%
D18*
%TO.C,J4*%
X148920200Y-67906900D03*
X148920200Y-77939900D03*
D19*
X143984980Y-70424040D03*
X143984980Y-67825620D03*
X148983700Y-72923400D03*
X143984980Y-75422760D03*
X143984980Y-78021180D03*
%TD*%
%TO.C,R3*%
G36*
G01*
X120266299Y-69871900D02*
X121516301Y-69871900D01*
G75*
G02*
X121766300Y-70121899I0J-249999D01*
G01*
X121766300Y-70921901D01*
G75*
G02*
X121516301Y-71171900I-249999J0D01*
G01*
X120266299Y-71171900D01*
G75*
G02*
X120016300Y-70921901I0J249999D01*
G01*
X120016300Y-70121899D01*
G75*
G02*
X120266299Y-69871900I249999J0D01*
G01*
G37*
G36*
G01*
X120266299Y-72971900D02*
X121516301Y-72971900D01*
G75*
G02*
X121766300Y-73221899I0J-249999D01*
G01*
X121766300Y-74021901D01*
G75*
G02*
X121516301Y-74271900I-249999J0D01*
G01*
X120266299Y-74271900D01*
G75*
G02*
X120016300Y-74021901I0J249999D01*
G01*
X120016300Y-73221899D01*
G75*
G02*
X120266299Y-72971900I249999J0D01*
G01*
G37*
%TD*%
%TO.C,C8*%
G36*
G01*
X116647198Y-69860200D02*
X117947202Y-69860200D01*
G75*
G02*
X118197200Y-70110198I0J-249998D01*
G01*
X118197200Y-70935202D01*
G75*
G02*
X117947202Y-71185200I-249998J0D01*
G01*
X116647198Y-71185200D01*
G75*
G02*
X116397200Y-70935202I0J249998D01*
G01*
X116397200Y-70110198D01*
G75*
G02*
X116647198Y-69860200I249998J0D01*
G01*
G37*
G36*
G01*
X116647198Y-72985200D02*
X117947202Y-72985200D01*
G75*
G02*
X118197200Y-73235198I0J-249998D01*
G01*
X118197200Y-74060202D01*
G75*
G02*
X117947202Y-74310200I-249998J0D01*
G01*
X116647198Y-74310200D01*
G75*
G02*
X116397200Y-74060202I0J249998D01*
G01*
X116397200Y-73235198D01*
G75*
G02*
X116647198Y-72985200I249998J0D01*
G01*
G37*
%TD*%
D20*
%TO.C,J1*%
X107543600Y-63588200D03*
X110083600Y-63588200D03*
X112623600Y-63588200D03*
%TD*%
M02*
