%TF.GenerationSoftware,KiCad,Pcbnew,5.1.10-88a1d61d58~90~ubuntu20.04.1*%
%TF.CreationDate,2022-10-02T00:03:50+07:00*%
%TF.ProjectId,BioAmp-EXG-Pill_1206_rounder,42696f41-6d70-42d4-9558-472d50696c6c,1.0b*%
%TF.SameCoordinates,Original*%
%TF.FileFunction,Legend,Top*%
%TF.FilePolarity,Positive*%
%FSLAX46Y46*%
G04 Gerber Fmt 4.6, Leading zero omitted, Abs format (unit mm)*
G04 Created by KiCad (PCBNEW 5.1.10-88a1d61d58~90~ubuntu20.04.1) date 2022-10-02 00:03:50*
%MOMM*%
%LPD*%
G01*
G04 APERTURE LIST*
%ADD10C,0.100000*%
%ADD11C,0.200000*%
%ADD12C,0.400000*%
%ADD13C,0.120000*%
%ADD14C,0.125000*%
%ADD15C,0.137500*%
%ADD16C,0.150000*%
%ADD17C,0.010000*%
%ADD18C,0.127000*%
G04 APERTURE END LIST*
D10*
X105870095Y-66379714D02*
X105774857Y-66113047D01*
X105679619Y-66379714D01*
X105317714Y-66113047D02*
X105546285Y-66113047D01*
X105432000Y-66113047D02*
X105432000Y-66513047D01*
X105470095Y-66455904D01*
X105508190Y-66417809D01*
X105546285Y-66398761D01*
X105146285Y-66151142D02*
X105127238Y-66132095D01*
X105146285Y-66113047D01*
X105165333Y-66132095D01*
X105146285Y-66151142D01*
X105146285Y-66113047D01*
X104879619Y-66513047D02*
X104841523Y-66513047D01*
X104803428Y-66494000D01*
X104784380Y-66474952D01*
X104765333Y-66436857D01*
X104746285Y-66360666D01*
X104746285Y-66265428D01*
X104765333Y-66189238D01*
X104784380Y-66151142D01*
X104803428Y-66132095D01*
X104841523Y-66113047D01*
X104879619Y-66113047D01*
X104917714Y-66132095D01*
X104936761Y-66151142D01*
X104955809Y-66189238D01*
X104974857Y-66265428D01*
X104974857Y-66360666D01*
X104955809Y-66436857D01*
X104936761Y-66474952D01*
X104917714Y-66494000D01*
X104879619Y-66513047D01*
X104270095Y-66265428D02*
X103965333Y-66265428D01*
X103336761Y-66322571D02*
X103470095Y-66322571D01*
X103470095Y-66113047D02*
X103470095Y-66513047D01*
X103279619Y-66513047D01*
X102974857Y-66132095D02*
X103012952Y-66113047D01*
X103089142Y-66113047D01*
X103127238Y-66132095D01*
X103146285Y-66170190D01*
X103146285Y-66322571D01*
X103127238Y-66360666D01*
X103089142Y-66379714D01*
X103012952Y-66379714D01*
X102974857Y-66360666D01*
X102955809Y-66322571D01*
X102955809Y-66284476D01*
X103146285Y-66246380D01*
X102612952Y-66113047D02*
X102612952Y-66322571D01*
X102632000Y-66360666D01*
X102670095Y-66379714D01*
X102746285Y-66379714D01*
X102784380Y-66360666D01*
X102612952Y-66132095D02*
X102651047Y-66113047D01*
X102746285Y-66113047D01*
X102784380Y-66132095D01*
X102803428Y-66170190D01*
X102803428Y-66208285D01*
X102784380Y-66246380D01*
X102746285Y-66265428D01*
X102651047Y-66265428D01*
X102612952Y-66284476D01*
X102479619Y-66379714D02*
X102327238Y-66379714D01*
X102422476Y-66513047D02*
X102422476Y-66170190D01*
X102403428Y-66132095D01*
X102365333Y-66113047D01*
X102327238Y-66113047D01*
X102193904Y-66113047D02*
X102193904Y-66513047D01*
X102022476Y-66113047D02*
X102022476Y-66322571D01*
X102041523Y-66360666D01*
X102079619Y-66379714D01*
X102136761Y-66379714D01*
X102174857Y-66360666D01*
X102193904Y-66341619D01*
X101679619Y-66132095D02*
X101717714Y-66113047D01*
X101793904Y-66113047D01*
X101832000Y-66132095D01*
X101851047Y-66170190D01*
X101851047Y-66322571D01*
X101832000Y-66360666D01*
X101793904Y-66379714D01*
X101717714Y-66379714D01*
X101679619Y-66360666D01*
X101660571Y-66322571D01*
X101660571Y-66284476D01*
X101851047Y-66246380D01*
X101489142Y-66113047D02*
X101489142Y-66379714D01*
X101489142Y-66303523D02*
X101470095Y-66341619D01*
X101451047Y-66360666D01*
X101412952Y-66379714D01*
X101374857Y-66379714D01*
D11*
X113854761Y-67508428D02*
X113711904Y-67460809D01*
X113664285Y-67413190D01*
X113616666Y-67317952D01*
X113616666Y-67175095D01*
X113664285Y-67079857D01*
X113711904Y-67032238D01*
X113807142Y-66984619D01*
X114188095Y-66984619D01*
X114188095Y-67984619D01*
X113854761Y-67984619D01*
X113759523Y-67937000D01*
X113711904Y-67889380D01*
X113664285Y-67794142D01*
X113664285Y-67698904D01*
X113711904Y-67603666D01*
X113759523Y-67556047D01*
X113854761Y-67508428D01*
X114188095Y-67508428D01*
X113188095Y-66984619D02*
X113188095Y-67651285D01*
X113188095Y-67984619D02*
X113235714Y-67937000D01*
X113188095Y-67889380D01*
X113140476Y-67937000D01*
X113188095Y-67984619D01*
X113188095Y-67889380D01*
X112569047Y-66984619D02*
X112664285Y-67032238D01*
X112711904Y-67079857D01*
X112759523Y-67175095D01*
X112759523Y-67460809D01*
X112711904Y-67556047D01*
X112664285Y-67603666D01*
X112569047Y-67651285D01*
X112426190Y-67651285D01*
X112330952Y-67603666D01*
X112283333Y-67556047D01*
X112235714Y-67460809D01*
X112235714Y-67175095D01*
X112283333Y-67079857D01*
X112330952Y-67032238D01*
X112426190Y-66984619D01*
X112569047Y-66984619D01*
X111854761Y-67270333D02*
X111378571Y-67270333D01*
X111950000Y-66984619D02*
X111616666Y-67984619D01*
X111283333Y-66984619D01*
X110950000Y-66984619D02*
X110950000Y-67651285D01*
X110950000Y-67556047D02*
X110902380Y-67603666D01*
X110807142Y-67651285D01*
X110664285Y-67651285D01*
X110569047Y-67603666D01*
X110521428Y-67508428D01*
X110521428Y-66984619D01*
X110521428Y-67508428D02*
X110473809Y-67603666D01*
X110378571Y-67651285D01*
X110235714Y-67651285D01*
X110140476Y-67603666D01*
X110092857Y-67508428D01*
X110092857Y-66984619D01*
X109616666Y-67651285D02*
X109616666Y-66651285D01*
X109616666Y-67603666D02*
X109521428Y-67651285D01*
X109330952Y-67651285D01*
X109235714Y-67603666D01*
X109188095Y-67556047D01*
X109140476Y-67460809D01*
X109140476Y-67175095D01*
X109188095Y-67079857D01*
X109235714Y-67032238D01*
X109330952Y-66984619D01*
X109521428Y-66984619D01*
X109616666Y-67032238D01*
X107950000Y-67508428D02*
X107616666Y-67508428D01*
X107473809Y-66984619D02*
X107950000Y-66984619D01*
X107950000Y-67984619D01*
X107473809Y-67984619D01*
X107140476Y-67984619D02*
X106473809Y-66984619D01*
X106473809Y-67984619D02*
X107140476Y-66984619D01*
X105569047Y-67937000D02*
X105664285Y-67984619D01*
X105807142Y-67984619D01*
X105950000Y-67937000D01*
X106045238Y-67841761D01*
X106092857Y-67746523D01*
X106140476Y-67556047D01*
X106140476Y-67413190D01*
X106092857Y-67222714D01*
X106045238Y-67127476D01*
X105950000Y-67032238D01*
X105807142Y-66984619D01*
X105711904Y-66984619D01*
X105569047Y-67032238D01*
X105521428Y-67079857D01*
X105521428Y-67413190D01*
X105711904Y-67413190D01*
X104330952Y-66984619D02*
X104330952Y-67984619D01*
X103950000Y-67984619D01*
X103854761Y-67937000D01*
X103807142Y-67889380D01*
X103759523Y-67794142D01*
X103759523Y-67651285D01*
X103807142Y-67556047D01*
X103854761Y-67508428D01*
X103950000Y-67460809D01*
X104330952Y-67460809D01*
X103330952Y-66984619D02*
X103330952Y-67984619D01*
X102378571Y-66984619D02*
X102854761Y-66984619D01*
X102854761Y-67984619D01*
X101569047Y-66984619D02*
X102045238Y-66984619D01*
X102045238Y-67984619D01*
D12*
X123060400Y-65954700D02*
X122806400Y-65954700D01*
X123060400Y-66454700D02*
X122806400Y-66454700D01*
D13*
X123060400Y-65954700D02*
X123060400Y-66454700D01*
X122806400Y-66454700D02*
X122806400Y-65954700D01*
D14*
X122662190Y-65559666D02*
X123162190Y-65393000D01*
X122662190Y-65226333D01*
X122662190Y-65059666D02*
X123066952Y-65059666D01*
X123114571Y-65035857D01*
X123138380Y-65012047D01*
X123162190Y-64964428D01*
X123162190Y-64869190D01*
X123138380Y-64821571D01*
X123114571Y-64797761D01*
X123066952Y-64773952D01*
X122662190Y-64773952D01*
X123138380Y-64559666D02*
X123162190Y-64488238D01*
X123162190Y-64369190D01*
X123138380Y-64321571D01*
X123114571Y-64297761D01*
X123066952Y-64273952D01*
X123019333Y-64273952D01*
X122971714Y-64297761D01*
X122947904Y-64321571D01*
X122924095Y-64369190D01*
X122900285Y-64464428D01*
X122876476Y-64512047D01*
X122852666Y-64535857D01*
X122805047Y-64559666D01*
X122757428Y-64559666D01*
X122709809Y-64535857D01*
X122686000Y-64512047D01*
X122662190Y-64464428D01*
X122662190Y-64345380D01*
X122686000Y-64273952D01*
X122900285Y-63893000D02*
X122924095Y-63821571D01*
X122947904Y-63797761D01*
X122995523Y-63773952D01*
X123066952Y-63773952D01*
X123114571Y-63797761D01*
X123138380Y-63821571D01*
X123162190Y-63869190D01*
X123162190Y-64059666D01*
X122662190Y-64059666D01*
X122662190Y-63893000D01*
X122686000Y-63845380D01*
X122709809Y-63821571D01*
X122757428Y-63797761D01*
X122805047Y-63797761D01*
X122852666Y-63821571D01*
X122876476Y-63845380D01*
X122900285Y-63893000D01*
X122900285Y-64059666D01*
D15*
X104354714Y-79137047D02*
X104380904Y-79058476D01*
X104407095Y-79032285D01*
X104459476Y-79006095D01*
X104538047Y-79006095D01*
X104590428Y-79032285D01*
X104616619Y-79058476D01*
X104642809Y-79110857D01*
X104642809Y-79320380D01*
X104092809Y-79320380D01*
X104092809Y-79137047D01*
X104119000Y-79084666D01*
X104145190Y-79058476D01*
X104197571Y-79032285D01*
X104249952Y-79032285D01*
X104302333Y-79058476D01*
X104328523Y-79084666D01*
X104354714Y-79137047D01*
X104354714Y-79320380D01*
X104485666Y-78796571D02*
X104485666Y-78534666D01*
X104642809Y-78848952D02*
X104092809Y-78665619D01*
X104642809Y-78482285D01*
X104642809Y-78298952D02*
X104092809Y-78298952D01*
X104642809Y-77984666D01*
X104092809Y-77984666D01*
X104642809Y-77722761D02*
X104092809Y-77722761D01*
X104092809Y-77591809D01*
X104119000Y-77513238D01*
X104171380Y-77460857D01*
X104223761Y-77434666D01*
X104328523Y-77408476D01*
X104407095Y-77408476D01*
X104511857Y-77434666D01*
X104564238Y-77460857D01*
X104616619Y-77513238D01*
X104642809Y-77591809D01*
X104642809Y-77722761D01*
X104642809Y-77172761D02*
X104092809Y-77172761D01*
X104092809Y-76963238D01*
X104119000Y-76910857D01*
X104145190Y-76884666D01*
X104197571Y-76858476D01*
X104276142Y-76858476D01*
X104328523Y-76884666D01*
X104354714Y-76910857D01*
X104380904Y-76963238D01*
X104380904Y-77172761D01*
X104485666Y-76648952D02*
X104485666Y-76387047D01*
X104642809Y-76701333D02*
X104092809Y-76518000D01*
X104642809Y-76334666D01*
X104616619Y-76177523D02*
X104642809Y-76098952D01*
X104642809Y-75968000D01*
X104616619Y-75915619D01*
X104590428Y-75889428D01*
X104538047Y-75863238D01*
X104485666Y-75863238D01*
X104433285Y-75889428D01*
X104407095Y-75915619D01*
X104380904Y-75968000D01*
X104354714Y-76072761D01*
X104328523Y-76125142D01*
X104302333Y-76151333D01*
X104249952Y-76177523D01*
X104197571Y-76177523D01*
X104145190Y-76151333D01*
X104119000Y-76125142D01*
X104092809Y-76072761D01*
X104092809Y-75941809D01*
X104119000Y-75863238D01*
X104616619Y-75653714D02*
X104642809Y-75575142D01*
X104642809Y-75444190D01*
X104616619Y-75391809D01*
X104590428Y-75365619D01*
X104538047Y-75339428D01*
X104485666Y-75339428D01*
X104433285Y-75365619D01*
X104407095Y-75391809D01*
X104380904Y-75444190D01*
X104354714Y-75548952D01*
X104328523Y-75601333D01*
X104302333Y-75627523D01*
X104249952Y-75653714D01*
X104197571Y-75653714D01*
X104145190Y-75627523D01*
X104119000Y-75601333D01*
X104092809Y-75548952D01*
X104092809Y-75418000D01*
X104119000Y-75339428D01*
D16*
X146893000Y-82707000D02*
X146864428Y-82764142D01*
X146864428Y-82849857D01*
X146893000Y-82935571D01*
X146950142Y-82992714D01*
X147007285Y-83021285D01*
X147121571Y-83049857D01*
X147207285Y-83049857D01*
X147321571Y-83021285D01*
X147378714Y-82992714D01*
X147435857Y-82935571D01*
X147464428Y-82849857D01*
X147464428Y-82792714D01*
X147435857Y-82707000D01*
X147407285Y-82678428D01*
X147207285Y-82678428D01*
X147207285Y-82792714D01*
X147293000Y-82449857D02*
X147293000Y-82164142D01*
X147464428Y-82507000D02*
X146864428Y-82307000D01*
X147464428Y-82107000D01*
X147464428Y-81907000D02*
X146864428Y-81907000D01*
X147464428Y-81621285D02*
X146864428Y-81621285D01*
X147464428Y-81278428D01*
X146864428Y-81278428D01*
X147235857Y-80992714D02*
X147235857Y-80535571D01*
X147464428Y-80764142D02*
X147007285Y-80764142D01*
X147235857Y-80249857D02*
X147235857Y-79792714D01*
X147464428Y-80021285D02*
X147007285Y-80021285D01*
D11*
X147010380Y-73723428D02*
X146534190Y-74056761D01*
X147010380Y-74294857D02*
X146010380Y-74294857D01*
X146010380Y-73913904D01*
X146058000Y-73818666D01*
X146105619Y-73771047D01*
X146200857Y-73723428D01*
X146343714Y-73723428D01*
X146438952Y-73771047D01*
X146486571Y-73818666D01*
X146534190Y-73913904D01*
X146534190Y-74294857D01*
X146486571Y-73294857D02*
X146486571Y-72961523D01*
X147010380Y-72818666D02*
X147010380Y-73294857D01*
X146010380Y-73294857D01*
X146010380Y-72818666D01*
X146486571Y-72056761D02*
X146486571Y-72390095D01*
X147010380Y-72390095D02*
X146010380Y-72390095D01*
X146010380Y-71913904D01*
X142184380Y-78866857D02*
X141184380Y-78866857D01*
X142184380Y-78390666D02*
X141184380Y-78390666D01*
X142184380Y-77819238D01*
X141184380Y-77819238D01*
X141803428Y-77343047D02*
X141803428Y-76581142D01*
X142184380Y-68706857D02*
X141184380Y-68706857D01*
X142184380Y-68230666D02*
X141184380Y-68230666D01*
X142184380Y-67659238D01*
X141184380Y-67659238D01*
X141803428Y-67183047D02*
X141803428Y-66421142D01*
X142184380Y-66802095D02*
X141422476Y-66802095D01*
D14*
X111906809Y-65233633D02*
X111406809Y-65400300D01*
X111906809Y-65566966D01*
X111454428Y-66019347D02*
X111430619Y-65995538D01*
X111406809Y-65924109D01*
X111406809Y-65876490D01*
X111430619Y-65805061D01*
X111478238Y-65757442D01*
X111525857Y-65733633D01*
X111621095Y-65709823D01*
X111692523Y-65709823D01*
X111787761Y-65733633D01*
X111835380Y-65757442D01*
X111883000Y-65805061D01*
X111906809Y-65876490D01*
X111906809Y-65924109D01*
X111883000Y-65995538D01*
X111859190Y-66019347D01*
X111454428Y-66519347D02*
X111430619Y-66495538D01*
X111406809Y-66424109D01*
X111406809Y-66376490D01*
X111430619Y-66305061D01*
X111478238Y-66257442D01*
X111525857Y-66233633D01*
X111621095Y-66209823D01*
X111692523Y-66209823D01*
X111787761Y-66233633D01*
X111835380Y-66257442D01*
X111883000Y-66305061D01*
X111906809Y-66376490D01*
X111906809Y-66424109D01*
X111883000Y-66495538D01*
X111859190Y-66519347D01*
X109355700Y-65519347D02*
X109379509Y-65471728D01*
X109379509Y-65400300D01*
X109355700Y-65328871D01*
X109308080Y-65281252D01*
X109260461Y-65257442D01*
X109165223Y-65233633D01*
X109093795Y-65233633D01*
X108998557Y-65257442D01*
X108950938Y-65281252D01*
X108903319Y-65328871D01*
X108879509Y-65400300D01*
X108879509Y-65447919D01*
X108903319Y-65519347D01*
X108927128Y-65543157D01*
X109093795Y-65543157D01*
X109093795Y-65447919D01*
X108879509Y-65757442D02*
X109379509Y-65757442D01*
X108879509Y-66043157D01*
X109379509Y-66043157D01*
X108879509Y-66281252D02*
X109379509Y-66281252D01*
X109379509Y-66400300D01*
X109355700Y-66471728D01*
X109308080Y-66519347D01*
X109260461Y-66543157D01*
X109165223Y-66566966D01*
X109093795Y-66566966D01*
X108998557Y-66543157D01*
X108950938Y-66519347D01*
X108903319Y-66471728D01*
X108879509Y-66400300D01*
X108879509Y-66281252D01*
X106763309Y-65374900D02*
X106763309Y-65470138D01*
X106739500Y-65517757D01*
X106691880Y-65565376D01*
X106596642Y-65589185D01*
X106429976Y-65589185D01*
X106334738Y-65565376D01*
X106287119Y-65517757D01*
X106263309Y-65470138D01*
X106263309Y-65374900D01*
X106287119Y-65327280D01*
X106334738Y-65279661D01*
X106429976Y-65255852D01*
X106596642Y-65255852D01*
X106691880Y-65279661D01*
X106739500Y-65327280D01*
X106763309Y-65374900D01*
X106763309Y-65803471D02*
X106358547Y-65803471D01*
X106310928Y-65827280D01*
X106287119Y-65851090D01*
X106263309Y-65898709D01*
X106263309Y-65993947D01*
X106287119Y-66041566D01*
X106310928Y-66065376D01*
X106358547Y-66089185D01*
X106763309Y-66089185D01*
X106763309Y-66255852D02*
X106763309Y-66541566D01*
X106263309Y-66398709D02*
X106763309Y-66398709D01*
D17*
%TO.C,BOARD1*%
G36*
X109035877Y-80854282D02*
G01*
X109130114Y-80888939D01*
X109202573Y-80951139D01*
X109247055Y-81038038D01*
X109256376Y-81085170D01*
X109258911Y-81152239D01*
X109243635Y-81200292D01*
X109213160Y-81241203D01*
X109159355Y-81303284D01*
X109223823Y-81370264D01*
X109277720Y-81448014D01*
X109297633Y-81529014D01*
X109290788Y-81637113D01*
X109248863Y-81725700D01*
X109175519Y-81792331D01*
X109074416Y-81834560D01*
X108949215Y-81849944D01*
X108830815Y-81840761D01*
X108753013Y-81824685D01*
X108710708Y-81803099D01*
X108697068Y-81769966D01*
X108703001Y-81727841D01*
X108716122Y-81690565D01*
X108739069Y-81678621D01*
X108786453Y-81685489D01*
X108794131Y-81687191D01*
X108918476Y-81704272D01*
X109017593Y-81695385D01*
X109088425Y-81661709D01*
X109127916Y-81604422D01*
X109135333Y-81555540D01*
X109116334Y-81483923D01*
X109064079Y-81430828D01*
X108985682Y-81402032D01*
X108941978Y-81398534D01*
X108888973Y-81396058D01*
X108865877Y-81381142D01*
X108860285Y-81342550D01*
X108860166Y-81324451D01*
X108863548Y-81274758D01*
X108881767Y-81254376D01*
X108926937Y-81250370D01*
X108929540Y-81250368D01*
X109014384Y-81236227D01*
X109068456Y-81195247D01*
X109089373Y-81129588D01*
X109088866Y-81105867D01*
X109068721Y-81040473D01*
X109020935Y-81005147D01*
X108944218Y-80999360D01*
X108865545Y-81014455D01*
X108803899Y-81028900D01*
X108768776Y-81028976D01*
X108746493Y-81013564D01*
X108739036Y-81004085D01*
X108715395Y-80958850D01*
X108724429Y-80924575D01*
X108769836Y-80894440D01*
X108806867Y-80878972D01*
X108926062Y-80850012D01*
X109035877Y-80854282D01*
G37*
X109035877Y-80854282D02*
X109130114Y-80888939D01*
X109202573Y-80951139D01*
X109247055Y-81038038D01*
X109256376Y-81085170D01*
X109258911Y-81152239D01*
X109243635Y-81200292D01*
X109213160Y-81241203D01*
X109159355Y-81303284D01*
X109223823Y-81370264D01*
X109277720Y-81448014D01*
X109297633Y-81529014D01*
X109290788Y-81637113D01*
X109248863Y-81725700D01*
X109175519Y-81792331D01*
X109074416Y-81834560D01*
X108949215Y-81849944D01*
X108830815Y-81840761D01*
X108753013Y-81824685D01*
X108710708Y-81803099D01*
X108697068Y-81769966D01*
X108703001Y-81727841D01*
X108716122Y-81690565D01*
X108739069Y-81678621D01*
X108786453Y-81685489D01*
X108794131Y-81687191D01*
X108918476Y-81704272D01*
X109017593Y-81695385D01*
X109088425Y-81661709D01*
X109127916Y-81604422D01*
X109135333Y-81555540D01*
X109116334Y-81483923D01*
X109064079Y-81430828D01*
X108985682Y-81402032D01*
X108941978Y-81398534D01*
X108888973Y-81396058D01*
X108865877Y-81381142D01*
X108860285Y-81342550D01*
X108860166Y-81324451D01*
X108863548Y-81274758D01*
X108881767Y-81254376D01*
X108926937Y-81250370D01*
X108929540Y-81250368D01*
X109014384Y-81236227D01*
X109068456Y-81195247D01*
X109089373Y-81129588D01*
X109088866Y-81105867D01*
X109068721Y-81040473D01*
X109020935Y-81005147D01*
X108944218Y-80999360D01*
X108865545Y-81014455D01*
X108803899Y-81028900D01*
X108768776Y-81028976D01*
X108746493Y-81013564D01*
X108739036Y-81004085D01*
X108715395Y-80958850D01*
X108724429Y-80924575D01*
X108769836Y-80894440D01*
X108806867Y-80878972D01*
X108926062Y-80850012D01*
X109035877Y-80854282D01*
G36*
X110620878Y-80880203D02*
G01*
X110696344Y-80933720D01*
X110731781Y-80985327D01*
X110762381Y-81087038D01*
X110752846Y-81177477D01*
X110713677Y-81243896D01*
X110662189Y-81303284D01*
X110726657Y-81370264D01*
X110780553Y-81448014D01*
X110800467Y-81529014D01*
X110793621Y-81637113D01*
X110751696Y-81725700D01*
X110678352Y-81792331D01*
X110577249Y-81834560D01*
X110452048Y-81849944D01*
X110333649Y-81840761D01*
X110255847Y-81824685D01*
X110213542Y-81803099D01*
X110199901Y-81769966D01*
X110205834Y-81727841D01*
X110218956Y-81690565D01*
X110241903Y-81678621D01*
X110289286Y-81685489D01*
X110296964Y-81687191D01*
X110421309Y-81704272D01*
X110520426Y-81695385D01*
X110591258Y-81661709D01*
X110630750Y-81604422D01*
X110638166Y-81555540D01*
X110619167Y-81483923D01*
X110566913Y-81430828D01*
X110488516Y-81402032D01*
X110444812Y-81398534D01*
X110391806Y-81396058D01*
X110368711Y-81381142D01*
X110363119Y-81342550D01*
X110363000Y-81324451D01*
X110366381Y-81274758D01*
X110384600Y-81254376D01*
X110429771Y-81250370D01*
X110432373Y-81250368D01*
X110517218Y-81236227D01*
X110571289Y-81195247D01*
X110592206Y-81129588D01*
X110591699Y-81105867D01*
X110571555Y-81040473D01*
X110523768Y-81005147D01*
X110447051Y-80999360D01*
X110368379Y-81014455D01*
X110306732Y-81028900D01*
X110271610Y-81028976D01*
X110249327Y-81013564D01*
X110241870Y-81004085D01*
X110217991Y-80957995D01*
X110227973Y-80923318D01*
X110275288Y-80892765D01*
X110299928Y-80882249D01*
X110414113Y-80852425D01*
X110523949Y-80852424D01*
X110620878Y-80880203D01*
G37*
X110620878Y-80880203D02*
X110696344Y-80933720D01*
X110731781Y-80985327D01*
X110762381Y-81087038D01*
X110752846Y-81177477D01*
X110713677Y-81243896D01*
X110662189Y-81303284D01*
X110726657Y-81370264D01*
X110780553Y-81448014D01*
X110800467Y-81529014D01*
X110793621Y-81637113D01*
X110751696Y-81725700D01*
X110678352Y-81792331D01*
X110577249Y-81834560D01*
X110452048Y-81849944D01*
X110333649Y-81840761D01*
X110255847Y-81824685D01*
X110213542Y-81803099D01*
X110199901Y-81769966D01*
X110205834Y-81727841D01*
X110218956Y-81690565D01*
X110241903Y-81678621D01*
X110289286Y-81685489D01*
X110296964Y-81687191D01*
X110421309Y-81704272D01*
X110520426Y-81695385D01*
X110591258Y-81661709D01*
X110630750Y-81604422D01*
X110638166Y-81555540D01*
X110619167Y-81483923D01*
X110566913Y-81430828D01*
X110488516Y-81402032D01*
X110444812Y-81398534D01*
X110391806Y-81396058D01*
X110368711Y-81381142D01*
X110363119Y-81342550D01*
X110363000Y-81324451D01*
X110366381Y-81274758D01*
X110384600Y-81254376D01*
X110429771Y-81250370D01*
X110432373Y-81250368D01*
X110517218Y-81236227D01*
X110571289Y-81195247D01*
X110592206Y-81129588D01*
X110591699Y-81105867D01*
X110571555Y-81040473D01*
X110523768Y-81005147D01*
X110447051Y-80999360D01*
X110368379Y-81014455D01*
X110306732Y-81028900D01*
X110271610Y-81028976D01*
X110249327Y-81013564D01*
X110241870Y-81004085D01*
X110217991Y-80957995D01*
X110227973Y-80923318D01*
X110275288Y-80892765D01*
X110299928Y-80882249D01*
X110414113Y-80852425D01*
X110523949Y-80852424D01*
X110620878Y-80880203D01*
G36*
X114249973Y-80854956D02*
G01*
X114332429Y-80878871D01*
X114388318Y-80913920D01*
X114404377Y-80959171D01*
X114384609Y-81017641D01*
X114365652Y-81043282D01*
X114339740Y-81043141D01*
X114305234Y-81026963D01*
X114208008Y-80994572D01*
X114120907Y-81000958D01*
X114047252Y-81043118D01*
X113990364Y-81118045D01*
X113953564Y-81222736D01*
X113940172Y-81354185D01*
X113940166Y-81357309D01*
X113952667Y-81491086D01*
X113989353Y-81593881D01*
X114049002Y-81663832D01*
X114130389Y-81699074D01*
X114167214Y-81702993D01*
X114247083Y-81705451D01*
X114257666Y-81525534D01*
X114268250Y-81345618D01*
X114416416Y-81345618D01*
X114422426Y-81573410D01*
X114424660Y-81674059D01*
X114424079Y-81740444D01*
X114419296Y-81780609D01*
X114408926Y-81802599D01*
X114391582Y-81814459D01*
X114380093Y-81819018D01*
X114295676Y-81839729D01*
X114195595Y-81849851D01*
X114102544Y-81847673D01*
X114069766Y-81842398D01*
X113962205Y-81797423D01*
X113876966Y-81718236D01*
X113816038Y-81607756D01*
X113781414Y-81468905D01*
X113775682Y-81411141D01*
X113779500Y-81242806D01*
X113814115Y-81103237D01*
X113879455Y-80992597D01*
X113975450Y-80911046D01*
X114003030Y-80895826D01*
X114126301Y-80854940D01*
X114249973Y-80854956D01*
G37*
X114249973Y-80854956D02*
X114332429Y-80878871D01*
X114388318Y-80913920D01*
X114404377Y-80959171D01*
X114384609Y-81017641D01*
X114365652Y-81043282D01*
X114339740Y-81043141D01*
X114305234Y-81026963D01*
X114208008Y-80994572D01*
X114120907Y-81000958D01*
X114047252Y-81043118D01*
X113990364Y-81118045D01*
X113953564Y-81222736D01*
X113940172Y-81354185D01*
X113940166Y-81357309D01*
X113952667Y-81491086D01*
X113989353Y-81593881D01*
X114049002Y-81663832D01*
X114130389Y-81699074D01*
X114167214Y-81702993D01*
X114247083Y-81705451D01*
X114257666Y-81525534D01*
X114268250Y-81345618D01*
X114416416Y-81345618D01*
X114422426Y-81573410D01*
X114424660Y-81674059D01*
X114424079Y-81740444D01*
X114419296Y-81780609D01*
X114408926Y-81802599D01*
X114391582Y-81814459D01*
X114380093Y-81819018D01*
X114295676Y-81839729D01*
X114195595Y-81849851D01*
X114102544Y-81847673D01*
X114069766Y-81842398D01*
X113962205Y-81797423D01*
X113876966Y-81718236D01*
X113816038Y-81607756D01*
X113781414Y-81468905D01*
X113775682Y-81411141D01*
X113779500Y-81242806D01*
X113814115Y-81103237D01*
X113879455Y-80992597D01*
X113975450Y-80911046D01*
X114003030Y-80895826D01*
X114126301Y-80854940D01*
X114249973Y-80854956D01*
G36*
X117858375Y-80860638D02*
G01*
X117946951Y-80907144D01*
X118022425Y-80989014D01*
X118046269Y-81029602D01*
X118071330Y-81083768D01*
X118087042Y-81136374D01*
X118095503Y-81199901D01*
X118098809Y-81286829D01*
X118099186Y-81344605D01*
X118097937Y-81448437D01*
X118092528Y-81522593D01*
X118080869Y-81579676D01*
X118060865Y-81632294D01*
X118046500Y-81662017D01*
X117977293Y-81764292D01*
X117893366Y-81829109D01*
X117797606Y-81854966D01*
X117699775Y-81842524D01*
X117608619Y-81795737D01*
X117540297Y-81716787D01*
X117494209Y-81604375D01*
X117469756Y-81457199D01*
X117468738Y-81429462D01*
X117625251Y-81429462D01*
X117641785Y-81553954D01*
X117677987Y-81641242D01*
X117697983Y-81665775D01*
X117742219Y-81700576D01*
X117780481Y-81715991D01*
X117781916Y-81716034D01*
X117819315Y-81701952D01*
X117863742Y-81667854D01*
X117865849Y-81665775D01*
X117909928Y-81593328D01*
X117934326Y-81483737D01*
X117939071Y-81336847D01*
X117935472Y-81267609D01*
X117917401Y-81146037D01*
X117883021Y-81062852D01*
X117831805Y-81017158D01*
X117781916Y-81006951D01*
X117717700Y-81025061D01*
X117670717Y-81079988D01*
X117640439Y-81172628D01*
X117628360Y-81267609D01*
X117625251Y-81429462D01*
X117468738Y-81429462D01*
X117465192Y-81332962D01*
X117467196Y-81230280D01*
X117473796Y-81156774D01*
X117487269Y-81099347D01*
X117509891Y-81044906D01*
X117518108Y-81028543D01*
X117586566Y-80933448D01*
X117670931Y-80873775D01*
X117763952Y-80849510D01*
X117858375Y-80860638D01*
G37*
X117858375Y-80860638D02*
X117946951Y-80907144D01*
X118022425Y-80989014D01*
X118046269Y-81029602D01*
X118071330Y-81083768D01*
X118087042Y-81136374D01*
X118095503Y-81199901D01*
X118098809Y-81286829D01*
X118099186Y-81344605D01*
X118097937Y-81448437D01*
X118092528Y-81522593D01*
X118080869Y-81579676D01*
X118060865Y-81632294D01*
X118046500Y-81662017D01*
X117977293Y-81764292D01*
X117893366Y-81829109D01*
X117797606Y-81854966D01*
X117699775Y-81842524D01*
X117608619Y-81795737D01*
X117540297Y-81716787D01*
X117494209Y-81604375D01*
X117469756Y-81457199D01*
X117468738Y-81429462D01*
X117625251Y-81429462D01*
X117641785Y-81553954D01*
X117677987Y-81641242D01*
X117697983Y-81665775D01*
X117742219Y-81700576D01*
X117780481Y-81715991D01*
X117781916Y-81716034D01*
X117819315Y-81701952D01*
X117863742Y-81667854D01*
X117865849Y-81665775D01*
X117909928Y-81593328D01*
X117934326Y-81483737D01*
X117939071Y-81336847D01*
X117935472Y-81267609D01*
X117917401Y-81146037D01*
X117883021Y-81062852D01*
X117831805Y-81017158D01*
X117781916Y-81006951D01*
X117717700Y-81025061D01*
X117670717Y-81079988D01*
X117640439Y-81172628D01*
X117628360Y-81267609D01*
X117625251Y-81429462D01*
X117468738Y-81429462D01*
X117465192Y-81332962D01*
X117467196Y-81230280D01*
X117473796Y-81156774D01*
X117487269Y-81099347D01*
X117509891Y-81044906D01*
X117518108Y-81028543D01*
X117586566Y-80933448D01*
X117670931Y-80873775D01*
X117763952Y-80849510D01*
X117858375Y-80860638D01*
G36*
X110099958Y-80871311D02*
G01*
X110121381Y-80882674D01*
X110120667Y-80911756D01*
X110117073Y-80927576D01*
X110100239Y-80991600D01*
X110073619Y-81085457D01*
X110040226Y-81199220D01*
X110003073Y-81322959D01*
X109965174Y-81446747D01*
X109929542Y-81560656D01*
X109899191Y-81654757D01*
X109877133Y-81719122D01*
X109875421Y-81723751D01*
X109849303Y-81789853D01*
X109827507Y-81825501D01*
X109800065Y-81840091D01*
X109757013Y-81843020D01*
X109748895Y-81843034D01*
X109694264Y-81839315D01*
X109661076Y-81830087D01*
X109658014Y-81827159D01*
X109644751Y-81794487D01*
X109622198Y-81729169D01*
X109592580Y-81638503D01*
X109558119Y-81529786D01*
X109521042Y-81410313D01*
X109483571Y-81287383D01*
X109447931Y-81168292D01*
X109416346Y-81060336D01*
X109391041Y-80970812D01*
X109374240Y-80907018D01*
X109368166Y-80876280D01*
X109386948Y-80871919D01*
X109433770Y-80869525D01*
X109451406Y-80869368D01*
X109494828Y-80870520D01*
X109523244Y-80879374D01*
X109542425Y-80904030D01*
X109558137Y-80952583D01*
X109576151Y-81033131D01*
X109579580Y-81049284D01*
X109598851Y-81131962D01*
X109623797Y-81227534D01*
X109651891Y-81327642D01*
X109680606Y-81423926D01*
X109707414Y-81508029D01*
X109729789Y-81571592D01*
X109745203Y-81606257D01*
X109749166Y-81610201D01*
X109761604Y-81590762D01*
X109782002Y-81536989D01*
X109808369Y-81455694D01*
X109838716Y-81353689D01*
X109871053Y-81237787D01*
X109903390Y-81114801D01*
X109933738Y-80991544D01*
X109948530Y-80927576D01*
X109962243Y-80889714D01*
X109989660Y-80873103D01*
X110044846Y-80869368D01*
X110046306Y-80869368D01*
X110099958Y-80871311D01*
G37*
X110099958Y-80871311D02*
X110121381Y-80882674D01*
X110120667Y-80911756D01*
X110117073Y-80927576D01*
X110100239Y-80991600D01*
X110073619Y-81085457D01*
X110040226Y-81199220D01*
X110003073Y-81322959D01*
X109965174Y-81446747D01*
X109929542Y-81560656D01*
X109899191Y-81654757D01*
X109877133Y-81719122D01*
X109875421Y-81723751D01*
X109849303Y-81789853D01*
X109827507Y-81825501D01*
X109800065Y-81840091D01*
X109757013Y-81843020D01*
X109748895Y-81843034D01*
X109694264Y-81839315D01*
X109661076Y-81830087D01*
X109658014Y-81827159D01*
X109644751Y-81794487D01*
X109622198Y-81729169D01*
X109592580Y-81638503D01*
X109558119Y-81529786D01*
X109521042Y-81410313D01*
X109483571Y-81287383D01*
X109447931Y-81168292D01*
X109416346Y-81060336D01*
X109391041Y-80970812D01*
X109374240Y-80907018D01*
X109368166Y-80876280D01*
X109386948Y-80871919D01*
X109433770Y-80869525D01*
X109451406Y-80869368D01*
X109494828Y-80870520D01*
X109523244Y-80879374D01*
X109542425Y-80904030D01*
X109558137Y-80952583D01*
X109576151Y-81033131D01*
X109579580Y-81049284D01*
X109598851Y-81131962D01*
X109623797Y-81227534D01*
X109651891Y-81327642D01*
X109680606Y-81423926D01*
X109707414Y-81508029D01*
X109729789Y-81571592D01*
X109745203Y-81606257D01*
X109749166Y-81610201D01*
X109761604Y-81590762D01*
X109782002Y-81536989D01*
X109808369Y-81455694D01*
X109838716Y-81353689D01*
X109871053Y-81237787D01*
X109903390Y-81114801D01*
X109933738Y-80991544D01*
X109948530Y-80927576D01*
X109962243Y-80889714D01*
X109989660Y-80873103D01*
X110044846Y-80869368D01*
X110046306Y-80869368D01*
X110099958Y-80871311D01*
G36*
X115146666Y-81843034D02*
G01*
X115075987Y-81843034D01*
X115047506Y-81841880D01*
X115024768Y-81834435D01*
X115003531Y-81814726D01*
X114979555Y-81776779D01*
X114948597Y-81714620D01*
X114906418Y-81622275D01*
X114884383Y-81573159D01*
X114836648Y-81467768D01*
X114791414Y-81369946D01*
X114753241Y-81289418D01*
X114726687Y-81235908D01*
X114723117Y-81229201D01*
X114682774Y-81155118D01*
X114681000Y-81843034D01*
X114621027Y-81843034D01*
X114572550Y-81838501D01*
X114546944Y-81828923D01*
X114542861Y-81804542D01*
X114539241Y-81744066D01*
X114536266Y-81653731D01*
X114534116Y-81539776D01*
X114532972Y-81408438D01*
X114532833Y-81342090D01*
X114532833Y-80869368D01*
X114696067Y-80869368D01*
X114846667Y-81168708D01*
X114997266Y-81468049D01*
X115003174Y-81174000D01*
X115009083Y-80879951D01*
X115077875Y-80873318D01*
X115146666Y-80866685D01*
X115146666Y-81843034D01*
G37*
X115146666Y-81843034D02*
X115075987Y-81843034D01*
X115047506Y-81841880D01*
X115024768Y-81834435D01*
X115003531Y-81814726D01*
X114979555Y-81776779D01*
X114948597Y-81714620D01*
X114906418Y-81622275D01*
X114884383Y-81573159D01*
X114836648Y-81467768D01*
X114791414Y-81369946D01*
X114753241Y-81289418D01*
X114726687Y-81235908D01*
X114723117Y-81229201D01*
X114682774Y-81155118D01*
X114681000Y-81843034D01*
X114621027Y-81843034D01*
X114572550Y-81838501D01*
X114546944Y-81828923D01*
X114542861Y-81804542D01*
X114539241Y-81744066D01*
X114536266Y-81653731D01*
X114534116Y-81539776D01*
X114532972Y-81408438D01*
X114532833Y-81342090D01*
X114532833Y-80869368D01*
X114696067Y-80869368D01*
X114846667Y-81168708D01*
X114997266Y-81468049D01*
X115003174Y-81174000D01*
X115009083Y-80879951D01*
X115077875Y-80873318D01*
X115146666Y-80866685D01*
X115146666Y-81843034D01*
G36*
X115620478Y-80884044D02*
G01*
X115738668Y-80928528D01*
X115827600Y-81003501D01*
X115888008Y-81109645D01*
X115920623Y-81247641D01*
X115924768Y-81290580D01*
X115921600Y-81454839D01*
X115887484Y-81591964D01*
X115823570Y-81700577D01*
X115731009Y-81779303D01*
X115610953Y-81826762D01*
X115464553Y-81841579D01*
X115464166Y-81841574D01*
X115393927Y-81836559D01*
X115334354Y-81825519D01*
X115321291Y-81821208D01*
X115305405Y-81813761D01*
X115293514Y-81802226D01*
X115285040Y-81781014D01*
X115279404Y-81744534D01*
X115276479Y-81694868D01*
X115443000Y-81694868D01*
X115524812Y-81694868D01*
X115608511Y-81680163D01*
X115660863Y-81652203D01*
X115715112Y-81587936D01*
X115747340Y-81495740D01*
X115758628Y-81371678D01*
X115757021Y-81301514D01*
X115751063Y-81217272D01*
X115740750Y-81162086D01*
X115721789Y-81122678D01*
X115689885Y-81085771D01*
X115686005Y-81081892D01*
X115598021Y-81023447D01*
X115532958Y-81005108D01*
X115443000Y-80990957D01*
X115443000Y-81694868D01*
X115276479Y-81694868D01*
X115276027Y-81687196D01*
X115274331Y-81603411D01*
X115273737Y-81487589D01*
X115273666Y-81361116D01*
X115274542Y-81195546D01*
X115277280Y-81069241D01*
X115282044Y-80979169D01*
X115289001Y-80922297D01*
X115298316Y-80895592D01*
X115299066Y-80894768D01*
X115334112Y-80880920D01*
X115400479Y-80871956D01*
X115472300Y-80869368D01*
X115620478Y-80884044D01*
G37*
X115620478Y-80884044D02*
X115738668Y-80928528D01*
X115827600Y-81003501D01*
X115888008Y-81109645D01*
X115920623Y-81247641D01*
X115924768Y-81290580D01*
X115921600Y-81454839D01*
X115887484Y-81591964D01*
X115823570Y-81700577D01*
X115731009Y-81779303D01*
X115610953Y-81826762D01*
X115464553Y-81841579D01*
X115464166Y-81841574D01*
X115393927Y-81836559D01*
X115334354Y-81825519D01*
X115321291Y-81821208D01*
X115305405Y-81813761D01*
X115293514Y-81802226D01*
X115285040Y-81781014D01*
X115279404Y-81744534D01*
X115276479Y-81694868D01*
X115443000Y-81694868D01*
X115524812Y-81694868D01*
X115608511Y-81680163D01*
X115660863Y-81652203D01*
X115715112Y-81587936D01*
X115747340Y-81495740D01*
X115758628Y-81371678D01*
X115757021Y-81301514D01*
X115751063Y-81217272D01*
X115740750Y-81162086D01*
X115721789Y-81122678D01*
X115689885Y-81085771D01*
X115686005Y-81081892D01*
X115598021Y-81023447D01*
X115532958Y-81005108D01*
X115443000Y-80990957D01*
X115443000Y-81694868D01*
X115276479Y-81694868D01*
X115276027Y-81687196D01*
X115274331Y-81603411D01*
X115273737Y-81487589D01*
X115273666Y-81361116D01*
X115274542Y-81195546D01*
X115277280Y-81069241D01*
X115282044Y-80979169D01*
X115289001Y-80922297D01*
X115298316Y-80895592D01*
X115299066Y-80894768D01*
X115334112Y-80880920D01*
X115400479Y-80871956D01*
X115472300Y-80869368D01*
X115620478Y-80884044D01*
G36*
X117174961Y-81017534D02*
G01*
X117210511Y-81121217D01*
X117247549Y-81237757D01*
X117284186Y-81360167D01*
X117318537Y-81481461D01*
X117348715Y-81594649D01*
X117372833Y-81692746D01*
X117389005Y-81768763D01*
X117395342Y-81815713D01*
X117393563Y-81827104D01*
X117360217Y-81838931D01*
X117313536Y-81839397D01*
X117278173Y-81831251D01*
X117255024Y-81809938D01*
X117236706Y-81765089D01*
X117221944Y-81710743D01*
X117191139Y-81589034D01*
X116865729Y-81589034D01*
X116836147Y-81710743D01*
X116817746Y-81779205D01*
X116799905Y-81816552D01*
X116774878Y-81833177D01*
X116740602Y-81838935D01*
X116690748Y-81837557D01*
X116662168Y-81825224D01*
X116661931Y-81824857D01*
X116663278Y-81798290D01*
X116675365Y-81738757D01*
X116696127Y-81653640D01*
X116723497Y-81550325D01*
X116752270Y-81447420D01*
X116903500Y-81447420D01*
X116922169Y-81455951D01*
X116968552Y-81460663D01*
X117028206Y-81461631D01*
X117086691Y-81458931D01*
X117129565Y-81452639D01*
X117142544Y-81446159D01*
X117141026Y-81419948D01*
X117129093Y-81366391D01*
X117110151Y-81296711D01*
X117087607Y-81222130D01*
X117064869Y-81153872D01*
X117045344Y-81103160D01*
X117032440Y-81081215D01*
X117031688Y-81081034D01*
X117020748Y-81099417D01*
X117000989Y-81147294D01*
X116976227Y-81213753D01*
X116950280Y-81287884D01*
X116926965Y-81358778D01*
X116910100Y-81415523D01*
X116903501Y-81447210D01*
X116903500Y-81447420D01*
X116752270Y-81447420D01*
X116755410Y-81436193D01*
X116789800Y-81318630D01*
X116824601Y-81205018D01*
X116857748Y-81102741D01*
X116887175Y-81019183D01*
X116887794Y-81017534D01*
X116939522Y-80879951D01*
X117125424Y-80879951D01*
X117174961Y-81017534D01*
G37*
X117174961Y-81017534D02*
X117210511Y-81121217D01*
X117247549Y-81237757D01*
X117284186Y-81360167D01*
X117318537Y-81481461D01*
X117348715Y-81594649D01*
X117372833Y-81692746D01*
X117389005Y-81768763D01*
X117395342Y-81815713D01*
X117393563Y-81827104D01*
X117360217Y-81838931D01*
X117313536Y-81839397D01*
X117278173Y-81831251D01*
X117255024Y-81809938D01*
X117236706Y-81765089D01*
X117221944Y-81710743D01*
X117191139Y-81589034D01*
X116865729Y-81589034D01*
X116836147Y-81710743D01*
X116817746Y-81779205D01*
X116799905Y-81816552D01*
X116774878Y-81833177D01*
X116740602Y-81838935D01*
X116690748Y-81837557D01*
X116662168Y-81825224D01*
X116661931Y-81824857D01*
X116663278Y-81798290D01*
X116675365Y-81738757D01*
X116696127Y-81653640D01*
X116723497Y-81550325D01*
X116752270Y-81447420D01*
X116903500Y-81447420D01*
X116922169Y-81455951D01*
X116968552Y-81460663D01*
X117028206Y-81461631D01*
X117086691Y-81458931D01*
X117129565Y-81452639D01*
X117142544Y-81446159D01*
X117141026Y-81419948D01*
X117129093Y-81366391D01*
X117110151Y-81296711D01*
X117087607Y-81222130D01*
X117064869Y-81153872D01*
X117045344Y-81103160D01*
X117032440Y-81081215D01*
X117031688Y-81081034D01*
X117020748Y-81099417D01*
X117000989Y-81147294D01*
X116976227Y-81213753D01*
X116950280Y-81287884D01*
X116926965Y-81358778D01*
X116910100Y-81415523D01*
X116903501Y-81447210D01*
X116903500Y-81447420D01*
X116752270Y-81447420D01*
X116755410Y-81436193D01*
X116789800Y-81318630D01*
X116824601Y-81205018D01*
X116857748Y-81102741D01*
X116887175Y-81019183D01*
X116887794Y-81017534D01*
X116939522Y-80879951D01*
X117125424Y-80879951D01*
X117174961Y-81017534D01*
G36*
X145047176Y-80909388D02*
G01*
X145141794Y-80972173D01*
X145209992Y-81065556D01*
X145234735Y-81128798D01*
X145263376Y-81275776D01*
X145262690Y-81416312D01*
X145234533Y-81543542D01*
X145180763Y-81650598D01*
X145103236Y-81730613D01*
X145065750Y-81753633D01*
X145000973Y-81774258D01*
X144913281Y-81786690D01*
X144821605Y-81789129D01*
X144758833Y-81782811D01*
X144684750Y-81768951D01*
X144684750Y-81336283D01*
X144822333Y-81336283D01*
X144822333Y-81652534D01*
X144904655Y-81652534D01*
X144975259Y-81642278D01*
X145030738Y-81616487D01*
X145031972Y-81615493D01*
X145072023Y-81559532D01*
X145099862Y-81474525D01*
X145113355Y-81372537D01*
X145110373Y-81265638D01*
X145102488Y-81216240D01*
X145084643Y-81145663D01*
X145065114Y-81089894D01*
X145053319Y-81068226D01*
X145017532Y-81043891D01*
X144961028Y-81021723D01*
X144900926Y-81006683D01*
X144854348Y-81003737D01*
X144843011Y-81007253D01*
X144835281Y-81032475D01*
X144829008Y-81093527D01*
X144824601Y-81183917D01*
X144822469Y-81297154D01*
X144822333Y-81336283D01*
X144684750Y-81336283D01*
X144684750Y-80901515D01*
X144794011Y-80884124D01*
X144929971Y-80879329D01*
X145047176Y-80909388D01*
G37*
X145047176Y-80909388D02*
X145141794Y-80972173D01*
X145209992Y-81065556D01*
X145234735Y-81128798D01*
X145263376Y-81275776D01*
X145262690Y-81416312D01*
X145234533Y-81543542D01*
X145180763Y-81650598D01*
X145103236Y-81730613D01*
X145065750Y-81753633D01*
X145000973Y-81774258D01*
X144913281Y-81786690D01*
X144821605Y-81789129D01*
X144758833Y-81782811D01*
X144684750Y-81768951D01*
X144684750Y-81336283D01*
X144822333Y-81336283D01*
X144822333Y-81652534D01*
X144904655Y-81652534D01*
X144975259Y-81642278D01*
X145030738Y-81616487D01*
X145031972Y-81615493D01*
X145072023Y-81559532D01*
X145099862Y-81474525D01*
X145113355Y-81372537D01*
X145110373Y-81265638D01*
X145102488Y-81216240D01*
X145084643Y-81145663D01*
X145065114Y-81089894D01*
X145053319Y-81068226D01*
X145017532Y-81043891D01*
X144961028Y-81021723D01*
X144900926Y-81006683D01*
X144854348Y-81003737D01*
X144843011Y-81007253D01*
X144835281Y-81032475D01*
X144829008Y-81093527D01*
X144824601Y-81183917D01*
X144822469Y-81297154D01*
X144822333Y-81336283D01*
X144684750Y-81336283D01*
X144684750Y-80901515D01*
X144794011Y-80884124D01*
X144929971Y-80879329D01*
X145047176Y-80909388D01*
G36*
X145764285Y-80876186D02*
G01*
X145853742Y-80914558D01*
X145929376Y-80985455D01*
X145970211Y-81055140D01*
X145995688Y-81127222D01*
X146009651Y-81208984D01*
X146014464Y-81315350D01*
X146014543Y-81335034D01*
X146003257Y-81494843D01*
X145969082Y-81620001D01*
X145911544Y-81711773D01*
X145855648Y-81757724D01*
X145757245Y-81794730D01*
X145651867Y-81795851D01*
X145553514Y-81761304D01*
X145539838Y-81752797D01*
X145471266Y-81693748D01*
X145424294Y-81618700D01*
X145396201Y-81520389D01*
X145384269Y-81391550D01*
X145383404Y-81335034D01*
X145384077Y-81302040D01*
X145525305Y-81302040D01*
X145527037Y-81407001D01*
X145543131Y-81505461D01*
X145574230Y-81587951D01*
X145606616Y-81632484D01*
X145669999Y-81669055D01*
X145742906Y-81666011D01*
X145774529Y-81652697D01*
X145815947Y-81607635D01*
X145844957Y-81525579D01*
X145860544Y-81410304D01*
X145863021Y-81324131D01*
X145852948Y-81190206D01*
X145824571Y-81090332D01*
X145778887Y-81025987D01*
X145716891Y-80998649D01*
X145649128Y-81006540D01*
X145599846Y-81042826D01*
X145562352Y-81110484D01*
X145537291Y-81200044D01*
X145525305Y-81302040D01*
X145384077Y-81302040D01*
X145385609Y-81226949D01*
X145393405Y-81149032D01*
X145408568Y-81089290D01*
X145425660Y-81049563D01*
X145491691Y-80957028D01*
X145575386Y-80897340D01*
X145668875Y-80870420D01*
X145764285Y-80876186D01*
G37*
X145764285Y-80876186D02*
X145853742Y-80914558D01*
X145929376Y-80985455D01*
X145970211Y-81055140D01*
X145995688Y-81127222D01*
X146009651Y-81208984D01*
X146014464Y-81315350D01*
X146014543Y-81335034D01*
X146003257Y-81494843D01*
X145969082Y-81620001D01*
X145911544Y-81711773D01*
X145855648Y-81757724D01*
X145757245Y-81794730D01*
X145651867Y-81795851D01*
X145553514Y-81761304D01*
X145539838Y-81752797D01*
X145471266Y-81693748D01*
X145424294Y-81618700D01*
X145396201Y-81520389D01*
X145384269Y-81391550D01*
X145383404Y-81335034D01*
X145384077Y-81302040D01*
X145525305Y-81302040D01*
X145527037Y-81407001D01*
X145543131Y-81505461D01*
X145574230Y-81587951D01*
X145606616Y-81632484D01*
X145669999Y-81669055D01*
X145742906Y-81666011D01*
X145774529Y-81652697D01*
X145815947Y-81607635D01*
X145844957Y-81525579D01*
X145860544Y-81410304D01*
X145863021Y-81324131D01*
X145852948Y-81190206D01*
X145824571Y-81090332D01*
X145778887Y-81025987D01*
X145716891Y-80998649D01*
X145649128Y-81006540D01*
X145599846Y-81042826D01*
X145562352Y-81110484D01*
X145537291Y-81200044D01*
X145525305Y-81302040D01*
X145384077Y-81302040D01*
X145385609Y-81226949D01*
X145393405Y-81149032D01*
X145408568Y-81089290D01*
X145425660Y-81049563D01*
X145491691Y-80957028D01*
X145575386Y-80897340D01*
X145668875Y-80870420D01*
X145764285Y-80876186D01*
G36*
X144314333Y-81650514D02*
G01*
X144446625Y-81656816D01*
X144519007Y-81661398D01*
X144559342Y-81669574D01*
X144577900Y-81686111D01*
X144584951Y-81715775D01*
X144585614Y-81721326D01*
X144592311Y-81779534D01*
X144166166Y-81779534D01*
X144166166Y-80890534D01*
X144314333Y-80890534D01*
X144314333Y-81650514D01*
G37*
X144314333Y-81650514D02*
X144446625Y-81656816D01*
X144519007Y-81661398D01*
X144559342Y-81669574D01*
X144577900Y-81686111D01*
X144584951Y-81715775D01*
X144585614Y-81721326D01*
X144592311Y-81779534D01*
X144166166Y-81779534D01*
X144166166Y-80890534D01*
X144314333Y-80890534D01*
X144314333Y-81650514D01*
G36*
X146359665Y-80869757D02*
G01*
X146438455Y-80902422D01*
X146497630Y-80964184D01*
X146529258Y-81051556D01*
X146530664Y-81062129D01*
X146531931Y-81124747D01*
X146519017Y-81188920D01*
X146488688Y-81262851D01*
X146437706Y-81354740D01*
X146377493Y-81450362D01*
X146337198Y-81516605D01*
X146306033Y-81575563D01*
X146293974Y-81604909D01*
X146288854Y-81630373D01*
X146298060Y-81644631D01*
X146330103Y-81650925D01*
X146393494Y-81652498D01*
X146418990Y-81652534D01*
X146558000Y-81652534D01*
X146558000Y-81779534D01*
X146134666Y-81779534D01*
X146134666Y-81716261D01*
X146148614Y-81627981D01*
X146187329Y-81520759D01*
X146246121Y-81406054D01*
X146289699Y-81337509D01*
X146345311Y-81250159D01*
X146376414Y-81181326D01*
X146387396Y-81118593D01*
X146385027Y-81067717D01*
X146362670Y-81017849D01*
X146315359Y-80997166D01*
X146250910Y-81008055D01*
X146226511Y-81019357D01*
X146185935Y-81034667D01*
X146158179Y-81020535D01*
X146145676Y-81005368D01*
X146120372Y-80967485D01*
X146122079Y-80943054D01*
X146155044Y-80917623D01*
X146174974Y-80905681D01*
X146269193Y-80869681D01*
X146359665Y-80869757D01*
G37*
X146359665Y-80869757D02*
X146438455Y-80902422D01*
X146497630Y-80964184D01*
X146529258Y-81051556D01*
X146530664Y-81062129D01*
X146531931Y-81124747D01*
X146519017Y-81188920D01*
X146488688Y-81262851D01*
X146437706Y-81354740D01*
X146377493Y-81450362D01*
X146337198Y-81516605D01*
X146306033Y-81575563D01*
X146293974Y-81604909D01*
X146288854Y-81630373D01*
X146298060Y-81644631D01*
X146330103Y-81650925D01*
X146393494Y-81652498D01*
X146418990Y-81652534D01*
X146558000Y-81652534D01*
X146558000Y-81779534D01*
X146134666Y-81779534D01*
X146134666Y-81716261D01*
X146148614Y-81627981D01*
X146187329Y-81520759D01*
X146246121Y-81406054D01*
X146289699Y-81337509D01*
X146345311Y-81250159D01*
X146376414Y-81181326D01*
X146387396Y-81118593D01*
X146385027Y-81067717D01*
X146362670Y-81017849D01*
X146315359Y-80997166D01*
X146250910Y-81008055D01*
X146226511Y-81019357D01*
X146185935Y-81034667D01*
X146158179Y-81020535D01*
X146145676Y-81005368D01*
X146120372Y-80967485D01*
X146122079Y-80943054D01*
X146155044Y-80917623D01*
X146174974Y-80905681D01*
X146269193Y-80869681D01*
X146359665Y-80869757D01*
G36*
X117699944Y-63966080D02*
G01*
X117789525Y-63993752D01*
X117854350Y-64043936D01*
X117874233Y-64075634D01*
X117884253Y-64118406D01*
X117892230Y-64192060D01*
X117897185Y-64285158D01*
X117898333Y-64357486D01*
X117898333Y-64586447D01*
X117800129Y-64599907D01*
X117699639Y-64610854D01*
X117626372Y-64610381D01*
X117566480Y-64597330D01*
X117517357Y-64576293D01*
X117441949Y-64520399D01*
X117404464Y-64448878D01*
X117405690Y-64400965D01*
X117541939Y-64400965D01*
X117546724Y-64446693D01*
X117580727Y-64473774D01*
X117648841Y-64485195D01*
X117681375Y-64486043D01*
X117737769Y-64484373D01*
X117763685Y-64472374D01*
X117770972Y-64440386D01*
X117771333Y-64412687D01*
X117765641Y-64359905D01*
X117742752Y-64334052D01*
X117719324Y-64325954D01*
X117649817Y-64322302D01*
X117588535Y-64342230D01*
X117548990Y-64380026D01*
X117541939Y-64400965D01*
X117405690Y-64400965D01*
X117406602Y-64365346D01*
X117411059Y-64350119D01*
X117455247Y-64280803D01*
X117532137Y-64234139D01*
X117637284Y-64212474D01*
X117673990Y-64211201D01*
X117742570Y-64203917D01*
X117771539Y-64181889D01*
X117761066Y-64144851D01*
X117735528Y-64114920D01*
X117701999Y-64093320D01*
X117651983Y-64086562D01*
X117589376Y-64090504D01*
X117524145Y-64095449D01*
X117489107Y-64090731D01*
X117472608Y-64073097D01*
X117467124Y-64056370D01*
X117463128Y-64016362D01*
X117481460Y-63990785D01*
X117529221Y-63974547D01*
X117595031Y-63964664D01*
X117699944Y-63966080D01*
G37*
X117699944Y-63966080D02*
X117789525Y-63993752D01*
X117854350Y-64043936D01*
X117874233Y-64075634D01*
X117884253Y-64118406D01*
X117892230Y-64192060D01*
X117897185Y-64285158D01*
X117898333Y-64357486D01*
X117898333Y-64586447D01*
X117800129Y-64599907D01*
X117699639Y-64610854D01*
X117626372Y-64610381D01*
X117566480Y-64597330D01*
X117517357Y-64576293D01*
X117441949Y-64520399D01*
X117404464Y-64448878D01*
X117405690Y-64400965D01*
X117541939Y-64400965D01*
X117546724Y-64446693D01*
X117580727Y-64473774D01*
X117648841Y-64485195D01*
X117681375Y-64486043D01*
X117737769Y-64484373D01*
X117763685Y-64472374D01*
X117770972Y-64440386D01*
X117771333Y-64412687D01*
X117765641Y-64359905D01*
X117742752Y-64334052D01*
X117719324Y-64325954D01*
X117649817Y-64322302D01*
X117588535Y-64342230D01*
X117548990Y-64380026D01*
X117541939Y-64400965D01*
X117405690Y-64400965D01*
X117406602Y-64365346D01*
X117411059Y-64350119D01*
X117455247Y-64280803D01*
X117532137Y-64234139D01*
X117637284Y-64212474D01*
X117673990Y-64211201D01*
X117742570Y-64203917D01*
X117771539Y-64181889D01*
X117761066Y-64144851D01*
X117735528Y-64114920D01*
X117701999Y-64093320D01*
X117651983Y-64086562D01*
X117589376Y-64090504D01*
X117524145Y-64095449D01*
X117489107Y-64090731D01*
X117472608Y-64073097D01*
X117467124Y-64056370D01*
X117463128Y-64016362D01*
X117481460Y-63990785D01*
X117529221Y-63974547D01*
X117595031Y-63964664D01*
X117699944Y-63966080D01*
G36*
X118290780Y-63812898D02*
G01*
X118299600Y-63855943D01*
X118300500Y-63897229D01*
X118300500Y-63978368D01*
X118427500Y-63978368D01*
X118497885Y-63979488D01*
X118535885Y-63985610D01*
X118551443Y-64000877D01*
X118554497Y-64029429D01*
X118554500Y-64031284D01*
X118551810Y-64060611D01*
X118537116Y-64076445D01*
X118500477Y-64082927D01*
X118431951Y-64084200D01*
X118427500Y-64084201D01*
X118300500Y-64084201D01*
X118300500Y-64261526D01*
X118303196Y-64364547D01*
X118314329Y-64431612D01*
X118338462Y-64468920D01*
X118380158Y-64482672D01*
X118443982Y-64479066D01*
X118459057Y-64476919D01*
X118517406Y-64469676D01*
X118545268Y-64474316D01*
X118553887Y-64495602D01*
X118554500Y-64517344D01*
X118536151Y-64566300D01*
X118487218Y-64598609D01*
X118416874Y-64612177D01*
X118334288Y-64604908D01*
X118266626Y-64583143D01*
X118228390Y-64563307D01*
X118201818Y-64537634D01*
X118184035Y-64498077D01*
X118172170Y-64436589D01*
X118163348Y-64345123D01*
X118158902Y-64281412D01*
X118152281Y-64189297D01*
X118145433Y-64131485D01*
X118135825Y-64100010D01*
X118120927Y-64086906D01*
X118098206Y-64084206D01*
X118096224Y-64084201D01*
X118058137Y-64074634D01*
X118046613Y-64038229D01*
X118046500Y-64031284D01*
X118055333Y-63990911D01*
X118089657Y-63978549D01*
X118098138Y-63978368D01*
X118133237Y-63972092D01*
X118150026Y-63945253D01*
X118156347Y-63900393D01*
X118166763Y-63845213D01*
X118192291Y-63817313D01*
X118219785Y-63807332D01*
X118266574Y-63799366D01*
X118290780Y-63812898D01*
G37*
X118290780Y-63812898D02*
X118299600Y-63855943D01*
X118300500Y-63897229D01*
X118300500Y-63978368D01*
X118427500Y-63978368D01*
X118497885Y-63979488D01*
X118535885Y-63985610D01*
X118551443Y-64000877D01*
X118554497Y-64029429D01*
X118554500Y-64031284D01*
X118551810Y-64060611D01*
X118537116Y-64076445D01*
X118500477Y-64082927D01*
X118431951Y-64084200D01*
X118427500Y-64084201D01*
X118300500Y-64084201D01*
X118300500Y-64261526D01*
X118303196Y-64364547D01*
X118314329Y-64431612D01*
X118338462Y-64468920D01*
X118380158Y-64482672D01*
X118443982Y-64479066D01*
X118459057Y-64476919D01*
X118517406Y-64469676D01*
X118545268Y-64474316D01*
X118553887Y-64495602D01*
X118554500Y-64517344D01*
X118536151Y-64566300D01*
X118487218Y-64598609D01*
X118416874Y-64612177D01*
X118334288Y-64604908D01*
X118266626Y-64583143D01*
X118228390Y-64563307D01*
X118201818Y-64537634D01*
X118184035Y-64498077D01*
X118172170Y-64436589D01*
X118163348Y-64345123D01*
X118158902Y-64281412D01*
X118152281Y-64189297D01*
X118145433Y-64131485D01*
X118135825Y-64100010D01*
X118120927Y-64086906D01*
X118098206Y-64084206D01*
X118096224Y-64084201D01*
X118058137Y-64074634D01*
X118046613Y-64038229D01*
X118046500Y-64031284D01*
X118055333Y-63990911D01*
X118089657Y-63978549D01*
X118098138Y-63978368D01*
X118133237Y-63972092D01*
X118150026Y-63945253D01*
X118156347Y-63900393D01*
X118166763Y-63845213D01*
X118192291Y-63817313D01*
X118219785Y-63807332D01*
X118266574Y-63799366D01*
X118290780Y-63812898D01*
G36*
X140015698Y-63772781D02*
G01*
X140067447Y-63796635D01*
X140103794Y-63828573D01*
X140151598Y-63902232D01*
X140167263Y-63987005D01*
X140149662Y-64069079D01*
X140126476Y-64106742D01*
X140101978Y-64141013D01*
X140103712Y-64164894D01*
X140134562Y-64195784D01*
X140142351Y-64202504D01*
X140177230Y-64240684D01*
X140193524Y-64287121D01*
X140197416Y-64355313D01*
X140179947Y-64456624D01*
X140129735Y-64533856D01*
X140050071Y-64585146D01*
X139944245Y-64608634D01*
X139815548Y-64602458D01*
X139774083Y-64594780D01*
X139728394Y-64577895D01*
X139711940Y-64544331D01*
X139710583Y-64517910D01*
X139716986Y-64472568D01*
X139738463Y-64462018D01*
X139742333Y-64462840D01*
X139781118Y-64469516D01*
X139844126Y-64477264D01*
X139881391Y-64481020D01*
X139971505Y-64478959D01*
X140028998Y-64451668D01*
X140056503Y-64397351D01*
X140059833Y-64359368D01*
X140045026Y-64292938D01*
X139998137Y-64248444D01*
X139915459Y-64222437D01*
X139912086Y-64221855D01*
X139856582Y-64208474D01*
X139832028Y-64187771D01*
X139827000Y-64156424D01*
X139834228Y-64119839D01*
X139864325Y-64106496D01*
X139890500Y-64105368D01*
X139954949Y-64090843D01*
X140004386Y-64053986D01*
X140032621Y-64004873D01*
X140033464Y-63953579D01*
X140007314Y-63915198D01*
X139965337Y-63900924D01*
X139900520Y-63898711D01*
X139830418Y-63907960D01*
X139783145Y-63922843D01*
X139750942Y-63920536D01*
X139724904Y-63882869D01*
X139711831Y-63845621D01*
X139722304Y-63822916D01*
X139763909Y-63801371D01*
X139773371Y-63797384D01*
X139842554Y-63777858D01*
X139923635Y-63767307D01*
X139944365Y-63766701D01*
X140015698Y-63772781D01*
G37*
X140015698Y-63772781D02*
X140067447Y-63796635D01*
X140103794Y-63828573D01*
X140151598Y-63902232D01*
X140167263Y-63987005D01*
X140149662Y-64069079D01*
X140126476Y-64106742D01*
X140101978Y-64141013D01*
X140103712Y-64164894D01*
X140134562Y-64195784D01*
X140142351Y-64202504D01*
X140177230Y-64240684D01*
X140193524Y-64287121D01*
X140197416Y-64355313D01*
X140179947Y-64456624D01*
X140129735Y-64533856D01*
X140050071Y-64585146D01*
X139944245Y-64608634D01*
X139815548Y-64602458D01*
X139774083Y-64594780D01*
X139728394Y-64577895D01*
X139711940Y-64544331D01*
X139710583Y-64517910D01*
X139716986Y-64472568D01*
X139738463Y-64462018D01*
X139742333Y-64462840D01*
X139781118Y-64469516D01*
X139844126Y-64477264D01*
X139881391Y-64481020D01*
X139971505Y-64478959D01*
X140028998Y-64451668D01*
X140056503Y-64397351D01*
X140059833Y-64359368D01*
X140045026Y-64292938D01*
X139998137Y-64248444D01*
X139915459Y-64222437D01*
X139912086Y-64221855D01*
X139856582Y-64208474D01*
X139832028Y-64187771D01*
X139827000Y-64156424D01*
X139834228Y-64119839D01*
X139864325Y-64106496D01*
X139890500Y-64105368D01*
X139954949Y-64090843D01*
X140004386Y-64053986D01*
X140032621Y-64004873D01*
X140033464Y-63953579D01*
X140007314Y-63915198D01*
X139965337Y-63900924D01*
X139900520Y-63898711D01*
X139830418Y-63907960D01*
X139783145Y-63922843D01*
X139750942Y-63920536D01*
X139724904Y-63882869D01*
X139711831Y-63845621D01*
X139722304Y-63822916D01*
X139763909Y-63801371D01*
X139773371Y-63797384D01*
X139842554Y-63777858D01*
X139923635Y-63767307D01*
X139944365Y-63766701D01*
X140015698Y-63772781D01*
G36*
X140650698Y-63772781D02*
G01*
X140702447Y-63796635D01*
X140738794Y-63828573D01*
X140786598Y-63902232D01*
X140802263Y-63987005D01*
X140784662Y-64069079D01*
X140761476Y-64106742D01*
X140736978Y-64141013D01*
X140738712Y-64164894D01*
X140769562Y-64195784D01*
X140777351Y-64202504D01*
X140812230Y-64240684D01*
X140828524Y-64287121D01*
X140832416Y-64355313D01*
X140819161Y-64452664D01*
X140775922Y-64523809D01*
X140697488Y-64576565D01*
X140679638Y-64584539D01*
X140587861Y-64606930D01*
X140480728Y-64608599D01*
X140398500Y-64594428D01*
X140358752Y-64572642D01*
X140345844Y-64528821D01*
X140345583Y-64517163D01*
X140352120Y-64472209D01*
X140373977Y-64462105D01*
X140377333Y-64462840D01*
X140416118Y-64469516D01*
X140479126Y-64477264D01*
X140516391Y-64481020D01*
X140606505Y-64478959D01*
X140663998Y-64451668D01*
X140691503Y-64397351D01*
X140694833Y-64359368D01*
X140680026Y-64292938D01*
X140633137Y-64248444D01*
X140550459Y-64222437D01*
X140547086Y-64221855D01*
X140491582Y-64208474D01*
X140467028Y-64187771D01*
X140462000Y-64156424D01*
X140469228Y-64119839D01*
X140499325Y-64106496D01*
X140525500Y-64105368D01*
X140584246Y-64091377D01*
X140637196Y-64056833D01*
X140669658Y-64012878D01*
X140673666Y-63992996D01*
X140656076Y-63935920D01*
X140607091Y-63903146D01*
X140534484Y-63898283D01*
X140471899Y-63908303D01*
X140423975Y-63920544D01*
X140418145Y-63922843D01*
X140385942Y-63920536D01*
X140359904Y-63882869D01*
X140346831Y-63845621D01*
X140357304Y-63822916D01*
X140398909Y-63801371D01*
X140408371Y-63797384D01*
X140477554Y-63777858D01*
X140558635Y-63767307D01*
X140579365Y-63766701D01*
X140650698Y-63772781D01*
G37*
X140650698Y-63772781D02*
X140702447Y-63796635D01*
X140738794Y-63828573D01*
X140786598Y-63902232D01*
X140802263Y-63987005D01*
X140784662Y-64069079D01*
X140761476Y-64106742D01*
X140736978Y-64141013D01*
X140738712Y-64164894D01*
X140769562Y-64195784D01*
X140777351Y-64202504D01*
X140812230Y-64240684D01*
X140828524Y-64287121D01*
X140832416Y-64355313D01*
X140819161Y-64452664D01*
X140775922Y-64523809D01*
X140697488Y-64576565D01*
X140679638Y-64584539D01*
X140587861Y-64606930D01*
X140480728Y-64608599D01*
X140398500Y-64594428D01*
X140358752Y-64572642D01*
X140345844Y-64528821D01*
X140345583Y-64517163D01*
X140352120Y-64472209D01*
X140373977Y-64462105D01*
X140377333Y-64462840D01*
X140416118Y-64469516D01*
X140479126Y-64477264D01*
X140516391Y-64481020D01*
X140606505Y-64478959D01*
X140663998Y-64451668D01*
X140691503Y-64397351D01*
X140694833Y-64359368D01*
X140680026Y-64292938D01*
X140633137Y-64248444D01*
X140550459Y-64222437D01*
X140547086Y-64221855D01*
X140491582Y-64208474D01*
X140467028Y-64187771D01*
X140462000Y-64156424D01*
X140469228Y-64119839D01*
X140499325Y-64106496D01*
X140525500Y-64105368D01*
X140584246Y-64091377D01*
X140637196Y-64056833D01*
X140669658Y-64012878D01*
X140673666Y-63992996D01*
X140656076Y-63935920D01*
X140607091Y-63903146D01*
X140534484Y-63898283D01*
X140471899Y-63908303D01*
X140423975Y-63920544D01*
X140418145Y-63922843D01*
X140385942Y-63920536D01*
X140359904Y-63882869D01*
X140346831Y-63845621D01*
X140357304Y-63822916D01*
X140398909Y-63801371D01*
X140408371Y-63797384D01*
X140477554Y-63777858D01*
X140558635Y-63767307D01*
X140579365Y-63766701D01*
X140650698Y-63772781D01*
G36*
X116659083Y-63973076D02*
G01*
X116628410Y-64079527D01*
X116590294Y-64204624D01*
X116551283Y-64327059D01*
X116537085Y-64369951D01*
X116466040Y-64581618D01*
X116388399Y-64588189D01*
X116334590Y-64588348D01*
X116305650Y-64570868D01*
X116288135Y-64535272D01*
X116270661Y-64484729D01*
X116246014Y-64407418D01*
X116216639Y-64311690D01*
X116184982Y-64205894D01*
X116153486Y-64098381D01*
X116124596Y-63997499D01*
X116100758Y-63911598D01*
X116084416Y-63849029D01*
X116078015Y-63818140D01*
X116078000Y-63817582D01*
X116097507Y-63794758D01*
X116149313Y-63787868D01*
X116197620Y-63792092D01*
X116220831Y-63813236D01*
X116232902Y-63863509D01*
X116243421Y-63913917D01*
X116262715Y-63993673D01*
X116287943Y-64091416D01*
X116313570Y-64186081D01*
X116342405Y-64289068D01*
X116362715Y-64356179D01*
X116377072Y-64392395D01*
X116388043Y-64402694D01*
X116398199Y-64392055D01*
X116408333Y-64369731D01*
X116423881Y-64324973D01*
X116446820Y-64249640D01*
X116474082Y-64154178D01*
X116502598Y-64049033D01*
X116503093Y-64047159D01*
X116571484Y-63787868D01*
X116710037Y-63787868D01*
X116659083Y-63973076D01*
G37*
X116659083Y-63973076D02*
X116628410Y-64079527D01*
X116590294Y-64204624D01*
X116551283Y-64327059D01*
X116537085Y-64369951D01*
X116466040Y-64581618D01*
X116388399Y-64588189D01*
X116334590Y-64588348D01*
X116305650Y-64570868D01*
X116288135Y-64535272D01*
X116270661Y-64484729D01*
X116246014Y-64407418D01*
X116216639Y-64311690D01*
X116184982Y-64205894D01*
X116153486Y-64098381D01*
X116124596Y-63997499D01*
X116100758Y-63911598D01*
X116084416Y-63849029D01*
X116078015Y-63818140D01*
X116078000Y-63817582D01*
X116097507Y-63794758D01*
X116149313Y-63787868D01*
X116197620Y-63792092D01*
X116220831Y-63813236D01*
X116232902Y-63863509D01*
X116243421Y-63913917D01*
X116262715Y-63993673D01*
X116287943Y-64091416D01*
X116313570Y-64186081D01*
X116342405Y-64289068D01*
X116362715Y-64356179D01*
X116377072Y-64392395D01*
X116388043Y-64402694D01*
X116398199Y-64392055D01*
X116408333Y-64369731D01*
X116423881Y-64324973D01*
X116446820Y-64249640D01*
X116474082Y-64154178D01*
X116502598Y-64049033D01*
X116503093Y-64047159D01*
X116571484Y-63787868D01*
X116710037Y-63787868D01*
X116659083Y-63973076D01*
G36*
X117062937Y-63783042D02*
G01*
X117148793Y-63808781D01*
X117171486Y-63820902D01*
X117208894Y-63860307D01*
X117239596Y-63918139D01*
X117242111Y-63925283D01*
X117255356Y-63980630D01*
X117249183Y-64027653D01*
X117224352Y-64082520D01*
X117181704Y-64164342D01*
X117233102Y-64212628D01*
X117275742Y-64279009D01*
X117287539Y-64359422D01*
X117270820Y-64441599D01*
X117227916Y-64513274D01*
X117167243Y-64559431D01*
X117118098Y-64573755D01*
X117045867Y-64584574D01*
X116962940Y-64591306D01*
X116881705Y-64593370D01*
X116814554Y-64590185D01*
X116773876Y-64581171D01*
X116769444Y-64578090D01*
X116764945Y-64553371D01*
X116761038Y-64493287D01*
X116757971Y-64404803D01*
X116755988Y-64294887D01*
X116755637Y-64232368D01*
X116882333Y-64232368D01*
X116882333Y-64345256D01*
X116885104Y-64411601D01*
X116892210Y-64459772D01*
X116898208Y-64474281D01*
X116933169Y-64485066D01*
X116990647Y-64482440D01*
X117054156Y-64469446D01*
X117107207Y-64449125D01*
X117129754Y-64431554D01*
X117157561Y-64367149D01*
X117147485Y-64309592D01*
X117103958Y-64264511D01*
X117031413Y-64237534D01*
X116972873Y-64232368D01*
X116882333Y-64232368D01*
X116755637Y-64232368D01*
X116755333Y-64178326D01*
X116755333Y-63893701D01*
X116882333Y-63893701D01*
X116882333Y-64105368D01*
X116957808Y-64105368D01*
X117021280Y-64099276D01*
X117072171Y-64084508D01*
X117074224Y-64083456D01*
X117108157Y-64042539D01*
X117115166Y-63999534D01*
X117099919Y-63941397D01*
X117052546Y-63906720D01*
X116970595Y-63893857D01*
X116957808Y-63893701D01*
X116882333Y-63893701D01*
X116755333Y-63893701D01*
X116755333Y-63792674D01*
X116852350Y-63778126D01*
X116958641Y-63772089D01*
X117062937Y-63783042D01*
G37*
X117062937Y-63783042D02*
X117148793Y-63808781D01*
X117171486Y-63820902D01*
X117208894Y-63860307D01*
X117239596Y-63918139D01*
X117242111Y-63925283D01*
X117255356Y-63980630D01*
X117249183Y-64027653D01*
X117224352Y-64082520D01*
X117181704Y-64164342D01*
X117233102Y-64212628D01*
X117275742Y-64279009D01*
X117287539Y-64359422D01*
X117270820Y-64441599D01*
X117227916Y-64513274D01*
X117167243Y-64559431D01*
X117118098Y-64573755D01*
X117045867Y-64584574D01*
X116962940Y-64591306D01*
X116881705Y-64593370D01*
X116814554Y-64590185D01*
X116773876Y-64581171D01*
X116769444Y-64578090D01*
X116764945Y-64553371D01*
X116761038Y-64493287D01*
X116757971Y-64404803D01*
X116755988Y-64294887D01*
X116755637Y-64232368D01*
X116882333Y-64232368D01*
X116882333Y-64345256D01*
X116885104Y-64411601D01*
X116892210Y-64459772D01*
X116898208Y-64474281D01*
X116933169Y-64485066D01*
X116990647Y-64482440D01*
X117054156Y-64469446D01*
X117107207Y-64449125D01*
X117129754Y-64431554D01*
X117157561Y-64367149D01*
X117147485Y-64309592D01*
X117103958Y-64264511D01*
X117031413Y-64237534D01*
X116972873Y-64232368D01*
X116882333Y-64232368D01*
X116755637Y-64232368D01*
X116755333Y-64178326D01*
X116755333Y-63893701D01*
X116882333Y-63893701D01*
X116882333Y-64105368D01*
X116957808Y-64105368D01*
X117021280Y-64099276D01*
X117072171Y-64084508D01*
X117074224Y-64083456D01*
X117108157Y-64042539D01*
X117115166Y-63999534D01*
X117099919Y-63941397D01*
X117052546Y-63906720D01*
X116970595Y-63893857D01*
X116957808Y-63893701D01*
X116882333Y-63893701D01*
X116755333Y-63893701D01*
X116755333Y-63792674D01*
X116852350Y-63778126D01*
X116958641Y-63772089D01*
X117062937Y-63783042D01*
G36*
X119824500Y-63839894D02*
G01*
X119822265Y-63866114D01*
X119809721Y-63882079D01*
X119778112Y-63890896D01*
X119718678Y-63895672D01*
X119660458Y-63898102D01*
X119496416Y-63904284D01*
X119489965Y-64004826D01*
X119483513Y-64105368D01*
X119782166Y-64105368D01*
X119782166Y-64232368D01*
X119483720Y-64232368D01*
X119496416Y-64475784D01*
X119681625Y-64481900D01*
X119770298Y-64485356D01*
X119824904Y-64490291D01*
X119853694Y-64499299D01*
X119864920Y-64514971D01*
X119866833Y-64539902D01*
X119866833Y-64592201D01*
X119358833Y-64592201D01*
X119358833Y-63787868D01*
X119824500Y-63787868D01*
X119824500Y-63839894D01*
G37*
X119824500Y-63839894D02*
X119822265Y-63866114D01*
X119809721Y-63882079D01*
X119778112Y-63890896D01*
X119718678Y-63895672D01*
X119660458Y-63898102D01*
X119496416Y-63904284D01*
X119489965Y-64004826D01*
X119483513Y-64105368D01*
X119782166Y-64105368D01*
X119782166Y-64232368D01*
X119483720Y-64232368D01*
X119496416Y-64475784D01*
X119681625Y-64481900D01*
X119770298Y-64485356D01*
X119824904Y-64490291D01*
X119853694Y-64499299D01*
X119864920Y-64514971D01*
X119866833Y-64539902D01*
X119866833Y-64592201D01*
X119358833Y-64592201D01*
X119358833Y-63787868D01*
X119824500Y-63787868D01*
X119824500Y-63839894D01*
G36*
X120264788Y-63968530D02*
G01*
X120317869Y-63985896D01*
X120374524Y-64018581D01*
X120414652Y-64066102D01*
X120440613Y-64135018D01*
X120454762Y-64231885D01*
X120459459Y-64363261D01*
X120459500Y-64379854D01*
X120459500Y-64592201D01*
X120338049Y-64592201D01*
X120328025Y-64366813D01*
X120320319Y-64249638D01*
X120307255Y-64168892D01*
X120285589Y-64118724D01*
X120252076Y-64093283D01*
X120203472Y-64086717D01*
X120173750Y-64088560D01*
X120110250Y-64094784D01*
X120104286Y-64343493D01*
X120098323Y-64592201D01*
X119971504Y-64592201D01*
X119983250Y-63988951D01*
X120110733Y-63970783D01*
X120198620Y-63962515D01*
X120264788Y-63968530D01*
G37*
X120264788Y-63968530D02*
X120317869Y-63985896D01*
X120374524Y-64018581D01*
X120414652Y-64066102D01*
X120440613Y-64135018D01*
X120454762Y-64231885D01*
X120459459Y-64363261D01*
X120459500Y-64379854D01*
X120459500Y-64592201D01*
X120338049Y-64592201D01*
X120328025Y-64366813D01*
X120320319Y-64249638D01*
X120307255Y-64168892D01*
X120285589Y-64118724D01*
X120252076Y-64093283D01*
X120203472Y-64086717D01*
X120173750Y-64088560D01*
X120110250Y-64094784D01*
X120104286Y-64343493D01*
X120098323Y-64592201D01*
X119971504Y-64592201D01*
X119983250Y-63988951D01*
X120110733Y-63970783D01*
X120198620Y-63962515D01*
X120264788Y-63968530D01*
G36*
X126674384Y-63602230D02*
G01*
X126724446Y-63621609D01*
X126767078Y-63657523D01*
X126826645Y-63742062D01*
X126859990Y-63843228D01*
X126868028Y-63951297D01*
X126851675Y-64056543D01*
X126811846Y-64149243D01*
X126749457Y-64219671D01*
X126711981Y-64242609D01*
X126623148Y-64271099D01*
X126539016Y-64264731D01*
X126470833Y-64237626D01*
X126394202Y-64176485D01*
X126344396Y-64084924D01*
X126323305Y-63966731D01*
X126322699Y-63940646D01*
X126327060Y-63899953D01*
X126458846Y-63899953D01*
X126463862Y-63996274D01*
X126484685Y-64083451D01*
X126514869Y-64139169D01*
X126558502Y-64163745D01*
X126615719Y-64166351D01*
X126652872Y-64152668D01*
X126695564Y-64099020D01*
X126719420Y-64008007D01*
X126724833Y-63915297D01*
X126722072Y-63837685D01*
X126710883Y-63787260D01*
X126686903Y-63749068D01*
X126671564Y-63732674D01*
X126611571Y-63695426D01*
X126551743Y-63699185D01*
X126498810Y-63743323D01*
X126470281Y-63810349D01*
X126458846Y-63899953D01*
X126327060Y-63899953D01*
X126336777Y-63809284D01*
X126378376Y-63708297D01*
X126446417Y-63639011D01*
X126539819Y-63602752D01*
X126602316Y-63597368D01*
X126674384Y-63602230D01*
G37*
X126674384Y-63602230D02*
X126724446Y-63621609D01*
X126767078Y-63657523D01*
X126826645Y-63742062D01*
X126859990Y-63843228D01*
X126868028Y-63951297D01*
X126851675Y-64056543D01*
X126811846Y-64149243D01*
X126749457Y-64219671D01*
X126711981Y-64242609D01*
X126623148Y-64271099D01*
X126539016Y-64264731D01*
X126470833Y-64237626D01*
X126394202Y-64176485D01*
X126344396Y-64084924D01*
X126323305Y-63966731D01*
X126322699Y-63940646D01*
X126327060Y-63899953D01*
X126458846Y-63899953D01*
X126463862Y-63996274D01*
X126484685Y-64083451D01*
X126514869Y-64139169D01*
X126558502Y-64163745D01*
X126615719Y-64166351D01*
X126652872Y-64152668D01*
X126695564Y-64099020D01*
X126719420Y-64008007D01*
X126724833Y-63915297D01*
X126722072Y-63837685D01*
X126710883Y-63787260D01*
X126686903Y-63749068D01*
X126671564Y-63732674D01*
X126611571Y-63695426D01*
X126551743Y-63699185D01*
X126498810Y-63743323D01*
X126470281Y-63810349D01*
X126458846Y-63899953D01*
X126327060Y-63899953D01*
X126336777Y-63809284D01*
X126378376Y-63708297D01*
X126446417Y-63639011D01*
X126539819Y-63602752D01*
X126602316Y-63597368D01*
X126674384Y-63602230D01*
G36*
X130600069Y-63601478D02*
G01*
X130635422Y-63615791D01*
X130669519Y-63644296D01*
X130682280Y-63656891D01*
X130732429Y-63722045D01*
X130743003Y-63781719D01*
X130714875Y-63842918D01*
X130706816Y-63853352D01*
X130681024Y-63889392D01*
X130684282Y-63912820D01*
X130717399Y-63941900D01*
X130755953Y-63996376D01*
X130769302Y-64068326D01*
X130756804Y-64140744D01*
X130726707Y-64188660D01*
X130652197Y-64236415D01*
X130550517Y-64263874D01*
X130432615Y-64269160D01*
X130333750Y-64256114D01*
X130288555Y-64240026D01*
X130274239Y-64209295D01*
X130277658Y-64170099D01*
X130299009Y-64161202D01*
X130353243Y-64158607D01*
X130424772Y-64162231D01*
X130506698Y-64166986D01*
X130558372Y-64163314D01*
X130591309Y-64149686D01*
X130604689Y-64138321D01*
X130639576Y-64083736D01*
X130634933Y-64034089D01*
X130593556Y-63993783D01*
X130518244Y-63967222D01*
X130493330Y-63963094D01*
X130429441Y-63946123D01*
X130405418Y-63920868D01*
X130420831Y-63892029D01*
X130475255Y-63864311D01*
X130503083Y-63855839D01*
X130562484Y-63836456D01*
X130590668Y-63814441D01*
X130598291Y-63780955D01*
X130598333Y-63776842D01*
X130580505Y-63726584D01*
X130531950Y-63697677D01*
X130460055Y-63693059D01*
X130411211Y-63702489D01*
X130353178Y-63713274D01*
X130316754Y-63703611D01*
X130303307Y-63692413D01*
X130284916Y-63657273D01*
X130307957Y-63630209D01*
X130372290Y-63611298D01*
X130471001Y-63600981D01*
X130549811Y-63597745D01*
X130600069Y-63601478D01*
G37*
X130600069Y-63601478D02*
X130635422Y-63615791D01*
X130669519Y-63644296D01*
X130682280Y-63656891D01*
X130732429Y-63722045D01*
X130743003Y-63781719D01*
X130714875Y-63842918D01*
X130706816Y-63853352D01*
X130681024Y-63889392D01*
X130684282Y-63912820D01*
X130717399Y-63941900D01*
X130755953Y-63996376D01*
X130769302Y-64068326D01*
X130756804Y-64140744D01*
X130726707Y-64188660D01*
X130652197Y-64236415D01*
X130550517Y-64263874D01*
X130432615Y-64269160D01*
X130333750Y-64256114D01*
X130288555Y-64240026D01*
X130274239Y-64209295D01*
X130277658Y-64170099D01*
X130299009Y-64161202D01*
X130353243Y-64158607D01*
X130424772Y-64162231D01*
X130506698Y-64166986D01*
X130558372Y-64163314D01*
X130591309Y-64149686D01*
X130604689Y-64138321D01*
X130639576Y-64083736D01*
X130634933Y-64034089D01*
X130593556Y-63993783D01*
X130518244Y-63967222D01*
X130493330Y-63963094D01*
X130429441Y-63946123D01*
X130405418Y-63920868D01*
X130420831Y-63892029D01*
X130475255Y-63864311D01*
X130503083Y-63855839D01*
X130562484Y-63836456D01*
X130590668Y-63814441D01*
X130598291Y-63780955D01*
X130598333Y-63776842D01*
X130580505Y-63726584D01*
X130531950Y-63697677D01*
X130460055Y-63693059D01*
X130411211Y-63702489D01*
X130353178Y-63713274D01*
X130316754Y-63703611D01*
X130303307Y-63692413D01*
X130284916Y-63657273D01*
X130307957Y-63630209D01*
X130372290Y-63611298D01*
X130471001Y-63600981D01*
X130549811Y-63597745D01*
X130600069Y-63601478D01*
G36*
X134495554Y-63611245D02*
G01*
X134570157Y-63638087D01*
X134619077Y-63677268D01*
X134628018Y-63693566D01*
X134640580Y-63770323D01*
X134620462Y-63836815D01*
X134601410Y-63859619D01*
X134577974Y-63884377D01*
X134577897Y-63905940D01*
X134604148Y-63937895D01*
X134622576Y-63956521D01*
X134671558Y-64025954D01*
X134682708Y-64093070D01*
X134660509Y-64154266D01*
X134609444Y-64205943D01*
X134533994Y-64244498D01*
X134438643Y-64266331D01*
X134327873Y-64267840D01*
X134249583Y-64256185D01*
X134197191Y-64232425D01*
X134179406Y-64195857D01*
X134178167Y-64170819D01*
X134189617Y-64158057D01*
X134222828Y-64155160D01*
X134286871Y-64159717D01*
X134308013Y-64161668D01*
X134416231Y-64164558D01*
X134488406Y-64148870D01*
X134526982Y-64113664D01*
X134535333Y-64074073D01*
X134516100Y-64019026D01*
X134464982Y-63978004D01*
X134391850Y-63958065D01*
X134371873Y-63957201D01*
X134322370Y-63951416D01*
X134303687Y-63930058D01*
X134302500Y-63917223D01*
X134315576Y-63886510D01*
X134360194Y-63867061D01*
X134381875Y-63862412D01*
X134462746Y-63838261D01*
X134506330Y-63804805D01*
X134511073Y-63765040D01*
X134475419Y-63721963D01*
X134460290Y-63711209D01*
X134419005Y-63690081D01*
X134376828Y-63687944D01*
X134318643Y-63702205D01*
X134261645Y-63716806D01*
X134229262Y-63714969D01*
X134206437Y-63695039D01*
X134202175Y-63689393D01*
X134186659Y-63660026D01*
X134200827Y-63640299D01*
X134232698Y-63624781D01*
X134315321Y-63602590D01*
X134406774Y-63598746D01*
X134495554Y-63611245D01*
G37*
X134495554Y-63611245D02*
X134570157Y-63638087D01*
X134619077Y-63677268D01*
X134628018Y-63693566D01*
X134640580Y-63770323D01*
X134620462Y-63836815D01*
X134601410Y-63859619D01*
X134577974Y-63884377D01*
X134577897Y-63905940D01*
X134604148Y-63937895D01*
X134622576Y-63956521D01*
X134671558Y-64025954D01*
X134682708Y-64093070D01*
X134660509Y-64154266D01*
X134609444Y-64205943D01*
X134533994Y-64244498D01*
X134438643Y-64266331D01*
X134327873Y-64267840D01*
X134249583Y-64256185D01*
X134197191Y-64232425D01*
X134179406Y-64195857D01*
X134178167Y-64170819D01*
X134189617Y-64158057D01*
X134222828Y-64155160D01*
X134286871Y-64159717D01*
X134308013Y-64161668D01*
X134416231Y-64164558D01*
X134488406Y-64148870D01*
X134526982Y-64113664D01*
X134535333Y-64074073D01*
X134516100Y-64019026D01*
X134464982Y-63978004D01*
X134391850Y-63958065D01*
X134371873Y-63957201D01*
X134322370Y-63951416D01*
X134303687Y-63930058D01*
X134302500Y-63917223D01*
X134315576Y-63886510D01*
X134360194Y-63867061D01*
X134381875Y-63862412D01*
X134462746Y-63838261D01*
X134506330Y-63804805D01*
X134511073Y-63765040D01*
X134475419Y-63721963D01*
X134460290Y-63711209D01*
X134419005Y-63690081D01*
X134376828Y-63687944D01*
X134318643Y-63702205D01*
X134261645Y-63716806D01*
X134229262Y-63714969D01*
X134206437Y-63695039D01*
X134202175Y-63689393D01*
X134186659Y-63660026D01*
X134200827Y-63640299D01*
X134232698Y-63624781D01*
X134315321Y-63602590D01*
X134406774Y-63598746D01*
X134495554Y-63611245D01*
G36*
X135141106Y-63607252D02*
G01*
X135220098Y-63634060D01*
X135272422Y-63673527D01*
X135284184Y-63693566D01*
X135296296Y-63777369D01*
X135271301Y-63855376D01*
X135258831Y-63873059D01*
X135234457Y-63907600D01*
X135236460Y-63932696D01*
X135266903Y-63967178D01*
X135269414Y-63969691D01*
X135311528Y-64036771D01*
X135316934Y-64108686D01*
X135288780Y-64176003D01*
X135230214Y-64229290D01*
X135175000Y-64252594D01*
X135063900Y-64271424D01*
X134956753Y-64260201D01*
X134922573Y-64251266D01*
X134847303Y-64211846D01*
X134803041Y-64151873D01*
X134792561Y-64080834D01*
X134798242Y-64065010D01*
X134918158Y-64065010D01*
X134919718Y-64111910D01*
X134955853Y-64148016D01*
X135022697Y-64167247D01*
X135053916Y-64168868D01*
X135115054Y-64163010D01*
X135159435Y-64148446D01*
X135166100Y-64143468D01*
X135191155Y-64097663D01*
X135182624Y-64053170D01*
X135149069Y-64015266D01*
X135099052Y-63989226D01*
X135041133Y-63980327D01*
X134983875Y-63993845D01*
X134955041Y-64013398D01*
X134918158Y-64065010D01*
X134798242Y-64065010D01*
X134818634Y-64008217D01*
X134842687Y-63977911D01*
X134896041Y-63922221D01*
X134853270Y-63883514D01*
X134814948Y-63823690D01*
X134812273Y-63753870D01*
X134812751Y-63752838D01*
X134941141Y-63752838D01*
X134949778Y-63803222D01*
X134987614Y-63843632D01*
X135041707Y-63868078D01*
X135099110Y-63870570D01*
X135144933Y-63847134D01*
X135170137Y-63796541D01*
X135161372Y-63742438D01*
X135121845Y-63701567D01*
X135116563Y-63698961D01*
X135055817Y-63686746D01*
X134996087Y-63698098D01*
X134952753Y-63728294D01*
X134941141Y-63752838D01*
X134812751Y-63752838D01*
X134844175Y-63685127D01*
X134875624Y-63652166D01*
X134932140Y-63615117D01*
X134996866Y-63599371D01*
X135046008Y-63597368D01*
X135141106Y-63607252D01*
G37*
X135141106Y-63607252D02*
X135220098Y-63634060D01*
X135272422Y-63673527D01*
X135284184Y-63693566D01*
X135296296Y-63777369D01*
X135271301Y-63855376D01*
X135258831Y-63873059D01*
X135234457Y-63907600D01*
X135236460Y-63932696D01*
X135266903Y-63967178D01*
X135269414Y-63969691D01*
X135311528Y-64036771D01*
X135316934Y-64108686D01*
X135288780Y-64176003D01*
X135230214Y-64229290D01*
X135175000Y-64252594D01*
X135063900Y-64271424D01*
X134956753Y-64260201D01*
X134922573Y-64251266D01*
X134847303Y-64211846D01*
X134803041Y-64151873D01*
X134792561Y-64080834D01*
X134798242Y-64065010D01*
X134918158Y-64065010D01*
X134919718Y-64111910D01*
X134955853Y-64148016D01*
X135022697Y-64167247D01*
X135053916Y-64168868D01*
X135115054Y-64163010D01*
X135159435Y-64148446D01*
X135166100Y-64143468D01*
X135191155Y-64097663D01*
X135182624Y-64053170D01*
X135149069Y-64015266D01*
X135099052Y-63989226D01*
X135041133Y-63980327D01*
X134983875Y-63993845D01*
X134955041Y-64013398D01*
X134918158Y-64065010D01*
X134798242Y-64065010D01*
X134818634Y-64008217D01*
X134842687Y-63977911D01*
X134896041Y-63922221D01*
X134853270Y-63883514D01*
X134814948Y-63823690D01*
X134812273Y-63753870D01*
X134812751Y-63752838D01*
X134941141Y-63752838D01*
X134949778Y-63803222D01*
X134987614Y-63843632D01*
X135041707Y-63868078D01*
X135099110Y-63870570D01*
X135144933Y-63847134D01*
X135170137Y-63796541D01*
X135161372Y-63742438D01*
X135121845Y-63701567D01*
X135116563Y-63698961D01*
X135055817Y-63686746D01*
X134996087Y-63698098D01*
X134952753Y-63728294D01*
X134941141Y-63752838D01*
X134812751Y-63752838D01*
X134844175Y-63685127D01*
X134875624Y-63652166D01*
X134932140Y-63615117D01*
X134996866Y-63599371D01*
X135046008Y-63597368D01*
X135141106Y-63607252D01*
G36*
X123950020Y-63614734D02*
G01*
X123963766Y-63662274D01*
X123970802Y-63742674D01*
X123973100Y-63860151D01*
X123973166Y-63893037D01*
X123973166Y-64168868D01*
X124048802Y-64168868D01*
X124099499Y-64172992D01*
X124117868Y-64188789D01*
X124117342Y-64205909D01*
X124109067Y-64222644D01*
X124086918Y-64234007D01*
X124043486Y-64241358D01*
X123971366Y-64246058D01*
X123882957Y-64248959D01*
X123782623Y-64251164D01*
X123717174Y-64250618D01*
X123679188Y-64246111D01*
X123661245Y-64236433D01*
X123655923Y-64220375D01*
X123655666Y-64211917D01*
X123662527Y-64183801D01*
X123690572Y-64171364D01*
X123740333Y-64168868D01*
X123825000Y-64168868D01*
X123825000Y-63967784D01*
X123824219Y-63881375D01*
X123822119Y-63813566D01*
X123819068Y-63773551D01*
X123817001Y-63766701D01*
X123794178Y-63774059D01*
X123747995Y-63792233D01*
X123736513Y-63796989D01*
X123687254Y-63814905D01*
X123660339Y-63812727D01*
X123640051Y-63788882D01*
X123639022Y-63787244D01*
X123628168Y-63760771D01*
X123640480Y-63739715D01*
X123683013Y-63715130D01*
X123703635Y-63705301D01*
X123772252Y-63670911D01*
X123834322Y-63636139D01*
X123848795Y-63627093D01*
X123894507Y-63601361D01*
X123927591Y-63595836D01*
X123950020Y-63614734D01*
G37*
X123950020Y-63614734D02*
X123963766Y-63662274D01*
X123970802Y-63742674D01*
X123973100Y-63860151D01*
X123973166Y-63893037D01*
X123973166Y-64168868D01*
X124048802Y-64168868D01*
X124099499Y-64172992D01*
X124117868Y-64188789D01*
X124117342Y-64205909D01*
X124109067Y-64222644D01*
X124086918Y-64234007D01*
X124043486Y-64241358D01*
X123971366Y-64246058D01*
X123882957Y-64248959D01*
X123782623Y-64251164D01*
X123717174Y-64250618D01*
X123679188Y-64246111D01*
X123661245Y-64236433D01*
X123655923Y-64220375D01*
X123655666Y-64211917D01*
X123662527Y-64183801D01*
X123690572Y-64171364D01*
X123740333Y-64168868D01*
X123825000Y-64168868D01*
X123825000Y-63967784D01*
X123824219Y-63881375D01*
X123822119Y-63813566D01*
X123819068Y-63773551D01*
X123817001Y-63766701D01*
X123794178Y-63774059D01*
X123747995Y-63792233D01*
X123736513Y-63796989D01*
X123687254Y-63814905D01*
X123660339Y-63812727D01*
X123640051Y-63788882D01*
X123639022Y-63787244D01*
X123628168Y-63760771D01*
X123640480Y-63739715D01*
X123683013Y-63715130D01*
X123703635Y-63705301D01*
X123772252Y-63670911D01*
X123834322Y-63636139D01*
X123848795Y-63627093D01*
X123894507Y-63601361D01*
X123927591Y-63595836D01*
X123950020Y-63614734D01*
G36*
X124563410Y-63605004D02*
G01*
X124577670Y-63641478D01*
X124585769Y-63709378D01*
X124590154Y-63813089D01*
X124591677Y-63877826D01*
X124597583Y-64158284D01*
X124671666Y-64168868D01*
X124726871Y-64185297D01*
X124745750Y-64211201D01*
X124738436Y-64225815D01*
X124712073Y-64235952D01*
X124660026Y-64242713D01*
X124575659Y-64247197D01*
X124518208Y-64248959D01*
X124417809Y-64251164D01*
X124352298Y-64250622D01*
X124314259Y-64246125D01*
X124296274Y-64236465D01*
X124290928Y-64220436D01*
X124290666Y-64211917D01*
X124297527Y-64183801D01*
X124325572Y-64171364D01*
X124375333Y-64168868D01*
X124460000Y-64168868D01*
X124460000Y-63967784D01*
X124459219Y-63881375D01*
X124457119Y-63813566D01*
X124454068Y-63773551D01*
X124452001Y-63766701D01*
X124429178Y-63774059D01*
X124382995Y-63792233D01*
X124371513Y-63796989D01*
X124322272Y-63814903D01*
X124295330Y-63812676D01*
X124274903Y-63788643D01*
X124273677Y-63786690D01*
X124261805Y-63758343D01*
X124275690Y-63737942D01*
X124322534Y-63715099D01*
X124323642Y-63714636D01*
X124392838Y-63680736D01*
X124456880Y-63641906D01*
X124459203Y-63640268D01*
X124506623Y-63608786D01*
X124540543Y-63595569D01*
X124563410Y-63605004D01*
G37*
X124563410Y-63605004D02*
X124577670Y-63641478D01*
X124585769Y-63709378D01*
X124590154Y-63813089D01*
X124591677Y-63877826D01*
X124597583Y-64158284D01*
X124671666Y-64168868D01*
X124726871Y-64185297D01*
X124745750Y-64211201D01*
X124738436Y-64225815D01*
X124712073Y-64235952D01*
X124660026Y-64242713D01*
X124575659Y-64247197D01*
X124518208Y-64248959D01*
X124417809Y-64251164D01*
X124352298Y-64250622D01*
X124314259Y-64246125D01*
X124296274Y-64236465D01*
X124290928Y-64220436D01*
X124290666Y-64211917D01*
X124297527Y-64183801D01*
X124325572Y-64171364D01*
X124375333Y-64168868D01*
X124460000Y-64168868D01*
X124460000Y-63967784D01*
X124459219Y-63881375D01*
X124457119Y-63813566D01*
X124454068Y-63773551D01*
X124452001Y-63766701D01*
X124429178Y-63774059D01*
X124382995Y-63792233D01*
X124371513Y-63796989D01*
X124322272Y-63814903D01*
X124295330Y-63812676D01*
X124274903Y-63788643D01*
X124273677Y-63786690D01*
X124261805Y-63758343D01*
X124275690Y-63737942D01*
X124322534Y-63715099D01*
X124323642Y-63714636D01*
X124392838Y-63680736D01*
X124456880Y-63641906D01*
X124459203Y-63640268D01*
X124506623Y-63608786D01*
X124540543Y-63595569D01*
X124563410Y-63605004D01*
G36*
X126034039Y-63603918D02*
G01*
X126048431Y-63614885D01*
X126058272Y-63639318D01*
X126064376Y-63684018D01*
X126067558Y-63755781D01*
X126068632Y-63861409D01*
X126068666Y-63893037D01*
X126068666Y-64168868D01*
X126142750Y-64168868D01*
X126193809Y-64173603D01*
X126214411Y-64192090D01*
X126216833Y-64211201D01*
X126214153Y-64229728D01*
X126201237Y-64241888D01*
X126170765Y-64249014D01*
X126115419Y-64252435D01*
X126027881Y-64253482D01*
X125984000Y-64253534D01*
X125882103Y-64253047D01*
X125815217Y-64250699D01*
X125776026Y-64245158D01*
X125757211Y-64235095D01*
X125751453Y-64219179D01*
X125751166Y-64211201D01*
X125758266Y-64183505D01*
X125786963Y-64171264D01*
X125835833Y-64168868D01*
X125920500Y-64168868D01*
X125920500Y-63768903D01*
X125856735Y-63791132D01*
X125802152Y-63803313D01*
X125761485Y-63801278D01*
X125732292Y-63777530D01*
X125742662Y-63745869D01*
X125791104Y-63708724D01*
X125831040Y-63687954D01*
X125895615Y-63655908D01*
X125948015Y-63626939D01*
X125965247Y-63615794D01*
X126009757Y-63600761D01*
X126034039Y-63603918D01*
G37*
X126034039Y-63603918D02*
X126048431Y-63614885D01*
X126058272Y-63639318D01*
X126064376Y-63684018D01*
X126067558Y-63755781D01*
X126068632Y-63861409D01*
X126068666Y-63893037D01*
X126068666Y-64168868D01*
X126142750Y-64168868D01*
X126193809Y-64173603D01*
X126214411Y-64192090D01*
X126216833Y-64211201D01*
X126214153Y-64229728D01*
X126201237Y-64241888D01*
X126170765Y-64249014D01*
X126115419Y-64252435D01*
X126027881Y-64253482D01*
X125984000Y-64253534D01*
X125882103Y-64253047D01*
X125815217Y-64250699D01*
X125776026Y-64245158D01*
X125757211Y-64235095D01*
X125751453Y-64219179D01*
X125751166Y-64211201D01*
X125758266Y-64183505D01*
X125786963Y-64171264D01*
X125835833Y-64168868D01*
X125920500Y-64168868D01*
X125920500Y-63768903D01*
X125856735Y-63791132D01*
X125802152Y-63803313D01*
X125761485Y-63801278D01*
X125732292Y-63777530D01*
X125742662Y-63745869D01*
X125791104Y-63708724D01*
X125831040Y-63687954D01*
X125895615Y-63655908D01*
X125948015Y-63626939D01*
X125965247Y-63615794D01*
X126009757Y-63600761D01*
X126034039Y-63603918D01*
G36*
X128672166Y-63649035D02*
G01*
X128663544Y-63694429D01*
X128648886Y-63715090D01*
X128613174Y-63751149D01*
X128568567Y-63815867D01*
X128521108Y-63898291D01*
X128476838Y-63987468D01*
X128441797Y-64072446D01*
X128428124Y-64115340D01*
X128406869Y-64188894D01*
X128388958Y-64230365D01*
X128367950Y-64248857D01*
X128337405Y-64253474D01*
X128330358Y-64253534D01*
X128286390Y-64247061D01*
X128271002Y-64220316D01*
X128270000Y-64201412D01*
X128280994Y-64133293D01*
X128310472Y-64043114D01*
X128353175Y-63943867D01*
X128403846Y-63848539D01*
X128428951Y-63808735D01*
X128499970Y-63703201D01*
X128321485Y-63703201D01*
X128234780Y-63702705D01*
X128181994Y-63699555D01*
X128154712Y-63691257D01*
X128144519Y-63675314D01*
X128143000Y-63650284D01*
X128143000Y-63597368D01*
X128672166Y-63597368D01*
X128672166Y-63649035D01*
G37*
X128672166Y-63649035D02*
X128663544Y-63694429D01*
X128648886Y-63715090D01*
X128613174Y-63751149D01*
X128568567Y-63815867D01*
X128521108Y-63898291D01*
X128476838Y-63987468D01*
X128441797Y-64072446D01*
X128428124Y-64115340D01*
X128406869Y-64188894D01*
X128388958Y-64230365D01*
X128367950Y-64248857D01*
X128337405Y-64253474D01*
X128330358Y-64253534D01*
X128286390Y-64247061D01*
X128271002Y-64220316D01*
X128270000Y-64201412D01*
X128280994Y-64133293D01*
X128310472Y-64043114D01*
X128353175Y-63943867D01*
X128403846Y-63848539D01*
X128428951Y-63808735D01*
X128499970Y-63703201D01*
X128321485Y-63703201D01*
X128234780Y-63702705D01*
X128181994Y-63699555D01*
X128154712Y-63691257D01*
X128144519Y-63675314D01*
X128143000Y-63650284D01*
X128143000Y-63597368D01*
X128672166Y-63597368D01*
X128672166Y-63649035D01*
G36*
X132713055Y-63614803D02*
G01*
X132726787Y-63662310D01*
X132733809Y-63742622D01*
X132736100Y-63859979D01*
X132736166Y-63893037D01*
X132736166Y-64168868D01*
X132810250Y-64168868D01*
X132861309Y-64173603D01*
X132881911Y-64192090D01*
X132884333Y-64211201D01*
X132881653Y-64229728D01*
X132868737Y-64241888D01*
X132838265Y-64249014D01*
X132782919Y-64252435D01*
X132695381Y-64253482D01*
X132651500Y-64253534D01*
X132549603Y-64253047D01*
X132482717Y-64250699D01*
X132443526Y-64245158D01*
X132424711Y-64235095D01*
X132418953Y-64219179D01*
X132418666Y-64211201D01*
X132425766Y-64183505D01*
X132454463Y-64171264D01*
X132503333Y-64168868D01*
X132588000Y-64168868D01*
X132588000Y-63768579D01*
X132504348Y-63798093D01*
X132451041Y-63815089D01*
X132424193Y-63814911D01*
X132410843Y-63795808D01*
X132407165Y-63784975D01*
X132399237Y-63749059D01*
X132400859Y-63738020D01*
X132422775Y-63726957D01*
X132468169Y-63704890D01*
X132482166Y-63698161D01*
X132548201Y-63663947D01*
X132608305Y-63628945D01*
X132611795Y-63626711D01*
X132657539Y-63601244D01*
X132690632Y-63595861D01*
X132713055Y-63614803D01*
G37*
X132713055Y-63614803D02*
X132726787Y-63662310D01*
X132733809Y-63742622D01*
X132736100Y-63859979D01*
X132736166Y-63893037D01*
X132736166Y-64168868D01*
X132810250Y-64168868D01*
X132861309Y-64173603D01*
X132881911Y-64192090D01*
X132884333Y-64211201D01*
X132881653Y-64229728D01*
X132868737Y-64241888D01*
X132838265Y-64249014D01*
X132782919Y-64252435D01*
X132695381Y-64253482D01*
X132651500Y-64253534D01*
X132549603Y-64253047D01*
X132482717Y-64250699D01*
X132443526Y-64245158D01*
X132424711Y-64235095D01*
X132418953Y-64219179D01*
X132418666Y-64211201D01*
X132425766Y-64183505D01*
X132454463Y-64171264D01*
X132503333Y-64168868D01*
X132588000Y-64168868D01*
X132588000Y-63768579D01*
X132504348Y-63798093D01*
X132451041Y-63815089D01*
X132424193Y-63814911D01*
X132410843Y-63795808D01*
X132407165Y-63784975D01*
X132399237Y-63749059D01*
X132400859Y-63738020D01*
X132422775Y-63726957D01*
X132468169Y-63704890D01*
X132482166Y-63698161D01*
X132548201Y-63663947D01*
X132608305Y-63628945D01*
X132611795Y-63626711D01*
X132657539Y-63601244D01*
X132690632Y-63595861D01*
X132713055Y-63614803D01*
G36*
X117809470Y-81228678D02*
G01*
X117823268Y-81237173D01*
X117859851Y-81282217D01*
X117874190Y-81342754D01*
X117862652Y-81398924D01*
X117854937Y-81410397D01*
X117809492Y-81436513D01*
X117752732Y-81436755D01*
X117712066Y-81415468D01*
X117688310Y-81365386D01*
X117691958Y-81304497D01*
X117720658Y-81252101D01*
X117733309Y-81241264D01*
X117774065Y-81220284D01*
X117809470Y-81228678D01*
G37*
X117809470Y-81228678D02*
X117823268Y-81237173D01*
X117859851Y-81282217D01*
X117874190Y-81342754D01*
X117862652Y-81398924D01*
X117854937Y-81410397D01*
X117809492Y-81436513D01*
X117752732Y-81436755D01*
X117712066Y-81415468D01*
X117688310Y-81365386D01*
X117691958Y-81304497D01*
X117720658Y-81252101D01*
X117733309Y-81241264D01*
X117774065Y-81220284D01*
X117809470Y-81228678D01*
G36*
X126641691Y-63857381D02*
G01*
X126666993Y-63880868D01*
X126671856Y-63893510D01*
X126671695Y-63946201D01*
X126643046Y-63983670D01*
X126598817Y-63998807D01*
X126551914Y-63984502D01*
X126535177Y-63968801D01*
X126513869Y-63919841D01*
X126530487Y-63879521D01*
X126580625Y-63856802D01*
X126590905Y-63855453D01*
X126641691Y-63857381D01*
G37*
X126641691Y-63857381D02*
X126666993Y-63880868D01*
X126671856Y-63893510D01*
X126671695Y-63946201D01*
X126643046Y-63983670D01*
X126598817Y-63998807D01*
X126551914Y-63984502D01*
X126535177Y-63968801D01*
X126513869Y-63919841D01*
X126530487Y-63879521D01*
X126580625Y-63856802D01*
X126590905Y-63855453D01*
X126641691Y-63857381D01*
D13*
%TO.C,R18*%
X112601364Y-78795200D02*
X111147236Y-78795200D01*
X112601364Y-80615200D02*
X111147236Y-80615200D01*
%TO.C,R17*%
X116476856Y-80602500D02*
X117930984Y-80602500D01*
X116476856Y-78782500D02*
X117930984Y-78782500D01*
%TO.C,U1*%
X133354100Y-77369600D02*
X135044100Y-77369600D01*
X133354100Y-78209600D02*
X133354100Y-77369600D01*
X130594100Y-78209600D02*
X133354100Y-78209600D01*
X127834100Y-78209600D02*
X127834100Y-77369600D01*
X130594100Y-78209600D02*
X127834100Y-78209600D01*
X133354100Y-67789600D02*
X133354100Y-68629600D01*
X130594100Y-67789600D02*
X133354100Y-67789600D01*
X127834100Y-67789600D02*
X127834100Y-68629600D01*
X130594100Y-67789600D02*
X127834100Y-67789600D01*
D18*
%TO.C,J4*%
X149366928Y-77922120D02*
G75*
G03*
X149366928Y-77922120I-423868J0D01*
G01*
X149542500Y-77922120D02*
X148343620Y-77922120D01*
X148943060Y-77322680D02*
X148943060Y-78521560D01*
X149366928Y-67924680D02*
G75*
G03*
X149366928Y-67924680I-423868J0D01*
G01*
X149542500Y-67924680D02*
X148343620Y-67924680D01*
X148943060Y-67325240D02*
X148943060Y-68524120D01*
D13*
%TO.C,R2*%
X139309464Y-73522160D02*
X137855336Y-73522160D01*
X139309464Y-75342160D02*
X137855336Y-75342160D01*
%TO.C,R4*%
X137855336Y-77953280D02*
X139309464Y-77953280D01*
X137855336Y-76133280D02*
X139309464Y-76133280D01*
%TO.C,R5*%
X139309464Y-68299920D02*
X137855336Y-68299920D01*
X139309464Y-70119920D02*
X137855336Y-70119920D01*
%TO.C,R6*%
X137855336Y-72731040D02*
X139309464Y-72731040D01*
X137855336Y-70911040D02*
X139309464Y-70911040D01*
%TO.C,R8*%
X121806476Y-80564400D02*
X123260604Y-80564400D01*
X121806476Y-78744400D02*
X123260604Y-78744400D01*
%TO.C,R9*%
X139309464Y-78744400D02*
X137855336Y-78744400D01*
X139309464Y-80564400D02*
X137855336Y-80564400D01*
%TO.C,R11*%
X121979736Y-70112300D02*
X123433864Y-70112300D01*
X121979736Y-68292300D02*
X123433864Y-68292300D01*
%TO.C,R12*%
X139309464Y-65688800D02*
X137855336Y-65688800D01*
X139309464Y-67508800D02*
X137855336Y-67508800D01*
%TO.C,R13*%
X118017344Y-70938280D02*
X116563216Y-70938280D01*
X118017344Y-72758280D02*
X116563216Y-72758280D01*
%TO.C,R14*%
X128590224Y-78744400D02*
X127136096Y-78744400D01*
X128590224Y-80564400D02*
X127136096Y-80564400D01*
%TO.C,R15*%
X116563216Y-75353020D02*
X118017344Y-75353020D01*
X116563216Y-73533020D02*
X118017344Y-73533020D01*
%TO.C,C1*%
X143052748Y-64241000D02*
X144475252Y-64241000D01*
X143052748Y-66061000D02*
X144475252Y-66061000D01*
%TO.C,C2*%
X121932248Y-73518350D02*
X123354752Y-73518350D01*
X121932248Y-75338350D02*
X123354752Y-75338350D01*
%TO.C,C3*%
X121958448Y-70890325D02*
X123380952Y-70890325D01*
X121958448Y-72710325D02*
X123380952Y-72710325D01*
%TO.C,C4*%
X117971532Y-70133540D02*
X116549028Y-70133540D01*
X117971532Y-68313540D02*
X116549028Y-68313540D01*
%TO.C,C5*%
X132511528Y-78714400D02*
X133934032Y-78714400D01*
X132511528Y-80534400D02*
X133934032Y-80534400D01*
%TO.C,C7*%
X117971532Y-77977760D02*
X116549028Y-77977760D01*
X117971532Y-76157760D02*
X116549028Y-76157760D01*
D17*
%TO.C,LOGO2*%
G36*
X105505753Y-80932329D02*
G01*
X105546838Y-80948424D01*
X105579366Y-80971857D01*
X105601391Y-80999714D01*
X105610968Y-81029077D01*
X105606152Y-81057031D01*
X105584998Y-81080658D01*
X105567203Y-81090140D01*
X105543354Y-81097778D01*
X105523024Y-81095942D01*
X105496147Y-81083497D01*
X105492985Y-81081776D01*
X105452333Y-81059508D01*
X105452333Y-81127420D01*
X105453761Y-81167918D01*
X105459756Y-81189405D01*
X105472886Y-81193943D01*
X105495718Y-81183594D01*
X105510541Y-81174166D01*
X105546722Y-81157500D01*
X105581214Y-81153987D01*
X105607359Y-81164198D01*
X105608966Y-81165700D01*
X105619462Y-81188871D01*
X105620957Y-81222184D01*
X105614033Y-81256906D01*
X105601219Y-81281973D01*
X105566588Y-81310118D01*
X105519558Y-81326666D01*
X105465877Y-81330920D01*
X105411291Y-81322182D01*
X105377846Y-81309104D01*
X105330906Y-81275491D01*
X105300702Y-81229980D01*
X105286804Y-81171676D01*
X105286782Y-81119543D01*
X105298740Y-81047146D01*
X105322431Y-80992153D01*
X105358298Y-80954067D01*
X105406784Y-80932388D01*
X105458055Y-80926491D01*
X105505753Y-80932329D01*
G37*
X105505753Y-80932329D02*
X105546838Y-80948424D01*
X105579366Y-80971857D01*
X105601391Y-80999714D01*
X105610968Y-81029077D01*
X105606152Y-81057031D01*
X105584998Y-81080658D01*
X105567203Y-81090140D01*
X105543354Y-81097778D01*
X105523024Y-81095942D01*
X105496147Y-81083497D01*
X105492985Y-81081776D01*
X105452333Y-81059508D01*
X105452333Y-81127420D01*
X105453761Y-81167918D01*
X105459756Y-81189405D01*
X105472886Y-81193943D01*
X105495718Y-81183594D01*
X105510541Y-81174166D01*
X105546722Y-81157500D01*
X105581214Y-81153987D01*
X105607359Y-81164198D01*
X105608966Y-81165700D01*
X105619462Y-81188871D01*
X105620957Y-81222184D01*
X105614033Y-81256906D01*
X105601219Y-81281973D01*
X105566588Y-81310118D01*
X105519558Y-81326666D01*
X105465877Y-81330920D01*
X105411291Y-81322182D01*
X105377846Y-81309104D01*
X105330906Y-81275491D01*
X105300702Y-81229980D01*
X105286804Y-81171676D01*
X105286782Y-81119543D01*
X105298740Y-81047146D01*
X105322431Y-80992153D01*
X105358298Y-80954067D01*
X105406784Y-80932388D01*
X105458055Y-80926491D01*
X105505753Y-80932329D01*
G36*
X105866586Y-80936655D02*
G01*
X105888567Y-80941799D01*
X105937370Y-80962442D01*
X105974086Y-80995507D01*
X106001637Y-81044206D01*
X106014269Y-81079881D01*
X106025908Y-81121711D01*
X106030689Y-81152112D01*
X106029273Y-81179442D01*
X106024124Y-81204704D01*
X106001563Y-81258528D01*
X105964391Y-81298583D01*
X105914940Y-81323785D01*
X105855540Y-81333051D01*
X105788524Y-81325300D01*
X105773169Y-81321255D01*
X105738242Y-81303600D01*
X105702487Y-81273952D01*
X105673789Y-81239606D01*
X105663077Y-81219366D01*
X105654923Y-81178970D01*
X105654768Y-81151130D01*
X105822912Y-81151130D01*
X105824247Y-81179864D01*
X105829906Y-81192313D01*
X105841270Y-81193372D01*
X105854909Y-81183413D01*
X105861677Y-81157675D01*
X105862552Y-81147617D01*
X105861744Y-81113613D01*
X105855503Y-81090198D01*
X105845580Y-81080876D01*
X105833727Y-81089149D01*
X105833495Y-81089500D01*
X105826926Y-81109626D01*
X105823209Y-81140559D01*
X105822912Y-81151130D01*
X105654768Y-81151130D01*
X105654643Y-81128799D01*
X105661675Y-81078495D01*
X105673419Y-81041875D01*
X105708014Y-80987015D01*
X105752144Y-80951005D01*
X105805203Y-80934124D01*
X105866586Y-80936655D01*
G37*
X105866586Y-80936655D02*
X105888567Y-80941799D01*
X105937370Y-80962442D01*
X105974086Y-80995507D01*
X106001637Y-81044206D01*
X106014269Y-81079881D01*
X106025908Y-81121711D01*
X106030689Y-81152112D01*
X106029273Y-81179442D01*
X106024124Y-81204704D01*
X106001563Y-81258528D01*
X105964391Y-81298583D01*
X105914940Y-81323785D01*
X105855540Y-81333051D01*
X105788524Y-81325300D01*
X105773169Y-81321255D01*
X105738242Y-81303600D01*
X105702487Y-81273952D01*
X105673789Y-81239606D01*
X105663077Y-81219366D01*
X105654923Y-81178970D01*
X105654768Y-81151130D01*
X105822912Y-81151130D01*
X105824247Y-81179864D01*
X105829906Y-81192313D01*
X105841270Y-81193372D01*
X105854909Y-81183413D01*
X105861677Y-81157675D01*
X105862552Y-81147617D01*
X105861744Y-81113613D01*
X105855503Y-81090198D01*
X105845580Y-81080876D01*
X105833727Y-81089149D01*
X105833495Y-81089500D01*
X105826926Y-81109626D01*
X105823209Y-81140559D01*
X105822912Y-81151130D01*
X105654768Y-81151130D01*
X105654643Y-81128799D01*
X105661675Y-81078495D01*
X105673419Y-81041875D01*
X105708014Y-80987015D01*
X105752144Y-80951005D01*
X105805203Y-80934124D01*
X105866586Y-80936655D01*
G36*
X106261628Y-80926848D02*
G01*
X106307686Y-80942000D01*
X106347391Y-80966618D01*
X106371966Y-80994983D01*
X106381582Y-81030174D01*
X106374442Y-81063526D01*
X106352398Y-81088233D01*
X106345587Y-81091898D01*
X106329872Y-81097866D01*
X106314593Y-81098819D01*
X106293988Y-81093737D01*
X106262296Y-81081599D01*
X106243437Y-81073794D01*
X106233225Y-81071802D01*
X106227630Y-81079390D01*
X106225312Y-81100679D01*
X106224916Y-81130701D01*
X106226478Y-81170053D01*
X106232945Y-81190352D01*
X106246989Y-81193594D01*
X106271282Y-81181773D01*
X106283125Y-81174166D01*
X106319305Y-81157500D01*
X106353797Y-81153987D01*
X106379943Y-81164198D01*
X106381550Y-81165700D01*
X106392268Y-81189241D01*
X106393532Y-81222862D01*
X106385989Y-81258043D01*
X106372601Y-81283499D01*
X106338316Y-81311233D01*
X106291620Y-81327491D01*
X106238336Y-81331548D01*
X106184286Y-81322677D01*
X106153737Y-81310763D01*
X106108809Y-81280440D01*
X106079526Y-81240271D01*
X106064345Y-81187354D01*
X106061287Y-81137125D01*
X106064614Y-81082469D01*
X106075194Y-81038512D01*
X106086183Y-81012482D01*
X106113609Y-80970010D01*
X106149587Y-80942721D01*
X106198991Y-80927337D01*
X106216796Y-80924600D01*
X106261628Y-80926848D01*
G37*
X106261628Y-80926848D02*
X106307686Y-80942000D01*
X106347391Y-80966618D01*
X106371966Y-80994983D01*
X106381582Y-81030174D01*
X106374442Y-81063526D01*
X106352398Y-81088233D01*
X106345587Y-81091898D01*
X106329872Y-81097866D01*
X106314593Y-81098819D01*
X106293988Y-81093737D01*
X106262296Y-81081599D01*
X106243437Y-81073794D01*
X106233225Y-81071802D01*
X106227630Y-81079390D01*
X106225312Y-81100679D01*
X106224916Y-81130701D01*
X106226478Y-81170053D01*
X106232945Y-81190352D01*
X106246989Y-81193594D01*
X106271282Y-81181773D01*
X106283125Y-81174166D01*
X106319305Y-81157500D01*
X106353797Y-81153987D01*
X106379943Y-81164198D01*
X106381550Y-81165700D01*
X106392268Y-81189241D01*
X106393532Y-81222862D01*
X106385989Y-81258043D01*
X106372601Y-81283499D01*
X106338316Y-81311233D01*
X106291620Y-81327491D01*
X106238336Y-81331548D01*
X106184286Y-81322677D01*
X106153737Y-81310763D01*
X106108809Y-81280440D01*
X106079526Y-81240271D01*
X106064345Y-81187354D01*
X106061287Y-81137125D01*
X106064614Y-81082469D01*
X106075194Y-81038512D01*
X106086183Y-81012482D01*
X106113609Y-80970010D01*
X106149587Y-80942721D01*
X106198991Y-80927337D01*
X106216796Y-80924600D01*
X106261628Y-80926848D01*
G36*
X106644733Y-80935615D02*
G01*
X106701144Y-80957941D01*
X106713213Y-80965418D01*
X106752100Y-81002985D01*
X106780419Y-81054040D01*
X106796861Y-81113039D01*
X106800120Y-81174438D01*
X106788888Y-81232691D01*
X106780845Y-81252238D01*
X106751900Y-81289222D01*
X106708833Y-81315713D01*
X106656649Y-81330283D01*
X106600355Y-81331504D01*
X106547330Y-81318882D01*
X106490948Y-81287755D01*
X106452093Y-81244761D01*
X106430768Y-81189904D01*
X106426299Y-81142703D01*
X106595693Y-81142703D01*
X106596591Y-81171250D01*
X106602388Y-81188277D01*
X106619443Y-81197373D01*
X106631375Y-81186988D01*
X106637136Y-81158411D01*
X106637504Y-81145062D01*
X106635040Y-81104991D01*
X106628568Y-81080786D01*
X106619008Y-81074191D01*
X106607282Y-81086951D01*
X106607054Y-81087374D01*
X106599320Y-81111728D01*
X106595693Y-81142703D01*
X106426299Y-81142703D01*
X106426271Y-81142416D01*
X106434802Y-81075768D01*
X106458110Y-81019756D01*
X106493475Y-80976058D01*
X106538179Y-80946351D01*
X106589505Y-80932311D01*
X106644733Y-80935615D01*
G37*
X106644733Y-80935615D02*
X106701144Y-80957941D01*
X106713213Y-80965418D01*
X106752100Y-81002985D01*
X106780419Y-81054040D01*
X106796861Y-81113039D01*
X106800120Y-81174438D01*
X106788888Y-81232691D01*
X106780845Y-81252238D01*
X106751900Y-81289222D01*
X106708833Y-81315713D01*
X106656649Y-81330283D01*
X106600355Y-81331504D01*
X106547330Y-81318882D01*
X106490948Y-81287755D01*
X106452093Y-81244761D01*
X106430768Y-81189904D01*
X106426299Y-81142703D01*
X106595693Y-81142703D01*
X106596591Y-81171250D01*
X106602388Y-81188277D01*
X106619443Y-81197373D01*
X106631375Y-81186988D01*
X106637136Y-81158411D01*
X106637504Y-81145062D01*
X106635040Y-81104991D01*
X106628568Y-81080786D01*
X106619008Y-81074191D01*
X106607282Y-81086951D01*
X106607054Y-81087374D01*
X106599320Y-81111728D01*
X106595693Y-81142703D01*
X106426299Y-81142703D01*
X106426271Y-81142416D01*
X106434802Y-81075768D01*
X106458110Y-81019756D01*
X106493475Y-80976058D01*
X106538179Y-80946351D01*
X106589505Y-80932311D01*
X106644733Y-80935615D01*
G36*
X107146105Y-80934562D02*
G01*
X107177716Y-80950679D01*
X107192245Y-80965918D01*
X107201702Y-80980788D01*
X107208047Y-80998137D01*
X107211882Y-81022326D01*
X107213810Y-81057717D01*
X107214434Y-81108671D01*
X107214458Y-81126525D01*
X107214093Y-81182672D01*
X107212597Y-81222021D01*
X107209365Y-81248934D01*
X107203794Y-81267774D01*
X107195279Y-81282903D01*
X107192226Y-81287149D01*
X107172568Y-81307284D01*
X107147263Y-81317177D01*
X107120920Y-81320262D01*
X107092186Y-81321170D01*
X107073920Y-81316345D01*
X107058859Y-81301626D01*
X107040634Y-81274267D01*
X107009423Y-81225052D01*
X107002235Y-81263368D01*
X106986499Y-81302496D01*
X106959549Y-81325628D01*
X106925513Y-81331353D01*
X106888521Y-81318256D01*
X106873735Y-81307357D01*
X106844041Y-81281798D01*
X106844041Y-81211208D01*
X106997500Y-81211208D01*
X107002791Y-81216500D01*
X107008083Y-81211208D01*
X107002791Y-81205916D01*
X106997500Y-81211208D01*
X106844041Y-81211208D01*
X106844041Y-81003077D01*
X106878604Y-80972205D01*
X106918639Y-80946190D01*
X106956679Y-80941231D01*
X106992413Y-80957284D01*
X107024483Y-80992748D01*
X107050416Y-81030913D01*
X107050416Y-80996950D01*
X107059062Y-80964658D01*
X107081447Y-80942718D01*
X107112238Y-80932297D01*
X107146105Y-80934562D01*
G37*
X107146105Y-80934562D02*
X107177716Y-80950679D01*
X107192245Y-80965918D01*
X107201702Y-80980788D01*
X107208047Y-80998137D01*
X107211882Y-81022326D01*
X107213810Y-81057717D01*
X107214434Y-81108671D01*
X107214458Y-81126525D01*
X107214093Y-81182672D01*
X107212597Y-81222021D01*
X107209365Y-81248934D01*
X107203794Y-81267774D01*
X107195279Y-81282903D01*
X107192226Y-81287149D01*
X107172568Y-81307284D01*
X107147263Y-81317177D01*
X107120920Y-81320262D01*
X107092186Y-81321170D01*
X107073920Y-81316345D01*
X107058859Y-81301626D01*
X107040634Y-81274267D01*
X107009423Y-81225052D01*
X107002235Y-81263368D01*
X106986499Y-81302496D01*
X106959549Y-81325628D01*
X106925513Y-81331353D01*
X106888521Y-81318256D01*
X106873735Y-81307357D01*
X106844041Y-81281798D01*
X106844041Y-81211208D01*
X106997500Y-81211208D01*
X107002791Y-81216500D01*
X107008083Y-81211208D01*
X107002791Y-81205916D01*
X106997500Y-81211208D01*
X106844041Y-81211208D01*
X106844041Y-81003077D01*
X106878604Y-80972205D01*
X106918639Y-80946190D01*
X106956679Y-80941231D01*
X106992413Y-80957284D01*
X107024483Y-80992748D01*
X107050416Y-81030913D01*
X107050416Y-80996950D01*
X107059062Y-80964658D01*
X107081447Y-80942718D01*
X107112238Y-80932297D01*
X107146105Y-80934562D01*
G36*
X107589757Y-80939675D02*
G01*
X107616467Y-80959854D01*
X107630942Y-80975517D01*
X107639227Y-80990568D01*
X107642561Y-81010892D01*
X107642182Y-81042378D01*
X107640408Y-81073625D01*
X107630510Y-81150720D01*
X107611729Y-81217341D01*
X107585333Y-81270229D01*
X107552589Y-81306130D01*
X107548914Y-81308728D01*
X107505071Y-81327203D01*
X107450870Y-81333818D01*
X107393512Y-81328530D01*
X107340200Y-81311295D01*
X107337511Y-81309992D01*
X107294997Y-81277673D01*
X107266630Y-81230431D01*
X107252708Y-81169348D01*
X107253525Y-81095505D01*
X107262940Y-81037198D01*
X107280330Y-80990948D01*
X107307621Y-80958771D01*
X107341396Y-80942411D01*
X107378244Y-80943613D01*
X107411432Y-80961329D01*
X107424021Y-80972668D01*
X107430365Y-80984662D01*
X107431164Y-81003013D01*
X107427121Y-81033422D01*
X107423188Y-81056775D01*
X107415041Y-81107417D01*
X107411359Y-81141136D01*
X107412223Y-81161719D01*
X107417716Y-81172952D01*
X107425818Y-81177876D01*
X107445424Y-81177896D01*
X107460095Y-81160186D01*
X107470321Y-81123687D01*
X107476498Y-81068776D01*
X107483009Y-81009559D01*
X107493968Y-80968760D01*
X107510755Y-80943853D01*
X107534749Y-80932314D01*
X107551925Y-80930750D01*
X107589757Y-80939675D01*
G37*
X107589757Y-80939675D02*
X107616467Y-80959854D01*
X107630942Y-80975517D01*
X107639227Y-80990568D01*
X107642561Y-81010892D01*
X107642182Y-81042378D01*
X107640408Y-81073625D01*
X107630510Y-81150720D01*
X107611729Y-81217341D01*
X107585333Y-81270229D01*
X107552589Y-81306130D01*
X107548914Y-81308728D01*
X107505071Y-81327203D01*
X107450870Y-81333818D01*
X107393512Y-81328530D01*
X107340200Y-81311295D01*
X107337511Y-81309992D01*
X107294997Y-81277673D01*
X107266630Y-81230431D01*
X107252708Y-81169348D01*
X107253525Y-81095505D01*
X107262940Y-81037198D01*
X107280330Y-80990948D01*
X107307621Y-80958771D01*
X107341396Y-80942411D01*
X107378244Y-80943613D01*
X107411432Y-80961329D01*
X107424021Y-80972668D01*
X107430365Y-80984662D01*
X107431164Y-81003013D01*
X107427121Y-81033422D01*
X107423188Y-81056775D01*
X107415041Y-81107417D01*
X107411359Y-81141136D01*
X107412223Y-81161719D01*
X107417716Y-81172952D01*
X107425818Y-81177876D01*
X107445424Y-81177896D01*
X107460095Y-81160186D01*
X107470321Y-81123687D01*
X107476498Y-81068776D01*
X107483009Y-81009559D01*
X107493968Y-80968760D01*
X107510755Y-80943853D01*
X107534749Y-80932314D01*
X107551925Y-80930750D01*
X107589757Y-80939675D01*
G36*
X107897567Y-80936243D02*
G01*
X107948502Y-80944829D01*
X107990212Y-80957974D01*
X108017840Y-80975266D01*
X108023829Y-80983192D01*
X108034042Y-81017414D01*
X108024580Y-81044322D01*
X107995820Y-81063380D01*
X107961191Y-81072300D01*
X107918045Y-81079199D01*
X107926085Y-81124037D01*
X107933476Y-81187067D01*
X107932568Y-81243021D01*
X107923658Y-81286931D01*
X107915360Y-81304288D01*
X107889181Y-81326893D01*
X107854251Y-81334629D01*
X107816962Y-81327412D01*
X107784501Y-81305963D01*
X107772221Y-81292519D01*
X107764577Y-81278678D01*
X107760699Y-81259514D01*
X107759720Y-81230100D01*
X107760769Y-81185510D01*
X107761169Y-81173661D01*
X107764791Y-81068312D01*
X107738042Y-81068323D01*
X107701729Y-81060883D01*
X107676716Y-81041789D01*
X107664709Y-81015921D01*
X107667417Y-80988162D01*
X107686547Y-80963393D01*
X107698645Y-80955693D01*
X107737944Y-80941940D01*
X107787433Y-80934388D01*
X107842259Y-80932626D01*
X107897567Y-80936243D01*
G37*
X107897567Y-80936243D02*
X107948502Y-80944829D01*
X107990212Y-80957974D01*
X108017840Y-80975266D01*
X108023829Y-80983192D01*
X108034042Y-81017414D01*
X108024580Y-81044322D01*
X107995820Y-81063380D01*
X107961191Y-81072300D01*
X107918045Y-81079199D01*
X107926085Y-81124037D01*
X107933476Y-81187067D01*
X107932568Y-81243021D01*
X107923658Y-81286931D01*
X107915360Y-81304288D01*
X107889181Y-81326893D01*
X107854251Y-81334629D01*
X107816962Y-81327412D01*
X107784501Y-81305963D01*
X107772221Y-81292519D01*
X107764577Y-81278678D01*
X107760699Y-81259514D01*
X107759720Y-81230100D01*
X107760769Y-81185510D01*
X107761169Y-81173661D01*
X107764791Y-81068312D01*
X107738042Y-81068323D01*
X107701729Y-81060883D01*
X107676716Y-81041789D01*
X107664709Y-81015921D01*
X107667417Y-80988162D01*
X107686547Y-80963393D01*
X107698645Y-80955693D01*
X107737944Y-80941940D01*
X107787433Y-80934388D01*
X107842259Y-80932626D01*
X107897567Y-80936243D01*
G36*
X108249376Y-80925249D02*
G01*
X108288830Y-80936523D01*
X108321000Y-80955728D01*
X108342752Y-80980080D01*
X108350952Y-81006791D01*
X108342463Y-81033074D01*
X108336110Y-81040544D01*
X108313781Y-81053203D01*
X108286216Y-81057352D01*
X108261944Y-81052861D01*
X108250160Y-81041875D01*
X108236835Y-81027809D01*
X108229326Y-81026000D01*
X108215337Y-81030456D01*
X108219684Y-81043177D01*
X108241656Y-81063192D01*
X108271760Y-81084005D01*
X108321932Y-81120257D01*
X108353951Y-81154238D01*
X108370151Y-81188986D01*
X108373333Y-81216082D01*
X108363633Y-81255089D01*
X108336940Y-81287713D01*
X108296861Y-81312428D01*
X108247003Y-81327711D01*
X108190973Y-81332038D01*
X108132380Y-81323883D01*
X108123764Y-81321538D01*
X108088844Y-81304559D01*
X108063745Y-81279421D01*
X108051149Y-81250909D01*
X108053743Y-81223807D01*
X108062130Y-81211714D01*
X108083963Y-81200042D01*
X108096885Y-81201629D01*
X108122404Y-81209607D01*
X108150162Y-81213927D01*
X108172758Y-81213983D01*
X108182792Y-81209167D01*
X108182833Y-81208681D01*
X108174051Y-81198600D01*
X108151903Y-81185007D01*
X108139875Y-81179176D01*
X108107489Y-81159875D01*
X108080539Y-81136056D01*
X108075726Y-81130045D01*
X108052901Y-81083659D01*
X108049830Y-81039160D01*
X108065102Y-80998774D01*
X108097309Y-80964726D01*
X108145039Y-80939244D01*
X108205774Y-80924694D01*
X108249376Y-80925249D01*
G37*
X108249376Y-80925249D02*
X108288830Y-80936523D01*
X108321000Y-80955728D01*
X108342752Y-80980080D01*
X108350952Y-81006791D01*
X108342463Y-81033074D01*
X108336110Y-81040544D01*
X108313781Y-81053203D01*
X108286216Y-81057352D01*
X108261944Y-81052861D01*
X108250160Y-81041875D01*
X108236835Y-81027809D01*
X108229326Y-81026000D01*
X108215337Y-81030456D01*
X108219684Y-81043177D01*
X108241656Y-81063192D01*
X108271760Y-81084005D01*
X108321932Y-81120257D01*
X108353951Y-81154238D01*
X108370151Y-81188986D01*
X108373333Y-81216082D01*
X108363633Y-81255089D01*
X108336940Y-81287713D01*
X108296861Y-81312428D01*
X108247003Y-81327711D01*
X108190973Y-81332038D01*
X108132380Y-81323883D01*
X108123764Y-81321538D01*
X108088844Y-81304559D01*
X108063745Y-81279421D01*
X108051149Y-81250909D01*
X108053743Y-81223807D01*
X108062130Y-81211714D01*
X108083963Y-81200042D01*
X108096885Y-81201629D01*
X108122404Y-81209607D01*
X108150162Y-81213927D01*
X108172758Y-81213983D01*
X108182792Y-81209167D01*
X108182833Y-81208681D01*
X108174051Y-81198600D01*
X108151903Y-81185007D01*
X108139875Y-81179176D01*
X108107489Y-81159875D01*
X108080539Y-81136056D01*
X108075726Y-81130045D01*
X108052901Y-81083659D01*
X108049830Y-81039160D01*
X108065102Y-80998774D01*
X108097309Y-80964726D01*
X108145039Y-80939244D01*
X108205774Y-80924694D01*
X108249376Y-80925249D01*
G36*
X105487951Y-80479688D02*
G01*
X105515515Y-80489206D01*
X105550831Y-80517958D01*
X105577615Y-80560845D01*
X105593771Y-80611838D01*
X105597203Y-80664905D01*
X105589908Y-80703233D01*
X105567098Y-80741097D01*
X105530063Y-80767595D01*
X105483223Y-80781381D01*
X105430997Y-80781106D01*
X105381104Y-80766892D01*
X105343659Y-80740060D01*
X105318470Y-80700577D01*
X105305873Y-80653283D01*
X105306058Y-80624944D01*
X105435747Y-80624944D01*
X105436039Y-80650861D01*
X105442596Y-80670690D01*
X105451821Y-80676750D01*
X105462716Y-80668104D01*
X105467327Y-80658229D01*
X105468877Y-80634897D01*
X105464589Y-80607958D01*
X105456014Y-80576208D01*
X105442690Y-80601006D01*
X105435747Y-80624944D01*
X105306058Y-80624944D01*
X105306202Y-80603019D01*
X105319792Y-80554625D01*
X105346980Y-80512940D01*
X105362519Y-80498610D01*
X105397558Y-80482115D01*
X105442412Y-80475621D01*
X105487951Y-80479688D01*
G37*
X105487951Y-80479688D02*
X105515515Y-80489206D01*
X105550831Y-80517958D01*
X105577615Y-80560845D01*
X105593771Y-80611838D01*
X105597203Y-80664905D01*
X105589908Y-80703233D01*
X105567098Y-80741097D01*
X105530063Y-80767595D01*
X105483223Y-80781381D01*
X105430997Y-80781106D01*
X105381104Y-80766892D01*
X105343659Y-80740060D01*
X105318470Y-80700577D01*
X105305873Y-80653283D01*
X105306058Y-80624944D01*
X105435747Y-80624944D01*
X105436039Y-80650861D01*
X105442596Y-80670690D01*
X105451821Y-80676750D01*
X105462716Y-80668104D01*
X105467327Y-80658229D01*
X105468877Y-80634897D01*
X105464589Y-80607958D01*
X105456014Y-80576208D01*
X105442690Y-80601006D01*
X105435747Y-80624944D01*
X105306058Y-80624944D01*
X105306202Y-80603019D01*
X105319792Y-80554625D01*
X105346980Y-80512940D01*
X105362519Y-80498610D01*
X105397558Y-80482115D01*
X105442412Y-80475621D01*
X105487951Y-80479688D01*
G36*
X105780499Y-80470952D02*
G01*
X105818466Y-80480781D01*
X105852545Y-80497288D01*
X105874119Y-80518991D01*
X105887114Y-80543106D01*
X105906951Y-80586791D01*
X105907184Y-80549126D01*
X105910520Y-80516429D01*
X105922485Y-80494856D01*
X105946742Y-80481616D01*
X105986953Y-80473919D01*
X106008719Y-80471732D01*
X106063066Y-80469957D01*
X106098060Y-80475826D01*
X106114167Y-80489543D01*
X106111852Y-80511313D01*
X106109467Y-80516191D01*
X106088210Y-80535617D01*
X106071085Y-80539166D01*
X106050085Y-80544753D01*
X106045000Y-80555041D01*
X106054357Y-80567759D01*
X106074104Y-80571078D01*
X106109300Y-80576881D01*
X106126878Y-80591549D01*
X106126488Y-80611707D01*
X106107780Y-80633978D01*
X106082262Y-80649676D01*
X106040149Y-80670227D01*
X106074324Y-80679082D01*
X106100731Y-80693412D01*
X106109177Y-80715522D01*
X106099360Y-80741529D01*
X106080614Y-80760648D01*
X106047897Y-80775943D01*
X106005518Y-80782688D01*
X105963514Y-80780087D01*
X105938933Y-80771875D01*
X105921510Y-80752477D01*
X105907364Y-80718002D01*
X105898516Y-80674499D01*
X105896570Y-80645000D01*
X105895582Y-80621881D01*
X105892015Y-80617470D01*
X105884050Y-80629125D01*
X105859444Y-80658909D01*
X105824083Y-80676576D01*
X105798937Y-80682340D01*
X105772851Y-80688689D01*
X105761683Y-80699681D01*
X105759252Y-80721676D01*
X105759250Y-80723188D01*
X105755512Y-80750951D01*
X105746550Y-80769883D01*
X105725549Y-80779396D01*
X105694966Y-80782182D01*
X105664599Y-80778443D01*
X105644247Y-80768380D01*
X105643711Y-80767766D01*
X105630994Y-80740817D01*
X105622087Y-80699190D01*
X105617156Y-80649056D01*
X105616366Y-80596589D01*
X105617839Y-80576208D01*
X105748666Y-80576208D01*
X105751958Y-80594600D01*
X105759250Y-80597375D01*
X105769095Y-80582017D01*
X105769833Y-80576208D01*
X105763123Y-80558456D01*
X105759250Y-80555041D01*
X105751447Y-80558837D01*
X105748666Y-80576208D01*
X105617839Y-80576208D01*
X105619883Y-80547959D01*
X105627872Y-80509339D01*
X105636297Y-80491454D01*
X105657466Y-80477717D01*
X105692803Y-80469472D01*
X105735937Y-80467093D01*
X105780499Y-80470952D01*
G37*
X105780499Y-80470952D02*
X105818466Y-80480781D01*
X105852545Y-80497288D01*
X105874119Y-80518991D01*
X105887114Y-80543106D01*
X105906951Y-80586791D01*
X105907184Y-80549126D01*
X105910520Y-80516429D01*
X105922485Y-80494856D01*
X105946742Y-80481616D01*
X105986953Y-80473919D01*
X106008719Y-80471732D01*
X106063066Y-80469957D01*
X106098060Y-80475826D01*
X106114167Y-80489543D01*
X106111852Y-80511313D01*
X106109467Y-80516191D01*
X106088210Y-80535617D01*
X106071085Y-80539166D01*
X106050085Y-80544753D01*
X106045000Y-80555041D01*
X106054357Y-80567759D01*
X106074104Y-80571078D01*
X106109300Y-80576881D01*
X106126878Y-80591549D01*
X106126488Y-80611707D01*
X106107780Y-80633978D01*
X106082262Y-80649676D01*
X106040149Y-80670227D01*
X106074324Y-80679082D01*
X106100731Y-80693412D01*
X106109177Y-80715522D01*
X106099360Y-80741529D01*
X106080614Y-80760648D01*
X106047897Y-80775943D01*
X106005518Y-80782688D01*
X105963514Y-80780087D01*
X105938933Y-80771875D01*
X105921510Y-80752477D01*
X105907364Y-80718002D01*
X105898516Y-80674499D01*
X105896570Y-80645000D01*
X105895582Y-80621881D01*
X105892015Y-80617470D01*
X105884050Y-80629125D01*
X105859444Y-80658909D01*
X105824083Y-80676576D01*
X105798937Y-80682340D01*
X105772851Y-80688689D01*
X105761683Y-80699681D01*
X105759252Y-80721676D01*
X105759250Y-80723188D01*
X105755512Y-80750951D01*
X105746550Y-80769883D01*
X105725549Y-80779396D01*
X105694966Y-80782182D01*
X105664599Y-80778443D01*
X105644247Y-80768380D01*
X105643711Y-80767766D01*
X105630994Y-80740817D01*
X105622087Y-80699190D01*
X105617156Y-80649056D01*
X105616366Y-80596589D01*
X105617839Y-80576208D01*
X105748666Y-80576208D01*
X105751958Y-80594600D01*
X105759250Y-80597375D01*
X105769095Y-80582017D01*
X105769833Y-80576208D01*
X105763123Y-80558456D01*
X105759250Y-80555041D01*
X105751447Y-80558837D01*
X105748666Y-80576208D01*
X105617839Y-80576208D01*
X105619883Y-80547959D01*
X105627872Y-80509339D01*
X105636297Y-80491454D01*
X105657466Y-80477717D01*
X105692803Y-80469472D01*
X105735937Y-80467093D01*
X105780499Y-80470952D01*
G36*
X106397684Y-80472534D02*
G01*
X106418094Y-80480268D01*
X106432238Y-80496162D01*
X106441123Y-80523396D01*
X106445762Y-80565151D01*
X106447163Y-80624609D01*
X106447166Y-80628386D01*
X106446469Y-80677298D01*
X106443766Y-80710364D01*
X106438137Y-80732877D01*
X106428664Y-80750132D01*
X106425231Y-80754697D01*
X106399720Y-80776236D01*
X106377125Y-80782583D01*
X106352543Y-80775201D01*
X106326254Y-80757233D01*
X106305763Y-80734945D01*
X106298491Y-80716918D01*
X106294305Y-80716405D01*
X106284416Y-80731519D01*
X106279939Y-80740250D01*
X106256678Y-80769830D01*
X106227126Y-80782108D01*
X106196246Y-80776097D01*
X106176750Y-80760762D01*
X106167036Y-80746995D01*
X106160893Y-80728576D01*
X106157562Y-80700765D01*
X106156286Y-80658821D01*
X106156180Y-80632284D01*
X106156481Y-80583904D01*
X106158054Y-80551840D01*
X106161999Y-80531244D01*
X106169413Y-80517266D01*
X106181395Y-80505057D01*
X106185874Y-80501161D01*
X106218857Y-80480220D01*
X106248913Y-80479073D01*
X106280013Y-80497928D01*
X106289230Y-80506602D01*
X106308698Y-80524781D01*
X106317783Y-80528412D01*
X106320156Y-80518780D01*
X106320166Y-80517429D01*
X106329546Y-80494543D01*
X106353097Y-80477822D01*
X106383935Y-80471252D01*
X106397684Y-80472534D01*
G37*
X106397684Y-80472534D02*
X106418094Y-80480268D01*
X106432238Y-80496162D01*
X106441123Y-80523396D01*
X106445762Y-80565151D01*
X106447163Y-80624609D01*
X106447166Y-80628386D01*
X106446469Y-80677298D01*
X106443766Y-80710364D01*
X106438137Y-80732877D01*
X106428664Y-80750132D01*
X106425231Y-80754697D01*
X106399720Y-80776236D01*
X106377125Y-80782583D01*
X106352543Y-80775201D01*
X106326254Y-80757233D01*
X106305763Y-80734945D01*
X106298491Y-80716918D01*
X106294305Y-80716405D01*
X106284416Y-80731519D01*
X106279939Y-80740250D01*
X106256678Y-80769830D01*
X106227126Y-80782108D01*
X106196246Y-80776097D01*
X106176750Y-80760762D01*
X106167036Y-80746995D01*
X106160893Y-80728576D01*
X106157562Y-80700765D01*
X106156286Y-80658821D01*
X106156180Y-80632284D01*
X106156481Y-80583904D01*
X106158054Y-80551840D01*
X106161999Y-80531244D01*
X106169413Y-80517266D01*
X106181395Y-80505057D01*
X106185874Y-80501161D01*
X106218857Y-80480220D01*
X106248913Y-80479073D01*
X106280013Y-80497928D01*
X106289230Y-80506602D01*
X106308698Y-80524781D01*
X106317783Y-80528412D01*
X106320156Y-80518780D01*
X106320166Y-80517429D01*
X106329546Y-80494543D01*
X106353097Y-80477822D01*
X106383935Y-80471252D01*
X106397684Y-80472534D01*
G36*
X106790227Y-80471124D02*
G01*
X106821422Y-80486874D01*
X106841947Y-80508776D01*
X106848553Y-80533271D01*
X106837993Y-80556803D01*
X106836633Y-80558216D01*
X106815543Y-80568960D01*
X106790710Y-80569545D01*
X106771865Y-80560422D01*
X106768493Y-80555041D01*
X106758085Y-80541543D01*
X106747113Y-80540609D01*
X106743500Y-80549668D01*
X106751693Y-80560656D01*
X106772935Y-80578400D01*
X106796063Y-80594647D01*
X106839058Y-80630147D01*
X106863153Y-80666626D01*
X106868090Y-80702086D01*
X106853612Y-80734525D01*
X106819461Y-80761943D01*
X106817748Y-80762872D01*
X106780754Y-80775671D01*
X106735776Y-80781669D01*
X106691609Y-80780486D01*
X106657045Y-80771746D01*
X106653541Y-80769936D01*
X106627262Y-80749100D01*
X106617230Y-80722343D01*
X106616662Y-80711770D01*
X106622447Y-80687658D01*
X106640777Y-80680048D01*
X106670394Y-80687738D01*
X106694219Y-80694460D01*
X106709046Y-80692974D01*
X106709443Y-80692600D01*
X106708554Y-80682682D01*
X106702786Y-80679368D01*
X106677976Y-80664672D01*
X106650616Y-80640283D01*
X106627277Y-80612995D01*
X106614529Y-80589598D01*
X106614077Y-80587669D01*
X106616025Y-80547258D01*
X106635801Y-80512015D01*
X106670191Y-80484805D01*
X106715982Y-80468491D01*
X106751609Y-80465083D01*
X106790227Y-80471124D01*
G37*
X106790227Y-80471124D02*
X106821422Y-80486874D01*
X106841947Y-80508776D01*
X106848553Y-80533271D01*
X106837993Y-80556803D01*
X106836633Y-80558216D01*
X106815543Y-80568960D01*
X106790710Y-80569545D01*
X106771865Y-80560422D01*
X106768493Y-80555041D01*
X106758085Y-80541543D01*
X106747113Y-80540609D01*
X106743500Y-80549668D01*
X106751693Y-80560656D01*
X106772935Y-80578400D01*
X106796063Y-80594647D01*
X106839058Y-80630147D01*
X106863153Y-80666626D01*
X106868090Y-80702086D01*
X106853612Y-80734525D01*
X106819461Y-80761943D01*
X106817748Y-80762872D01*
X106780754Y-80775671D01*
X106735776Y-80781669D01*
X106691609Y-80780486D01*
X106657045Y-80771746D01*
X106653541Y-80769936D01*
X106627262Y-80749100D01*
X106617230Y-80722343D01*
X106616662Y-80711770D01*
X106622447Y-80687658D01*
X106640777Y-80680048D01*
X106670394Y-80687738D01*
X106694219Y-80694460D01*
X106709046Y-80692974D01*
X106709443Y-80692600D01*
X106708554Y-80682682D01*
X106702786Y-80679368D01*
X106677976Y-80664672D01*
X106650616Y-80640283D01*
X106627277Y-80612995D01*
X106614529Y-80589598D01*
X106614077Y-80587669D01*
X106616025Y-80547258D01*
X106635801Y-80512015D01*
X106670191Y-80484805D01*
X106715982Y-80468491D01*
X106751609Y-80465083D01*
X106790227Y-80471124D01*
G36*
X107083526Y-80483705D02*
G01*
X107126730Y-80508089D01*
X107158404Y-80549589D01*
X107179308Y-80608937D01*
X107182512Y-80624329D01*
X107182619Y-80667307D01*
X107169939Y-80710834D01*
X107147569Y-80747387D01*
X107123713Y-80767114D01*
X107081136Y-80779861D01*
X107030916Y-80781663D01*
X106983015Y-80772835D01*
X106958387Y-80761882D01*
X106917868Y-80728142D01*
X106895499Y-80685787D01*
X106891674Y-80655582D01*
X107020669Y-80655582D01*
X107023533Y-80665479D01*
X107036005Y-80676928D01*
X107045463Y-80669205D01*
X107050179Y-80644265D01*
X107050416Y-80635041D01*
X107048084Y-80606957D01*
X107042290Y-80589081D01*
X107040368Y-80587122D01*
X107032554Y-80591674D01*
X107025569Y-80609712D01*
X107021058Y-80633569D01*
X107020669Y-80655582D01*
X106891674Y-80655582D01*
X106889224Y-80636246D01*
X106897287Y-80576470D01*
X106920243Y-80528684D01*
X106956240Y-80495029D01*
X107003426Y-80477648D01*
X107028031Y-80475706D01*
X107083526Y-80483705D01*
G37*
X107083526Y-80483705D02*
X107126730Y-80508089D01*
X107158404Y-80549589D01*
X107179308Y-80608937D01*
X107182512Y-80624329D01*
X107182619Y-80667307D01*
X107169939Y-80710834D01*
X107147569Y-80747387D01*
X107123713Y-80767114D01*
X107081136Y-80779861D01*
X107030916Y-80781663D01*
X106983015Y-80772835D01*
X106958387Y-80761882D01*
X106917868Y-80728142D01*
X106895499Y-80685787D01*
X106891674Y-80655582D01*
X107020669Y-80655582D01*
X107023533Y-80665479D01*
X107036005Y-80676928D01*
X107045463Y-80669205D01*
X107050179Y-80644265D01*
X107050416Y-80635041D01*
X107048084Y-80606957D01*
X107042290Y-80589081D01*
X107040368Y-80587122D01*
X107032554Y-80591674D01*
X107025569Y-80609712D01*
X107021058Y-80633569D01*
X107020669Y-80655582D01*
X106891674Y-80655582D01*
X106889224Y-80636246D01*
X106897287Y-80576470D01*
X106920243Y-80528684D01*
X106956240Y-80495029D01*
X107003426Y-80477648D01*
X107028031Y-80475706D01*
X107083526Y-80483705D01*
G36*
X107463965Y-80475997D02*
G01*
X107491413Y-80497380D01*
X107506037Y-80533980D01*
X107508096Y-80586657D01*
X107505291Y-80613665D01*
X107491619Y-80679053D01*
X107470920Y-80729625D01*
X107444369Y-80762619D01*
X107440763Y-80765325D01*
X107414157Y-80775490D01*
X107375135Y-80781066D01*
X107332014Y-80781703D01*
X107293115Y-80777052D01*
X107276774Y-80772210D01*
X107254909Y-80757741D01*
X107232188Y-80734882D01*
X107230840Y-80733199D01*
X107219408Y-80716398D01*
X107212732Y-80698130D01*
X107209902Y-80672768D01*
X107210009Y-80634684D01*
X107210858Y-80609667D01*
X107213210Y-80563620D01*
X107216825Y-80533646D01*
X107222985Y-80514652D01*
X107232967Y-80501547D01*
X107239443Y-80495891D01*
X107275251Y-80477998D01*
X107311416Y-80479946D01*
X107330659Y-80490075D01*
X107340775Y-80499513D01*
X107345286Y-80512376D01*
X107344675Y-80534178D01*
X107339428Y-80570437D01*
X107338315Y-80577200D01*
X107332554Y-80625737D01*
X107334652Y-80654819D01*
X107344677Y-80664671D01*
X107362176Y-80655955D01*
X107373911Y-80634584D01*
X107378491Y-80599201D01*
X107378500Y-80597402D01*
X107382301Y-80536989D01*
X107393937Y-80495879D01*
X107413760Y-80473573D01*
X107442118Y-80469573D01*
X107463965Y-80475997D01*
G37*
X107463965Y-80475997D02*
X107491413Y-80497380D01*
X107506037Y-80533980D01*
X107508096Y-80586657D01*
X107505291Y-80613665D01*
X107491619Y-80679053D01*
X107470920Y-80729625D01*
X107444369Y-80762619D01*
X107440763Y-80765325D01*
X107414157Y-80775490D01*
X107375135Y-80781066D01*
X107332014Y-80781703D01*
X107293115Y-80777052D01*
X107276774Y-80772210D01*
X107254909Y-80757741D01*
X107232188Y-80734882D01*
X107230840Y-80733199D01*
X107219408Y-80716398D01*
X107212732Y-80698130D01*
X107209902Y-80672768D01*
X107210009Y-80634684D01*
X107210858Y-80609667D01*
X107213210Y-80563620D01*
X107216825Y-80533646D01*
X107222985Y-80514652D01*
X107232967Y-80501547D01*
X107239443Y-80495891D01*
X107275251Y-80477998D01*
X107311416Y-80479946D01*
X107330659Y-80490075D01*
X107340775Y-80499513D01*
X107345286Y-80512376D01*
X107344675Y-80534178D01*
X107339428Y-80570437D01*
X107338315Y-80577200D01*
X107332554Y-80625737D01*
X107334652Y-80654819D01*
X107344677Y-80664671D01*
X107362176Y-80655955D01*
X107373911Y-80634584D01*
X107378491Y-80599201D01*
X107378500Y-80597402D01*
X107382301Y-80536989D01*
X107393937Y-80495879D01*
X107413760Y-80473573D01*
X107442118Y-80469573D01*
X107463965Y-80475997D01*
G36*
X107752800Y-80479976D02*
G01*
X107786996Y-80501930D01*
X107798916Y-80518396D01*
X107810392Y-80556057D01*
X107810215Y-80594564D01*
X107798779Y-80625555D01*
X107793588Y-80631770D01*
X107782425Y-80644818D01*
X107781813Y-80657201D01*
X107792493Y-80676560D01*
X107798880Y-80686164D01*
X107816281Y-80713999D01*
X107821240Y-80731884D01*
X107813847Y-80746926D01*
X107799837Y-80761004D01*
X107765945Y-80779499D01*
X107727899Y-80779168D01*
X107694164Y-80762244D01*
X107675675Y-80748899D01*
X107665581Y-80748808D01*
X107655776Y-80761971D01*
X107655605Y-80762244D01*
X107635994Y-80776430D01*
X107605808Y-80782665D01*
X107574255Y-80780530D01*
X107550540Y-80769606D01*
X107548181Y-80767128D01*
X107541896Y-80749530D01*
X107538636Y-80714599D01*
X107538296Y-80660813D01*
X107538948Y-80633880D01*
X107540907Y-80593847D01*
X107653666Y-80593847D01*
X107658952Y-80610862D01*
X107672511Y-80609696D01*
X107684251Y-80598779D01*
X107690214Y-80583009D01*
X107681927Y-80572412D01*
X107665043Y-80566007D01*
X107655283Y-80578632D01*
X107653666Y-80593847D01*
X107540907Y-80593847D01*
X107541873Y-80574111D01*
X107547965Y-80531979D01*
X107559583Y-80503973D01*
X107579084Y-80486578D01*
X107608827Y-80476281D01*
X107649077Y-80469829D01*
X107705513Y-80468849D01*
X107752800Y-80479976D01*
G37*
X107752800Y-80479976D02*
X107786996Y-80501930D01*
X107798916Y-80518396D01*
X107810392Y-80556057D01*
X107810215Y-80594564D01*
X107798779Y-80625555D01*
X107793588Y-80631770D01*
X107782425Y-80644818D01*
X107781813Y-80657201D01*
X107792493Y-80676560D01*
X107798880Y-80686164D01*
X107816281Y-80713999D01*
X107821240Y-80731884D01*
X107813847Y-80746926D01*
X107799837Y-80761004D01*
X107765945Y-80779499D01*
X107727899Y-80779168D01*
X107694164Y-80762244D01*
X107675675Y-80748899D01*
X107665581Y-80748808D01*
X107655776Y-80761971D01*
X107655605Y-80762244D01*
X107635994Y-80776430D01*
X107605808Y-80782665D01*
X107574255Y-80780530D01*
X107550540Y-80769606D01*
X107548181Y-80767128D01*
X107541896Y-80749530D01*
X107538636Y-80714599D01*
X107538296Y-80660813D01*
X107538948Y-80633880D01*
X107540907Y-80593847D01*
X107653666Y-80593847D01*
X107658952Y-80610862D01*
X107672511Y-80609696D01*
X107684251Y-80598779D01*
X107690214Y-80583009D01*
X107681927Y-80572412D01*
X107665043Y-80566007D01*
X107655283Y-80578632D01*
X107653666Y-80593847D01*
X107540907Y-80593847D01*
X107541873Y-80574111D01*
X107547965Y-80531979D01*
X107559583Y-80503973D01*
X107579084Y-80486578D01*
X107608827Y-80476281D01*
X107649077Y-80469829D01*
X107705513Y-80468849D01*
X107752800Y-80479976D01*
G36*
X108027090Y-80475169D02*
G01*
X108060107Y-80491552D01*
X108084182Y-80513663D01*
X108095908Y-80539485D01*
X108091881Y-80567002D01*
X108081138Y-80582774D01*
X108063117Y-80596396D01*
X108039223Y-80599912D01*
X108003507Y-80593874D01*
X107992333Y-80591017D01*
X107981614Y-80593734D01*
X107975474Y-80611525D01*
X107973135Y-80633162D01*
X107972050Y-80661463D01*
X107975483Y-80673246D01*
X107985286Y-80672992D01*
X107989010Y-80671548D01*
X108028133Y-80655672D01*
X108052949Y-80647250D01*
X108068530Y-80645227D01*
X108079954Y-80648550D01*
X108085206Y-80651583D01*
X108103159Y-80673809D01*
X108105273Y-80704174D01*
X108091594Y-80736824D01*
X108084469Y-80746131D01*
X108066268Y-80763506D01*
X108044610Y-80773498D01*
X108012153Y-80778887D01*
X107993955Y-80780416D01*
X107957556Y-80782372D01*
X107934053Y-80779730D01*
X107915245Y-80769616D01*
X107892933Y-80749155D01*
X107886525Y-80742765D01*
X107861960Y-80716361D01*
X107849335Y-80694560D01*
X107844725Y-80667950D01*
X107844166Y-80641167D01*
X107849798Y-80581166D01*
X107865610Y-80530884D01*
X107889980Y-80494376D01*
X107908452Y-80480551D01*
X107947857Y-80467652D01*
X107988538Y-80466531D01*
X108027090Y-80475169D01*
G37*
X108027090Y-80475169D02*
X108060107Y-80491552D01*
X108084182Y-80513663D01*
X108095908Y-80539485D01*
X108091881Y-80567002D01*
X108081138Y-80582774D01*
X108063117Y-80596396D01*
X108039223Y-80599912D01*
X108003507Y-80593874D01*
X107992333Y-80591017D01*
X107981614Y-80593734D01*
X107975474Y-80611525D01*
X107973135Y-80633162D01*
X107972050Y-80661463D01*
X107975483Y-80673246D01*
X107985286Y-80672992D01*
X107989010Y-80671548D01*
X108028133Y-80655672D01*
X108052949Y-80647250D01*
X108068530Y-80645227D01*
X108079954Y-80648550D01*
X108085206Y-80651583D01*
X108103159Y-80673809D01*
X108105273Y-80704174D01*
X108091594Y-80736824D01*
X108084469Y-80746131D01*
X108066268Y-80763506D01*
X108044610Y-80773498D01*
X108012153Y-80778887D01*
X107993955Y-80780416D01*
X107957556Y-80782372D01*
X107934053Y-80779730D01*
X107915245Y-80769616D01*
X107892933Y-80749155D01*
X107886525Y-80742765D01*
X107861960Y-80716361D01*
X107849335Y-80694560D01*
X107844725Y-80667950D01*
X107844166Y-80641167D01*
X107849798Y-80581166D01*
X107865610Y-80530884D01*
X107889980Y-80494376D01*
X107908452Y-80480551D01*
X107947857Y-80467652D01*
X107988538Y-80466531D01*
X108027090Y-80475169D01*
G36*
X108308676Y-80470294D02*
G01*
X108318746Y-80472163D01*
X108337710Y-80484309D01*
X108341419Y-80502678D01*
X108332139Y-80521622D01*
X108312141Y-80535491D01*
X108291841Y-80539166D01*
X108271648Y-80545616D01*
X108267493Y-80557687D01*
X108272565Y-80570374D01*
X108291053Y-80575643D01*
X108307180Y-80576208D01*
X108333214Y-80577689D01*
X108344361Y-80585460D01*
X108346860Y-80604511D01*
X108346875Y-80607958D01*
X108343361Y-80631237D01*
X108328646Y-80644116D01*
X108312479Y-80649834D01*
X108289241Y-80660205D01*
X108278223Y-80672069D01*
X108278083Y-80673314D01*
X108285491Y-80682371D01*
X108291616Y-80681475D01*
X108313399Y-80682548D01*
X108331192Y-80697628D01*
X108338210Y-80719745D01*
X108336838Y-80727943D01*
X108318333Y-80753567D01*
X108284027Y-80772298D01*
X108238778Y-80781839D01*
X108221168Y-80782583D01*
X108187797Y-80779950D01*
X108165880Y-80769478D01*
X108150804Y-80753479D01*
X108140307Y-80738212D01*
X108133875Y-80721395D01*
X108130805Y-80698015D01*
X108130395Y-80663058D01*
X108131731Y-80617261D01*
X108134887Y-80565135D01*
X108139856Y-80524403D01*
X108146072Y-80499160D01*
X108148682Y-80494434D01*
X108165934Y-80485329D01*
X108197455Y-80477460D01*
X108236349Y-80471729D01*
X108275721Y-80469039D01*
X108308676Y-80470294D01*
G37*
X108308676Y-80470294D02*
X108318746Y-80472163D01*
X108337710Y-80484309D01*
X108341419Y-80502678D01*
X108332139Y-80521622D01*
X108312141Y-80535491D01*
X108291841Y-80539166D01*
X108271648Y-80545616D01*
X108267493Y-80557687D01*
X108272565Y-80570374D01*
X108291053Y-80575643D01*
X108307180Y-80576208D01*
X108333214Y-80577689D01*
X108344361Y-80585460D01*
X108346860Y-80604511D01*
X108346875Y-80607958D01*
X108343361Y-80631237D01*
X108328646Y-80644116D01*
X108312479Y-80649834D01*
X108289241Y-80660205D01*
X108278223Y-80672069D01*
X108278083Y-80673314D01*
X108285491Y-80682371D01*
X108291616Y-80681475D01*
X108313399Y-80682548D01*
X108331192Y-80697628D01*
X108338210Y-80719745D01*
X108336838Y-80727943D01*
X108318333Y-80753567D01*
X108284027Y-80772298D01*
X108238778Y-80781839D01*
X108221168Y-80782583D01*
X108187797Y-80779950D01*
X108165880Y-80769478D01*
X108150804Y-80753479D01*
X108140307Y-80738212D01*
X108133875Y-80721395D01*
X108130805Y-80698015D01*
X108130395Y-80663058D01*
X108131731Y-80617261D01*
X108134887Y-80565135D01*
X108139856Y-80524403D01*
X108146072Y-80499160D01*
X108148682Y-80494434D01*
X108165934Y-80485329D01*
X108197455Y-80477460D01*
X108236349Y-80471729D01*
X108275721Y-80469039D01*
X108308676Y-80470294D01*
G36*
X107000846Y-77683741D02*
G01*
X107026527Y-77685480D01*
X107042111Y-77688482D01*
X107050362Y-77692948D01*
X107054048Y-77699078D01*
X107054325Y-77699970D01*
X107058008Y-77716215D01*
X107064771Y-77749444D01*
X107073860Y-77795823D01*
X107084523Y-77851520D01*
X107093383Y-77898625D01*
X107105069Y-77958309D01*
X107116419Y-78011011D01*
X107126561Y-78053074D01*
X107134626Y-78080839D01*
X107138963Y-78090265D01*
X107155008Y-78100124D01*
X107185715Y-78114521D01*
X107226434Y-78131690D01*
X107272514Y-78149866D01*
X107319307Y-78167284D01*
X107362163Y-78182180D01*
X107396431Y-78192787D01*
X107417462Y-78197342D01*
X107420714Y-78197214D01*
X107434738Y-78190086D01*
X107463131Y-78173048D01*
X107502749Y-78148081D01*
X107550446Y-78117163D01*
X107598479Y-78085351D01*
X107649934Y-78051173D01*
X107695295Y-78021488D01*
X107731660Y-77998159D01*
X107756129Y-77983048D01*
X107765708Y-77978000D01*
X107775287Y-77984991D01*
X107796978Y-78004102D01*
X107827873Y-78032539D01*
X107865064Y-78067505D01*
X107905643Y-78106206D01*
X107946703Y-78145846D01*
X107985337Y-78183632D01*
X108018636Y-78216767D01*
X108043694Y-78242457D01*
X108057601Y-78257908D01*
X108059112Y-78260035D01*
X108057069Y-78273735D01*
X108042973Y-78301945D01*
X108016485Y-78345231D01*
X107977269Y-78404160D01*
X107951084Y-78442109D01*
X107834486Y-78609504D01*
X107893561Y-78746189D01*
X107915422Y-78796144D01*
X107934757Y-78839156D01*
X107949830Y-78871454D01*
X107958909Y-78889267D01*
X107960274Y-78891301D01*
X107972659Y-78895792D01*
X108002481Y-78903188D01*
X108046327Y-78912745D01*
X108100786Y-78923719D01*
X108161373Y-78935168D01*
X108232191Y-78948822D01*
X108290044Y-78961372D01*
X108332720Y-78972272D01*
X108358004Y-78980979D01*
X108363921Y-78984950D01*
X108367070Y-79000309D01*
X108369540Y-79032532D01*
X108371327Y-79077337D01*
X108372423Y-79130441D01*
X108372821Y-79187562D01*
X108372515Y-79244419D01*
X108371499Y-79296728D01*
X108369764Y-79340208D01*
X108367305Y-79370576D01*
X108364544Y-79383042D01*
X108351801Y-79389212D01*
X108321637Y-79398076D01*
X108277498Y-79408789D01*
X108222833Y-79420507D01*
X108169215Y-79430896D01*
X108108541Y-79442560D01*
X108054977Y-79453722D01*
X108012056Y-79463575D01*
X107983310Y-79471314D01*
X107972509Y-79475770D01*
X107963980Y-79490469D01*
X107948962Y-79522578D01*
X107928478Y-79569721D01*
X107903553Y-79629520D01*
X107875211Y-79699599D01*
X107864832Y-79725714D01*
X107845406Y-79774804D01*
X107951770Y-79926283D01*
X107986694Y-79976311D01*
X108017321Y-80020732D01*
X108041575Y-80056492D01*
X108057384Y-80080539D01*
X108062596Y-80089393D01*
X108056635Y-80099341D01*
X108038254Y-80121215D01*
X108010213Y-80152187D01*
X107975269Y-80189429D01*
X107936181Y-80230113D01*
X107895706Y-80271410D01*
X107856603Y-80310493D01*
X107821629Y-80344533D01*
X107793543Y-80370703D01*
X107775103Y-80386174D01*
X107770406Y-80388999D01*
X107758987Y-80384435D01*
X107733041Y-80369750D01*
X107695525Y-80346754D01*
X107649396Y-80317256D01*
X107601012Y-80285342D01*
X107441102Y-80178394D01*
X107370459Y-80215905D01*
X107334834Y-80234017D01*
X107305766Y-80247328D01*
X107288832Y-80253308D01*
X107287705Y-80253416D01*
X107280056Y-80244376D01*
X107266740Y-80220432D01*
X107249907Y-80186353D01*
X107231707Y-80146904D01*
X107214291Y-80106854D01*
X107199811Y-80070967D01*
X107190415Y-80044013D01*
X107188000Y-80032418D01*
X107195947Y-80022495D01*
X107217169Y-80003636D01*
X107247739Y-79979237D01*
X107261927Y-79968520D01*
X107344339Y-79894431D01*
X107415826Y-79803632D01*
X107475074Y-79698274D01*
X107520766Y-79580507D01*
X107538375Y-79516573D01*
X107547748Y-79474223D01*
X107553731Y-79436559D01*
X107556737Y-79397479D01*
X107557183Y-79350884D01*
X107555482Y-79290673D01*
X107554839Y-79274458D01*
X107551130Y-79211199D01*
X107545581Y-79150771D01*
X107538863Y-79099281D01*
X107531644Y-79062839D01*
X107531631Y-79062791D01*
X107495163Y-78959027D01*
X107445459Y-78866041D01*
X107384353Y-78786297D01*
X107313683Y-78722261D01*
X107248194Y-78682373D01*
X107145131Y-78643075D01*
X107034827Y-78620440D01*
X106924307Y-78615810D01*
X106905478Y-78616950D01*
X106868258Y-78620762D01*
X106821709Y-78626914D01*
X106770342Y-78634636D01*
X106718667Y-78643162D01*
X106671194Y-78651724D01*
X106632432Y-78659553D01*
X106606892Y-78665884D01*
X106599223Y-78669081D01*
X106602951Y-78678788D01*
X106616532Y-78699765D01*
X106629798Y-78717889D01*
X106650961Y-78743991D01*
X106667316Y-78756498D01*
X106686208Y-78759148D01*
X106706458Y-78756917D01*
X106792396Y-78745270D01*
X106861565Y-78737426D01*
X106917976Y-78733166D01*
X106965639Y-78732269D01*
X107008568Y-78734515D01*
X107042439Y-78738461D01*
X107120006Y-78754129D01*
X107178377Y-78776362D01*
X107217255Y-78804941D01*
X107236339Y-78839649D01*
X107235469Y-78879727D01*
X107217874Y-78914421D01*
X107183367Y-78952676D01*
X107135259Y-78991805D01*
X107076861Y-79029119D01*
X107011483Y-79061929D01*
X107010729Y-79062258D01*
X106983986Y-79076392D01*
X106967876Y-79089665D01*
X106965750Y-79094384D01*
X106967969Y-79108519D01*
X106974102Y-79139511D01*
X106983361Y-79183583D01*
X106994957Y-79236953D01*
X107003256Y-79274309D01*
X107015771Y-79332036D01*
X107026104Y-79383300D01*
X107033530Y-79424204D01*
X107037323Y-79450850D01*
X107037521Y-79458565D01*
X107031213Y-79460511D01*
X107017659Y-79444807D01*
X107003729Y-79422553D01*
X106950488Y-79330882D01*
X106906052Y-79255276D01*
X106870719Y-79196227D01*
X106844788Y-79154229D01*
X106828558Y-79129774D01*
X106822408Y-79123230D01*
X106822596Y-79134754D01*
X106827041Y-79160777D01*
X106833523Y-79190231D01*
X106845199Y-79241948D01*
X106849795Y-79274166D01*
X106845896Y-79287784D01*
X106832090Y-79283695D01*
X106806965Y-79262797D01*
X106772239Y-79229099D01*
X106695146Y-79152520D01*
X106573802Y-79154353D01*
X106477323Y-79152520D01*
X106399908Y-79143638D01*
X106340574Y-79127448D01*
X106298338Y-79103693D01*
X106274176Y-79075710D01*
X106259633Y-79042431D01*
X106259894Y-79013157D01*
X106275555Y-78980069D01*
X106282262Y-78969819D01*
X106307857Y-78932102D01*
X106274324Y-78888127D01*
X106240791Y-78844151D01*
X106195422Y-78895263D01*
X106142622Y-78968226D01*
X106104177Y-79049841D01*
X106087083Y-79111733D01*
X106076788Y-79219599D01*
X106084492Y-79332817D01*
X106108844Y-79448159D01*
X106148492Y-79562399D01*
X106202084Y-79672311D01*
X106268269Y-79774668D01*
X106345695Y-79866245D01*
X106433011Y-79943813D01*
X106436862Y-79946708D01*
X106466166Y-79968785D01*
X106488323Y-79985875D01*
X106498019Y-79993824D01*
X106497380Y-80006304D01*
X106489257Y-80033274D01*
X106475577Y-80070265D01*
X106458269Y-80112807D01*
X106439258Y-80156431D01*
X106420473Y-80196668D01*
X106403841Y-80229047D01*
X106391288Y-80249101D01*
X106386080Y-80253416D01*
X106370057Y-80248502D01*
X106341603Y-80235545D01*
X106306537Y-80217222D01*
X106302365Y-80214905D01*
X106233501Y-80176393D01*
X106076345Y-80283696D01*
X106025473Y-80318102D01*
X105980504Y-80347893D01*
X105944384Y-80371169D01*
X105920056Y-80386028D01*
X105910657Y-80390635D01*
X105900698Y-80383524D01*
X105878055Y-80363943D01*
X105845231Y-80334166D01*
X105804732Y-80296467D01*
X105759059Y-80253119D01*
X105756228Y-80250406D01*
X105710744Y-80206215D01*
X105671088Y-80166561D01*
X105639624Y-80133903D01*
X105618714Y-80110696D01*
X105610725Y-80099398D01*
X105610707Y-80099166D01*
X105616622Y-80087150D01*
X105632791Y-80060900D01*
X105657236Y-80023454D01*
X105687980Y-79977854D01*
X105716916Y-79935916D01*
X105751416Y-79885616D01*
X105781209Y-79840667D01*
X105804316Y-79804178D01*
X105818759Y-79779259D01*
X105822750Y-79769616D01*
X105818770Y-79753707D01*
X105808069Y-79722991D01*
X105792499Y-79682000D01*
X105773917Y-79635264D01*
X105754175Y-79587314D01*
X105735129Y-79542684D01*
X105718632Y-79505903D01*
X105706541Y-79481504D01*
X105701969Y-79474478D01*
X105688062Y-79468795D01*
X105657056Y-79460599D01*
X105612748Y-79450757D01*
X105558932Y-79440131D01*
X105521125Y-79433296D01*
X105462040Y-79422710D01*
X105408863Y-79412660D01*
X105365745Y-79403970D01*
X105336834Y-79397465D01*
X105327979Y-79394934D01*
X105319706Y-79391278D01*
X105313612Y-79385382D01*
X105309364Y-79374313D01*
X105306630Y-79355140D01*
X105305076Y-79324933D01*
X105304368Y-79280760D01*
X105304174Y-79219690D01*
X105304166Y-79185386D01*
X105304703Y-79105291D01*
X105306349Y-79045381D01*
X105309161Y-79004699D01*
X105313194Y-78982288D01*
X105316228Y-78977211D01*
X105330087Y-78972974D01*
X105361239Y-78965745D01*
X105406145Y-78956274D01*
X105461264Y-78945308D01*
X105518976Y-78934352D01*
X105579689Y-78922934D01*
X105632798Y-78912667D01*
X105674967Y-78904221D01*
X105702860Y-78898262D01*
X105713112Y-78895499D01*
X105719829Y-78883347D01*
X105732555Y-78856017D01*
X105749424Y-78817926D01*
X105768569Y-78773490D01*
X105788125Y-78727126D01*
X105806224Y-78683252D01*
X105820999Y-78646284D01*
X105830585Y-78620638D01*
X105833265Y-78611167D01*
X105827405Y-78598367D01*
X105811169Y-78571369D01*
X105786501Y-78533188D01*
X105755344Y-78486838D01*
X105722140Y-78438887D01*
X105686709Y-78387745D01*
X105655953Y-78342086D01*
X105631807Y-78304894D01*
X105631134Y-78303782D01*
X105911927Y-78303782D01*
X105915117Y-78313206D01*
X105923425Y-78326794D01*
X105938027Y-78345936D01*
X105960101Y-78372020D01*
X105990824Y-78406435D01*
X106031373Y-78450571D01*
X106082925Y-78505815D01*
X106146658Y-78573557D01*
X106223749Y-78655185D01*
X106227515Y-78659169D01*
X106556292Y-79006964D01*
X106603456Y-79001648D01*
X106637211Y-78993999D01*
X106664520Y-78981305D01*
X106670330Y-78976623D01*
X106674473Y-78971675D01*
X106676199Y-78965864D01*
X106674316Y-78957881D01*
X106667627Y-78946417D01*
X106654937Y-78930164D01*
X106635053Y-78907813D01*
X106606778Y-78878056D01*
X106568918Y-78839584D01*
X106520278Y-78791089D01*
X106459663Y-78731262D01*
X106385878Y-78658795D01*
X106330602Y-78604601D01*
X106246326Y-78521989D01*
X106175829Y-78453079D01*
X106117715Y-78396819D01*
X106070587Y-78352154D01*
X106033049Y-78318031D01*
X106003706Y-78293396D01*
X105981160Y-78277195D01*
X105964016Y-78268375D01*
X105950877Y-78265883D01*
X105940347Y-78268664D01*
X105931031Y-78275665D01*
X105921531Y-78285833D01*
X105916188Y-78291873D01*
X105912676Y-78297134D01*
X105911927Y-78303782D01*
X105631134Y-78303782D01*
X105616213Y-78279149D01*
X105611083Y-78268067D01*
X105618390Y-78257029D01*
X105638375Y-78234492D01*
X105668133Y-78203282D01*
X105704758Y-78166226D01*
X105745345Y-78126150D01*
X105786988Y-78085880D01*
X105826782Y-78048241D01*
X105861822Y-78016061D01*
X105889203Y-77992164D01*
X105906019Y-77979378D01*
X105909288Y-77978000D01*
X105921090Y-77983718D01*
X105947347Y-77999618D01*
X105985122Y-78023820D01*
X106031477Y-78054441D01*
X106082779Y-78089125D01*
X106135183Y-78124332D01*
X106182430Y-78154946D01*
X106221452Y-78179068D01*
X106249182Y-78194800D01*
X106262404Y-78200250D01*
X106275672Y-78196618D01*
X106303614Y-78186862D01*
X106341861Y-78172687D01*
X106386042Y-78155802D01*
X106431790Y-78137912D01*
X106474734Y-78120724D01*
X106510504Y-78105946D01*
X106534733Y-78095284D01*
X106543058Y-78090617D01*
X106545186Y-78080279D01*
X106550734Y-78052358D01*
X106559075Y-78010046D01*
X106569579Y-77956535D01*
X106581617Y-77895018D01*
X106582980Y-77888041D01*
X106622260Y-77686958D01*
X106835556Y-77684095D01*
X106908126Y-77683249D01*
X106962301Y-77683064D01*
X107000846Y-77683741D01*
G37*
X107000846Y-77683741D02*
X107026527Y-77685480D01*
X107042111Y-77688482D01*
X107050362Y-77692948D01*
X107054048Y-77699078D01*
X107054325Y-77699970D01*
X107058008Y-77716215D01*
X107064771Y-77749444D01*
X107073860Y-77795823D01*
X107084523Y-77851520D01*
X107093383Y-77898625D01*
X107105069Y-77958309D01*
X107116419Y-78011011D01*
X107126561Y-78053074D01*
X107134626Y-78080839D01*
X107138963Y-78090265D01*
X107155008Y-78100124D01*
X107185715Y-78114521D01*
X107226434Y-78131690D01*
X107272514Y-78149866D01*
X107319307Y-78167284D01*
X107362163Y-78182180D01*
X107396431Y-78192787D01*
X107417462Y-78197342D01*
X107420714Y-78197214D01*
X107434738Y-78190086D01*
X107463131Y-78173048D01*
X107502749Y-78148081D01*
X107550446Y-78117163D01*
X107598479Y-78085351D01*
X107649934Y-78051173D01*
X107695295Y-78021488D01*
X107731660Y-77998159D01*
X107756129Y-77983048D01*
X107765708Y-77978000D01*
X107775287Y-77984991D01*
X107796978Y-78004102D01*
X107827873Y-78032539D01*
X107865064Y-78067505D01*
X107905643Y-78106206D01*
X107946703Y-78145846D01*
X107985337Y-78183632D01*
X108018636Y-78216767D01*
X108043694Y-78242457D01*
X108057601Y-78257908D01*
X108059112Y-78260035D01*
X108057069Y-78273735D01*
X108042973Y-78301945D01*
X108016485Y-78345231D01*
X107977269Y-78404160D01*
X107951084Y-78442109D01*
X107834486Y-78609504D01*
X107893561Y-78746189D01*
X107915422Y-78796144D01*
X107934757Y-78839156D01*
X107949830Y-78871454D01*
X107958909Y-78889267D01*
X107960274Y-78891301D01*
X107972659Y-78895792D01*
X108002481Y-78903188D01*
X108046327Y-78912745D01*
X108100786Y-78923719D01*
X108161373Y-78935168D01*
X108232191Y-78948822D01*
X108290044Y-78961372D01*
X108332720Y-78972272D01*
X108358004Y-78980979D01*
X108363921Y-78984950D01*
X108367070Y-79000309D01*
X108369540Y-79032532D01*
X108371327Y-79077337D01*
X108372423Y-79130441D01*
X108372821Y-79187562D01*
X108372515Y-79244419D01*
X108371499Y-79296728D01*
X108369764Y-79340208D01*
X108367305Y-79370576D01*
X108364544Y-79383042D01*
X108351801Y-79389212D01*
X108321637Y-79398076D01*
X108277498Y-79408789D01*
X108222833Y-79420507D01*
X108169215Y-79430896D01*
X108108541Y-79442560D01*
X108054977Y-79453722D01*
X108012056Y-79463575D01*
X107983310Y-79471314D01*
X107972509Y-79475770D01*
X107963980Y-79490469D01*
X107948962Y-79522578D01*
X107928478Y-79569721D01*
X107903553Y-79629520D01*
X107875211Y-79699599D01*
X107864832Y-79725714D01*
X107845406Y-79774804D01*
X107951770Y-79926283D01*
X107986694Y-79976311D01*
X108017321Y-80020732D01*
X108041575Y-80056492D01*
X108057384Y-80080539D01*
X108062596Y-80089393D01*
X108056635Y-80099341D01*
X108038254Y-80121215D01*
X108010213Y-80152187D01*
X107975269Y-80189429D01*
X107936181Y-80230113D01*
X107895706Y-80271410D01*
X107856603Y-80310493D01*
X107821629Y-80344533D01*
X107793543Y-80370703D01*
X107775103Y-80386174D01*
X107770406Y-80388999D01*
X107758987Y-80384435D01*
X107733041Y-80369750D01*
X107695525Y-80346754D01*
X107649396Y-80317256D01*
X107601012Y-80285342D01*
X107441102Y-80178394D01*
X107370459Y-80215905D01*
X107334834Y-80234017D01*
X107305766Y-80247328D01*
X107288832Y-80253308D01*
X107287705Y-80253416D01*
X107280056Y-80244376D01*
X107266740Y-80220432D01*
X107249907Y-80186353D01*
X107231707Y-80146904D01*
X107214291Y-80106854D01*
X107199811Y-80070967D01*
X107190415Y-80044013D01*
X107188000Y-80032418D01*
X107195947Y-80022495D01*
X107217169Y-80003636D01*
X107247739Y-79979237D01*
X107261927Y-79968520D01*
X107344339Y-79894431D01*
X107415826Y-79803632D01*
X107475074Y-79698274D01*
X107520766Y-79580507D01*
X107538375Y-79516573D01*
X107547748Y-79474223D01*
X107553731Y-79436559D01*
X107556737Y-79397479D01*
X107557183Y-79350884D01*
X107555482Y-79290673D01*
X107554839Y-79274458D01*
X107551130Y-79211199D01*
X107545581Y-79150771D01*
X107538863Y-79099281D01*
X107531644Y-79062839D01*
X107531631Y-79062791D01*
X107495163Y-78959027D01*
X107445459Y-78866041D01*
X107384353Y-78786297D01*
X107313683Y-78722261D01*
X107248194Y-78682373D01*
X107145131Y-78643075D01*
X107034827Y-78620440D01*
X106924307Y-78615810D01*
X106905478Y-78616950D01*
X106868258Y-78620762D01*
X106821709Y-78626914D01*
X106770342Y-78634636D01*
X106718667Y-78643162D01*
X106671194Y-78651724D01*
X106632432Y-78659553D01*
X106606892Y-78665884D01*
X106599223Y-78669081D01*
X106602951Y-78678788D01*
X106616532Y-78699765D01*
X106629798Y-78717889D01*
X106650961Y-78743991D01*
X106667316Y-78756498D01*
X106686208Y-78759148D01*
X106706458Y-78756917D01*
X106792396Y-78745270D01*
X106861565Y-78737426D01*
X106917976Y-78733166D01*
X106965639Y-78732269D01*
X107008568Y-78734515D01*
X107042439Y-78738461D01*
X107120006Y-78754129D01*
X107178377Y-78776362D01*
X107217255Y-78804941D01*
X107236339Y-78839649D01*
X107235469Y-78879727D01*
X107217874Y-78914421D01*
X107183367Y-78952676D01*
X107135259Y-78991805D01*
X107076861Y-79029119D01*
X107011483Y-79061929D01*
X107010729Y-79062258D01*
X106983986Y-79076392D01*
X106967876Y-79089665D01*
X106965750Y-79094384D01*
X106967969Y-79108519D01*
X106974102Y-79139511D01*
X106983361Y-79183583D01*
X106994957Y-79236953D01*
X107003256Y-79274309D01*
X107015771Y-79332036D01*
X107026104Y-79383300D01*
X107033530Y-79424204D01*
X107037323Y-79450850D01*
X107037521Y-79458565D01*
X107031213Y-79460511D01*
X107017659Y-79444807D01*
X107003729Y-79422553D01*
X106950488Y-79330882D01*
X106906052Y-79255276D01*
X106870719Y-79196227D01*
X106844788Y-79154229D01*
X106828558Y-79129774D01*
X106822408Y-79123230D01*
X106822596Y-79134754D01*
X106827041Y-79160777D01*
X106833523Y-79190231D01*
X106845199Y-79241948D01*
X106849795Y-79274166D01*
X106845896Y-79287784D01*
X106832090Y-79283695D01*
X106806965Y-79262797D01*
X106772239Y-79229099D01*
X106695146Y-79152520D01*
X106573802Y-79154353D01*
X106477323Y-79152520D01*
X106399908Y-79143638D01*
X106340574Y-79127448D01*
X106298338Y-79103693D01*
X106274176Y-79075710D01*
X106259633Y-79042431D01*
X106259894Y-79013157D01*
X106275555Y-78980069D01*
X106282262Y-78969819D01*
X106307857Y-78932102D01*
X106274324Y-78888127D01*
X106240791Y-78844151D01*
X106195422Y-78895263D01*
X106142622Y-78968226D01*
X106104177Y-79049841D01*
X106087083Y-79111733D01*
X106076788Y-79219599D01*
X106084492Y-79332817D01*
X106108844Y-79448159D01*
X106148492Y-79562399D01*
X106202084Y-79672311D01*
X106268269Y-79774668D01*
X106345695Y-79866245D01*
X106433011Y-79943813D01*
X106436862Y-79946708D01*
X106466166Y-79968785D01*
X106488323Y-79985875D01*
X106498019Y-79993824D01*
X106497380Y-80006304D01*
X106489257Y-80033274D01*
X106475577Y-80070265D01*
X106458269Y-80112807D01*
X106439258Y-80156431D01*
X106420473Y-80196668D01*
X106403841Y-80229047D01*
X106391288Y-80249101D01*
X106386080Y-80253416D01*
X106370057Y-80248502D01*
X106341603Y-80235545D01*
X106306537Y-80217222D01*
X106302365Y-80214905D01*
X106233501Y-80176393D01*
X106076345Y-80283696D01*
X106025473Y-80318102D01*
X105980504Y-80347893D01*
X105944384Y-80371169D01*
X105920056Y-80386028D01*
X105910657Y-80390635D01*
X105900698Y-80383524D01*
X105878055Y-80363943D01*
X105845231Y-80334166D01*
X105804732Y-80296467D01*
X105759059Y-80253119D01*
X105756228Y-80250406D01*
X105710744Y-80206215D01*
X105671088Y-80166561D01*
X105639624Y-80133903D01*
X105618714Y-80110696D01*
X105610725Y-80099398D01*
X105610707Y-80099166D01*
X105616622Y-80087150D01*
X105632791Y-80060900D01*
X105657236Y-80023454D01*
X105687980Y-79977854D01*
X105716916Y-79935916D01*
X105751416Y-79885616D01*
X105781209Y-79840667D01*
X105804316Y-79804178D01*
X105818759Y-79779259D01*
X105822750Y-79769616D01*
X105818770Y-79753707D01*
X105808069Y-79722991D01*
X105792499Y-79682000D01*
X105773917Y-79635264D01*
X105754175Y-79587314D01*
X105735129Y-79542684D01*
X105718632Y-79505903D01*
X105706541Y-79481504D01*
X105701969Y-79474478D01*
X105688062Y-79468795D01*
X105657056Y-79460599D01*
X105612748Y-79450757D01*
X105558932Y-79440131D01*
X105521125Y-79433296D01*
X105462040Y-79422710D01*
X105408863Y-79412660D01*
X105365745Y-79403970D01*
X105336834Y-79397465D01*
X105327979Y-79394934D01*
X105319706Y-79391278D01*
X105313612Y-79385382D01*
X105309364Y-79374313D01*
X105306630Y-79355140D01*
X105305076Y-79324933D01*
X105304368Y-79280760D01*
X105304174Y-79219690D01*
X105304166Y-79185386D01*
X105304703Y-79105291D01*
X105306349Y-79045381D01*
X105309161Y-79004699D01*
X105313194Y-78982288D01*
X105316228Y-78977211D01*
X105330087Y-78972974D01*
X105361239Y-78965745D01*
X105406145Y-78956274D01*
X105461264Y-78945308D01*
X105518976Y-78934352D01*
X105579689Y-78922934D01*
X105632798Y-78912667D01*
X105674967Y-78904221D01*
X105702860Y-78898262D01*
X105713112Y-78895499D01*
X105719829Y-78883347D01*
X105732555Y-78856017D01*
X105749424Y-78817926D01*
X105768569Y-78773490D01*
X105788125Y-78727126D01*
X105806224Y-78683252D01*
X105820999Y-78646284D01*
X105830585Y-78620638D01*
X105833265Y-78611167D01*
X105827405Y-78598367D01*
X105811169Y-78571369D01*
X105786501Y-78533188D01*
X105755344Y-78486838D01*
X105722140Y-78438887D01*
X105686709Y-78387745D01*
X105655953Y-78342086D01*
X105631807Y-78304894D01*
X105631134Y-78303782D01*
X105911927Y-78303782D01*
X105915117Y-78313206D01*
X105923425Y-78326794D01*
X105938027Y-78345936D01*
X105960101Y-78372020D01*
X105990824Y-78406435D01*
X106031373Y-78450571D01*
X106082925Y-78505815D01*
X106146658Y-78573557D01*
X106223749Y-78655185D01*
X106227515Y-78659169D01*
X106556292Y-79006964D01*
X106603456Y-79001648D01*
X106637211Y-78993999D01*
X106664520Y-78981305D01*
X106670330Y-78976623D01*
X106674473Y-78971675D01*
X106676199Y-78965864D01*
X106674316Y-78957881D01*
X106667627Y-78946417D01*
X106654937Y-78930164D01*
X106635053Y-78907813D01*
X106606778Y-78878056D01*
X106568918Y-78839584D01*
X106520278Y-78791089D01*
X106459663Y-78731262D01*
X106385878Y-78658795D01*
X106330602Y-78604601D01*
X106246326Y-78521989D01*
X106175829Y-78453079D01*
X106117715Y-78396819D01*
X106070587Y-78352154D01*
X106033049Y-78318031D01*
X106003706Y-78293396D01*
X105981160Y-78277195D01*
X105964016Y-78268375D01*
X105950877Y-78265883D01*
X105940347Y-78268664D01*
X105931031Y-78275665D01*
X105921531Y-78285833D01*
X105916188Y-78291873D01*
X105912676Y-78297134D01*
X105911927Y-78303782D01*
X105631134Y-78303782D01*
X105616213Y-78279149D01*
X105611083Y-78268067D01*
X105618390Y-78257029D01*
X105638375Y-78234492D01*
X105668133Y-78203282D01*
X105704758Y-78166226D01*
X105745345Y-78126150D01*
X105786988Y-78085880D01*
X105826782Y-78048241D01*
X105861822Y-78016061D01*
X105889203Y-77992164D01*
X105906019Y-77979378D01*
X105909288Y-77978000D01*
X105921090Y-77983718D01*
X105947347Y-77999618D01*
X105985122Y-78023820D01*
X106031477Y-78054441D01*
X106082779Y-78089125D01*
X106135183Y-78124332D01*
X106182430Y-78154946D01*
X106221452Y-78179068D01*
X106249182Y-78194800D01*
X106262404Y-78200250D01*
X106275672Y-78196618D01*
X106303614Y-78186862D01*
X106341861Y-78172687D01*
X106386042Y-78155802D01*
X106431790Y-78137912D01*
X106474734Y-78120724D01*
X106510504Y-78105946D01*
X106534733Y-78095284D01*
X106543058Y-78090617D01*
X106545186Y-78080279D01*
X106550734Y-78052358D01*
X106559075Y-78010046D01*
X106569579Y-77956535D01*
X106581617Y-77895018D01*
X106582980Y-77888041D01*
X106622260Y-77686958D01*
X106835556Y-77684095D01*
X106908126Y-77683249D01*
X106962301Y-77683064D01*
X107000846Y-77683741D01*
G36*
X106532978Y-80022954D02*
G01*
X106533420Y-80025875D01*
X106525181Y-80038284D01*
X106522043Y-80039721D01*
X106512393Y-80034612D01*
X106510666Y-80025875D01*
X106516036Y-80012703D01*
X106522043Y-80012028D01*
X106532978Y-80022954D01*
G37*
X106532978Y-80022954D02*
X106533420Y-80025875D01*
X106525181Y-80038284D01*
X106522043Y-80039721D01*
X106512393Y-80034612D01*
X106510666Y-80025875D01*
X106516036Y-80012703D01*
X106522043Y-80012028D01*
X106532978Y-80022954D01*
D13*
%TO.C,C6*%
X123380952Y-77966375D02*
X121958448Y-77966375D01*
X123380952Y-76146375D02*
X121958448Y-76146375D01*
%TO.C,R16*%
X116563216Y-67508800D02*
X118017344Y-67508800D01*
X116563216Y-65688800D02*
X118017344Y-65688800D01*
%TO.C,R18*%
D10*
X111456442Y-79999247D02*
X111239776Y-79689723D01*
X111085014Y-79999247D02*
X111085014Y-79349247D01*
X111332633Y-79349247D01*
X111394538Y-79380200D01*
X111425490Y-79411152D01*
X111456442Y-79473057D01*
X111456442Y-79565914D01*
X111425490Y-79627819D01*
X111394538Y-79658771D01*
X111332633Y-79689723D01*
X111085014Y-79689723D01*
X112075490Y-79999247D02*
X111704061Y-79999247D01*
X111889776Y-79999247D02*
X111889776Y-79349247D01*
X111827871Y-79442104D01*
X111765966Y-79504009D01*
X111704061Y-79534961D01*
X112446919Y-79627819D02*
X112385014Y-79596866D01*
X112354061Y-79565914D01*
X112323109Y-79504009D01*
X112323109Y-79473057D01*
X112354061Y-79411152D01*
X112385014Y-79380200D01*
X112446919Y-79349247D01*
X112570728Y-79349247D01*
X112632633Y-79380200D01*
X112663585Y-79411152D01*
X112694538Y-79473057D01*
X112694538Y-79504009D01*
X112663585Y-79565914D01*
X112632633Y-79596866D01*
X112570728Y-79627819D01*
X112446919Y-79627819D01*
X112385014Y-79658771D01*
X112354061Y-79689723D01*
X112323109Y-79751628D01*
X112323109Y-79875438D01*
X112354061Y-79937342D01*
X112385014Y-79968295D01*
X112446919Y-79999247D01*
X112570728Y-79999247D01*
X112632633Y-79968295D01*
X112663585Y-79937342D01*
X112694538Y-79875438D01*
X112694538Y-79751628D01*
X112663585Y-79689723D01*
X112632633Y-79658771D01*
X112570728Y-79627819D01*
%TO.C,R17*%
X116786062Y-79986547D02*
X116569396Y-79677023D01*
X116414634Y-79986547D02*
X116414634Y-79336547D01*
X116662253Y-79336547D01*
X116724158Y-79367500D01*
X116755110Y-79398452D01*
X116786062Y-79460357D01*
X116786062Y-79553214D01*
X116755110Y-79615119D01*
X116724158Y-79646071D01*
X116662253Y-79677023D01*
X116414634Y-79677023D01*
X117405110Y-79986547D02*
X117033681Y-79986547D01*
X117219396Y-79986547D02*
X117219396Y-79336547D01*
X117157491Y-79429404D01*
X117095586Y-79491309D01*
X117033681Y-79522261D01*
X117621777Y-79336547D02*
X118055110Y-79336547D01*
X117776539Y-79986547D01*
%TO.C,R2*%
X138474066Y-74726207D02*
X138257400Y-74416683D01*
X138102638Y-74726207D02*
X138102638Y-74076207D01*
X138350257Y-74076207D01*
X138412161Y-74107160D01*
X138443114Y-74138112D01*
X138474066Y-74200017D01*
X138474066Y-74292874D01*
X138443114Y-74354779D01*
X138412161Y-74385731D01*
X138350257Y-74416683D01*
X138102638Y-74416683D01*
X138721685Y-74138112D02*
X138752638Y-74107160D01*
X138814542Y-74076207D01*
X138969304Y-74076207D01*
X139031209Y-74107160D01*
X139062161Y-74138112D01*
X139093114Y-74200017D01*
X139093114Y-74261921D01*
X139062161Y-74354779D01*
X138690733Y-74726207D01*
X139093114Y-74726207D01*
%TO.C,R4*%
X138474066Y-77337327D02*
X138257400Y-77027803D01*
X138102638Y-77337327D02*
X138102638Y-76687327D01*
X138350257Y-76687327D01*
X138412161Y-76718280D01*
X138443114Y-76749232D01*
X138474066Y-76811137D01*
X138474066Y-76903994D01*
X138443114Y-76965899D01*
X138412161Y-76996851D01*
X138350257Y-77027803D01*
X138102638Y-77027803D01*
X139031209Y-76903994D02*
X139031209Y-77337327D01*
X138876447Y-76656375D02*
X138721685Y-77120660D01*
X139124066Y-77120660D01*
%TO.C,R5*%
X138474066Y-69503967D02*
X138257400Y-69194443D01*
X138102638Y-69503967D02*
X138102638Y-68853967D01*
X138350257Y-68853967D01*
X138412161Y-68884920D01*
X138443114Y-68915872D01*
X138474066Y-68977777D01*
X138474066Y-69070634D01*
X138443114Y-69132539D01*
X138412161Y-69163491D01*
X138350257Y-69194443D01*
X138102638Y-69194443D01*
X139062161Y-68853967D02*
X138752638Y-68853967D01*
X138721685Y-69163491D01*
X138752638Y-69132539D01*
X138814542Y-69101586D01*
X138969304Y-69101586D01*
X139031209Y-69132539D01*
X139062161Y-69163491D01*
X139093114Y-69225396D01*
X139093114Y-69380158D01*
X139062161Y-69442062D01*
X139031209Y-69473015D01*
X138969304Y-69503967D01*
X138814542Y-69503967D01*
X138752638Y-69473015D01*
X138721685Y-69442062D01*
%TO.C,R6*%
X138474066Y-72115087D02*
X138257400Y-71805563D01*
X138102638Y-72115087D02*
X138102638Y-71465087D01*
X138350257Y-71465087D01*
X138412161Y-71496040D01*
X138443114Y-71526992D01*
X138474066Y-71588897D01*
X138474066Y-71681754D01*
X138443114Y-71743659D01*
X138412161Y-71774611D01*
X138350257Y-71805563D01*
X138102638Y-71805563D01*
X139031209Y-71465087D02*
X138907400Y-71465087D01*
X138845495Y-71496040D01*
X138814542Y-71526992D01*
X138752638Y-71619849D01*
X138721685Y-71743659D01*
X138721685Y-71991278D01*
X138752638Y-72053182D01*
X138783590Y-72084135D01*
X138845495Y-72115087D01*
X138969304Y-72115087D01*
X139031209Y-72084135D01*
X139062161Y-72053182D01*
X139093114Y-71991278D01*
X139093114Y-71836516D01*
X139062161Y-71774611D01*
X139031209Y-71743659D01*
X138969304Y-71712706D01*
X138845495Y-71712706D01*
X138783590Y-71743659D01*
X138752638Y-71774611D01*
X138721685Y-71836516D01*
%TO.C,R8*%
X122425206Y-79948447D02*
X122208540Y-79638923D01*
X122053778Y-79948447D02*
X122053778Y-79298447D01*
X122301397Y-79298447D01*
X122363301Y-79329400D01*
X122394254Y-79360352D01*
X122425206Y-79422257D01*
X122425206Y-79515114D01*
X122394254Y-79577019D01*
X122363301Y-79607971D01*
X122301397Y-79638923D01*
X122053778Y-79638923D01*
X122796635Y-79577019D02*
X122734730Y-79546066D01*
X122703778Y-79515114D01*
X122672825Y-79453209D01*
X122672825Y-79422257D01*
X122703778Y-79360352D01*
X122734730Y-79329400D01*
X122796635Y-79298447D01*
X122920444Y-79298447D01*
X122982349Y-79329400D01*
X123013301Y-79360352D01*
X123044254Y-79422257D01*
X123044254Y-79453209D01*
X123013301Y-79515114D01*
X122982349Y-79546066D01*
X122920444Y-79577019D01*
X122796635Y-79577019D01*
X122734730Y-79607971D01*
X122703778Y-79638923D01*
X122672825Y-79700828D01*
X122672825Y-79824638D01*
X122703778Y-79886542D01*
X122734730Y-79917495D01*
X122796635Y-79948447D01*
X122920444Y-79948447D01*
X122982349Y-79917495D01*
X123013301Y-79886542D01*
X123044254Y-79824638D01*
X123044254Y-79700828D01*
X123013301Y-79638923D01*
X122982349Y-79607971D01*
X122920444Y-79577019D01*
%TO.C,R9*%
X138474066Y-79948447D02*
X138257400Y-79638923D01*
X138102638Y-79948447D02*
X138102638Y-79298447D01*
X138350257Y-79298447D01*
X138412161Y-79329400D01*
X138443114Y-79360352D01*
X138474066Y-79422257D01*
X138474066Y-79515114D01*
X138443114Y-79577019D01*
X138412161Y-79607971D01*
X138350257Y-79638923D01*
X138102638Y-79638923D01*
X138783590Y-79948447D02*
X138907400Y-79948447D01*
X138969304Y-79917495D01*
X139000257Y-79886542D01*
X139062161Y-79793685D01*
X139093114Y-79669876D01*
X139093114Y-79422257D01*
X139062161Y-79360352D01*
X139031209Y-79329400D01*
X138969304Y-79298447D01*
X138845495Y-79298447D01*
X138783590Y-79329400D01*
X138752638Y-79360352D01*
X138721685Y-79422257D01*
X138721685Y-79577019D01*
X138752638Y-79638923D01*
X138783590Y-79669876D01*
X138845495Y-79700828D01*
X138969304Y-79700828D01*
X139031209Y-79669876D01*
X139062161Y-79638923D01*
X139093114Y-79577019D01*
%TO.C,R11*%
X122288942Y-69496347D02*
X122072276Y-69186823D01*
X121917514Y-69496347D02*
X121917514Y-68846347D01*
X122165133Y-68846347D01*
X122227038Y-68877300D01*
X122257990Y-68908252D01*
X122288942Y-68970157D01*
X122288942Y-69063014D01*
X122257990Y-69124919D01*
X122227038Y-69155871D01*
X122165133Y-69186823D01*
X121917514Y-69186823D01*
X122907990Y-69496347D02*
X122536561Y-69496347D01*
X122722276Y-69496347D02*
X122722276Y-68846347D01*
X122660371Y-68939204D01*
X122598466Y-69001109D01*
X122536561Y-69032061D01*
X123527038Y-69496347D02*
X123155609Y-69496347D01*
X123341323Y-69496347D02*
X123341323Y-68846347D01*
X123279419Y-68939204D01*
X123217514Y-69001109D01*
X123155609Y-69032061D01*
%TO.C,R12*%
X138164542Y-66892847D02*
X137947876Y-66583323D01*
X137793114Y-66892847D02*
X137793114Y-66242847D01*
X138040733Y-66242847D01*
X138102638Y-66273800D01*
X138133590Y-66304752D01*
X138164542Y-66366657D01*
X138164542Y-66459514D01*
X138133590Y-66521419D01*
X138102638Y-66552371D01*
X138040733Y-66583323D01*
X137793114Y-66583323D01*
X138783590Y-66892847D02*
X138412161Y-66892847D01*
X138597876Y-66892847D02*
X138597876Y-66242847D01*
X138535971Y-66335704D01*
X138474066Y-66397609D01*
X138412161Y-66428561D01*
X139031209Y-66304752D02*
X139062161Y-66273800D01*
X139124066Y-66242847D01*
X139278828Y-66242847D01*
X139340733Y-66273800D01*
X139371685Y-66304752D01*
X139402638Y-66366657D01*
X139402638Y-66428561D01*
X139371685Y-66521419D01*
X139000257Y-66892847D01*
X139402638Y-66892847D01*
%TO.C,R13*%
X116872422Y-72142327D02*
X116655756Y-71832803D01*
X116500994Y-72142327D02*
X116500994Y-71492327D01*
X116748613Y-71492327D01*
X116810518Y-71523280D01*
X116841470Y-71554232D01*
X116872422Y-71616137D01*
X116872422Y-71708994D01*
X116841470Y-71770899D01*
X116810518Y-71801851D01*
X116748613Y-71832803D01*
X116500994Y-71832803D01*
X117491470Y-72142327D02*
X117120041Y-72142327D01*
X117305756Y-72142327D02*
X117305756Y-71492327D01*
X117243851Y-71585184D01*
X117181946Y-71647089D01*
X117120041Y-71678041D01*
X117708137Y-71492327D02*
X118110518Y-71492327D01*
X117893851Y-71739946D01*
X117986708Y-71739946D01*
X118048613Y-71770899D01*
X118079565Y-71801851D01*
X118110518Y-71863756D01*
X118110518Y-72018518D01*
X118079565Y-72080422D01*
X118048613Y-72111375D01*
X117986708Y-72142327D01*
X117800994Y-72142327D01*
X117739089Y-72111375D01*
X117708137Y-72080422D01*
%TO.C,R14*%
X127445302Y-79948447D02*
X127228636Y-79638923D01*
X127073874Y-79948447D02*
X127073874Y-79298447D01*
X127321493Y-79298447D01*
X127383398Y-79329400D01*
X127414350Y-79360352D01*
X127445302Y-79422257D01*
X127445302Y-79515114D01*
X127414350Y-79577019D01*
X127383398Y-79607971D01*
X127321493Y-79638923D01*
X127073874Y-79638923D01*
X128064350Y-79948447D02*
X127692921Y-79948447D01*
X127878636Y-79948447D02*
X127878636Y-79298447D01*
X127816731Y-79391304D01*
X127754826Y-79453209D01*
X127692921Y-79484161D01*
X128621493Y-79515114D02*
X128621493Y-79948447D01*
X128466731Y-79267495D02*
X128311969Y-79731780D01*
X128714350Y-79731780D01*
%TO.C,R15*%
X116872422Y-74737067D02*
X116655756Y-74427543D01*
X116500994Y-74737067D02*
X116500994Y-74087067D01*
X116748613Y-74087067D01*
X116810518Y-74118020D01*
X116841470Y-74148972D01*
X116872422Y-74210877D01*
X116872422Y-74303734D01*
X116841470Y-74365639D01*
X116810518Y-74396591D01*
X116748613Y-74427543D01*
X116500994Y-74427543D01*
X117491470Y-74737067D02*
X117120041Y-74737067D01*
X117305756Y-74737067D02*
X117305756Y-74087067D01*
X117243851Y-74179924D01*
X117181946Y-74241829D01*
X117120041Y-74272781D01*
X118079565Y-74087067D02*
X117770041Y-74087067D01*
X117739089Y-74396591D01*
X117770041Y-74365639D01*
X117831946Y-74334686D01*
X117986708Y-74334686D01*
X118048613Y-74365639D01*
X118079565Y-74396591D01*
X118110518Y-74458496D01*
X118110518Y-74613258D01*
X118079565Y-74675162D01*
X118048613Y-74706115D01*
X117986708Y-74737067D01*
X117831946Y-74737067D01*
X117770041Y-74706115D01*
X117739089Y-74675162D01*
%TO.C,C1*%
X143655666Y-65383142D02*
X143624714Y-65414095D01*
X143531857Y-65445047D01*
X143469952Y-65445047D01*
X143377095Y-65414095D01*
X143315190Y-65352190D01*
X143284238Y-65290285D01*
X143253285Y-65166476D01*
X143253285Y-65073619D01*
X143284238Y-64949809D01*
X143315190Y-64887904D01*
X143377095Y-64826000D01*
X143469952Y-64795047D01*
X143531857Y-64795047D01*
X143624714Y-64826000D01*
X143655666Y-64856952D01*
X144274714Y-65445047D02*
X143903285Y-65445047D01*
X144089000Y-65445047D02*
X144089000Y-64795047D01*
X144027095Y-64887904D01*
X143965190Y-64949809D01*
X143903285Y-64980761D01*
%TO.C,C2*%
X122535166Y-74660492D02*
X122504214Y-74691445D01*
X122411357Y-74722397D01*
X122349452Y-74722397D01*
X122256595Y-74691445D01*
X122194690Y-74629540D01*
X122163738Y-74567635D01*
X122132785Y-74443826D01*
X122132785Y-74350969D01*
X122163738Y-74227159D01*
X122194690Y-74165254D01*
X122256595Y-74103350D01*
X122349452Y-74072397D01*
X122411357Y-74072397D01*
X122504214Y-74103350D01*
X122535166Y-74134302D01*
X122782785Y-74134302D02*
X122813738Y-74103350D01*
X122875642Y-74072397D01*
X123030404Y-74072397D01*
X123092309Y-74103350D01*
X123123261Y-74134302D01*
X123154214Y-74196207D01*
X123154214Y-74258111D01*
X123123261Y-74350969D01*
X122751833Y-74722397D01*
X123154214Y-74722397D01*
%TO.C,C3*%
X122561366Y-72032467D02*
X122530414Y-72063420D01*
X122437557Y-72094372D01*
X122375652Y-72094372D01*
X122282795Y-72063420D01*
X122220890Y-72001515D01*
X122189938Y-71939610D01*
X122158985Y-71815801D01*
X122158985Y-71722944D01*
X122189938Y-71599134D01*
X122220890Y-71537229D01*
X122282795Y-71475325D01*
X122375652Y-71444372D01*
X122437557Y-71444372D01*
X122530414Y-71475325D01*
X122561366Y-71506277D01*
X122778033Y-71444372D02*
X123180414Y-71444372D01*
X122963747Y-71691991D01*
X123056604Y-71691991D01*
X123118509Y-71722944D01*
X123149461Y-71753896D01*
X123180414Y-71815801D01*
X123180414Y-71970563D01*
X123149461Y-72032467D01*
X123118509Y-72063420D01*
X123056604Y-72094372D01*
X122870890Y-72094372D01*
X122808985Y-72063420D01*
X122778033Y-72032467D01*
%TO.C,C4*%
X117151946Y-69455682D02*
X117120994Y-69486635D01*
X117028137Y-69517587D01*
X116966232Y-69517587D01*
X116873375Y-69486635D01*
X116811470Y-69424730D01*
X116780518Y-69362825D01*
X116749565Y-69239016D01*
X116749565Y-69146159D01*
X116780518Y-69022349D01*
X116811470Y-68960444D01*
X116873375Y-68898540D01*
X116966232Y-68867587D01*
X117028137Y-68867587D01*
X117120994Y-68898540D01*
X117151946Y-68929492D01*
X117709089Y-69084254D02*
X117709089Y-69517587D01*
X117554327Y-68836635D02*
X117399565Y-69300920D01*
X117801946Y-69300920D01*
%TO.C,C5*%
X133114446Y-79856542D02*
X133083494Y-79887495D01*
X132990637Y-79918447D01*
X132928732Y-79918447D01*
X132835875Y-79887495D01*
X132773970Y-79825590D01*
X132743018Y-79763685D01*
X132712065Y-79639876D01*
X132712065Y-79547019D01*
X132743018Y-79423209D01*
X132773970Y-79361304D01*
X132835875Y-79299400D01*
X132928732Y-79268447D01*
X132990637Y-79268447D01*
X133083494Y-79299400D01*
X133114446Y-79330352D01*
X133702541Y-79268447D02*
X133393018Y-79268447D01*
X133362065Y-79577971D01*
X133393018Y-79547019D01*
X133454922Y-79516066D01*
X133609684Y-79516066D01*
X133671589Y-79547019D01*
X133702541Y-79577971D01*
X133733494Y-79639876D01*
X133733494Y-79794638D01*
X133702541Y-79856542D01*
X133671589Y-79887495D01*
X133609684Y-79918447D01*
X133454922Y-79918447D01*
X133393018Y-79887495D01*
X133362065Y-79856542D01*
%TO.C,C7*%
X117151946Y-77299902D02*
X117120994Y-77330855D01*
X117028137Y-77361807D01*
X116966232Y-77361807D01*
X116873375Y-77330855D01*
X116811470Y-77268950D01*
X116780518Y-77207045D01*
X116749565Y-77083236D01*
X116749565Y-76990379D01*
X116780518Y-76866569D01*
X116811470Y-76804664D01*
X116873375Y-76742760D01*
X116966232Y-76711807D01*
X117028137Y-76711807D01*
X117120994Y-76742760D01*
X117151946Y-76773712D01*
X117368613Y-76711807D02*
X117801946Y-76711807D01*
X117523375Y-77361807D01*
%TO.C,C6*%
X122561366Y-77288517D02*
X122530414Y-77319470D01*
X122437557Y-77350422D01*
X122375652Y-77350422D01*
X122282795Y-77319470D01*
X122220890Y-77257565D01*
X122189938Y-77195660D01*
X122158985Y-77071851D01*
X122158985Y-76978994D01*
X122189938Y-76855184D01*
X122220890Y-76793279D01*
X122282795Y-76731375D01*
X122375652Y-76700422D01*
X122437557Y-76700422D01*
X122530414Y-76731375D01*
X122561366Y-76762327D01*
X123118509Y-76700422D02*
X122994700Y-76700422D01*
X122932795Y-76731375D01*
X122901842Y-76762327D01*
X122839938Y-76855184D01*
X122808985Y-76978994D01*
X122808985Y-77226613D01*
X122839938Y-77288517D01*
X122870890Y-77319470D01*
X122932795Y-77350422D01*
X123056604Y-77350422D01*
X123118509Y-77319470D01*
X123149461Y-77288517D01*
X123180414Y-77226613D01*
X123180414Y-77071851D01*
X123149461Y-77009946D01*
X123118509Y-76978994D01*
X123056604Y-76948041D01*
X122932795Y-76948041D01*
X122870890Y-76978994D01*
X122839938Y-77009946D01*
X122808985Y-77071851D01*
%TO.C,R16*%
X116872422Y-66892847D02*
X116655756Y-66583323D01*
X116500994Y-66892847D02*
X116500994Y-66242847D01*
X116748613Y-66242847D01*
X116810518Y-66273800D01*
X116841470Y-66304752D01*
X116872422Y-66366657D01*
X116872422Y-66459514D01*
X116841470Y-66521419D01*
X116810518Y-66552371D01*
X116748613Y-66583323D01*
X116500994Y-66583323D01*
X117491470Y-66892847D02*
X117120041Y-66892847D01*
X117305756Y-66892847D02*
X117305756Y-66242847D01*
X117243851Y-66335704D01*
X117181946Y-66397609D01*
X117120041Y-66428561D01*
X118048613Y-66242847D02*
X117924803Y-66242847D01*
X117862899Y-66273800D01*
X117831946Y-66304752D01*
X117770041Y-66397609D01*
X117739089Y-66521419D01*
X117739089Y-66769038D01*
X117770041Y-66830942D01*
X117800994Y-66861895D01*
X117862899Y-66892847D01*
X117986708Y-66892847D01*
X118048613Y-66861895D01*
X118079565Y-66830942D01*
X118110518Y-66769038D01*
X118110518Y-66614276D01*
X118079565Y-66552371D01*
X118048613Y-66521419D01*
X117986708Y-66490466D01*
X117862899Y-66490466D01*
X117800994Y-66521419D01*
X117770041Y-66552371D01*
X117739089Y-66614276D01*
%TD*%
M02*
